<?xml version="1.0" encoding="UTF-8" standalone="no"?>
<!DOCTYPE svg PUBLIC "-//W3C//DTD SVG 1.1//EN" "http://www.w3.org/Graphics/SVG/1.1/DTD/svg11.dtd">
<svg width="100%" height="100%" viewBox="0 0 512 512" version="1.1" xmlns="http://www.w3.org/2000/svg" xmlns:xlink="http://www.w3.org/1999/xlink" xml:space="preserve" xmlns:serif="http://www.serif.com/" style="fill-rule:evenodd;clip-rule:evenodd;stroke-linejoin:round;stroke-miterlimit:2;">
    <rect x="0" y="0" width="512" height="512" style="fill:white;fill-opacity:0;"/>
    <g id="Logo_Manchester_United.svg" transform="matrix(0.776608,0,0,0.776608,256,256)">
        <g transform="matrix(1,0,0,1,-305.009,-309.036)">
            <clipPath id="_clip1">
                <rect x="0" y="0" width="610.019" height="618.073"/>
            </clipPath>
            <g clip-path="url(#_clip1)">
                <g id="g2980" transform="matrix(6.90574,0,0,6.90574,-509.819,-3550.86)">
                    <g id="Layer-1" serif:id="Layer 1">
                        <g id="g29801" serif:id="g2980">
                            <g id="g2448" transform="matrix(0,1.25,1.25,0,122.361,600.05)">
                                <path id="path2450" d="M0,0C0.845,-0.292 2.913,-1.195 2.913,-3.408C2.913,-5.914 0.175,-6.758 0.087,-6.816L-0.175,-6.874C-0.175,-6.874 0,-4.719 0,-3.554C0,-2.36 -0.117,-0.32 -0.175,0L0,0"/>
                            </g>
                            <g id="g2452" transform="matrix(0,1.25,1.25,0,130.591,598.375)">
                                <path id="path2454" d="M0,0L0.058,0.524C1.66,-0.117 3.466,-1.195 3.466,-3.38C3.466,-5.476 2.243,-6.496 1.427,-6.963L1.223,-7.312C1.223,-7.312 1.078,-3.7 0,0"/>
                            </g>
                            <g id="g2456" transform="matrix(0,1.25,1.25,0,105.757,598.375)">
                                <path id="path2458" d="M0,0L0.058,-0.525C1.66,0.087 3.466,1.194 3.466,3.35C3.466,5.447 2.185,6.584 1.427,7.049L1.223,7.282C1.223,7.282 1.078,3.67 0,0"/>
                            </g>
                            <g id="g2460" transform="matrix(0,1.25,1.25,0,120.323,600.268)">
                                <path id="path2462" d="M0,0C0.495,-0.35 0.466,-0.583 0.466,-0.991C0.466,-1.195 0.641,-1.486 0.932,-1.486C1.165,-1.486 1.369,-1.282 1.369,-0.962C1.369,-0.204 0.35,0.349 -0.088,0.524C-0.088,0.524 -0.117,0.961 -0.117,1.078C-0.117,1.078 2.214,0.291 2.214,-1.748C2.214,-3.787 -0.088,-4.603 -0.088,-4.603C-0.088,-4.603 0,-2.884 0,-1.894L0,0" style="fill:rgb(255,242,0);"/>
                            </g>
                            <g id="g2464" transform="matrix(0,1.25,1.25,0,130.226,598.958)">
                                <path id="path2466" d="M0,0C0.378,-1.311 0.67,-2.272 0.932,-4.486C0.932,-4.486 1.165,-4.428 1.136,-3.933C1.136,-3.758 1.078,-3.728 1.078,-3.641C1.048,-3.524 1.194,-3.291 1.427,-3.321C1.602,-3.35 1.806,-3.496 1.806,-3.991C1.806,-4.486 1.398,-5.069 1.019,-5.359C1.019,-5.359 1.106,-5.651 1.106,-5.942C1.106,-5.942 2.447,-5.011 2.447,-3.146C2.447,-1.078 0.611,-0.32 0,0" style="fill:rgb(255,242,0);"/>
                            </g>
                            <g id="g2468" transform="matrix(0,1.25,1.25,0,128.515,600.596)">
                                <path id="path2470" d="M0,0C-0.32,0 -0.612,-0.087 -0.874,-0.262C-0.699,-0.99 -0.554,-1.807 -0.379,-3.03C-0.35,-3.03 -0.32,-3.03 -0.292,-3.059C-0.233,-2.972 -0.175,-2.826 -0.175,-2.564C-0.175,-2.389 -0.233,-2.36 -0.233,-2.272C-0.262,-2.156 -0.117,-1.923 0.116,-1.952C0.291,-1.981 0.495,-2.127 0.495,-2.622C0.495,-2.738 0.466,-2.884 0.437,-3C0.641,-2.942 0.845,-2.826 1.02,-2.68C1.106,-2.418 1.136,-2.098 1.136,-1.777C1.136,-1.107 0.961,-0.583 0.67,-0.146C0.466,-0.059 0.233,0 0,0" style="fill:rgb(255,223,0);"/>
                            </g>
                            <g id="g2472" transform="matrix(0,1.25,1.25,0,128.479,600.596)">
                                <path id="path2474" d="M0,0C-0.32,0 -0.612,-0.087 -0.874,-0.262C-0.699,-0.961 -0.554,-1.777 -0.408,-2.971C-0.35,-2.971 -0.32,-3 -0.262,-3C-0.204,-2.913 -0.175,-2.796 -0.175,-2.535C-0.175,-2.36 -0.233,-2.33 -0.233,-2.243C-0.262,-2.126 -0.117,-1.893 0.116,-1.923C0.291,-1.952 0.495,-2.098 0.495,-2.593C0.495,-2.709 0.466,-2.826 0.437,-2.971C0.67,-2.884 0.874,-2.768 1.048,-2.621C1.106,-2.36 1.136,-2.068 1.136,-1.748C1.136,-1.078 0.961,-0.583 0.699,-0.145C0.495,-0.058 0.262,0 0,0" style="fill:rgb(255,225,0);"/>
                            </g>
                            <g id="g2476" transform="matrix(0,1.25,1.25,0,128.479,600.596)">
                                <path id="path2478" d="M0,0C-0.32,0 -0.612,-0.117 -0.845,-0.292C-0.699,-0.99 -0.554,-1.777 -0.408,-2.942C-0.35,-2.971 -0.292,-2.971 -0.262,-2.971C-0.204,-2.913 -0.175,-2.768 -0.175,-2.535C-0.175,-2.36 -0.233,-2.33 -0.233,-2.243C-0.262,-2.126 -0.117,-1.893 0.116,-1.923C0.291,-1.952 0.495,-2.098 0.495,-2.593C0.495,-2.709 0.495,-2.826 0.437,-2.942C0.67,-2.855 0.874,-2.738 1.048,-2.593C1.106,-2.33 1.136,-2.039 1.136,-1.748C1.136,-1.107 0.961,-0.612 0.728,-0.204C0.495,-0.087 0.262,0 0,0" style="fill:rgb(255,227,0);"/>
                            </g>
                            <g id="g2480" transform="matrix(0,1.25,1.25,0,106.086,598.958)">
                                <path id="path2482" d="M0,0C0.378,1.34 0.67,2.272 0.932,4.515C0.932,4.515 1.165,4.427 1.136,3.961C1.136,3.757 1.078,3.728 1.078,3.67C1.048,3.524 1.194,3.321 1.427,3.349C1.602,3.349 1.806,3.496 1.806,3.991C1.806,4.486 1.398,5.069 1.019,5.36C1.019,5.36 1.106,5.651 1.106,5.972C1.106,5.972 2.447,5.01 2.447,3.146C2.447,1.078 0.611,0.32 0,0" style="fill:rgb(255,242,0);"/>
                            </g>
                            <g id="g2484" transform="matrix(0,1.25,1.25,0,117.92,585.266)">
                                <path id="path2486" d="M0,0C0,7.078 -4.34,14.943 -10.632,20.478C-11.302,21.06 -12.613,22.08 -12.613,24.498C-12.613,26.887 -10.399,30.09 -6.437,29.712C-3.524,29.42 3.03,25.284 7.05,18.177C11.099,11.069 11.972,4.544 11.972,0C11.972,-4.545 11.099,-11.099 7.05,-18.206C3.03,-25.285 -3.524,-29.451 -6.437,-29.712C-10.399,-30.091 -12.613,-26.916 -12.613,-24.498C-12.613,-22.11 -11.302,-21.09 -10.632,-20.507C-4.34,-14.973 0,-7.108 0,0" style="fill:rgb(255,242,0);"/>
                            </g>
                            <g id="g2488" transform="matrix(0,1.25,1.25,0,117.92,584.976)">
                                <path id="path2490" d="M0,0C0,3.437 -1.048,7.049 -2.854,10.516C-4.719,14.099 -7.399,17.507 -10.574,20.274C-10.923,20.595 -11.419,21.002 -11.856,21.672C-12.293,22.342 -12.613,23.216 -12.613,24.498L-12.613,24.906C-12.496,26.071 -11.943,27.324 -10.953,28.314C-9.991,29.304 -8.593,29.974 -6.816,29.974C-6.612,29.974 -6.409,29.974 -6.175,29.945C-4.515,29.8 -1.689,28.401 1.195,25.954C3.438,24.032 5.71,21.468 7.516,18.293C9.555,14.739 10.778,11.302 11.507,8.185C12.235,5.069 12.439,2.272 12.439,0C12.439,-2.302 12.235,-5.098 11.507,-8.215C10.778,-11.302 9.555,-14.74 7.516,-18.323C5.71,-21.469 3.438,-24.062 1.195,-25.984C-1.689,-28.431 -4.515,-29.829 -6.175,-29.974C-6.409,-30.004 -6.612,-30.004 -6.816,-30.004C-8.593,-30.004 -9.991,-29.304 -10.953,-28.343C-11.943,-27.353 -12.496,-26.071 -12.613,-24.935L-12.613,-24.498C-12.613,-23.245 -12.293,-22.342 -11.856,-21.672C-11.419,-21.032 -10.923,-20.624 -10.574,-20.304C-7.399,-17.507 -4.719,-14.128 -2.854,-10.516C-1.048,-7.079 0,-3.438 0,0ZM0.495,0C0.495,-3.525 -0.553,-7.254 -2.389,-10.749C-4.282,-14.42 -6.991,-17.857 -10.225,-20.682C-10.574,-20.974 -11.04,-21.382 -11.419,-21.964C-11.798,-22.547 -12.118,-23.362 -12.118,-24.498C-12.118,-24.644 -12.118,-24.76 -12.089,-24.877C-12.001,-25.926 -11.477,-27.091 -10.603,-27.965C-9.7,-28.868 -8.447,-29.509 -6.816,-29.509C-6.612,-29.509 -6.409,-29.479 -6.204,-29.479C-4.632,-29.334 -1.923,-27.965 0.845,-25.605C3.058,-23.712 5.301,-21.177 7.079,-18.061C9.089,-14.536 10.283,-11.157 11.011,-8.098C11.739,-5.011 11.943,-2.272 11.943,0C11.943,2.243 11.739,5.01 11.011,8.069C10.283,11.128 9.089,14.536 7.079,18.06C5.301,21.148 3.058,23.683 0.845,25.576C-1.923,27.964 -4.632,29.304 -6.204,29.45C-6.409,29.479 -6.612,29.479 -6.816,29.479C-8.447,29.479 -9.7,28.838 -10.603,27.964C-11.477,27.061 -12.001,25.896 -12.089,24.847C-12.118,24.731 -12.118,24.614 -12.118,24.498C-12.118,23.333 -11.798,22.546 -11.419,21.935C-11.04,21.352 -10.574,20.944 -10.225,20.653C-6.991,17.827 -4.282,14.389 -2.389,10.748C-0.553,7.224 0.495,3.524 0.495,0"/>
                            </g>
                            <g id="g2492" transform="matrix(0,1.25,1.25,0,91.3025,572.741)">
                                <path id="path2494" d="M0,0L-0.088,-0.087C-0.728,-0.641 -1.631,-1.428 -1.631,-3.263C-1.631,-4.34 -1.048,-5.564 -0.146,-6.379C0.525,-6.991 1.69,-7.69 3.466,-7.515C5.913,-7.282 12.263,-3.379 16.196,3.525C19.371,9.089 20.974,15.06 20.974,21.235C20.974,27.382 19.371,33.353 16.196,38.917C12.263,45.85 5.913,49.724 3.466,49.958C1.69,50.132 0.525,49.433 -0.146,48.821C-1.048,48.035 -1.631,46.811 -1.631,45.733C-1.631,43.869 -0.728,43.083 -0.088,42.529L0,42.442C6.787,36.5 10.982,28.372 10.982,21.235C10.982,14.07 6.787,5.943 0,0" style="fill:rgb(226,14,14);"/>
                            </g>
                            <g id="g2496" transform="matrix(0,1.25,1.25,0,146.43,562.763)">
                                <path id="path2498" d="M0,0C-3.408,0 -6.175,2.768 -6.175,6.146C-6.175,9.555 -3.408,12.322 0,12.322C3.408,12.322 6.176,9.555 6.176,6.146C6.176,2.768 3.408,0 0,0" style="fill:rgb(255,242,0);"/>
                            </g>
                            <g id="g2500" transform="matrix(0,1.25,1.25,0,146.102,562.763)">
                                <path id="path2502" d="M0,0C-1.776,0 -3.379,0.728 -4.544,1.893C-5.709,3.03 -6.409,4.661 -6.409,6.409C-6.409,8.186 -5.709,9.817 -4.544,10.953C-3.379,12.118 -1.776,12.846 0,12.846C1.777,12.846 3.379,12.118 4.544,10.953C5.709,9.817 6.438,8.186 6.438,6.409C6.438,4.661 5.709,3.03 4.544,1.893C3.379,0.728 1.777,0 0,0ZM0,0.495C1.632,0.495 3.117,1.165 4.195,2.243C5.273,3.321 5.913,4.778 5.913,6.409C5.913,8.069 5.273,9.525 4.195,10.604C3.117,11.682 1.632,12.322 0,12.322C-1.631,12.322 -3.116,11.682 -4.166,10.604C-5.244,9.525 -5.914,8.069 -5.914,6.409C-5.914,4.778 -5.244,3.321 -4.166,2.243C-3.116,1.165 -1.631,0.495 0,0.495"/>
                            </g>
                            <g id="g2504" transform="matrix(0,1.25,1.25,0,74.1162,562.801)">
                                <path id="path2506" d="M0,0C-3.408,0 -6.176,2.767 -6.176,6.175C-6.176,9.583 -3.408,12.351 0,12.351C3.408,12.351 6.146,9.583 6.146,6.175C6.146,2.767 3.408,0 0,0" style="fill:rgb(255,242,0);"/>
                            </g>
                            <g id="g2508" transform="matrix(0,1.25,1.25,0,73.825,562.801)">
                                <path id="path2510" d="M0,0C-1.777,0 -3.379,0.699 -4.544,1.864C-5.709,3.029 -6.438,4.631 -6.438,6.408C-6.438,8.185 -5.709,9.788 -4.544,10.953C-3.379,12.118 -1.777,12.846 0,12.846C1.748,12.846 3.379,12.118 4.544,10.953C5.68,9.788 6.409,8.185 6.409,6.408C6.409,4.631 5.68,3.029 4.544,1.864C3.379,0.699 1.748,0 0,0ZM0,0.495C1.631,0.495 3.088,1.164 4.166,2.242C5.244,3.291 5.914,4.777 5.914,6.408C5.914,8.04 5.244,9.525 4.166,10.603C3.088,11.681 1.631,12.321 0,12.321C-1.632,12.321 -3.117,11.681 -4.195,10.603C-5.273,9.525 -5.913,8.04 -5.913,6.408C-5.913,4.777 -5.273,3.291 -4.195,2.242C-3.117,1.164 -1.632,0.495 0,0.495"/>
                            </g>
                            <g id="g2512" transform="matrix(0,1.25,1.25,0,156.225,542.046)">
                                <path id="path2514" d="M0,0L-1.66,0.058C-1.282,0.553 -1.253,1.514 -1.865,2.068C-2.127,2.33 -2.563,2.476 -3,2.447C-3.496,2.418 -3.991,2.214 -4.34,1.835C-6.379,-0.234 -8.389,-2.068 -8.389,-2.068C-8.71,-2.272 -8.914,-2.563 -9.001,-2.738C-9.118,-3 -9.526,-3.903 -8.477,-4.573C-7.544,-5.185 -6.205,-5.098 -5.71,-4.981L-3.058,-3.03C-2.214,-2.389 -0.437,-0.495 0,0" style="fill:rgb(0,0,15);fill-opacity:0.94;"/>
                            </g>
                            <g id="g2516" transform="matrix(0,1.25,1.25,0,104.338,520.562)">
                                <path id="path2518" d="M0,0C-0.816,2.447 -1.486,4.66 -1.777,7.69L0,0" style="fill:rgb(35,31,32);"/>
                            </g>
                            <g id="g2520" transform="matrix(0,1.25,1.25,0,104.338,520.562)">
                                <path id="path2522" d="M0,0C-0.816,2.447 -1.486,4.66 -1.748,7.69L-2.01,8.156C-3.35,6.467 -4.253,4.777 -4.253,3.117C-4.253,2.068 -3.525,-0.059 0.204,-0.525L0,0"/>
                            </g>
                            <g id="g2524" transform="matrix(0,1.25,1.25,0,131.501,520.562)">
                                <path id="path2526" d="M0,0C-0.816,-2.447 -1.486,-4.69 -1.748,-7.691L-2.01,-8.156C-3.35,-6.467 -4.253,-4.806 -4.253,-3.146C-4.253,-2.098 -3.525,0.029 0.204,0.495L0,0"/>
                            </g>
                            <g id="g2528" transform="matrix(0,1.25,1.25,0,115.408,517.905)">
                                <path id="path2530" d="M0,0C-0.029,0.495 -0.058,1.631 -0.058,2.098C-0.058,2.563 0,3.816 0.029,4.107L0,0" style="fill:rgb(35,31,32);"/>
                            </g>
                            <g id="g2532" transform="matrix(0,1.25,1.25,0,114.46,518.195)">
                                <path id="path2534" d="M0,0C-2.359,1.223 -3.204,2.36 -3.204,2.971C-3.204,3.758 -1.981,4.661 -0.378,5.389L0,5.534L-0.058,4.923C-0.146,4.486 -0.146,3.321 -0.146,2.855C-0.146,2.389 -0.146,1.398 -0.116,0.787L0,0"/>
                            </g>
                            <g id="g2536" transform="matrix(0,1.25,1.25,0,111.438,588.107)">
                                <path id="path2538" d="M0,0L4.108,-1.107L-0.845,-3.175L-1.195,-4.428L4.632,-6.001L4.981,-4.602L0.845,-3.496L5.855,-1.398L6.176,-0.175L0.379,1.398L0,0" style="fill:rgb(255,242,0);"/>
                            </g>
                            <g id="g2540" transform="matrix(0,1.25,1.25,0,117.41,589.017)">
                                <path id="path2542" d="M0,0L-0.087,-1.573L5.943,-1.894L6.03,-0.292L0,0" style="fill:rgb(255,242,0);"/>
                            </g>
                            <g id="g2544" transform="matrix(0,1.25,1.25,0,119.194,588.945)">
                                <path id="path2546" d="M0,0L0.787,0.117L0.553,1.807L5.739,2.535L5.506,4.108L0.35,3.38L0.117,5.04L-0.67,4.923L0,0" style="fill:rgb(255,242,0);"/>
                            </g>
                            <g id="g2548" transform="matrix(0,1.25,1.25,0,139.585,585.885)">
                                <path id="path2550" d="M0,0C1.34,0.787 2.331,0.612 3,-0.553L3.322,-1.107L-0.495,-3.321L-0.844,-2.738C-1.66,-1.311 -0.961,-0.525 0,0ZM-1.602,-3.058L-0.408,-5.098L4.836,-2.097L3.642,-0.058C2.447,2.039 0.612,2.243 -0.874,1.428C-2.621,0.408 -2.651,-1.223 -1.602,-3.058" style="fill:rgb(255,242,0);"/>
                            </g>
                            <g id="g2552" transform="matrix(0,1.25,1.25,0,130.955,593.168)">
                                <path id="path2554" d="M0,0L-1.864,-0.583L-2.447,1.195L-3.204,0.932L-2.621,-0.845L-4.194,-1.34L-4.806,0.467L-5.564,0.233L-4.457,-3.116L1.253,-1.253L0.059,2.447L-0.699,2.185L0,0" style="fill:rgb(255,242,0);"/>
                            </g>
                            <g id="g2556" transform="matrix(0,1.25,1.25,0,102.335,584.866)">
                                <path id="path2558" d="M0,0L3.233,-1.806C4.195,-2.33 4.806,-2.884 4.283,-3.787C3.787,-4.69 3.03,-4.486 2.04,-3.933L-1.194,-2.156L-1.981,-3.583L1.428,-5.476C3.292,-6.525 4.457,-5.214 5.04,-4.195C5.623,-3.088 6.088,-1.486 4.224,-0.467L0.787,1.428L0,0" style="fill:rgb(255,242,0);"/>
                            </g>
                            <g id="g2560" transform="matrix(0,1.25,1.25,0,101.06,540.625)">
                                <path id="path2562" d="M0,0L28.227,0L36.878,13.487L28.227,26.974L0.059,26.974C-0.32,26.566 -1.165,25.663 -1.601,24.935L-1.601,1.952C-1.194,1.369 -0.203,0.175 0,0" style="fill:rgb(255,242,0);"/>
                            </g>
                            <g id="g2564" transform="matrix(0,1.25,1.25,0,101.351,540.625)">
                                <path id="path2566" d="M0,0L28.081,0L36.587,13.254L28.081,26.479L0.059,26.479L0.059,27.003L28.227,26.974L28.343,26.974L28.431,26.858L37.112,13.37L37.199,13.254L37.112,13.108L28.431,-0.378L28.343,-0.495L0,-0.495L0,0"/>
                            </g>
                            <g id="g2568" transform="matrix(0,1.25,1.25,0,134.559,540.953)">
                                <path id="path2570" d="M0,0C-0.116,-0.116 -0.029,-0.029 -0.146,-0.146C-0.583,-0.611 -1.281,-1.369 -1.631,-1.981L-2.068,-1.718C-1.66,-1.078 -0.961,-0.291 -0.524,0.204C-0.524,0.204 -0.583,0.146 -0.408,0.35L0,0" style="fill:rgb(35,31,32);"/>
                            </g>
                            <rect id="path2572" x="103.5" y="538.295" width="28.729" height="0.656" style="fill-rule:nonzero;"/>
                            <g id="g2574" transform="matrix(0,1.25,1.25,0,103.683,538.877)">
                                <path id="path2576" d="M0,0C0.204,-0.292 0.525,-0.67 0.815,-1.02C1.137,-1.457 1.485,-1.806 1.573,-1.923L1.253,-2.301C1.107,-2.185 0.757,-1.777 0.408,-1.34C0.087,-0.962 -0.233,-0.583 -0.408,-0.292L0,0" style="fill:rgb(35,31,32);"/>
                            </g>
                            <g id="g2578" transform="matrix(0,1.25,1.25,0,119.084,555.737)">
                                <path id="path2580" d="M0,0C-0.058,-0.087 0.204,-0.408 0.466,-0.583C0.699,-0.728 1.02,-0.757 1.136,-0.553C1.253,-0.349 1.107,-0.058 0.728,0C0.495,0.029 0.029,0.117 0,0ZM0.728,-2.563C1.107,-2.505 1.253,-2.243 1.136,-2.009C1.02,-1.806 0.699,-1.835 0.466,-2.009C0.204,-2.156 -0.058,-2.476 0,-2.563C0.029,-2.651 0.495,-2.592 0.728,-2.563ZM4.457,-1.223C3.729,-0.757 2.942,-0.583 2.942,-0.583L2.942,-1.864C2.942,-1.864 3.729,-1.66 4.457,-1.223ZM-1.107,-0.99L-2.942,0.059L-1.107,0.874L-1.107,2.214C-0.35,1.399 0.816,1.078 1.573,1.078L2.418,1.078C2.768,1.078 3.35,0.904 3.35,0.904C3.35,0.904 4.253,2.069 4.399,2.243C4.457,2.33 4.515,2.418 4.661,2.36C4.923,2.272 5.272,1.457 5.36,1.369C5.506,1.195 5.593,1.165 5.767,1.195C5.914,1.253 5.942,1.399 5.826,1.719C5.739,2.01 5.389,2.651 5.185,3.205C4.952,3.729 4.981,4.457 4.981,4.457L3.961,4.457L3.961,2.418L0.699,2.418L0.145,2.069L-1.457,2.972L0.145,3.845L0.699,3.496L2.418,3.496L2.418,4.545L0.699,4.545L0.145,4.166L-1.457,5.069L0.145,5.972L0.699,5.623L2.418,5.623L2.418,6.641L0.699,6.641L0.145,6.293L-1.457,7.166L0.145,8.069L0.699,7.72L3.961,7.72L3.961,5.71L5.476,5.71C5.914,6.146 6.874,6.583 7.486,6.583C8.069,6.583 8.302,6.205 8.302,6.205C8.768,6.351 8.972,6.321 9.38,6.263C9.817,6.205 10.487,5.681 10.487,5.681L18.264,5.681C18.818,5.681 18.759,4.457 18.294,4.457L10.662,4.457C9.904,3.758 9.322,1.865 9.322,1.865C9.992,1.165 11.215,0.729 11.215,0.729C11.418,1.049 11.215,1.515 11.011,1.69C10.807,1.865 10.748,2.214 10.865,2.418C11.011,2.622 11.04,2.68 11.36,2.593C11.652,2.535 12.176,2.389 12.526,2.389C12.875,2.389 12.817,2.826 12.846,3.117C12.875,3.729 13.574,3.845 13.953,3.787C14.332,3.729 15.148,3.554 15.672,3.554C16.167,3.554 16.691,3.583 16.982,3.642C17.245,3.67 17.565,3.787 17.915,3.758C18.41,3.729 18.469,3.438 18.177,3.117C17.857,2.826 13.313,-1.456 13.313,-1.456C14.244,-1.747 15.817,-0.553 16.312,-0.174C16.779,0.204 17.157,0.175 17.477,-0.145C17.827,-0.495 18.002,-1.136 18.294,-1.252C18.614,-1.369 19.517,-0.932 20.682,-0.058C21.818,0.845 22.605,-1.078 22.808,-2.214C23.041,-3.379 22.255,-3.379 21.818,-3.291C21.381,-3.204 21.148,-3.204 20.74,-3.233C20.362,-3.262 19.837,-3.612 19.197,-4.107C18.555,-4.602 17.973,-4.602 16.487,-4.399C15.002,-4.194 14.069,-4.252 14.069,-4.252C14.069,-4.252 14.099,-4.748 14.069,-5.476C14.041,-6.233 13.603,-6.845 11.826,-6.903C10.02,-6.933 5.767,-6.991 5.331,-7.107C4.864,-7.224 4.777,-7.69 4.748,-7.894C4.689,-8.127 4.369,-8.127 4.282,-7.923C4.02,-7.398 3.35,-6.758 2.942,-6.991C2.534,-7.224 2.621,-8.156 2.942,-8.797C3.233,-9.438 3.903,-10.078 4.078,-10.253C4.282,-10.428 4.282,-10.574 4.078,-10.545C3.874,-10.545 2.913,-10.661 2.563,-10.748C2.214,-10.836 1.573,-11.156 1.398,-11.244C1.223,-11.36 1.165,-11.244 1.223,-11.069C1.311,-10.894 1.456,-10.545 1.544,-10.166C1.66,-9.816 1.485,-9.467 1.136,-9.292C0.816,-9.146 0.087,-8.797 -0.262,-8.651C-0.583,-8.476 -0.495,-8.185 -0.467,-7.981C-0.408,-7.748 -0.262,-7.544 -0.175,-7.34C-0.087,-7.137 -0.117,-6.962 -0.204,-6.903C-0.32,-6.845 -0.35,-6.758 -0.612,-6.642C-0.874,-6.525 -0.757,-6.35 -0.641,-6.35C3.029,-5.738 3.175,-4.136 3.175,-4.136C3.816,-4.369 4.777,-4.952 5.011,-5.068C5.243,-5.214 5.564,-5.272 5.826,-5.301C6.088,-5.33 8.505,-5.214 9.38,-5.039C10.283,-4.864 9.933,-4.34 9.671,-4.165C9.38,-3.99 8.273,-3.466 8.273,-3.466C8.273,-3.466 7.952,-3.321 7.69,-3.321C7.457,-3.321 6.874,-3.757 6.7,-3.874C6.554,-3.961 6.204,-4.34 5.36,-4.34C4.515,-4.34 3.903,-3.582 3.671,-3.321C3.466,-3.029 3.146,-3.029 2.971,-3.059C2.301,-3.204 0.932,-3.903 0.408,-4.224C-0.145,-4.573 -1.136,-5.243 -1.136,-5.243L-1.136,-3.845L-2.971,-2.971L-1.136,-2.009L-1.107,-0.99ZM8.156,4.457L7.107,4.457C7.107,4.457 6.671,4.166 6.671,3.467C6.671,2.797 6.874,2.389 7.049,2.389C7.34,2.389 8.156,3 8.156,4.457" style="fill:rgb(226,14,14);"/>
                            </g>
                            <rect id="path2582" x="102.371" y="549.437" width="31.096" height="2.111" style="fill:rgb(226,14,14);fill-rule:nonzero;"/>
                            <rect id="path2584" x="102.371" y="539.897" width="31.096" height="8.448" style="fill:rgb(226,14,14);fill-rule:nonzero;"/>
                            <g id="g2586" transform="matrix(0,1.25,1.25,0,127.35,548.6)">
                                <path id="path2588" d="M0,0L-1.165,0L-1.165,-1.806L-1.894,-1.806L-1.894,-0.32L-5.156,-0.32L-5.156,-1.69L-6.059,-2.156L-5.156,-2.622L-5.156,-3.961L-1.894,-3.961L-1.894,-2.476L-1.165,-2.476L-1.165,-6.03L-1.894,-6.03L-1.894,-4.544L-5.156,-4.544L-5.156,-5.914L-6.059,-6.379L-5.156,-6.816L-5.156,-8.186L-1.894,-8.186L-1.894,-6.7L-1.165,-6.7L-1.165,-10.312L-1.894,-10.312L-1.894,-8.827L-5.156,-8.827L-5.156,-10.195L-6.059,-10.662L-5.156,-11.128L-5.156,-12.468L-1.894,-12.468L-1.894,-10.982L-1.165,-10.982L-1.136,-13.837L-1.807,-16.691L0,-16.109L0,0" style="fill:rgb(255,242,0);"/>
                            </g>
                            <g id="g2590" transform="matrix(0,1.25,1.25,0,107.724,546.16)">
                                <path id="path2592" d="M0,0L0.466,1.893L-2.418,2.913L-3.146,2.913L0,0" style="fill:rgb(255,242,0);"/>
                            </g>
                            <g id="g2594" transform="matrix(0,1.25,1.25,0,113.476,518.122)">
                                <path id="path2596" d="M0,0C0.262,-2.971 0.903,-4.777 1.69,-7.195C0.67,-6.991 0.058,-6.758 -0.553,-6.35C-0.029,-6.379 0.553,-5.942 0.553,-5.068C0.553,-4.194 0.058,-3.729 -0.262,-3.729C-0.553,-3.729 -0.99,-3.903 -0.99,-4.369C-0.99,-4.835 -0.641,-4.952 -0.525,-4.894C-0.378,-4.864 -0.35,-4.981 -0.32,-5.097C-0.291,-5.243 -0.495,-5.622 -0.961,-5.476C-1.456,-5.33 -1.748,-4.719 -1.748,-3.961C-1.748,-3.961 -1.806,-2.214 0,0" style="fill:rgb(255,242,0);"/>
                            </g>
                            <g id="g2598" transform="matrix(0,1.25,1.25,0,131.355,520.271)">
                                <path id="path2600" d="M0,0C-0.816,-2.418 -1.427,-4.311 -1.689,-7.253C-2.651,-5.914 -3.437,-4.631 -3.437,-3.233C-3.437,-2.505 -3.175,-1.893 -2.651,-1.748C-2.184,-1.602 -1.981,-1.981 -2.009,-2.097C-2.068,-2.243 -2.097,-2.33 -2.214,-2.301C-2.359,-2.272 -2.679,-2.359 -2.679,-2.826C-2.679,-3.291 -2.243,-3.496 -1.951,-3.496C-1.66,-3.496 -1.165,-3 -1.165,-2.126C-1.165,-1.281 -1.718,-0.845 -2.243,-0.874C-1.66,-0.436 -1.019,-0.175 0,0" style="fill:rgb(255,242,0);"/>
                            </g>
                            <g id="g2602" transform="matrix(0,1.25,1.25,0,115.735,517.431)">
                                <path id="path2604" d="M0,0C0.145,-0.087 0.233,-0.145 0.378,-0.233C0.35,0.262 0.32,1.398 0.32,1.835C0.32,2.301 0.378,3.524 0.408,3.816C-0.612,3.349 -2.04,2.534 -2.04,1.951C-2.04,1.835 -2.098,1.573 -1.544,1.106C-1.544,1.106 -1.311,1.048 -1.34,1.34C-1.398,1.718 -1.02,1.864 -0.816,1.835C-0.35,1.776 0.087,1.223 0.087,0.699C0.087,0.175 0,0 0,0" style="fill:rgb(255,242,0);"/>
                            </g>
                            <g id="g2606" transform="matrix(0,1.25,1.25,0,83.5825,538.222)">
                                <path id="path2608" d="M0,0L-2.651,1.952C-3.147,2.069 -4.486,2.156 -5.418,1.544C-6.467,0.845 -6.06,-0.058 -5.943,-0.32C-5.855,-0.466 -5.651,-0.786 -5.331,-0.961C-5.331,-0.961 -3.263,-2.854 -1.253,-4.922C-0.962,-5.185 -0.437,-5.534 0.058,-5.564C0.495,-5.564 0.932,-5.389 1.223,-5.155C1.806,-4.573 1.776,-3.582 1.398,-3.087L3.058,-3.058C2.621,-2.534 0.844,-0.669 0,0"/>
                            </g>
                            <g id="g2610" transform="matrix(0,1.25,1.25,0,117.92,533.38)">
                                <path id="path2612" d="M0,0C0,11.098 10.429,17.419 12.264,18.788C15.526,21.235 18.177,24.236 17.303,27.702C16.021,32.829 8.447,32.538 8.447,32.538C7.544,31.314 6.438,29.217 1.02,25.401C-4.282,21.643 -12.176,13.166 -12.176,0C-12.176,-13.196 -4.282,-21.672 1.02,-25.43C6.438,-29.246 7.544,-31.344 8.447,-32.567C8.447,-32.567 16.021,-32.829 17.303,-27.731C18.177,-24.265 15.526,-21.265 12.264,-18.818C10.429,-17.449 0,-11.128 0,0" style="fill:rgb(255,242,0);"/>
                            </g>
                            <g id="g2614" transform="matrix(0,1.25,1.25,0,117.92,533.088)">
                                <path id="path2616" d="M0,0C0,10.312 8.855,16.545 11.739,18.555C12.002,18.73 12.205,18.905 12.351,18.992C13.953,20.216 15.409,21.556 16.371,23.013C17.274,24.439 17.711,25.984 17.303,27.644C16.138,32.188 9.787,32.305 8.797,32.305C8.739,32.188 8.652,32.101 8.594,31.985C7.69,30.702 6.263,28.634 1.398,25.197C-1.66,23.041 -5.564,19.313 -8.302,14.011C-10.312,10.166 -11.681,5.505 -11.681,0C-11.681,-5.506 -10.312,-10.196 -8.302,-14.041C-5.564,-19.342 -1.66,-23.071 1.398,-25.197C6.263,-28.634 7.69,-30.703 8.594,-32.014C8.652,-32.101 8.739,-32.217 8.797,-32.305C9.787,-32.334 16.138,-32.217 17.303,-27.673C17.711,-26.013 17.274,-24.469 16.371,-23.013C15.409,-21.556 13.953,-20.216 12.351,-19.022C12.205,-18.906 12.002,-18.759 11.739,-18.585C8.855,-16.546 0,-10.341 0,0ZM0.495,0C0.495,-10.079 9.205,-16.168 12.03,-18.177C12.293,-18.352 12.497,-18.469 12.642,-18.614C14.303,-19.837 15.818,-21.236 16.779,-22.75C17.798,-24.295 18.235,-25.984 17.798,-27.79C16.429,-33.092 8.68,-32.829 8.68,-32.829L8.535,-32.829L8.477,-32.713C8.36,-32.567 8.273,-32.451 8.156,-32.276C7.312,-31.024 5.913,-29.013 1.107,-25.635C-2.01,-23.45 -5.972,-19.663 -8.768,-14.273C-10.778,-10.37 -12.205,-5.593 -12.205,0C-12.205,5.592 -10.778,10.341 -8.768,14.244C-5.972,19.633 -2.01,23.42 1.107,25.604C5.913,28.984 7.312,31.023 8.156,32.275C8.273,32.421 8.36,32.567 8.477,32.683L8.535,32.8L8.68,32.8C8.68,32.8 16.429,33.091 17.798,27.76C18.235,25.954 17.798,24.264 16.779,22.721C15.818,21.206 14.303,19.837 12.642,18.585C12.497,18.468 12.293,18.322 12.03,18.147C9.205,16.167 0.495,10.05 0.495,0"/>
                            </g>
                            <g id="g2618" transform="matrix(0,1.25,1.25,0,117.92,532.141)">
                                <path id="path2620" d="M0,0C0,10.69 9.089,17.07 12.089,19.167C12.322,19.313 12.526,19.458 12.672,19.575C16.429,22.401 17.973,24.993 17.332,27.469C16.429,31.052 11.507,31.489 10.02,31.547L9.962,31.547L9.934,31.489C9.059,30.237 7.603,28.139 2.563,24.585C-0.437,22.488 -10.195,14.448 -10.195,0C-10.195,-14.478 -0.408,-22.488 2.563,-24.615C7.545,-28.139 9.089,-30.324 9.904,-31.519L9.934,-31.547L9.992,-31.547C11.477,-31.519 16.429,-31.052 17.332,-27.499C17.973,-25.023 16.429,-22.43 12.672,-19.604C12.526,-19.488 12.322,-19.342 12.089,-19.167C9.089,-17.099 0,-10.72 0,0" style="fill:rgb(226,14,14);"/>
                            </g>
                            <g id="g2622" transform="matrix(0,1.25,1.25,0,89.1175,537.385)">
                                <path id="path2624" d="M0,0L1.339,-1.106L5.651,0.99L4.194,-3.524L5.33,-4.486L9.205,0.145L8.389,0.845L5.651,-2.418L7.049,1.952L6.525,2.418L2.33,0.32L5.097,3.612L3.874,4.603L0,0" style="fill:rgb(255,242,0);"/>
                            </g>
                            <g id="g2626" transform="matrix(0,1.25,1.25,0,96.4,536.256)">
                                <path id="path2628" d="M0,0L1.107,-1.048L-0.961,-2.098L0,0ZM-2.738,-2.418L-1.631,-3.466L4.108,-0.553L3.35,0.145L1.835,-0.641L0.321,0.757L0.991,2.33L-0.233,3.496L-2.738,-2.418" style="fill:rgb(255,242,0);"/>
                            </g>
                            <g id="g2630" transform="matrix(0,1.25,1.25,0,102.189,526.025)">
                                <path id="path2632" d="M0,0L3.612,2.243L1.718,-2.796L2.447,-3.903L7.545,-0.728L6.787,0.495L3.146,-1.776L5.01,3.321L4.341,4.399L-0.758,1.224L0,0" style="fill:rgb(255,242,0);"/>
                            </g>
                            <g id="g2634" transform="matrix(0,1.25,1.25,0,126.003,529.702)">
                                <path id="path2636" d="M0,0L-1.835,0.641L-1.224,2.418L-1.981,2.68L-2.593,0.903L-4.166,1.427L-3.525,3.263L-4.282,3.524L-5.448,0.203L0.262,-1.777L1.514,1.893L0.757,2.156L0,0" style="fill:rgb(255,242,0);"/>
                            </g>
                            <g id="g2638" transform="matrix(0,1.25,1.25,0,138.893,529.228)">
                                <path id="path2640" d="M0,0L0.612,-0.554L1.748,0.728L5.622,-2.768L6.671,-1.602L2.796,1.893L3.933,3.146L3.321,3.67L0,0" style="fill:rgb(255,242,0);"/>
                            </g>
                            <g id="g2642" transform="matrix(0,1.25,1.25,0,141.041,540.552)">
                                <path id="path2644" d="M0,0L-1.253,1.486L0.175,2.709L-0.35,3.321L-1.777,2.126L-2.855,3.379L-1.369,4.632L-1.864,5.243L-4.573,2.971L-0.699,-1.631L2.272,0.845L1.748,1.486L0,0" style="fill:rgb(255,242,0);"/>
                            </g>
                            <g id="g2646" transform="matrix(0,1.25,1.25,0,149.78,542.483)">
                                <path id="path2648" d="M0,0C0.466,0.408 1.019,0.408 1.427,-0.059C1.864,-0.554 1.776,-1.137 1.281,-1.602L0.961,-1.893L-0.408,-0.35L0,0ZM2.942,-0.816C2.971,-0.787 3.437,0.116 2.505,1.136C1.747,1.981 0.699,1.718 -0.292,0.816L-2.127,-0.816L1.922,-5.302L3.087,-4.253L1.486,-2.476L2.068,-1.952L4.602,-3.058L5.68,-1.719L2.942,-0.816" style="fill:rgb(255,242,0);"/>
                            </g>
                            <g id="g2650" transform="matrix(0,1.25,1.25,0,120.431,522.273)">
                                <path id="path2652" d="M0,0L2.476,-0.029L2.418,-2.388L-0.029,-2.359L-0.058,-3.932L5.943,-4.049L5.972,-2.447L3.233,-2.417L3.263,-0.029L6.03,-0.087L6.059,1.486L0.029,1.602L0,0" style="fill:rgb(255,242,0);"/>
                            </g>
                            <g id="g2654" transform="matrix(0,1.25,1.25,0,131.174,533.452)">
                                <path id="path2656" d="M0,0C0.699,1.107 0.583,2.36 -0.378,2.913C-1.048,3.35 -1.573,3.35 -2.563,2.855C-2.854,2.709 -3.058,2.534 -3.321,2.418C-3.729,2.214 -4.049,2.01 -4.369,2.185C-4.719,2.418 -4.748,2.884 -4.486,3.321C-4.194,3.787 -3.757,3.991 -3.437,4.078L-3.729,4.806C-4.34,4.573 -4.864,4.253 -5.33,3.496C-6.088,2.214 -5.884,1.165 -5.155,0.728C-4.427,0.292 -3.816,0.408 -3.204,0.728C-3.204,0.758 -2.825,0.961 -2.592,1.078C-2.097,1.369 -1.514,1.69 -1.106,1.456C-0.641,1.165 -0.524,0.67 -0.816,0.204C-1.223,-0.437 -1.66,-0.583 -2.126,-0.699L-1.776,-1.486C-1.164,-1.311 -0.524,-0.903 0,0" style="fill:rgb(255,242,0);"/>
                            </g>
                            <g id="g2658" transform="matrix(0,1.25,1.25,0,110.637,522.673)">
                                <path id="path2660" d="M0,0C0.408,-1.981 1.865,-3.263 3.816,-2.826C4.894,-2.593 6.846,-1.631 6.205,1.34C6.059,2.185 5.71,2.621 5.302,3.058L4.661,2.505C4.894,2.33 5.243,2.01 5.389,1.311C5.681,-0.117 4.515,-0.99 3.496,-1.195C2.01,-1.515 0.962,-0.641 0.758,0.35C0.612,1.048 0.787,1.456 0.903,1.748L0.117,1.923C-0.058,1.456 -0.203,0.874 0,0" style="fill:rgb(255,242,0);"/>
                            </g>
                            <g id="g2662" transform="matrix(0,1.25,1.25,0,150.544,535.2)">
                                <path id="path2664" d="M0,0C-0.35,-0.058 -1.894,-0.203 -2.68,0.379C-3.438,0.932 -3.175,1.399 -3.059,1.66C-3.03,1.807 -2.797,2.156 -2.33,2.214C-2.098,2.243 -1.748,2.185 -1.485,1.981C-0.99,1.632 -0.67,0.787 -0.67,0.787C-0.67,0.787 1.427,1.865 3.496,4.108L4.894,4.108C1.923,1.02 0,0 0,0" style="fill:rgb(255,242,0);"/>
                            </g>
                            <g id="g2666" transform="matrix(0,1.25,1.25,0,152.51,534.653)">
                                <path id="path2668" d="M0,0C0.525,0.292 1.806,1.078 3.641,3.03C3.962,3.35 4.194,4.166 3.699,4.603C3.496,4.778 3.204,4.895 2.884,4.865C2.505,4.865 2.068,4.632 1.893,4.399C1.544,4.02 -0.145,2.33 -1.457,1.137C-1.223,1.107 -0.815,0.904 -0.815,0.904C-0.583,0.729 -0.262,0.554 0,0" style="fill:rgb(255,242,0);"/>
                            </g>
                            <g id="g2670" transform="matrix(0,1.25,1.25,0,80.305,541.208)">
                                <path id="path2672" d="M0,0L-1.311,0C-3.408,2.272 -5.476,3.321 -5.476,3.321C-5.476,3.321 -5.797,2.505 -6.292,2.126C-6.554,1.952 -6.904,1.865 -7.137,1.893C-7.603,1.981 -7.836,2.33 -7.866,2.447C-7.982,2.709 -8.244,3.204 -7.487,3.729C-6.7,4.311 -5.186,4.166 -4.836,4.078C-4.836,4.078 -2.971,3.03 0,0" style="fill:rgb(255,242,0);"/>
                            </g>
                            <g id="g2674" transform="matrix(0,1.25,1.25,0,83.4375,534.653)">
                                <path id="path2676" d="M0,0C0.525,-0.292 1.806,-1.078 3.641,-3.03C3.962,-3.35 4.194,-4.136 3.699,-4.603C3.496,-4.778 3.204,-4.894 2.884,-4.865C2.505,-4.865 2.068,-4.631 1.893,-4.399C1.544,-4.02 -0.145,-2.33 -1.457,-1.136C-1.223,-1.107 -0.815,-0.903 -0.815,-0.903C-0.583,-0.728 -0.262,-0.525 0,0" style="fill:rgb(255,242,0);"/>
                            </g>
                            <g id="g2678" transform="matrix(0,1.25,1.25,0,75.5725,562.836)">
                                <path id="path2680" d="M0,0C-2.767,0 -5.01,2.243 -5.01,5.039C-5.01,7.807 -2.767,10.05 0,10.05C2.797,10.05 5.04,7.807 5.04,5.039C5.04,2.243 2.797,0 0,0" style="fill:rgb(226,14,14);"/>
                            </g>
                            <g id="g2682" transform="matrix(0,1.25,1.25,0,85.2213,558.322)">
                                <path id="path2684" d="M0,0C0.058,0.087 0.233,0.32 0.233,0.32C0.612,0.757 1.078,1.136 1.631,1.369C2.301,1.66 3.35,0.757 3.583,0.495C4.661,-0.67 4.661,-1.398 4.719,-1.807C4.777,-2.214 4.515,-2.476 4.194,-2.476C3.291,-2.447 1.718,-1.807 1.427,-1.602C1.223,-1.486 1.107,-1.282 1.107,-1.282C0.99,-0.845 0.815,-0.437 0.553,-0.233C0.32,0 0,0 0,0ZM-0.67,-4.195C-0.816,-3.729 -0.932,-3.233 -0.932,-2.71C-0.932,-1.923 -0.787,-1.195 -0.378,-0.554C-0.262,-0.379 -0.146,-0.35 0.029,-0.35C0.641,-0.35 0.845,-1.282 0.845,-1.893C0.845,-2.505 0.583,-3.263 0.408,-3.816C0.262,-4.34 -0.058,-4.457 -0.204,-4.457C-0.35,-4.457 -0.612,-4.37 -0.67,-4.195ZM6.554,-6.176C5.942,-6.816 4.806,-7.254 3.612,-7.254C3.175,-7.254 2.738,-7.196 2.301,-7.079C2.301,-7.079 2.126,-6.962 2.272,-6.846C2.388,-6.788 2.505,-6.671 2.68,-6.584C2.826,-6.496 3.204,-6.001 3.496,-6.059C4.603,-6.234 6.088,-6.059 6.321,-6.03C6.583,-5.972 6.699,-6.059 6.554,-6.176ZM2.738,-6.059C2.621,-6.293 2.068,-6.554 1.893,-6.642C1.777,-6.7 1.427,-6.7 1.282,-6.613C0.612,-6.234 0.029,-5.71 -0.292,-5.04C-0.32,-4.953 -0.32,-4.836 -0.146,-4.836C-0.03,-4.836 0.145,-4.778 0.262,-4.778C0.35,-4.778 0.583,-4.719 0.757,-4.865C0.932,-5.011 1.981,-5.623 2.593,-5.768C2.738,-5.797 2.884,-5.826 2.738,-6.059ZM8.156,-2.622L8.156,-2.71C8.156,-3.554 7.865,-4.457 7.544,-5.011C7.224,-5.564 5.797,-5.768 5.068,-5.768C2.709,-5.768 1.282,-4.806 0.99,-4.661C0.728,-4.486 0.699,-4.136 0.757,-3.875C0.815,-3.641 0.873,-3.525 0.961,-3.233C1.02,-3.058 1.078,-2.738 1.136,-2.505C1.194,-2.272 1.253,-2.01 1.69,-2.156C2.155,-2.33 3.233,-2.826 4.515,-2.884C5.68,-2.942 6.846,-2.797 7.544,-2.535C8.011,-2.36 8.185,-2.36 8.156,-2.622ZM7.982,-1.428C8.069,-1.69 7.894,-1.807 7.749,-1.923C7.224,-2.389 5.768,-2.505 5.593,-2.505C5.389,-2.505 5.185,-2.447 5.185,-2.302C5.156,-1.165 4.836,-0.379 4.224,0.378C3.612,1.106 2.913,1.428 2.796,1.486C2.651,1.573 2.68,1.718 2.884,1.748C3.029,1.776 3.321,1.835 3.612,1.835C5.68,1.835 7.37,0.436 7.982,-1.428" style="fill:rgb(255,242,0);"/>
                            </g>
                            <g id="g2686" transform="matrix(0,1.25,1.25,0,160.485,562.836)">
                                <path id="path2688" d="M0,0C-2.767,0 -5.01,-2.243 -5.01,-5.04C-5.01,-7.807 -2.767,-10.05 0,-10.05C2.797,-10.05 5.04,-7.807 5.04,-5.04C5.04,-2.243 2.797,0 0,0" style="fill:rgb(226,14,14);"/>
                            </g>
                            <g id="g2690" transform="matrix(0,1.25,1.25,0,151.128,559.013)">
                                <path id="path2692" d="M0,0C0.262,0.203 0.437,0.611 0.554,1.048C0.554,1.048 0.67,1.253 0.874,1.369C1.165,1.573 2.738,2.214 3.641,2.243C3.962,2.243 4.224,1.981 4.166,1.573C4.108,1.165 4.108,0.437 3.03,-0.728C2.797,-0.99 1.748,-1.893 1.078,-1.602C0.525,-1.369 0.059,-0.99 -0.32,-0.554C-0.32,-0.554 -0.495,-0.32 -0.553,-0.233C-0.553,-0.233 -0.233,-0.233 0,0ZM-0.758,4.224C-0.611,4.224 -0.291,4.107 -0.145,3.583C0.029,3.029 0.292,2.272 0.292,1.66C0.292,1.048 0.087,0.116 -0.524,0.116C-0.699,0.116 -0.816,0.145 -0.932,0.32C-1.34,0.961 -1.486,1.689 -1.486,2.476C-1.486,3 -1.369,3.496 -1.223,3.961C-1.165,4.136 -0.903,4.224 -0.758,4.224ZM5.768,5.797C5.535,5.826 4.05,6.001 2.942,5.826C2.651,5.767 2.272,6.262 2.127,6.35C1.952,6.437 1.835,6.554 1.719,6.612C1.573,6.729 1.748,6.845 1.748,6.845C2.185,6.962 2.622,7.02 3.058,7.02C4.253,7.02 5.389,6.584 6.001,5.942C6.146,5.826 6.03,5.739 5.768,5.797ZM2.04,5.534C1.427,5.389 0.379,4.777 0.204,4.631C0.029,4.486 -0.203,4.544 -0.291,4.544C-0.408,4.544 -0.583,4.602 -0.699,4.602C-0.874,4.602 -0.874,4.719 -0.845,4.806C-0.524,5.476 0.059,6.001 0.729,6.379C0.874,6.467 1.224,6.467 1.34,6.409C1.515,6.321 2.068,6.059 2.185,5.826C2.33,5.592 2.185,5.564 2.04,5.534ZM6.991,2.301C6.293,2.563 5.127,2.709 3.962,2.651C2.68,2.593 1.602,2.068 1.137,1.923C0.699,1.776 0.641,2.039 0.583,2.272C0.525,2.505 0.467,2.826 0.408,3C0.32,3.291 0.262,3.408 0.204,3.641C0.146,3.903 0.175,4.253 0.437,4.427C0.729,4.573 2.156,5.534 4.515,5.534C5.243,5.534 6.671,5.331 6.991,4.777C7.312,4.224 7.603,3.321 7.603,2.476L7.603,2.388C7.632,2.126 7.458,2.126 6.991,2.301ZM3.058,-2.068C2.768,-2.068 2.476,-2.01 2.33,-1.981C2.127,-1.952 2.098,-1.806 2.243,-1.719C2.36,-1.66 3.058,-1.34 3.671,-0.612C4.283,0.145 4.603,0.932 4.632,2.068C4.632,2.214 4.836,2.272 5.04,2.272C5.215,2.272 6.671,2.156 7.196,1.689C7.341,1.573 7.516,1.456 7.428,1.194C6.816,-0.67 5.127,-2.068 3.058,-2.068" style="fill:rgb(255,242,0);"/>
                            </g>
                            <g id="g2694" transform="matrix(0,1.25,1.25,0,147.959,562.801)">
                                <path id="path2696" d="M0,0C-1.369,0 -2.651,0.554 -3.554,1.486C-4.457,2.389 -5.04,3.641 -5.04,5.04C-5.04,6.438 -4.457,7.691 -3.554,8.594C-2.651,9.526 -1.369,10.079 0,10.079C1.398,10.079 2.68,9.526 3.583,8.594C4.486,7.691 5.069,6.438 5.069,5.04C5.069,3.641 4.486,2.389 3.583,1.486C2.68,0.554 1.398,0 0,0ZM0,0.059C1.398,0.059 2.651,0.612 3.554,1.515C4.457,2.418 5.011,3.67 5.011,5.04C5.011,6.409 4.457,7.661 3.554,8.564C2.651,9.467 1.398,10.021 0,10.021C-1.369,10.021 -2.622,9.467 -3.525,8.564C-4.428,7.661 -4.981,6.409 -4.981,5.04C-4.981,3.67 -4.428,2.418 -3.525,1.515C-2.622,0.612 -1.369,0.059 0,0.059" style="fill:rgb(255,230,0);"/>
                            </g>
                        </g>
                    </g>
                </g>
            </g>
        </g>
    </g>
</svg>
