<?xml version="1.0" encoding="UTF-8" standalone="no"?>
<!DOCTYPE svg PUBLIC "-//W3C//DTD SVG 1.1//EN" "http://www.w3.org/Graphics/SVG/1.1/DTD/svg11.dtd">
<svg width="100%" height="100%" viewBox="0 0 512 512" version="1.1" xmlns="http://www.w3.org/2000/svg" xmlns:xlink="http://www.w3.org/1999/xlink" xml:space="preserve" xmlns:serif="http://www.serif.com/" style="fill-rule:evenodd;clip-rule:evenodd;stroke-linejoin:round;stroke-miterlimit:2;">
    <rect x="0" y="0" width="512" height="512" style="fill:white;fill-opacity:0;"/>
    <g id="Logo_Brighton_Hove_Albion_2011.svg" transform="matrix(0.731429,0,0,0.731429,256,256)">
        <g transform="matrix(1,0,0,1,-350,-350)">
            <clipPath id="_clip1">
                <rect x="0" y="0" width="700" height="700"/>
            </clipPath>
            <g clip-path="url(#_clip1)">
                <g id="g4455" transform="matrix(13.3979,0,0,13.3976,-31.9942,-33.9765)">
                    <g id="g4445">
                        <path id="path4364" d="M2.388,28.659C2.388,43.086 14.084,54.784 28.512,54.784C42.939,54.784 54.635,43.086 54.635,28.659C54.635,14.231 42.938,2.536 28.512,2.536C14.084,2.536 2.388,14.232 2.388,28.659Z" style="fill:rgb(0,93,170);fill-rule:nonzero;"/>
                        <path id="path4362" d="M28.512,53.778C14.638,53.778 3.393,42.532 3.393,28.658C3.393,14.786 14.638,3.539 28.512,3.539C42.386,3.539 53.631,14.786 53.631,28.658C53.631,42.532 42.386,53.778 28.512,53.778" style="fill:white;fill-rule:nonzero;"/>
                        <path id="path4318" d="M51.912,25.603C51.591,25.431 51.098,25.203 50.391,24.906C49.663,24.602 48.159,24.122 46.6,23.706C44.426,15.75 37.154,9.903 28.512,9.903C18.831,9.903 10.866,17.239 9.866,26.653C8.912,26.795 8.001,26.906 7.21,26.989C5.644,27.152 4.557,27.21 4.555,27.211C4.496,27.214 4.451,27.259 4.443,27.316C4.442,27.321 4.442,27.327 4.442,27.336C4.438,27.422 4.499,27.781 5.092,28.083C5.684,28.391 6.805,28.67 8.977,28.672C9.222,28.672 9.483,28.665 9.756,28.659C9.756,39.017 18.152,47.414 28.512,47.414C38.869,47.414 47.267,39.017 47.267,28.659C47.267,27.482 47.152,26.33 46.946,25.213C48.874,25.639 51.3,26.19 52.082,26.192C52.165,26.19 52.231,26.187 52.288,26.168C52.339,26.157 52.414,26.114 52.417,26.026C52.386,25.856 52.229,25.789 51.912,25.603" style="fill:rgb(0,93,170);fill-rule:nonzero;"/>
                    </g>
                    <g id="g4420">
                        <g id="g4393">
                            <path id="path4360" d="M34.857,6.012C34.738,6.008 34.625,6.026 34.52,6.072C34.328,6.156 34.19,6.308 34.121,6.523C34.096,6.598 34.085,6.673 34.082,6.746C34.081,6.799 34.086,6.85 34.098,6.902C34.121,7.015 34.161,7.137 34.213,7.262C34.02,7.314 33.85,7.388 33.707,7.482C33.559,7.581 33.457,7.721 33.395,7.9C33.356,8.023 33.334,8.139 33.332,8.248C33.329,8.405 33.362,8.549 33.434,8.682C33.556,8.904 33.788,9.071 34.127,9.18C34.27,9.229 34.398,9.253 34.51,9.256C34.545,9.257 34.576,9.257 34.609,9.254C34.74,9.24 34.873,9.205 35.008,9.158L35.014,9.156L35.145,9.482L35.908,9.736L35.557,8.891C35.695,8.808 35.811,8.697 35.914,8.564C36.017,8.425 36.107,8.256 36.186,8.053L36.193,8.035L35.629,7.85L35.621,7.865C35.542,8.08 35.439,8.234 35.315,8.326L35.01,7.59C35.047,7.58 35.092,7.567 35.139,7.551C35.193,7.534 35.235,7.52 35.266,7.51C35.393,7.469 35.496,7.414 35.58,7.346C35.666,7.279 35.727,7.186 35.766,7.072C35.792,6.991 35.808,6.909 35.809,6.832C35.811,6.707 35.784,6.588 35.719,6.473C35.618,6.286 35.441,6.152 35.199,6.072C35.078,6.033 34.966,6.013 34.857,6.012L34.857,6.012ZM34.941,6.564C34.97,6.564 35.002,6.569 35.035,6.58C35.109,6.605 35.159,6.644 35.187,6.703C35.205,6.738 35.214,6.776 35.213,6.813C35.213,6.838 35.206,6.865 35.197,6.891C35.181,6.937 35.155,6.971 35.111,7.002C35.068,7.033 35.013,7.057 34.949,7.074C34.929,7.083 34.906,7.092 34.873,7.1C34.849,7.108 34.829,7.111 34.809,7.115C34.766,7.016 34.737,6.94 34.721,6.885C34.712,6.853 34.709,6.825 34.709,6.799C34.71,6.776 34.714,6.753 34.721,6.734C34.743,6.664 34.783,6.616 34.84,6.588C34.869,6.571 34.902,6.563 34.941,6.564L34.941,6.564ZM34.418,7.736C34.418,7.736 34.785,8.619 34.785,8.619C34.699,8.655 34.622,8.673 34.547,8.678L34.5,8.678C34.436,8.676 34.368,8.664 34.297,8.641C34.168,8.599 34.074,8.527 34.014,8.422C33.975,8.355 33.954,8.285 33.957,8.211C33.958,8.17 33.966,8.126 33.979,8.082C34.011,7.986 34.063,7.912 34.133,7.863C34.201,7.814 34.296,7.772 34.418,7.736Z" style="fill:rgb(0,93,170);fill-rule:nonzero;"/>
                            <path id="path4354" d="M28.522,6.441L29.781,8.363L30.374,8.363L30.374,5.129L29.705,5.129L29.705,7.045L28.446,5.129L27.853,5.129L27.853,8.363L28.522,8.363L28.522,6.441Z" style="fill:rgb(0,93,170);fill-rule:nonzero;"/>
                            <path id="path4352" d="M44.912,16.636L46.098,18.439L46.594,18.114L45.766,16.855L46.385,16.448L47.089,17.52L47.584,17.195L46.88,16.123L47.477,15.731L48.304,16.989L48.799,16.663L47.605,14.845L44.903,16.62L44.912,16.636Z" style="fill:rgb(0,93,170);fill-rule:nonzero;"/>
                            <path id="path4350" d="M43.02,10.439C42.988,10.439 42.959,10.439 42.926,10.443C42.727,10.455 42.552,10.524 42.404,10.639C42.258,10.754 42.071,10.946 41.842,11.213C41.615,11.48 41.455,11.693 41.365,11.854C41.287,11.993 41.248,12.148 41.248,12.316C41.248,12.342 41.25,12.372 41.254,12.402C41.267,12.569 41.311,12.723 41.385,12.863C41.457,13.003 41.563,13.134 41.701,13.25C41.84,13.37 41.981,13.454 42.133,13.504C42.251,13.542 42.376,13.562 42.508,13.562C42.542,13.562 42.573,13.562 42.607,13.559C42.814,13.545 42.993,13.479 43.137,13.365C43.281,13.249 43.465,13.06 43.693,12.793C43.924,12.524 44.084,12.308 44.174,12.15C44.247,12.016 44.285,11.867 44.285,11.705C44.285,11.671 44.283,11.636 44.279,11.6C44.265,11.433 44.22,11.278 44.148,11.139C44.078,10.998 43.972,10.869 43.836,10.752C43.696,10.634 43.554,10.55 43.404,10.5C43.282,10.458 43.155,10.439 43.02,10.439L43.02,10.439ZM43.107,11.064C43.153,11.064 43.202,11.073 43.252,11.088C43.322,11.112 43.388,11.148 43.451,11.201C43.577,11.31 43.641,11.437 43.643,11.582L43.643,11.604C43.643,11.644 43.639,11.682 43.629,11.719C43.617,11.761 43.595,11.809 43.564,11.863C43.535,11.917 43.49,11.984 43.43,12.061C43.369,12.139 43.289,12.238 43.186,12.359C43.085,12.475 43,12.574 42.932,12.645C42.863,12.719 42.806,12.773 42.758,12.811C42.709,12.849 42.661,12.876 42.621,12.896C42.581,12.914 42.538,12.925 42.49,12.932C42.467,12.935 42.442,12.936 42.42,12.936C42.303,12.936 42.192,12.894 42.086,12.803C42.022,12.748 41.974,12.687 41.939,12.621C41.908,12.553 41.891,12.487 41.891,12.42L41.891,12.396C41.891,12.357 41.895,12.319 41.906,12.285C41.918,12.244 41.938,12.197 41.971,12.139C42.002,12.085 42.047,12.018 42.105,11.943C42.166,11.866 42.248,11.769 42.352,11.646C42.457,11.524 42.542,11.424 42.607,11.355C42.674,11.284 42.731,11.23 42.783,11.191C42.831,11.151 42.876,11.123 42.918,11.105C42.96,11.087 43,11.075 43.043,11.07C43.063,11.066 43.086,11.064 43.107,11.064L43.107,11.064Z" style="fill:rgb(0,93,170);fill-rule:nonzero;"/>
                            <path id="path4346" d="M39.427,9.961L40.332,10.52L39.632,11.659L39.646,11.669L40.2,12.01L41.894,9.257L41.326,8.907L40.64,10.019L39.733,9.461L40.421,8.348L39.851,7.997L38.156,10.749L38.726,11.102L39.427,9.961Z" style="fill:rgb(0,93,170);fill-rule:nonzero;"/>
                            <path id="path4344" d="M43.915,15.419L43.928,15.413L47.06,14.097L46.6,13.573L44.644,14.445L45.753,12.614L45.294,12.093L43.586,15.043L43.915,15.419Z" style="fill:rgb(0,93,170);fill-rule:nonzero;"/>
                            <path id="path4342" d="M25.641,5.266C25.58,5.266 25.518,5.269 25.455,5.277C25.272,5.299 25.116,5.35 24.977,5.428C24.84,5.505 24.717,5.607 24.613,5.74C24.489,5.895 24.421,6.071 24.406,6.258C24.401,6.304 24.4,6.353 24.4,6.408C24.4,6.578 24.417,6.795 24.451,7.061C24.493,7.409 24.544,7.669 24.603,7.846C24.663,8.023 24.773,8.173 24.932,8.299C25.064,8.402 25.207,8.472 25.361,8.514C25.46,8.541 25.564,8.553 25.676,8.553C25.735,8.553 25.796,8.549 25.859,8.543C26.042,8.52 26.199,8.47 26.338,8.393C26.475,8.316 26.595,8.21 26.699,8.078C26.826,7.916 26.898,7.742 26.912,7.557C26.914,7.515 26.918,7.472 26.918,7.422C26.918,7.252 26.898,7.031 26.867,6.76C26.822,6.409 26.772,6.149 26.717,5.973C26.658,5.796 26.546,5.646 26.381,5.521C26.248,5.418 26.103,5.347 25.953,5.305C25.853,5.279 25.75,5.266 25.641,5.266L25.641,5.266ZM25.611,5.861C25.739,5.861 25.846,5.9 25.937,5.98C25.974,6.012 26.004,6.048 26.027,6.086C26.052,6.124 26.075,6.17 26.094,6.229C26.112,6.287 26.13,6.364 26.145,6.461C26.163,6.559 26.181,6.687 26.201,6.844C26.22,6.999 26.232,7.125 26.24,7.225C26.246,7.287 26.248,7.345 26.248,7.393C26.248,7.42 26.248,7.445 26.246,7.467C26.241,7.529 26.234,7.577 26.221,7.621C26.207,7.663 26.184,7.704 26.156,7.742C26.073,7.863 25.952,7.933 25.787,7.953C25.76,7.956 25.731,7.959 25.707,7.959C25.653,7.959 25.605,7.952 25.557,7.939C25.485,7.918 25.424,7.886 25.373,7.84C25.336,7.81 25.307,7.776 25.285,7.74C25.264,7.704 25.243,7.656 25.223,7.594C25.202,7.533 25.184,7.454 25.168,7.359C25.151,7.266 25.134,7.138 25.113,6.979C25.092,6.817 25.08,6.689 25.072,6.592C25.067,6.531 25.064,6.477 25.064,6.428C25.065,6.401 25.066,6.376 25.068,6.354C25.073,6.29 25.082,6.237 25.096,6.195C25.11,6.153 25.129,6.113 25.154,6.078C25.19,6.022 25.243,5.975 25.307,5.939C25.371,5.901 25.446,5.877 25.529,5.867C25.555,5.865 25.583,5.861 25.611,5.861L25.611,5.861Z" style="fill:rgb(0,93,170);fill-rule:nonzero;"/>
                            <path id="path4338" d="M12.061,12.268C11.932,12.275 11.802,12.31 11.672,12.373C11.545,12.437 11.426,12.532 11.314,12.652L10.445,13.604L12.832,15.787L13.283,15.295L12.344,14.432L12.631,14.117L13.998,14.512L14.008,14.502L14.522,13.941L13.008,13.539C13.052,13.428 13.072,13.313 13.072,13.193C13.072,13.139 13.068,13.086 13.059,13.031C13.029,12.847 12.932,12.68 12.772,12.535C12.672,12.443 12.559,12.371 12.439,12.326C12.335,12.285 12.224,12.268 12.111,12.268C12.094,12.268 12.079,12.267 12.061,12.268L12.061,12.268ZM12.023,12.92L12.061,12.92C12.157,12.92 12.24,12.953 12.322,13.029C12.412,13.111 12.457,13.205 12.457,13.316C12.457,13.427 12.412,13.531 12.322,13.629L11.934,14.055L11.334,13.508L11.727,13.08C11.816,12.983 11.913,12.932 12.023,12.92Z" style="fill:rgb(0,93,170);fill-rule:nonzero;"/>
                            <path id="path4334" d="M9.732,15.105C9.668,15.105 9.598,15.116 9.531,15.133C9.293,15.194 9.089,15.361 8.914,15.627L8.193,16.732L10.904,18.502L11.656,17.348C11.791,17.141 11.859,16.936 11.859,16.732C11.859,16.686 11.857,16.644 11.85,16.598C11.812,16.352 11.668,16.148 11.422,15.986C11.273,15.89 11.132,15.842 10.994,15.842C10.978,15.842 10.965,15.842 10.951,15.844C10.816,15.854 10.696,15.888 10.588,15.949C10.589,15.935 10.588,15.921 10.588,15.906C10.588,15.815 10.565,15.714 10.525,15.611C10.474,15.475 10.379,15.363 10.238,15.272C10.072,15.161 9.903,15.106 9.732,15.106L9.732,15.105ZM9.707,15.785C9.77,15.785 9.834,15.806 9.896,15.848C9.987,15.907 10.041,15.98 10.055,16.072C10.059,16.088 10.061,16.107 10.061,16.125C10.062,16.202 10.033,16.285 9.975,16.375L9.645,16.879L9.059,16.496L9.387,15.99C9.458,15.881 9.54,15.819 9.631,15.797C9.657,15.789 9.681,15.785 9.707,15.785L9.707,15.785ZM10.822,16.463C10.892,16.463 10.963,16.486 11.031,16.531C11.124,16.59 11.178,16.668 11.201,16.766C11.207,16.788 11.211,16.814 11.211,16.836C11.211,16.912 11.184,16.992 11.127,17.076L10.775,17.617L10.145,17.207L10.498,16.668C10.569,16.556 10.652,16.491 10.748,16.471L10.75,16.471C10.773,16.467 10.797,16.463 10.822,16.463L10.822,16.463Z" style="fill:rgb(0,93,170);fill-rule:nonzero;"/>
                            <path id="path4328" d="M15.1,13.437L15.594,13.014L13.491,10.556L12.982,10.99L15.086,13.45L15.1,13.437Z" style="fill:rgb(0,93,170);fill-rule:nonzero;"/>
                            <path id="path4326" d="M22.135,6.61L22.838,9.156L23.482,8.981L22.78,6.434L23.598,6.208L23.438,5.638L21.161,6.265L21.317,6.836L22.135,6.61Z" style="fill:rgb(0,93,170);fill-rule:nonzero;"/>
                            <path id="path4324" d="M15.432,11.075C15.624,11.367 15.788,11.579 15.919,11.71C16.053,11.841 16.217,11.928 16.414,11.969C16.496,11.985 16.578,11.993 16.657,11.993C16.899,11.993 17.132,11.919 17.35,11.774C17.658,11.57 17.844,11.295 17.908,10.954C17.922,10.891 17.928,10.828 17.928,10.766C17.928,10.671 17.913,10.576 17.884,10.484C17.837,10.33 17.746,10.156 17.615,9.956L17.35,9.562L16.315,10.25L16.625,10.714L17.103,10.396L17.157,10.475C17.203,10.543 17.235,10.615 17.26,10.69C17.274,10.74 17.282,10.79 17.282,10.838C17.282,10.86 17.279,10.883 17.276,10.904C17.251,11.061 17.168,11.185 17.023,11.281C16.923,11.347 16.824,11.379 16.727,11.379C16.687,11.379 16.647,11.375 16.607,11.365C16.561,11.353 16.521,11.336 16.484,11.314C16.45,11.293 16.408,11.257 16.363,11.209C16.316,11.161 16.265,11.1 16.21,11.024C16.151,10.946 16.079,10.84 15.99,10.705C15.899,10.572 15.83,10.46 15.779,10.378C15.728,10.296 15.693,10.225 15.669,10.166C15.645,10.109 15.629,10.058 15.623,10.013C15.619,9.993 15.618,9.97 15.618,9.95C15.618,9.928 15.62,9.906 15.623,9.884C15.644,9.738 15.721,9.621 15.858,9.529C15.956,9.465 16.046,9.43 16.132,9.421C16.151,9.417 16.175,9.417 16.2,9.417C16.274,9.417 16.364,9.427 16.468,9.449L16.484,9.451L16.615,8.826L16.598,8.823C16.476,8.799 16.363,8.786 16.257,8.786C16.183,8.786 16.11,8.792 16.044,8.805C15.885,8.836 15.712,8.913 15.528,9.035C15.235,9.229 15.055,9.493 14.987,9.824C14.971,9.893 14.965,9.964 14.965,10.032C14.965,10.152 14.987,10.267 15.033,10.378C15.104,10.55 15.234,10.783 15.432,11.075" style="fill:rgb(0,93,170);fill-rule:nonzero;"/>
                            <path id="path4322" d="M19.729,10.377L19.179,9.156L20.148,8.72L20.701,9.941L20.718,9.934L21.31,9.666L19.979,6.717L19.368,6.992L19.908,8.183L18.938,8.621L18.399,7.429L17.79,7.704L19.122,10.654L19.729,10.377Z" style="fill:rgb(0,93,170);fill-rule:nonzero;"/>
                        </g>
                        <g id="g4412">
                            <path id="path4384" d="M23.503,48.367L22.847,48.208L22.077,51.43L22.095,51.435L24.18,51.933L24.321,51.342L22.876,50.998L23.503,48.367Z" style="fill:rgb(0,93,170);fill-rule:nonzero;"/>
                            <path id="path4382" d="M35.919,47.609L36.582,49.456L34.724,48.035L34.161,48.238L35.273,51.355L35.911,51.127L35.249,49.274L37.105,50.701L37.116,50.696L37.671,50.497L36.557,47.381L35.919,47.609Z" style="fill:rgb(0,93,170);fill-rule:nonzero;"/>
                            <path id="path4380" d="M20.576,47.381L18.205,49.988L18.857,50.256L19.26,49.793L20.313,50.225L20.271,50.832L20.285,50.84L20.928,51.102L21.061,47.576L20.576,47.381L20.576,47.381ZM20.438,48.449L20.363,49.625L19.654,49.336L20.438,48.449Z" style="fill:rgb(0,93,170);fill-rule:nonzero;"/>
                            <path id="path4376" d="M32.336,48.625C32.254,48.625 32.17,48.632 32.082,48.648C31.901,48.679 31.745,48.738 31.609,48.824C31.475,48.91 31.356,49.022 31.26,49.162C31.143,49.329 31.082,49.51 31.078,49.703L31.078,49.738C31.078,49.925 31.107,50.187 31.168,50.52C31.229,50.875 31.294,51.139 31.363,51.316C31.431,51.493 31.553,51.643 31.719,51.762C31.858,51.86 32.008,51.927 32.164,51.963C32.244,51.979 32.326,51.986 32.412,51.986C32.494,51.986 32.582,51.98 32.668,51.965C32.85,51.932 33.006,51.872 33.141,51.787C33.273,51.702 33.39,51.587 33.486,51.449C33.607,51.276 33.673,51.093 33.676,50.904C33.675,50.895 33.676,50.888 33.676,50.877C33.676,50.693 33.642,50.43 33.584,50.092C33.521,49.735 33.457,49.471 33.391,49.295C33.321,49.118 33.201,48.968 33.027,48.852C32.888,48.752 32.74,48.687 32.586,48.652C32.505,48.633 32.424,48.625 32.336,48.625L32.336,48.625ZM32.303,49.234C32.418,49.236 32.519,49.271 32.607,49.342C32.646,49.371 32.679,49.405 32.707,49.443C32.732,49.48 32.756,49.528 32.777,49.586C32.802,49.645 32.826,49.723 32.848,49.822C32.869,49.92 32.894,50.05 32.922,50.209C32.95,50.367 32.969,50.497 32.982,50.6C32.995,50.692 33.002,50.767 33.002,50.828L33.002,50.844L32.998,50.844C32.998,50.907 32.993,50.959 32.979,51.004C32.968,51.048 32.951,51.092 32.924,51.131C32.847,51.26 32.727,51.336 32.563,51.367C32.524,51.372 32.487,51.377 32.451,51.377C32.409,51.377 32.37,51.372 32.33,51.363C32.256,51.346 32.192,51.317 32.141,51.272C32.101,51.243 32.071,51.21 32.047,51.174C32.021,51.139 31.998,51.086 31.975,51.025C31.953,50.962 31.927,50.884 31.906,50.789C31.885,50.694 31.859,50.565 31.832,50.402C31.804,50.238 31.783,50.109 31.77,50.01C31.758,49.916 31.752,49.841 31.752,49.779L31.752,49.766C31.754,49.702 31.76,49.646 31.771,49.602C31.783,49.56 31.8,49.518 31.824,49.484C31.859,49.421 31.908,49.37 31.971,49.328C32.034,49.286 32.104,49.261 32.187,49.244C32.227,49.239 32.266,49.234 32.303,49.234L32.303,49.234Z" style="fill:rgb(0,93,170);fill-rule:nonzero;"/>
                            <path id="path4372" d="M29.173,48.98L29.331,52.287L29.35,52.286L30.006,52.253L29.847,48.948L29.173,48.98Z" style="fill:rgb(0,93,170);fill-rule:nonzero;"/>
                            <path id="path4370" d="M25.74,48.83L25.477,52.133L26.863,52.242C26.905,52.246 26.945,52.246 26.984,52.246L26.986,52.246C27.234,52.246 27.447,52.182 27.619,52.049C27.82,51.896 27.932,51.664 27.955,51.365C27.958,51.33 27.961,51.302 27.961,51.271C27.961,51.115 27.928,50.982 27.858,50.871C27.786,50.756 27.693,50.666 27.586,50.598C27.683,50.554 27.773,50.481 27.858,50.379C27.956,50.264 28.01,50.121 28.022,49.953C28.024,49.918 28.024,49.886 28.024,49.852C28.024,49.614 27.953,49.41 27.805,49.248C27.637,49.066 27.391,48.963 27.068,48.939L25.74,48.83L25.74,48.83ZM26.365,49.49L26.973,49.537C27.103,49.549 27.199,49.588 27.264,49.658C27.321,49.721 27.35,49.797 27.35,49.891C27.35,49.903 27.35,49.915 27.348,49.928C27.34,50.036 27.298,50.119 27.223,50.18C27.158,50.23 27.076,50.258 26.969,50.258C26.951,50.258 26.934,50.257 26.916,50.256L26.311,50.205L26.365,49.49L26.365,49.49ZM26.26,50.816L26.908,50.867C27.043,50.877 27.139,50.92 27.203,50.996C27.26,51.064 27.287,51.145 27.287,51.242C27.287,51.253 27.286,51.268 27.285,51.281C27.275,51.394 27.233,51.481 27.158,51.549C27.093,51.605 27.008,51.635 26.896,51.635C26.88,51.635 26.865,51.636 26.846,51.635L26.197,51.58L26.26,50.816Z" style="fill:rgb(0,93,170);fill-rule:nonzero;"/>
                        </g>
                    </g>
                    <g id="g4450">
                        <path id="path15" d="M52.081,26.013C50.856,26.015 45.225,24.554 44.425,24.551C43.175,24.559 40.362,26.103 38.901,27.052C38.476,27.33 38.043,27.581 37.62,27.802C37.727,27.808 37.837,27.817 37.941,27.831C38.83,27.937 39.618,28.281 40.255,28.748C41.076,29.36 41.925,30.11 42.435,30.21C42.459,30.212 42.487,30.214 42.516,30.218L42.518,30.218C43.244,30.286 45.321,30.8 45.256,32.029C45.256,32.029 43.81,31.592 42.076,31.889C41.393,32.035 40.397,32.127 38.889,32.607C37.461,33.057 33.736,34.469 30.824,34.47C28.608,34.468 24.131,33.193 21.547,32.974C21.393,32.961 21.24,32.953 21.087,32.953C19.12,32.951 17.431,33.985 16.586,33.996C15.824,33.996 14.488,33.866 13.18,32.896C12.185,32.152 11.45,31.065 11.44,30.26C11.438,29.991 11.534,29.741 11.744,29.576C11.892,29.463 12.1,29.44 12.374,29.437C13.388,29.438 15.395,29.878 17.776,29.877C19.192,29.877 20.733,29.723 22.262,29.23C22.617,29.116 23.685,28.867 24.373,28.694C24.555,28.818 24.747,28.952 24.961,29.1C24.982,29.115 25.004,29.122 25.026,29.122C25.065,29.122 25.101,29.103 25.125,29.072C25.163,29.017 25.148,28.944 25.097,28.906C23.773,27.984 23.144,27.472 20.929,27.478C19.518,27.478 17.454,27.674 14.112,28.075C11.943,28.334 10.268,28.435 8.977,28.435C6.825,28.436 5.735,28.154 5.202,27.874C4.873,27.701 4.752,27.538 4.709,27.44C5.483,27.392 9.35,27.121 12.766,26.365C16.643,25.503 22.714,23.077 25.542,23.082C26.596,23.075 28.423,24.162 30.233,25.381C32.055,26.596 33.873,27.935 35.033,28.421C35.093,28.445 35.162,28.418 35.186,28.358C35.212,28.298 35.183,28.229 35.123,28.203C34.459,27.925 33.536,27.333 32.512,26.642C33.917,25.977 38.791,23.051 42.28,23.053C43.939,23.05 48.847,24.447 50.323,25.069C51.026,25.365 51.518,25.59 51.83,25.759C51.985,25.842 52.098,25.91 52.164,25.962C52.185,25.977 52.202,25.993 52.213,26.005C52.182,26.01 52.138,26.013 52.081,26.013" style="fill:white;fill-rule:nonzero;"/>
                        <path id="path17" d="M42.076,31.889C43.809,31.592 45.256,32.029 45.256,32.029C45.324,30.748 43.068,30.244 42.435,30.21C42.435,30.21 42.762,30.89 40.999,31.024C40.999,31.024 40.176,31.005 39.839,31.307C39.839,31.307 41.461,31.183 42.031,31.817L42.076,31.889Z" style="fill:rgb(253,185,19);fill-rule:nonzero;"/>
                        <path id="path4320" d="M39.29,30.295C39.558,30.295 39.773,29.985 39.773,29.985C39.773,29.985 39.557,29.677 39.29,29.677C39.023,29.677 38.808,29.985 38.808,29.985C38.808,29.985 39.023,30.295 39.29,30.295" style="fill:rgb(0,93,170);fill-rule:nonzero;"/>
                    </g>
                </g>
            </g>
        </g>
    </g>
</svg>
