<?xml version="1.0" encoding="UTF-8" standalone="no"?>
<!DOCTYPE svg PUBLIC "-//W3C//DTD SVG 1.1//EN" "http://www.w3.org/Graphics/SVG/1.1/DTD/svg11.dtd">
<svg width="100%" height="100%" viewBox="0 0 512 512" version="1.1" xmlns="http://www.w3.org/2000/svg" xmlns:xlink="http://www.w3.org/1999/xlink" xml:space="preserve" xmlns:serif="http://www.serif.com/" style="fill-rule:evenodd;clip-rule:evenodd;stroke-linejoin:round;stroke-miterlimit:2;">
    <rect x="0" y="0" width="512" height="512" style="fill:white;fill-opacity:0;"/>
    <g id="Logo_Burnley_FC_-_2023.svg" transform="matrix(0.5625,0,0,0.5625,256,256)">
        <g transform="matrix(1,0,0,1,-348.357,-400)">
            <clipPath id="_clip1">
                <rect x="0" y="0" width="696.713" height="800"/>
            </clipPath>
            <g clip-path="url(#_clip1)">
                <g id="g10152">
                    <path id="path184" d="M0,0L0,429.107C0.469,513.615 37.09,598.592 101.879,667.605C165.728,735.211 251.174,782.159 342.254,799.061L348.357,800L354.461,799.061C445.541,782.159 530.986,735.211 594.836,667.605C659.625,598.592 696.245,513.615 696.715,429.107L696.715,0L0,0Z" style="fill:rgb(95,0,65);fill-rule:nonzero;"/>
                    <path id="path186" d="M21.596,21.598L21.596,429.107C22.535,508.45 56.807,587.794 117.84,653.053C178.403,717.372 259.624,761.972 346.479,778.404L348.357,778.873L350.234,778.404C437.089,761.972 518.31,717.372 578.873,653.053C639.906,587.794 674.18,508.45 675.119,429.107L675.119,21.598L21.596,21.598Z" style="fill:white;fill-rule:nonzero;"/>
                    <path id="path10018" d="M43.191,43.193L653.521,43.193L653.521,429.107C652.113,580.281 518.31,724.413 348.357,756.807C178.405,724.413 44.6,580.281 43.191,429.107L43.191,43.193Z" style="fill:rgb(95,0,65);fill-rule:nonzero;"/>
                </g>
                <path id="path590" d="M349.296,123.945C349.296,141.316 365.258,147.419 365.728,147.889C365.258,147.419 364.789,146.48 364.789,146.011C366.667,146.95 368.545,147.889 370.422,148.358C371.361,148.828 372.3,148.828 373.239,149.297L373.709,149.297C373.239,148.828 372.77,147.889 372.77,147.419C374.178,148.358 375.587,148.828 376.995,148.828C377.464,148.828 378.403,148.828 378.873,148.358L379.812,147.889C380.281,147.889 380.751,147.419 381.22,147.419C381.22,147.889 380.751,148.358 380.751,148.828C380.281,149.297 380.281,149.297 379.812,149.767C378.873,150.236 377.934,150.706 376.995,150.706C376.525,150.706 376.056,150.706 375.586,150.236C375.117,150.706 374.178,150.706 373.239,150.706C372.3,150.706 370.892,150.706 369.953,150.236C369.014,149.767 368.544,149.767 367.606,149.297C362.911,149.767 344.601,143.194 349.296,123.945Z" style="fill:rgb(95,0,65);fill-rule:nonzero;"/>
                <path id="path588" d="M346.479,85.917C346.479,85.917 348.357,83.1 353.521,85.917C353.521,85.917 351.643,89.672 346.479,85.917Z" style="fill:rgb(95,0,65);fill-rule:nonzero;"/>
                <g id="g10014">
                    <g id="g9961" transform="matrix(1,0,0,1,0.000698325,0)">
                        <path id="path224" d="M119.071,448.107C111.698,448.328 105.996,450.023 102.102,453.521C97.897,457.3 96.787,461.471 96.469,463.381C96.315,464.307 92.245,485.916 108.207,510.799C108.207,510.799 105.107,512.796 104.451,513.615C103.207,515.171 101.164,517.84 99.756,521.127C96.47,528.639 94.591,544.602 109.145,577.936L109.614,578.875L110.553,579.344C111.023,579.344 151.398,590.611 194.59,624.414C225.107,648.358 261.727,674.179 300.694,685.447C318.305,690.539 334.192,691.462 348.358,691.549C362.524,691.462 378.408,690.539 396.02,685.447C434.987,674.179 471.607,648.358 502.123,624.414C545.316,590.611 585.691,579.344 586.16,579.344L587.1,578.875L587.569,577.936C602.123,544.602 600.243,528.639 596.957,521.127C595.549,517.84 593.507,515.171 592.262,513.615C591.606,512.796 588.506,510.799 588.506,510.799C604.469,485.916 600.399,464.307 600.244,463.381C599.926,461.471 598.817,457.3 594.612,453.521C590.718,450.023 585.015,448.328 577.643,448.107C575.185,448.034 572.547,448.137 569.729,448.357C560.328,449.094 553.154,452.032 548.637,456.354C547.289,457.643 541.757,464.239 542.967,472.301C543.437,476.057 544.375,480.752 545.783,484.508C538.742,485.447 532.246,486.594 526.067,488.732C520.032,490.821 516.755,493.918 515.737,497.652C515.346,499.085 513.859,523.005 516.676,542.723C488.507,555.399 472.076,569.484 472.076,569.484C404.001,632.395 348.827,631.455 348.358,631.455C347.889,631.455 292.712,632.395 224.637,569.484C224.637,569.484 208.206,555.399 180.037,542.723C182.854,523.005 181.368,499.085 180.977,497.652C179.958,493.918 176.682,490.821 170.647,488.732C164.468,486.594 157.972,485.447 150.93,484.508C152.338,480.752 153.276,476.057 153.746,472.301C154.957,464.239 149.424,457.643 148.076,456.354C143.56,452.032 136.385,449.094 126.985,448.357C124.167,448.136 121.528,448.034 119.071,448.107ZM120.516,452.787C122.673,452.728 124.99,452.827 127.455,453.053C137.783,454 145.148,457.36 148.112,462.441C148.446,463.014 149.639,466.284 148.582,467.605C147.753,468.643 143.886,471.363 126.985,466.668L124.639,466.197L121.377,481.262C116.802,480.233 112.004,479.22 107.655,476.736C104.243,474.788 101.396,469.251 102.102,464.789C102.377,463.052 102.597,460.123 105.858,457.277C109.052,454.489 114.046,452.963 120.516,452.787ZM576.198,452.787C582.668,452.963 587.661,454.489 590.856,457.277C594.117,460.123 594.337,463.052 594.612,464.789C595.318,469.251 592.471,474.788 589.059,476.736C584.71,479.22 579.912,480.233 575.336,481.262L572.074,466.197L569.729,466.668C552.827,471.363 548.961,468.643 548.131,467.605C547.074,466.284 548.268,463.014 548.602,462.441C551.566,457.36 558.931,454 569.258,453.053C571.724,452.827 574.041,452.728 576.198,452.787ZM127.924,471.832C135.758,473.697 141.517,474.376 145.672,473.635C146.747,473.443 149.249,472.838 149.991,472.301C149.991,473.71 147.157,483.548 146.741,484.416C139.885,483.833 132.79,483.374 125.625,482.113L127.924,471.832ZM568.789,471.832L571.088,482.113C563.924,483.374 556.829,483.833 549.973,484.416C549.556,483.548 546.723,473.71 546.723,472.301C547.464,472.838 549.967,473.443 551.041,473.635C555.197,474.376 560.956,473.697 568.789,471.832ZM101.633,476.996C102.572,477.935 103.578,478.761 104.451,479.344C106.404,480.646 108.252,481.583 110.553,482.629C113.42,483.932 117.15,484.835 120.412,485.447C124.667,486.245 149.52,488.733 150.459,489.203C157.502,490.142 164.126,490.952 170.178,493.428C174.457,495.178 177.032,497.23 177.69,499.531C177.978,500.541 177.803,501.474 177.221,502.348C176.853,502.9 174.416,503.832 169.239,504.695C163.148,505.711 154.684,505.634 146.703,506.104C135.436,506.573 123.7,507.042 117.127,508.92C115.718,509.39 114.779,509.86 113.371,510.33C105.771,498.433 100.802,479.286 101.633,476.996ZM595.08,476.996C595.912,479.286 590.942,498.433 583.342,510.33C581.934,509.86 580.995,509.39 579.586,508.92C573.013,507.042 561.278,506.573 550.01,506.104C542.029,505.634 533.566,505.711 527.475,504.695C522.298,503.832 519.861,502.9 519.492,502.348C518.91,501.474 518.735,500.54 519.024,499.531C519.681,497.23 522.256,495.178 526.535,493.428C532.587,490.952 539.211,490.142 546.254,489.203C547.193,488.733 572.046,486.245 576.301,485.447C579.564,484.835 583.293,483.932 586.16,482.629C588.462,481.583 590.309,480.646 592.262,479.344C593.136,478.761 594.141,477.935 595.08,476.996ZM177.69,506.574L177.69,507.512C177.69,515.023 178.16,528.64 176.282,541.316C163.606,535.682 149.051,530.517 132.149,527.23C127.455,526.291 119.046,523.848 118.065,523.475C109.182,520.09 109.145,518.31 109.145,517.84C109.145,517.06 109.511,516.113 110.112,515.709C112.72,513.957 119.748,512.215 120.448,512.064C126.843,510.693 136.773,510.33 146.703,510.33C149.05,510.33 160.793,509.539 163.606,509.391C169.718,509.069 174.873,507.982 177.69,506.574ZM519.024,506.574C521.841,507.982 526.995,509.069 533.108,509.391C535.921,509.539 547.663,510.33 550.01,510.33C559.941,510.33 569.873,510.693 576.268,512.064C576.968,512.215 583.994,513.957 586.602,515.709C587.203,516.113 587.569,517.06 587.569,517.84C587.569,518.31 587.532,520.09 578.649,523.475C577.667,523.848 569.259,526.291 564.565,527.23C547.663,530.517 533.108,535.682 520.432,541.316C518.554,528.64 519.024,515.023 519.024,507.512L519.024,506.574ZM106.797,521.596C107.736,522.535 112.9,525.825 114.309,526.291C129.637,531.36 145.401,534.487 160.319,539.438C166.757,541.871 172.805,544.279 178.629,546.949C206.709,559.822 222.76,573.24 222.76,573.24C291.774,637.09 346.011,636.619 348.358,636.619C350.705,636.619 404.939,637.09 473.953,573.24C473.953,573.24 490.005,559.822 518.084,546.949C523.909,544.279 529.956,541.871 536.395,539.438C551.312,534.487 567.077,531.36 582.405,526.291C583.814,525.825 588.977,522.535 589.916,521.596C589.916,522.066 590.385,522.066 590.385,522.535C593.202,527.7 596.02,541.785 581.936,575.588C575.363,577.936 537.334,590.141 497.428,621.127C466.442,645.071 429.198,670.813 389.916,682.16C376.486,686.04 362.609,686.895 348.358,687.176C334.107,686.895 320.227,686.04 306.797,682.16C267.516,670.813 230.271,645.071 199.285,621.127C159.38,590.141 121.351,577.936 114.778,575.588C100.694,541.785 103.511,527.7 106.328,522.535C106.328,522.066 106.797,522.066 106.797,521.596Z" style="fill:white;fill-rule:nonzero;"/>
                        <g id="g8741" transform="matrix(1,0,0,1,-0.504083,0)">
                            <path id="path188" d="M157.276,563.38C159.624,562.911 161.032,562.441 161.971,560.094C162.91,557.746 162.91,553.521 156.807,551.174L143.661,546.01L134.271,569.953L147.887,575.117C152.112,576.995 157.276,576.056 159.154,571.361C160.563,567.136 159.154,564.788 157.276,563.38ZM152.112,567.136C151.173,569.014 149.765,569.014 148.356,568.075L144.131,566.197L146.009,561.972L150.703,563.85C152.112,564.788 152.581,565.727 152.112,567.136ZM154.459,558.216C153.99,559.624 152.581,559.624 151.173,559.155L147.417,557.746L148.826,553.991L152.581,555.399C154.459,556.338 154.929,557.277 154.459,558.216Z" style="fill:white;fill-rule:nonzero;"/>
                            <path id="path198" d="M256.806,643.662L260.562,638.028L248.825,630.516L250.703,627.699L261.032,634.272L264.318,629.577L254.459,622.535L255.867,620.188L267.135,627.23L269.482,624.413L269.482,639.906L264.788,647.887L271.36,652.113L276.055,643.662L292.018,633.803L284.506,629.577L276.055,635.681L276.994,625.352L270.891,622.066L253.05,610.328L238.966,631.455L256.806,643.662Z" style="fill:white;fill-rule:nonzero;"/>
                            <path id="path200" d="M298.122,663.85L301.408,654.46L311.267,657.747L313.145,652.113L303.286,648.826L304.694,645.54L315.962,649.765L317.84,643.662L299.53,637.089L290.61,661.033L298.122,663.85Z" style="fill:white;fill-rule:nonzero;"/>
                            <path id="path202" d="M314.553,655.868C313.145,663.38 316.901,669.953 324.882,671.362C332.394,672.77 338.497,668.545 340.375,660.563C341.783,653.052 338.027,646.479 330.046,645.07C322.065,643.662 315.962,648.357 314.553,655.868ZM322.065,657.746C323.004,652.113 326.29,651.643 328.638,651.643C330.516,652.113 333.333,653.991 332.394,659.624C331.455,665.258 328.168,665.728 325.821,665.728C323.943,665.258 321.126,663.38 322.065,657.746Z" style="fill:white;fill-rule:nonzero;"/>
                            <path id="path204" d="M353.99,675.117C361.972,675.117 367.136,669.953 367.136,661.971C367.136,653.99 361.972,648.356 354.46,648.356C346.479,648.356 341.314,653.521 341.314,661.502C340.845,669.014 346.009,674.648 353.99,675.117ZM354.46,654.46C356.338,654.46 359.624,655.868 359.624,661.502C359.624,667.136 356.338,668.544 354.46,668.544C352.582,668.544 349.296,667.136 349.296,661.502C349.296,655.868 352.113,654.46 354.46,654.46Z" style="fill:white;fill-rule:nonzero;"/>
                            <path id="path206" d="M374.178,653.99L377.464,673.239L384.976,671.831L382.159,653.051L389.201,651.643L388.262,645.07L366.197,648.826L367.136,655.399L374.178,653.99Z" style="fill:white;fill-rule:nonzero;"/>
                            <path id="path208" d="M411.267,664.32C415.492,662.911 418.779,658.686 416.901,653.991C415.492,650.235 413.145,649.296 410.328,649.296C411.737,647.888 412.676,646.01 411.737,643.662C410.798,641.315 408.45,638.029 401.877,640.376L388.732,645.071L397.182,669.015L411.267,664.32ZM409.389,655.869C409.859,657.747 408.92,658.686 407.511,659.155L403.286,660.564L401.877,655.869L406.572,653.991C407.511,653.991 408.92,654.46 409.389,655.869ZM402.347,646.479C403.755,646.01 405.164,646.01 405.633,647.418C406.103,648.827 405.164,649.766 403.755,650.235L399.999,651.644L398.591,647.888L402.347,646.479Z" style="fill:white;fill-rule:nonzero;"/>
                            <path id="path210" d="M426.759,657.746L426.29,653.99L433.332,650.234L436.149,653.051L443.191,649.295L423.003,630.986L415.961,634.741L419.717,661.972L426.759,657.746ZM423.473,639.906L429.107,646.009L424.881,648.357L423.473,639.906Z" style="fill:white;fill-rule:nonzero;"/>
                            <path id="path212" d="M460.093,637.09L456.807,631.926L446.947,638.03L436.619,622.067L430.046,626.292L444.13,647.889L460.093,637.09Z" style="fill:white;fill-rule:nonzero;"/>
                            <path id="path218" d="M522.066,589.202L517.84,584.037L508.92,591.08L497.652,575.587L491.08,580.282L506.573,600.939L522.066,589.202Z" style="fill:white;fill-rule:nonzero;"/>
                            <path id="path220" d="M532.863,583.099C539.436,578.874 541.314,574.179 537.558,568.076L529.577,554.461L523.004,558.686L530.046,570.893C531.455,573.24 532.863,576.057 530.046,577.935C526.76,579.813 524.882,576.996 523.943,574.649L516.901,562.442L510.328,566.667L518.309,580.283C521.126,585.916 526.291,586.855 532.863,583.099Z" style="fill:white;fill-rule:nonzero;"/>
                            <path id="path222" d="M557.276,571.362C561.501,569.953 564.787,565.728 562.909,561.033C561.501,557.277 559.154,556.338 556.337,556.338C557.745,554.93 558.684,553.052 557.745,550.704C556.806,548.357 553.99,545.071 547.887,547.418L534.741,552.113L543.192,576.056L557.276,571.362ZM555.398,562.911C555.867,564.789 554.928,565.728 553.52,566.197L549.295,567.606L547.887,562.911L552.581,561.033C553.99,561.033 554.928,561.502 555.398,562.911ZM548.356,553.521C549.764,553.052 551.173,553.052 551.642,554.46C552.112,555.869 551.173,556.808 549.764,557.277L546.009,558.686L544.6,554.93L548.356,553.521Z" style="fill:white;fill-rule:nonzero;"/>
                            <path id="path196" d="M236.619,629.578L240.844,624.413L231.924,617.84L243.661,602.347L237.088,597.652L221.596,617.84L236.619,629.578Z" style="fill:white;fill-rule:nonzero;"/>
                            <path id="path214" d="M477.465,624.413L473.709,618.779L464.789,625.822L453.051,610.328L446.948,615.023L462.441,635.681L477.465,624.413Z" style="fill:white;fill-rule:nonzero;"/>
                            <path id="path216" d="M496.713,609.86C502.347,605.165 502.347,598.123 499.061,594.367L492.957,599.062C493.896,601.41 494.366,603.288 492.488,605.165C489.671,607.513 486.384,605.165 484.506,602.818C482.159,600.001 481.22,596.715 484.037,594.367C486.384,592.489 488.732,593.898 489.671,594.837L495.774,590.142C491.079,585.447 485.915,584.978 480.281,589.203C474.178,593.898 473.239,601.41 478.403,607.982C483.098,613.147 490.61,615.025 496.713,609.86Z" style="fill:white;fill-rule:nonzero;"/>
                            <path id="path194" d="M207.042,606.104L215.962,595.306L213.145,610.799L219.248,615.963L235.21,595.776L229.577,591.081L220.657,601.879L223.474,586.386L217.371,581.222L200.939,601.409L207.042,606.104Z" style="fill:white;fill-rule:nonzero;"/>
                            <path id="path190" d="M175.117,558.216L168.075,554.93L161.502,569.014C158.685,575.587 160.563,580.282 167.606,583.568C174.648,586.855 179.812,585.446 182.629,578.873L189.202,564.789L182.16,561.502L176.056,574.179C175.117,576.526 173.709,579.343 169.953,577.934C166.667,576.526 168.075,573.24 169.014,570.892L175.117,558.216Z" style="fill:white;fill-rule:nonzero;"/>
                            <path id="path192" d="M186.385,592.958L191.079,584.976L194.835,586.854C197.652,588.263 196.244,590.61 195.305,592.958C194.835,594.366 194.366,595.305 193.896,596.713L200.939,600.469C200.939,599.061 202.347,596.244 202.817,595.305C204.225,592.488 204.225,589.671 202.817,587.793C205.634,588.263 207.981,586.385 209.389,584.037C211.737,579.812 209.859,575.587 205.634,573.709L192.488,566.197L179.812,588.263L186.385,592.958ZM196.244,576.056L199.53,577.934C202.347,579.342 202.347,580.751 201.408,582.159C200.469,584.037 198.591,583.568 197.183,582.629L193.427,580.751L196.244,576.056Z" style="fill:white;fill-rule:nonzero;"/>
                        </g>
                    </g>
                    <g id="g8457">
                        <path id="path238" d="M340.375,66.668C340.375,66.668 328.168,69.486 328.168,86.387C328.168,86.387 328.169,88.734 327.23,91.551C325.822,92.49 325.352,93.428 325.352,93.428C325.821,92.959 326.291,92.959 326.76,92.959C326.291,93.898 325.822,95.307 324.883,96.246C322.066,100.002 319.719,106.575 319.719,112.209L319.719,112.678L320.188,112.209C320.188,112.209 324.883,108.92 325.822,104.695C326.292,102.817 327.699,101.41 328.168,100.471C328.638,102.349 329.107,106.575 329.107,107.514L329.107,107.982L329.578,107.982C330.517,107.043 334.272,101.88 330.516,94.838C330.046,93.899 330.047,92.49 330.047,91.082C336.151,89.673 340.376,92.02 342.254,92.959C343.193,93.898 344.131,94.838 344.6,96.246C345.539,99.063 345.071,102.349 343.193,105.635C341.785,108.921 339.907,111.268 338.498,113.615C334.742,119.719 331.924,123.944 332.863,133.334C334.272,144.132 341.314,149.298 345.539,151.176C347.887,153.524 349.295,157.278 350.234,159.156C351.643,161.973 350.234,161.504 350.234,161.504C342.253,161.973 339.437,157.748 333.803,155.4C332.395,154.931 330.986,154.461 329.578,154.461C326.292,153.052 321.597,153.052 317.371,154.461C309.39,156.808 304.226,163.382 306.104,169.016C306.573,170.894 307.981,172.77 310.328,173.709C312.206,174.648 314.554,175.119 317.371,175.119C319.249,175.119 321.596,174.649 323.943,174.18C330.516,171.833 335.211,167.138 335.68,162.443C338.497,163.382 346.478,169.484 352.582,171.832C359.155,174.648 361.502,167.137 361.502,167.137C363.38,170.423 358.686,181.222 355.869,187.326L353.051,189.203L351.643,182.16L345.07,191.08C342.723,190.141 335.68,181.691 335.68,181.691C334.741,190.611 331.925,192.958 330.986,193.428L315.492,183.1C315.492,190.142 308.451,194.367 304.695,194.367L294.365,189.203C295.304,196.714 289.202,198.123 287.324,198.123L269.484,198.123C262.442,198.123 256.338,203.757 256.338,211.268C256.338,216.149 259.809,221.033 264.096,223.475L188.264,223.475L188.264,432.395C189.203,516.432 260.095,595.776 348.358,613.146C436.621,595.776 507.512,516.432 508.451,432.395L508.451,223.475L435.672,223.475C439.453,221.217 442.254,217.067 442.254,212.207C442.254,205.165 436.619,199.063 429.107,199.063L410.799,199.063C403.287,198.124 401.879,190.611 401.879,190.611C392.959,200.001 384.037,185.447 384.037,185.447L368.545,190.611L364.789,183.57C366.667,179.814 369.014,176.058 371.361,174.18C375.587,170.424 376.996,169.955 376.996,169.955C375.118,165.729 374.178,161.973 374.178,160.564C374.648,160.095 377.935,158.686 381.221,157.277C382.63,156.808 384.036,156.338 385.445,155.869L387.793,155.869L385.916,153.992C386.386,153.992 387.324,154.932 387.793,154.932C388.732,155.401 389.67,155.869 390.609,155.869C391.548,155.869 392.958,155.87 392.488,154.932C392.958,154.932 393.896,155.4 394.365,155.4L396.244,155.4C396.713,154.931 397.183,154.93 397.652,154.461C398.122,153.991 398.591,153.993 399.061,153.523C399.061,153.054 399.529,153.053 399.529,152.584C399.529,152.114 399.53,151.645 399.061,151.645C398.122,150.706 397.183,150.706 396.244,150.236L392.959,149.297C392.02,148.828 391.548,148.827 390.609,148.357C388.262,147.418 390.61,148.357 391.549,148.357L393.896,148.357C394.835,148.357 395.305,147.889 396.244,147.889L398.592,146.949C398.592,146.949 396.244,147.889 391.08,144.133C389.202,142.724 388.262,140.846 386.854,139.438C384.037,136.151 381.22,132.866 377.934,130.049C374.648,127.232 371.361,124.413 367.605,122.535C364.319,120.658 360.563,119.25 356.338,119.25L355.869,119.25C355.869,118.781 354.93,111.269 359.156,101.879C361.503,96.715 361.972,91.551 359.625,87.326C357.747,84.04 354.929,82.162 351.643,81.223C351.173,81.223 345.539,80.284 338.967,84.979C337.089,85.918 335.212,86.857 333.334,87.795C338.968,81.223 351.174,74.65 353.521,74.18L353.521,73.711C353.052,73.711 345.07,74.18 339.906,77.467C340.845,75.589 341.785,72.301 340.846,67.137L340.846,66.668L340.375,66.668ZM366.256,197.721C377.083,197.655 386.854,201.879 386.854,201.879C392.487,204.226 395.775,206.574 398.592,208.922C399.531,209.861 400,210.329 400.469,210.799C402.347,212.677 405.634,215.494 408.451,215.963C410.798,216.433 406.573,221.129 400,217.842C399.53,217.373 398.591,216.902 397.652,215.963C391.08,210.799 385.445,210.799 385.445,210.799C379.341,210.329 380.752,214.086 380.752,214.086C384.038,220.659 375.587,218.781 371.361,214.086C364.788,207.044 358.686,204.696 354.93,202.818C350.705,201.409 353.52,200.001 355.398,199.531C358.919,198.24 362.647,197.743 366.256,197.721ZM314.443,199.795C324.148,199.795 332.863,203.758 332.863,203.758C345.539,209.391 347.418,215.494 347.418,215.494C347.418,215.494 349.296,222.067 342.254,216.902C336.62,212.677 332.395,213.617 332.395,213.617C328.169,213.617 327.231,223.945 318.311,215.025C312.208,208.922 306.573,206.575 303.287,204.697C300,202.819 302.817,202.349 304.695,201.41C307.864,200.236 311.208,199.795 314.443,199.795ZM275.094,203.754C278.989,203.715 282.659,205.678 284.508,208.451C290.612,217.372 298.592,218.78 294.836,219.25C292.489,219.719 285.446,217.372 282.16,214.555C277.934,210.799 271.362,213.617 276.057,217.373C276.526,217.842 275.587,218.311 274.648,218.311C265.729,218.311 262.911,209.86 269.014,205.635C270.95,204.344 273.053,203.774 275.094,203.754ZM424.545,204.051C429.695,204.051 432.863,205.635 432.863,205.635C435.68,207.043 436.62,208.921 436.15,210.799C435.681,214.555 430.516,218.781 430.047,216.434C429.108,211.269 423.475,208.922 423.475,208.922C423.475,208.922 415.963,205.166 418.311,204.697L418.779,204.697C420.892,204.228 422.828,204.051 424.545,204.051ZM199.531,320.658L497.184,320.658L497.184,432.395C497.286,453.516 494.959,461.973 492.488,461.973L484.26,461.973L484.26,442.725L469.236,442.725L469.236,424.414L448.109,424.414L448.109,403.287L427.453,403.287L427.453,384.508L406.326,384.508L406.326,364.789L381.912,364.789L381.912,344.133L358.908,344.133L348.357,327.23L337.807,344.133L314.803,344.133L314.803,364.789L290.389,364.789L290.389,384.508L269.262,384.508L269.262,403.287L248.605,403.287L248.605,424.414L227.479,424.414L227.479,442.725L212.455,442.725L212.455,461.973L204.227,461.973C201.756,461.973 199.429,453.516 199.531,432.395L199.531,320.658ZM336.619,366.668L360.092,366.668L360.092,387.326L378.871,387.326L378.871,407.982L399.059,407.982L399.059,428.639L419.717,428.639L419.717,448.826L439.904,448.826L439.904,470.424L465.727,470.424L465.727,494.367L482.158,494.367C472.876,515.582 458.15,534.116 442.135,550.75C416.369,575.804 383.701,593.962 348.355,600.939C313.01,593.962 280.341,575.804 254.576,550.75C238.561,534.116 223.837,515.582 214.555,494.367L230.986,494.367L230.986,470.424L256.807,470.424L256.807,448.826L276.994,448.826L276.994,428.639L297.652,428.639L297.652,407.982L317.84,407.982L317.84,387.326L336.619,387.326L336.619,366.668Z" style="fill:white;fill-rule:nonzero;"/>
                        <g id="g1878">
                            <path id="path226" d="M349.887,522.066C352.704,516.901 348.009,512.206 348.009,513.145C348.478,514.554 345.661,515.023 345.661,515.023C342.844,515.493 336.741,513.615 336.741,513.615C316.084,509.859 322.656,535.681 324.065,541.315C325.004,544.601 322.656,552.113 310.919,551.174C301.999,550.235 301.53,554.93 301.53,554.93C305.755,551.643 308.572,553.991 308.572,553.991C303.877,554.46 302.469,559.624 302.469,559.624C307.163,555.399 311.389,558.216 311.389,558.216C307.633,559.155 307.633,564.319 307.633,564.319C310.45,560.563 313.267,562.441 313.267,562.441C313.267,562.441 318.901,564.788 320.309,558.685C320.779,556.808 324.065,559.624 324.065,559.624C323.595,557.277 324.534,554.93 325.004,553.991C325.473,553.052 329.229,556.808 329.229,556.808C331.107,554.93 330.168,552.582 330.168,552.113C330.168,551.174 328.76,547.887 329.699,546.01C332.516,542.254 336.272,548.826 336.272,548.826C337.211,543.662 332.046,533.803 331.577,533.333C329.229,530.516 328.29,523.944 338.619,531.925C342.375,535.211 347.07,533.333 347.07,533.333C345.661,528.169 349.887,522.066 349.887,522.066Z" style="fill:white;fill-rule:nonzero;"/>
                            <path id="path228" d="M335.28,463.919C335.28,463.919 337.158,466.266 335.28,469.552C335.28,469.552 340.914,470.961 343.731,468.144C343.731,468.144 342.322,471.9 344.67,476.125C344.67,476.125 348.895,473.778 349.834,470.961C349.834,470.961 351.712,471.43 353.121,474.717C354.529,478.003 355.938,478.473 355.938,478.473C355.938,478.473 355.938,473.778 359.224,472.839C359.224,472.839 362.98,477.534 368.144,475.656C368.144,475.656 359.693,470.961 368.144,469.083C368.144,469.083 362.041,467.205 362.51,464.388C362.51,464.388 359.224,469.552 352.182,468.144C352.182,468.144 354.06,465.797 353.121,462.98C353.121,462.98 347.487,466.266 342.792,463.919C342.792,463.919 342.792,458.754 346.078,456.876C346.078,456.876 338.567,455.937 336.219,458.285C336.219,458.285 334.811,454.998 337.158,452.181C337.158,452.181 330.116,454.529 328.238,465.797C327.768,466.266 332.933,466.736 335.28,463.919Z" style="fill:white;fill-rule:nonzero;"/>
                            <path id="path230" d="M290.263,492.958C290.263,492.958 283.69,498.122 288.854,503.756C288.854,503.756 289.324,496.713 293.549,498.591C293.549,498.591 286.507,503.756 293.549,507.981C293.549,507.981 293.08,500.939 298.714,502.347C302,503.286 304.347,499.061 304.347,499.061C304.347,499.061 308.103,496.713 310.451,500C312.798,503.756 316.085,504.225 316.554,504.695C316.554,504.695 314.207,501.408 316.554,500C316.554,500 320.31,503.756 323.127,503.756C323.127,503.756 319.84,500 323.127,499.53C323.127,499.53 325.005,499.53 325.474,501.408C325.944,503.756 331.578,504.695 332.047,504.695C332.047,504.695 328.761,501.878 330.639,499.061L330.639,498.591C332.517,495.774 334.394,496.713 334.394,496.713C341.437,494.836 340.967,487.324 340.967,485.446C341.437,485.446 341.906,485.915 341.906,486.385C342.845,488.732 343.315,494.366 335.333,499.061C335.333,499.061 335.803,505.634 346.601,510.329C346.601,510.329 345.193,501.878 351.765,514.084C351.765,514.084 354.113,518.779 351.296,523.474C348.949,528.169 346.132,536.15 355.052,541.315C363.972,546.948 369.606,553.052 365.38,569.014C365.38,569.014 362.563,574.647 356.93,573.239C351.296,571.83 348.949,569.483 344.254,575.586C344.254,575.586 349.888,572.769 353.174,576.525C353.174,576.525 346.601,574.647 344.254,583.098C344.254,583.098 350.826,579.342 353.643,582.159C353.643,582.159 349.888,583.098 349.888,587.793C349.888,587.793 353.643,584.976 356.46,586.384C361.155,588.262 362.094,585.445 363.502,583.098C364.911,580.75 368.197,584.037 372.892,583.098C372.892,583.098 366.319,577.934 370.075,575.586C372.422,574.178 376.647,576.995 378.525,574.647C378.525,574.647 370.075,571.361 374.3,565.727C376.178,563.38 379.464,566.197 381.342,564.788C381.342,564.788 375.709,562.911 376.648,557.746C377.117,554.46 378.525,554.93 379.464,555.399C380.403,555.869 382.751,556.338 384.159,555.399C384.159,555.399 381.812,554.93 381.342,552.113C380.873,549.296 381.342,545.54 378.056,543.193C376.178,541.784 374.77,541.784 374.77,537.089C374.77,531.455 377.117,530.986 378.525,530.516C379.934,530.516 383.22,530.047 385.098,528.639C385.098,528.639 397.305,521.127 390.732,505.634C384.159,490.141 380.873,489.202 381.812,476.995C382.751,464.788 385.567,459.155 388.384,454.929C390.262,451.643 394.488,449.295 397.305,448.826C397.305,448.826 404.347,447.417 403.408,455.868C403.408,455.868 403.408,458.216 399.183,461.502C394.957,465.258 393.549,469.014 393.549,469.014C393.549,469.014 398.244,465.727 399.183,466.666C400.122,467.605 399.652,469.014 397.774,471.361C395.896,473.239 393.549,477.934 394.018,481.69C394.018,481.69 395.427,479.342 397.305,479.342C397.305,479.342 396.366,486.854 401.061,489.671C401.061,489.671 399.652,481.22 402.938,476.526C405.286,473.239 410.92,462.441 407.633,454.929C407.633,454.929 407.633,445.07 401.53,444.131C401.53,444.131 402.469,446.009 401.999,445.539C401.53,445.07 382.751,443.662 378.995,473.239C378.995,474.648 378.056,478.873 378.056,478.873C378.056,478.873 377.586,486.385 372.892,480.751C372.892,480.751 372.422,486.854 378.525,490.61C384.628,494.835 372.892,494.366 370.544,490.141C370.544,490.141 370.544,494.835 376.648,497.652C382.751,500 381.812,503.286 371.953,500.939C371.953,500.939 374.77,505.164 382.751,505.164C390.732,505.164 391.201,517.371 388.384,520.188C384.159,523.944 381.812,523.474 379.934,523.005C377.586,522.535 376.647,523.005 376.647,523.005C376.647,523.005 371.953,518.31 371.014,514.084C370.544,510.798 363.972,505.164 363.972,505.164C363.972,505.164 360.216,500.469 361.625,491.08C363.033,481.69 363.502,478.873 363.033,477.465C363.033,477.465 360.686,476.995 359.747,475.587C359.747,475.587 358.338,479.342 358.338,481.69C358.338,481.69 353.643,480.751 351.765,476.995C350.357,473.239 348.949,474.178 348.949,474.178C348.949,474.178 346.132,477.934 342.845,478.873C342.845,478.873 341.437,478.404 341.437,474.648L341.437,470.892C341.437,470.892 336.272,472.3 332.986,470.892C332.986,470.892 333.925,468.544 332.986,467.136C332.986,467.136 330.639,468.544 325.944,467.605C325.944,467.605 325.005,463.38 329.23,456.807C329.23,456.807 329.7,454.929 327.352,450.704C325.005,446.948 321.249,438.497 324.535,432.863C326.883,429.107 325.944,423.943 322.657,422.065C319.84,420.187 317.962,420.187 313.737,421.596C313.737,421.596 319.371,421.126 319.371,425.821C319.371,425.821 313.268,419.718 308.103,425.821C308.103,425.821 315.146,424.882 313.737,430.516C313.737,430.516 308.573,423.474 303.408,431.924C303.408,431.924 310.451,430.985 310.451,437.089C309.981,441.314 315.615,442.723 315.615,442.723C315.615,442.723 317.023,454.929 309.981,454.46C309.981,454.46 314.207,457.277 316.084,456.807C316.084,456.807 316.554,461.502 312.329,461.971C312.329,461.971 314.676,464.319 317.962,464.319C317.962,464.319 318.432,465.727 316.554,466.666C314.207,468.075 314.207,471.831 314.207,472.3C314.207,472.3 316.554,470.422 320.31,472.3C324.066,474.178 328.761,472.77 329.7,472.3C329.7,472.3 330.639,471.831 331.578,471.831C331.108,472.3 330.639,473.239 329.7,474.648C328.291,476.526 326.413,478.873 324.535,481.22C319.371,486.385 310.451,491.549 297.305,485.446C294.019,484.037 288.385,483.568 286.037,485.915C283.69,488.263 282.751,491.08 285.098,494.366C286.037,497.183 286.037,492.019 290.263,492.958Z" style="fill:white;fill-rule:nonzero;"/>
                            <path id="path232" d="M349.764,456.807C345.539,458.685 346.009,462.91 346.009,462.91C352.581,462.441 353.99,459.624 353.99,459.624C357.746,460.563 355.398,465.727 354.929,466.197L355.868,466.197C357.276,466.197 360.093,464.788 362.91,461.032C362.91,461.971 363.849,468.075 373.239,467.605C373.239,467.605 367.135,464.788 368.544,461.032L368.544,460.563C372.3,464.319 377.464,459.624 377.464,459.624C372.3,459.624 371.83,456.807 371.83,455.399C377.934,459.154 381.22,453.051 380.281,452.112C380.281,452.112 369.483,456.338 378.403,437.089C379.342,434.741 382.628,430.985 379.342,427.699C376.056,424.412 374.647,418.779 378.403,415.962C378.403,415.962 374.178,414.084 368.544,417.84C365.727,419.718 363.38,418.779 363.38,418.779C363.38,418.779 358.685,416.431 354.459,418.309C351.173,419.718 350.234,421.596 349.764,422.534C347.417,421.596 343.192,424.412 342.722,424.412C342.253,424.412 342.722,426.29 342.253,427.229C341.783,428.168 341.314,431.455 345.539,431.455C349.764,430.985 352.581,430.046 352.581,430.046C352.581,430.046 353.52,430.985 353.99,433.333C354.459,436.15 355.868,440.375 350.234,440.844L351.642,442.253C353.051,443.192 357.746,443.192 358.215,440.375C359.154,438.028 360.563,437.558 360.563,437.558C360.563,437.558 362.91,444.131 353.52,445.07C344.131,446.009 338.497,449.295 336.619,456.338C347.886,453.521 349.764,456.807 349.764,456.807ZM358.685,424.412C356.807,425.821 354.929,425.351 352.581,423.004C354.929,420.187 358.215,419.248 362.91,422.534C362.91,422.534 360.563,423.004 358.685,424.412Z" style="fill:white;fill-rule:nonzero;"/>
                        </g>
                        <g id="g1601" transform="matrix(1,0,0,1,-2.11158,0)">
                            <path id="path234" d="M258.215,360.095L243.192,334.742L227.699,360.564L243.192,389.672L258.215,360.095Z" style="fill:white;fill-rule:nonzero;"/>
                            <path id="path236" d="M476.055,360.095L460.562,334.742L445.069,360.564L461.032,389.672L476.055,360.095Z" style="fill:white;fill-rule:nonzero;"/>
                        </g>
                        <g id="g8371">
                            <g id="g1140" transform="matrix(1,0,0,1,-1.4077,0)">
                                <path id="path600" d="M351.174,239.438L351.643,239.438C355.399,240.376 354.93,262.442 353.991,265.259C352.582,265.259 351.174,265.259 349.765,265.729C349.296,264.79 349.296,263.851 349.296,262.442C349.296,260.095 349.296,245.541 349.765,242.254C349.296,239.907 350.704,239.438 351.174,239.438Z" style="fill:rgb(95,0,65);fill-rule:nonzero;"/>
                                <path id="path598" d="M357.277,253.522C357.277,249.297 357.277,243.663 360.094,243.663C361.972,243.663 361.972,247.419 361.972,249.766L361.972,259.625C361.033,261.034 360.564,265.259 360.564,266.198C359.625,265.729 358.686,265.729 357.277,265.729C356.808,264.79 357.277,257.747 357.277,253.522Z" style="fill:rgb(95,0,65);fill-rule:nonzero;"/>
                                <path id="path596" d="M346.479,261.503C346.479,263.851 346.479,265.259 346.009,266.198C344.132,266.198 342.723,266.668 341.315,266.668C340.376,262.442 340.376,257.278 340.376,257.278L340.845,248.358C340.845,247.888 340.845,242.724 343.662,242.724C346.009,242.724 346.009,248.827 346.009,248.827C346.009,248.827 346.009,255.4 346.479,261.503Z" style="fill:rgb(95,0,65);fill-rule:nonzero;"/>
                                <path id="path594" d="M359.155,298.123C359.625,298.593 361.033,301.41 358.686,307.044C358.686,307.044 351.174,311.269 340.376,307.513C340.376,307.044 340.376,299.532 339.906,298.123C339.437,296.715 335.211,293.898 335.211,293.898C335.211,293.428 330.986,267.607 334.272,257.278C334.272,257.278 334.272,248.827 337.089,247.888C338.967,247.419 338.498,256.809 338.498,256.809L338.498,267.607C334.742,270.424 337.559,270.893 337.559,270.893C349.296,269.015 355.399,268.546 358.216,269.015L359.155,269.015C361.033,269.485 361.033,270.424 361.033,270.424C361.033,270.424 361.502,272.771 353.052,274.179C353.052,274.179 348.357,275.118 347.418,276.996C346.479,278.874 346.009,284.978 348.357,288.734C348.357,288.734 349.765,288.264 349.296,286.386C348.826,284.508 349.296,279.813 350.704,278.874C352.113,277.466 364.319,276.057 364.319,272.771C364.319,272.771 362.911,267.137 365.728,261.034C368.075,256.809 370.892,262.442 370.422,269.954C370.422,269.954 369.953,281.691 369.953,284.039C369.953,286.386 368.544,293.898 360.563,295.306C360.563,295.306 357.747,296.245 357.277,297.654C356.808,297.654 358.686,297.654 359.155,298.123Z" style="fill:rgb(95,0,65);fill-rule:nonzero;"/>
                            </g>
                            <g id="g8200" transform="matrix(1,0,0,1,-0.0142768,0)">
                                <path id="path3288" d="M238.689,242.502C238.322,242.467 237.975,242.662 237.576,243.193C236.946,244.033 239.454,246.95 239.924,247.42C241.332,248.828 243.679,253.052 246.496,258.686C246.026,259.155 246.028,259.157 245.559,260.096C230.535,257.279 218.921,257.781 217.857,261.504C217.042,264.359 225.371,268.546 232.883,272.771C225.371,276.996 216.918,281.222 217.857,284.039C219.266,288.264 230.065,288.733 245.088,285.916L245.658,290.074C245.658,290.074 240.392,299.062 237.576,301.879C236.637,302.818 237.107,303.287 237.107,303.287C237.107,303.756 237.578,303.758 238.047,303.758C238.517,303.758 239.557,303.571 240.863,302.818C241.773,302.294 243.679,299.533 246.496,294.838C246.918,296.444 249.766,307.581 256.824,307.514C263.882,307.581 266.731,296.444 267.152,294.838C269.969,299.533 271.878,302.294 272.787,302.818C274.093,303.571 275.134,303.758 275.604,303.758C276.073,303.758 276.543,303.756 276.543,303.287C276.543,303.287 277.011,302.818 276.072,301.879C273.256,299.062 267.99,290.074 267.99,290.074L268.563,285.916C283.585,288.733 294.382,288.264 295.791,284.039C296.73,281.222 288.279,276.996 280.768,272.771C288.279,268.546 296.607,264.359 295.791,261.504C294.727,257.781 283.116,257.279 268.092,260.096C267.623,259.157 267.622,259.155 267.152,258.686C269.969,253.052 272.319,248.828 273.727,247.42C274.196,246.95 276.702,244.033 276.072,243.193C275.275,242.131 274.686,242.413 273.727,243.193C271.871,244.703 265.916,251.001 265.275,253.992C262.928,248.827 260.11,245.541 256.824,245.541C253.538,245.541 250.722,248.827 248.375,253.992C247.735,251.001 241.779,244.703 239.924,243.193C239.444,242.803 239.057,242.537 238.689,242.502Z" style="fill:rgb(95,0,65);fill-rule:nonzero;"/>
                                <g id="g8192">
                                    <path id="path242" d="M256.825,250.234C254.947,250.234 252.48,252.078 251.19,256.807C251.067,257.259 250.982,257.365 250.72,258.215C252.953,257.2 254.981,256.8 256.825,256.748C258.669,256.8 260.695,257.2 262.929,258.215C262.667,257.365 262.581,257.259 262.458,256.807C261.169,252.078 258.703,250.234 256.825,250.234Z" style="fill:white;fill-rule:nonzero;"/>
                                    <path id="path8178" d="M251.166,297.195C251.688,298.309 252.288,299.408 252.98,300.488C254.18,300.963 255.546,301.182 256.824,301.182C258.102,301.182 259.469,300.963 260.668,300.488C261.36,299.408 261.96,298.309 262.482,297.195C260.952,297.536 259.293,297.371 256.824,297.371C254.355,297.371 252.697,297.536 251.166,297.195Z" style="fill:white;fill-rule:nonzero;"/>
                                    <path id="path8176" d="M248.908,290.229C249.184,291.629 249.551,293.012 250.021,294.373C251.851,295.054 253.945,295.371 256.824,295.371C259.703,295.371 261.797,295.054 263.627,294.373C264.097,293.012 264.465,291.629 264.74,290.229C262.74,290.939 259.854,291.072 256.824,291.072C253.794,291.072 250.909,290.939 248.908,290.229Z" style="fill:white;fill-rule:nonzero;"/>
                                    <path id="path8136" d="M256.824,283.457C254.102,284.536 251.196,284.978 248.299,285.445C248.348,286.22 248.423,286.99 248.518,287.756C250.562,288.504 253.782,288.873 256.824,288.873C259.866,288.873 263.086,288.504 265.131,287.756C265.225,286.99 265.3,286.22 265.35,285.445C262.452,284.978 259.547,284.536 256.824,283.457Z" style="fill:white;fill-rule:nonzero;"/>
                                </g>
                            </g>
                            <g id="g8266" transform="matrix(1,0,0,1,183.081,0)">
                                <path id="path8254" d="M238.689,242.502C238.322,242.467 237.975,242.662 237.576,243.193C236.946,244.033 239.454,246.95 239.924,247.42C241.332,248.828 243.679,253.052 246.496,258.686C246.026,259.155 246.028,259.157 245.559,260.096C230.535,257.279 218.921,257.781 217.857,261.504C217.042,264.359 225.371,268.546 232.883,272.771C225.371,276.996 216.918,281.222 217.857,284.039C219.266,288.264 230.065,288.733 245.088,285.916L245.658,290.074C245.658,290.074 240.392,299.062 237.576,301.879C236.637,302.818 237.107,303.287 237.107,303.287C237.107,303.756 237.578,303.758 238.047,303.758C238.517,303.758 239.557,303.571 240.863,302.818C241.773,302.294 243.679,299.533 246.496,294.838C246.918,296.444 249.766,307.581 256.824,307.514C263.882,307.581 266.731,296.444 267.152,294.838C269.969,299.533 271.878,302.294 272.787,302.818C274.093,303.571 275.134,303.758 275.604,303.758C276.073,303.758 276.543,303.756 276.543,303.287C276.543,303.287 277.011,302.818 276.072,301.879C273.256,299.062 267.99,290.074 267.99,290.074L268.563,285.916C283.585,288.733 294.382,288.264 295.791,284.039C296.73,281.222 288.279,276.996 280.768,272.771C288.279,268.546 296.607,264.359 295.791,261.504C294.727,257.781 283.116,257.279 268.092,260.096C267.623,259.157 267.622,259.155 267.152,258.686C269.969,253.052 272.319,248.828 273.727,247.42C274.196,246.95 276.702,244.033 276.072,243.193C275.275,242.131 274.686,242.413 273.727,243.193C271.871,244.703 265.916,251.001 265.275,253.992C262.928,248.827 260.11,245.541 256.824,245.541C253.538,245.541 250.722,248.827 248.375,253.992C247.735,251.001 241.779,244.703 239.924,243.193C239.444,242.803 239.057,242.537 238.689,242.502Z" style="fill:rgb(95,0,65);fill-rule:nonzero;"/>
                                <g id="g8264">
                                    <path id="path8256" d="M256.825,250.234C254.947,250.234 252.48,252.078 251.19,256.807C251.067,257.259 250.982,257.365 250.72,258.215C252.953,257.2 254.981,256.8 256.825,256.748C258.669,256.8 260.695,257.2 262.929,258.215C262.667,257.365 262.581,257.259 262.458,256.807C261.169,252.078 258.703,250.234 256.825,250.234Z" style="fill:white;fill-rule:nonzero;"/>
                                    <path id="path8258" d="M251.166,297.195C251.688,298.309 252.288,299.408 252.98,300.488C254.18,300.963 255.546,301.182 256.824,301.182C258.102,301.182 259.469,300.963 260.668,300.488C261.36,299.408 261.96,298.309 262.482,297.195C260.952,297.536 259.293,297.371 256.824,297.371C254.355,297.371 252.697,297.536 251.166,297.195Z" style="fill:white;fill-rule:nonzero;"/>
                                    <path id="path8260" d="M248.908,290.229C249.184,291.629 249.551,293.012 250.021,294.373C251.851,295.054 253.945,295.371 256.824,295.371C259.703,295.371 261.797,295.054 263.627,294.373C264.097,293.012 264.465,291.629 264.74,290.229C262.74,290.939 259.854,291.072 256.824,291.072C253.794,291.072 250.909,290.939 248.908,290.229Z" style="fill:white;fill-rule:nonzero;"/>
                                    <path id="path8262" d="M256.824,283.457C254.102,284.536 251.196,284.978 248.299,285.445C248.348,286.22 248.423,286.99 248.518,287.756C250.562,288.504 253.782,288.873 256.824,288.873C259.866,288.873 263.086,288.504 265.131,287.756C265.225,286.99 265.3,286.22 265.35,285.445C262.452,284.978 259.547,284.536 256.824,283.457Z" style="fill:white;fill-rule:nonzero;"/>
                                </g>
                            </g>
                        </g>
                    </g>
                </g>
            </g>
        </g>
    </g>
</svg>
