<?xml version="1.0" encoding="UTF-8" standalone="no"?>
<!DOCTYPE svg PUBLIC "-//W3C//DTD SVG 1.1//EN" "http://www.w3.org/Graphics/SVG/1.1/DTD/svg11.dtd">
<svg width="100%" height="100%" viewBox="0 0 512 512" version="1.1" xmlns="http://www.w3.org/2000/svg" xmlns:xlink="http://www.w3.org/1999/xlink" xml:space="preserve" xmlns:serif="http://www.serif.com/" style="fill-rule:evenodd;clip-rule:evenodd;stroke-linejoin:round;stroke-miterlimit:2;">
    <rect x="0" y="0" width="512" height="512" style="fill:white;fill-opacity:0;"/>
    <g id="West_Ham_United_FC_logo.svg" transform="matrix(1.03927,0,0,1.03927,256,256)">
        <g transform="matrix(1,0,0,1,-194.999,-216.498)">
            <g id="_0--12562-180930-00" serif:id="0,,12562~180930,00" transform="matrix(1.25,0,0,-1.25,-332.3,734.178)">
                <g id="g496">
                    <g id="g498">
                        <g id="g504" transform="matrix(1,0,0,1,575.827,574.332)">
                            <path id="path506" d="M0,0L0,0.021C-46.788,7.135 -98.969,11.107 -153.998,11.107C-209.026,11.107 -261.208,7.135 -307.995,0.021L-307.995,-0.232L-307.991,-128.49C-307.961,-237.109 -244.98,-298.196 -156.502,-330.672L-153.987,-331.479L-153.979,-331.482L-151.468,-330.672C-62.988,-298.196 -0.014,-237.109 0.019,-128.49L0.019,0L0,0ZM-153.82,-154.407L-154.019,-154.208L-153.82,-154.407Z" style="fill:rgb(45,175,229);fill-rule:nonzero;"/>
                        </g>
                        <g id="g508" transform="matrix(1,0,0,1,565.191,563.698)">
                            <path id="path510" d="M0,0L0,0.02C-43.555,6.642 -92.134,10.34 -143.361,10.34C-194.589,10.34 -243.167,6.642 -286.722,0.02L-286.722,-0.216L-286.718,-121.763C-286.691,-222.88 -228.059,-279.749 -145.693,-309.982L-143.351,-310.733L-143.344,-310.736L-141.006,-309.982C-58.637,-279.749 -0.013,-222.88 0.018,-121.763L0.018,0L0,0Z" style="fill:rgb(124,44,59);fill-rule:nonzero;"/>
                        </g>
                        <g id="g512" transform="matrix(1,0,0,1,492.596,308.753)">
                            <path id="path514" d="M0,0C2.269,-2.273 5.902,0.133 9.627,3.856C13.35,7.58 15.755,11.213 13.484,13.486L-128.682,152.075C-130.953,154.349 -135.013,153.969 -137.749,151.233C-140.485,148.497 -140.863,144.438 -138.593,142.167L0,0Z" style="fill:rgb(214,169,58);fill-rule:nonzero;"/>
                        </g>
                        <g id="g516" transform="matrix(1,0,0,1,368.324,462.946)">
                            <path id="path518" d="M0,0L11.628,13.677C11.628,13.677 12.726,15.14 11.018,17.218C6.533,22.677 -2.46,30.641 -2.46,30.641C-3.758,31.615 -4.642,31.378 -6.082,29.995C-13.201,23.17 -31.316,5.663 -32.406,4.528C-33.776,3.117 -34.404,2.166 -33.966,-0.253C-33.526,-2.692 -32.227,-6.747 -34.47,-10.682L-46.711,-29.947C-48.244,-32.298 -48.691,-34.377 -47.534,-35.506C-46.915,-36.112 -45.36,-36.814 -42.199,-34.62C-40.686,-33.572 -24.042,-22.367 -18.738,-18.004C-15.631,-15.448 -13.26,-13.123 -13.26,-13.123L-3.215,-3.272C-3.215,-3.272 -1.101,-1.196 0,0" style="fill:rgb(248,215,66);fill-rule:nonzero;"/>
                        </g>
                        <g id="g520" transform="matrix(1,0,0,1,326.204,429.561)">
                            <path id="path522" d="M0,0C-3.476,-2.355 -3.466,-2.7 -2.981,-2.635C-2.214,-2.466 -1.259,-2.054 -0.079,-1.234C1.432,-0.186 18.077,11.018 23.381,15.382C25.572,17.183 27.392,18.868 28.277,19.707C25.54,19.126 22.051,17.794 19.934,16.026C17.093,13.652 4.974,3.372 0,0" style="fill:rgb(214,169,58);fill-rule:nonzero;"/>
                        </g>
                        <g id="g524" transform="matrix(1,0,0,1,368.323,462.946)">
                            <path id="path526" d="M0,0L11.629,13.677C11.629,13.677 12.304,14.587 11.76,15.987C11.76,15.987 10.802,17.069 7.45,13.158C4.631,9.871 3.299,8.588 0.924,5.748C-0.908,3.557 -2.265,-0.099 -2.813,-2.876C-2.147,-2.217 -0.804,-0.875 0,0" style="fill:rgb(214,169,58);fill-rule:nonzero;"/>
                        </g>
                        <g id="g528" transform="matrix(1,0,0,1,351.393,308.753)">
                            <path id="path530" d="M0,0C-2.268,-2.273 -5.902,0.133 -9.628,3.856C-13.35,7.58 -15.755,11.213 -13.484,13.486L128.736,152.129C131.006,154.402 135.066,154.023 137.803,151.287C140.539,148.55 140.917,144.491 138.646,142.221L0,0Z" style="fill:rgb(214,169,58);fill-rule:nonzero;"/>
                        </g>
                        <g id="g532" transform="matrix(1,0,0,1,350.01,310.119)">
                            <path id="path534" d="M0,0L132.695,136.27C134.966,138.541 134.588,142.6 131.852,145.335C130.421,146.767 128.63,147.546 126.92,147.646L-12.102,12.119C-14.268,9.951 -12.178,6.545 -8.749,3.003C-5.338,-0.217 -2.089,-2.094 0,0" style="fill:rgb(248,215,66);fill-rule:nonzero;"/>
                        </g>
                        <g id="g536" transform="matrix(1,0,0,1,475.719,463)">
                            <path id="path538" d="M0,0L-11.627,13.677C-11.627,13.677 -12.725,15.14 -11.019,17.218C-6.533,22.677 2.459,30.641 2.459,30.641C3.759,31.615 4.644,31.378 6.082,29.995C13.201,23.17 31.315,5.663 32.406,4.528C33.776,3.117 34.405,2.166 33.965,-0.253C33.526,-2.692 32.226,-6.747 34.47,-10.682L46.711,-29.947C48.243,-32.298 48.691,-34.377 47.535,-35.506C46.915,-36.112 45.362,-36.814 42.199,-34.62C40.687,-33.572 24.043,-22.367 18.738,-18.004C15.631,-15.448 13.26,-13.123 13.26,-13.123L3.216,-3.272C3.216,-3.272 1.101,-1.196 0,0" style="fill:rgb(248,215,66);fill-rule:nonzero;"/>
                        </g>
                        <g id="g540" transform="matrix(1,0,0,1,517.839,429.615)">
                            <path id="path542" d="M0,0C3.475,-2.355 3.466,-2.7 2.98,-2.635C2.213,-2.466 1.258,-2.054 0.079,-1.234C-1.432,-0.186 -18.077,11.019 -23.381,15.382C-25.572,17.183 -27.393,18.868 -28.277,19.707C-25.54,19.126 -22.052,17.794 -19.934,16.026C-17.094,13.652 -4.975,3.372 0,0" style="fill:rgb(214,169,58);fill-rule:nonzero;"/>
                        </g>
                        <g id="g544" transform="matrix(1,0,0,1,475.719,463)">
                            <path id="path546" d="M0,0L-11.627,13.677C-11.627,13.677 -12.303,14.587 -11.759,15.987C-11.759,15.987 -10.801,17.069 -7.449,13.158C-4.631,9.871 -3.297,8.588 -0.924,5.748C0.909,3.557 2.266,-0.099 2.815,-2.876C2.148,-2.217 0.805,-0.875 0,0" style="fill:rgb(214,169,58);fill-rule:nonzero;"/>
                        </g>
                        <g id="g548" transform="matrix(1,0,0,1,498.117,459.036)">
                            <path id="path550" d="M0,0C-1.096,-1.095 -2.872,-1.095 -3.968,0L-9.924,5.959C-11.02,7.052 -11.02,8.829 -9.923,9.923C-8.827,11.021 -7.052,11.021 -5.956,9.925L0,3.968C1.097,2.874 1.097,1.097 0,0" style="fill:rgb(214,169,58);fill-rule:nonzero;"/>
                        </g>
                        <g id="g552" transform="matrix(1,0,0,1,488.993,464.995)">
                            <path id="path554" d="M0,0C-1.095,1.094 -1.095,2.87 0.001,3.965C0.446,4.412 1.006,4.673 1.584,4.756C0.74,4.877 -0.15,4.616 -0.799,3.965C-1.896,2.87 -1.896,1.094 -0.8,0L5.156,-5.959C5.807,-6.609 6.695,-6.87 7.54,-6.749C6.961,-6.665 6.402,-6.404 5.956,-5.959L0,0Z" style="fill:rgb(205,169,56);fill-rule:nonzero;"/>
                        </g>
                        <g id="g556" transform="matrix(1,0,0,1,491.613,462.808)">
                            <path id="path558" d="M0,0C-0.119,-0.116 -0.31,-0.118 -0.429,0C-0.547,0.12 -0.547,0.311 -0.429,0.43L2.302,3.161C2.422,3.28 2.613,3.281 2.731,3.163C2.849,3.043 2.849,2.853 2.731,2.733L0,0Z" style="fill:rgb(214,169,58);fill-rule:nonzero;"/>
                        </g>
                        <g id="g560" transform="matrix(1,0,0,1,492.515,461.901)">
                            <path id="path562" d="M0,0C-0.115,-0.118 -0.304,-0.119 -0.423,0C-0.54,0.115 -0.538,0.306 -0.423,0.422C-0.306,0.537 -0.116,0.539 0.001,0.422C0.118,0.305 0.118,0.115 0,0" style="fill:rgb(214,169,58);fill-rule:nonzero;"/>
                        </g>
                        <g id="g564" transform="matrix(1,0,0,1,490.64,463.775)">
                            <path id="path566" d="M0,0C-0.114,-0.115 -0.306,-0.116 -0.421,0C-0.537,0.117 -0.537,0.307 -0.423,0.422C-0.306,0.539 -0.115,0.539 0,0.422C0.118,0.307 0.117,0.117 0,0" style="fill:rgb(214,169,58);fill-rule:nonzero;"/>
                        </g>
                        <g id="g568" transform="matrix(1,0,0,1,492.842,467.473)">
                            <path id="path570" d="M0,0L-0.936,0.937C-1.055,1.055 -1.248,1.054 -1.366,0.935C-1.485,0.815 -1.485,0.625 -1.366,0.506L-1.217,0.356C-1.163,0.3 -1.161,0.214 -1.211,0.155L-3.63,-2.263C-3.748,-2.383 -3.748,-2.576 -3.63,-2.692C-3.511,-2.811 -3.318,-2.811 -3.2,-2.694L-0.773,-0.266C-0.715,-0.225 -0.635,-0.229 -0.582,-0.279L-0.431,-0.43C-0.311,-0.549 -0.118,-0.547 0,-0.43C0.118,-0.311 0.12,-0.121 0,0" style="fill:rgb(214,169,58);fill-rule:nonzero;"/>
                        </g>
                        <g id="g572" transform="matrix(1,0,0,1,497.842,462.433)">
                            <path id="path574" d="M0,0C-0.097,0.136 -0.288,0.166 -0.425,0.067L-2.009,-1.08C-2.073,-1.131 -2.167,-1.126 -2.226,-1.065C-2.278,-1.014 -2.288,-0.936 -2.257,-0.874L-1.933,-0.224C-1.879,-0.117 -1.897,0.009 -1.967,0.099C-1.969,0.1 -1.97,0.102 -1.97,0.102C-1.975,0.107 -1.978,0.115 -1.984,0.118C-1.987,0.121 -1.99,0.125 -1.992,0.128C-1.996,0.131 -1.999,0.134 -2.001,0.137C-2.006,0.139 -2.01,0.145 -2.017,0.149C-2.018,0.15 -2.02,0.15 -2.021,0.152C-2.111,0.221 -2.235,0.239 -2.344,0.185L-2.992,-0.137C-3.055,-0.17 -3.134,-0.159 -3.185,-0.107C-3.244,-0.046 -3.249,0.046 -3.201,0.11L-2.052,1.695C-1.953,1.832 -1.984,2.02 -2.119,2.12C-2.256,2.219 -2.445,2.188 -2.542,2.052L-4.81,-1.076C-4.897,-1.196 -4.882,-1.359 -4.784,-1.462C-4.78,-1.466 -4.775,-1.471 -4.771,-1.477C-4.77,-1.478 -4.768,-1.478 -4.765,-1.479C-4.676,-1.562 -4.543,-1.586 -4.426,-1.527L-3.314,-0.974C-3.252,-0.946 -3.178,-0.957 -3.128,-1.008C-3.074,-1.062 -3.066,-1.142 -3.101,-1.205L-3.647,-2.307C-3.706,-2.422 -3.681,-2.556 -3.6,-2.647C-3.599,-2.649 -3.596,-2.651 -3.595,-2.652C-3.591,-2.656 -3.586,-2.659 -3.583,-2.664C-3.479,-2.764 -3.315,-2.778 -3.194,-2.689L-0.067,-0.423C0.068,-0.326 0.099,-0.135 0,0" style="fill:rgb(214,169,58);fill-rule:nonzero;"/>
                        </g>
                        <g id="g576" transform="matrix(1,0,0,1,367.917,456.926)">
                            <path id="path578" d="M0,0C-1.725,0.037 -3.591,-0.697 -5.053,-2.158C-7.596,-4.702 -7.948,-8.476 -5.837,-10.587L50.974,-68.802L60.641,-59.135L0,0Z" style="fill:rgb(248,215,66);fill-rule:nonzero;"/>
                        </g>
                        <g id="g580" transform="matrix(1,0,0,1,506.08,322.239)">
                            <path id="path582" d="M0,0L-71.667,69.846C-72.792,69.344 -73.846,68.634 -74.77,67.711C-78.5,63.981 -78.791,58.116 -75.647,54.05L-11.546,-11.675C-9.437,-13.789 -6.06,-11.551 -2.596,-8.091C-2.011,-7.505 -1.462,-6.923 -0.963,-6.348C0.884,-3.855 1.591,-1.594 0,0" style="fill:rgb(248,215,66);fill-rule:nonzero;"/>
                        </g>
                        <g id="g584" transform="matrix(1,0,0,1,491.482,462.94)">
                            <path id="path586" d="M0,0C-0.118,-0.116 -0.309,-0.118 -0.429,0C-0.547,0.12 -0.547,0.312 -0.429,0.43L2.302,3.161C2.422,3.28 2.613,3.281 2.732,3.163C2.85,3.044 2.85,2.853 2.732,2.733L0,0Z" style="fill:rgb(248,215,66);fill-rule:nonzero;"/>
                        </g>
                        <g id="g588" transform="matrix(1,0,0,1,492.384,462.032)">
                            <path id="path590" d="M0,0C-0.115,-0.116 -0.304,-0.119 -0.422,0C-0.539,0.116 -0.537,0.306 -0.422,0.423C-0.305,0.538 -0.116,0.539 0.001,0.423C0.118,0.305 0.118,0.116 0,0" style="fill:rgb(248,215,66);fill-rule:nonzero;"/>
                        </g>
                        <g id="g592" transform="matrix(1,0,0,1,490.508,463.907)">
                            <path id="path594" d="M0,0C-0.115,-0.114 -0.305,-0.116 -0.421,0C-0.537,0.117 -0.536,0.307 -0.422,0.423C-0.305,0.539 -0.115,0.539 0,0.423C0.118,0.307 0.117,0.117 0,0" style="fill:rgb(248,215,66);fill-rule:nonzero;"/>
                        </g>
                        <g id="g596" transform="matrix(1,0,0,1,492.711,467.605)">
                            <path id="path598" d="M0,0L-0.935,0.937C-1.054,1.054 -1.248,1.053 -1.366,0.935C-1.485,0.815 -1.485,0.625 -1.366,0.506L-1.217,0.356C-1.163,0.299 -1.161,0.214 -1.211,0.155L-3.63,-2.264C-3.747,-2.383 -3.747,-2.576 -3.63,-2.693C-3.511,-2.811 -3.318,-2.811 -3.199,-2.694L-0.773,-0.266C-0.714,-0.225 -0.634,-0.229 -0.581,-0.279L-0.43,-0.43C-0.311,-0.549 -0.118,-0.547 0,-0.43C0.119,-0.312 0.12,-0.121 0,0" style="fill:rgb(248,215,66);fill-rule:nonzero;"/>
                        </g>
                        <g id="g600" transform="matrix(1,0,0,1,497.71,462.565)">
                            <path id="path602" d="M0,0C-0.097,0.135 -0.287,0.166 -0.424,0.067L-2.008,-1.08C-2.073,-1.131 -2.167,-1.126 -2.225,-1.065C-2.278,-1.015 -2.288,-0.936 -2.256,-0.874L-1.933,-0.224C-1.879,-0.117 -1.897,0.009 -1.966,0.098C-1.968,0.099 -1.97,0.102 -1.97,0.102C-1.975,0.108 -1.978,0.114 -1.984,0.118C-1.986,0.122 -1.989,0.125 -1.992,0.128C-1.996,0.13 -1.998,0.132 -2.001,0.136C-2.006,0.139 -2.01,0.145 -2.017,0.149C-2.018,0.15 -2.02,0.15 -2.021,0.152C-2.111,0.221 -2.235,0.239 -2.344,0.185L-2.992,-0.138C-3.055,-0.171 -3.133,-0.159 -3.184,-0.107C-3.243,-0.047 -3.248,0.046 -3.201,0.109L-2.052,1.695C-1.953,1.83 -1.984,2.021 -2.118,2.12C-2.255,2.218 -2.445,2.188 -2.541,2.052L-4.81,-1.077C-4.896,-1.196 -4.882,-1.359 -4.784,-1.462C-4.78,-1.466 -4.775,-1.471 -4.77,-1.477C-4.769,-1.478 -4.768,-1.478 -4.765,-1.48C-4.676,-1.563 -4.542,-1.586 -4.426,-1.527L-3.313,-0.974C-3.252,-0.947 -3.177,-0.958 -3.127,-1.009C-3.074,-1.062 -3.065,-1.142 -3.1,-1.206L-3.647,-2.308C-3.705,-2.422 -3.681,-2.556 -3.599,-2.647C-3.598,-2.65 -3.595,-2.651 -3.595,-2.653C-3.591,-2.657 -3.586,-2.659 -3.582,-2.664C-3.478,-2.765 -3.314,-2.778 -3.194,-2.691L-0.066,-0.424C0.069,-0.326 0.099,-0.135 0,0" style="fill:rgb(248,215,66);fill-rule:nonzero;"/>
                        </g>
                        <g id="g604" transform="matrix(1,0,0,1,355.85,468.907)">
                            <path id="path606" d="M0,0C1.095,-1.096 1.095,-2.872 0,-3.968L-5.958,-9.924C-7.052,-11.02 -8.829,-11.02 -9.923,-9.923C-11.021,-8.827 -11.021,-7.052 -9.925,-5.956L-3.968,0C-2.874,1.097 -1.097,1.097 0,0" style="fill:rgb(214,169,58);fill-rule:nonzero;"/>
                        </g>
                        <g id="g608" transform="matrix(1,0,0,1,346.425,462.451)">
                            <path id="path610" d="M0,0L5.957,5.956C6.968,6.967 8.556,7.043 9.658,6.188C9.586,6.281 9.511,6.371 9.426,6.457C8.329,7.552 6.553,7.552 5.457,6.457L-0.5,0.5C-1.595,-0.596 -1.595,-2.372 -0.498,-3.468C-0.414,-3.552 -0.324,-3.627 -0.232,-3.699C-1.087,-2.599 -1.011,-1.011 0,0" style="fill:rgb(205,169,56);fill-rule:nonzero;"/>
                        </g>
                        <g id="g612" transform="matrix(1,0,0,1,351.947,461.972)">
                            <path id="path614" d="M0,0C0.118,-0.118 0.118,-0.31 0,-0.429C-0.118,-0.547 -0.311,-0.547 -0.43,-0.428L-3.161,2.303C-3.28,2.422 -3.28,2.614 -3.161,2.732C-3.043,2.851 -2.851,2.851 -2.732,2.732L0,0Z" style="fill:rgb(214,169,58);fill-rule:nonzero;"/>
                        </g>
                        <g id="g616" transform="matrix(1,0,0,1,352.855,462.874)">
                            <path id="path618" d="M0,0C0.115,-0.115 0.118,-0.305 0,-0.423C-0.117,-0.538 -0.308,-0.537 -0.421,-0.423C-0.538,-0.306 -0.539,-0.116 -0.423,0C-0.305,0.118 -0.116,0.117 0,0" style="fill:rgb(214,169,58);fill-rule:nonzero;"/>
                        </g>
                        <g id="g620" transform="matrix(1,0,0,1,350.98,460.998)">
                            <path id="path622" d="M0,0C0.115,-0.115 0.117,-0.305 0,-0.421C-0.116,-0.538 -0.307,-0.537 -0.422,-0.423C-0.538,-0.305 -0.538,-0.115 -0.423,0C-0.306,0.119 -0.116,0.116 0,0" style="fill:rgb(214,169,58);fill-rule:nonzero;"/>
                        </g>
                        <g id="g624" transform="matrix(1,0,0,1,347.282,463.2)">
                            <path id="path626" d="M0,0L-0.936,-0.934C-1.055,-1.055 -1.055,-1.247 -0.935,-1.365C-0.816,-1.483 -0.625,-1.484 -0.506,-1.365L-0.356,-1.215C-0.3,-1.162 -0.213,-1.16 -0.153,-1.21L2.264,-3.628C2.383,-3.746 2.575,-3.746 2.693,-3.628C2.812,-3.51 2.813,-3.317 2.694,-3.198L0.267,-0.772C0.225,-0.714 0.228,-0.633 0.279,-0.58L0.43,-0.43C0.549,-0.31 0.548,-0.117 0.43,0C0.312,0.12 0.12,0.12 0,0" style="fill:rgb(214,169,58);fill-rule:nonzero;"/>
                        </g>
                        <g id="g628" transform="matrix(1,0,0,1,352.323,468.201)">
                            <path id="path630" d="M0,0C-0.136,-0.097 -0.167,-0.289 -0.068,-0.424L1.081,-2.007C1.129,-2.073 1.125,-2.168 1.066,-2.226C1.014,-2.278 0.935,-2.287 0.874,-2.256L0.224,-1.934C0.115,-1.879 -0.009,-1.897 -0.098,-1.966C-0.1,-1.967 -0.102,-1.97 -0.104,-1.971C-0.108,-1.974 -0.114,-1.978 -0.118,-1.984C-0.122,-1.987 -0.125,-1.989 -0.127,-1.992C-0.13,-1.995 -0.134,-1.998 -0.136,-2.001C-0.141,-2.006 -0.145,-2.011 -0.15,-2.017C-0.15,-2.017 -0.152,-2.02 -0.153,-2.022C-0.222,-2.11 -0.239,-2.234 -0.185,-2.343L0.137,-2.992C0.168,-3.054 0.158,-3.133 0.106,-3.184C0.047,-3.245 -0.046,-3.248 -0.111,-3.201L-1.696,-2.052C-1.832,-1.952 -2.022,-1.984 -2.119,-2.117C-2.219,-2.254 -2.187,-2.444 -2.052,-2.542L1.075,-4.81C1.196,-4.897 1.358,-4.883 1.463,-4.784C1.466,-4.779 1.472,-4.775 1.474,-4.77C1.474,-4.77 1.478,-4.767 1.481,-4.764C1.561,-4.676 1.585,-4.542 1.527,-4.426L0.974,-3.313C0.947,-3.252 0.957,-3.178 1.008,-3.129C1.061,-3.074 1.143,-3.065 1.205,-3.1L2.307,-3.645C2.422,-3.704 2.556,-3.681 2.647,-3.6C2.648,-3.598 2.649,-3.596 2.651,-3.595C2.656,-3.59 2.659,-3.587 2.664,-3.581C2.764,-3.478 2.778,-3.314 2.691,-3.195L0.422,-0.066C0.326,0.068 0.135,0.098 0,0" style="fill:rgb(214,169,58);fill-rule:nonzero;"/>
                        </g>
                        <g id="g632" transform="matrix(1,0,0,1,351.947,462.272)">
                            <path id="path634" d="M0,0C0.118,-0.118 0.118,-0.309 0,-0.43C-0.118,-0.547 -0.311,-0.547 -0.43,-0.428L-3.161,2.302C-3.28,2.422 -3.28,2.615 -3.161,2.732C-3.043,2.85 -2.851,2.85 -2.732,2.732L0,0Z" style="fill:rgb(248,215,66);fill-rule:nonzero;"/>
                        </g>
                        <g id="g636" transform="matrix(1,0,0,1,352.855,463.174)">
                            <path id="path638" d="M0,0C0.115,-0.116 0.118,-0.306 0,-0.423C-0.117,-0.539 -0.308,-0.538 -0.421,-0.423C-0.538,-0.306 -0.539,-0.117 -0.423,0.001C-0.305,0.118 -0.116,0.116 0,0" style="fill:rgb(248,215,66);fill-rule:nonzero;"/>
                        </g>
                        <g id="g640" transform="matrix(1,0,0,1,350.98,461.299)">
                            <path id="path642" d="M0,0C0.115,-0.114 0.117,-0.306 0,-0.422C-0.116,-0.539 -0.307,-0.537 -0.422,-0.423C-0.538,-0.306 -0.538,-0.116 -0.423,0C-0.306,0.118 -0.116,0.116 0,0" style="fill:rgb(248,215,66);fill-rule:nonzero;"/>
                        </g>
                        <g id="g644" transform="matrix(1,0,0,1,347.282,463.501)">
                            <path id="path646" d="M0,0L-0.936,-0.935C-1.055,-1.055 -1.055,-1.247 -0.935,-1.365C-0.816,-1.483 -0.625,-1.484 -0.506,-1.365L-0.356,-1.216C-0.3,-1.162 -0.213,-1.161 -0.153,-1.21L2.264,-3.629C2.383,-3.747 2.575,-3.747 2.693,-3.629C2.812,-3.51 2.813,-3.318 2.694,-3.2L0.267,-0.772C0.225,-0.715 0.228,-0.634 0.279,-0.581L0.43,-0.431C0.549,-0.31 0.548,-0.118 0.43,0C0.312,0.12 0.12,0.12 0,0" style="fill:rgb(248,215,66);fill-rule:nonzero;"/>
                        </g>
                        <g id="g648" transform="matrix(1,0,0,1,352.323,468.501)">
                            <path id="path650" d="M0,0C-0.136,-0.098 -0.167,-0.29 -0.068,-0.424L1.081,-2.008C1.129,-2.074 1.125,-2.168 1.066,-2.227C1.014,-2.278 0.935,-2.288 0.874,-2.256L0.224,-1.934C0.115,-1.879 -0.009,-1.898 -0.098,-1.967C-0.1,-1.968 -0.102,-1.97 -0.104,-1.971C-0.108,-1.974 -0.114,-1.978 -0.118,-1.984C-0.122,-1.987 -0.125,-1.989 -0.127,-1.992C-0.13,-1.995 -0.134,-1.998 -0.136,-2.002C-0.141,-2.006 -0.145,-2.012 -0.15,-2.017C-0.15,-2.017 -0.152,-2.021 -0.153,-2.023C-0.222,-2.112 -0.239,-2.235 -0.185,-2.343L0.137,-2.992C0.168,-3.056 0.158,-3.133 0.106,-3.185C0.047,-3.245 -0.046,-3.248 -0.111,-3.203L-1.696,-2.052C-1.832,-1.953 -2.022,-1.984 -2.119,-2.118C-2.219,-2.255 -2.187,-2.445 -2.052,-2.542L1.075,-4.81C1.196,-4.898 1.358,-4.883 1.463,-4.785C1.466,-4.78 1.472,-4.775 1.474,-4.771C1.476,-4.77 1.478,-4.768 1.481,-4.765C1.561,-4.677 1.585,-4.542 1.527,-4.427L0.974,-3.314C0.947,-3.252 0.957,-3.178 1.008,-3.129C1.061,-3.075 1.143,-3.065 1.205,-3.1L2.307,-3.646C2.422,-3.705 2.556,-3.681 2.647,-3.6C2.648,-3.598 2.649,-3.596 2.651,-3.596C2.656,-3.591 2.659,-3.586 2.664,-3.581C2.764,-3.478 2.778,-3.315 2.691,-3.195L0.422,-0.067C0.326,0.068 0.135,0.098 0,0" style="fill:rgb(248,215,66);fill-rule:nonzero;"/>
                        </g>
                        <g id="g652" transform="matrix(1,0,0,1,365.935,503.01)">
                            <path id="path654" d="M0,0C-5.373,-0.509 -10.486,3.095 -10.636,8.742C-10.799,13.942 -10.963,19.141 -11.126,24.34C-8.687,24.531 -7.466,24.622 -5.025,24.795C-4.877,19.595 -4.728,14.395 -4.58,9.195C-4.506,6.607 -2.774,5.349 -0.181,5.52C0.179,5.544 0.359,5.556 0.719,5.579C3.312,5.747 4.973,7.226 4.911,9.815C4.785,15.016 4.66,20.216 4.535,25.416C6.978,25.561 8.2,25.629 10.644,25.756C10.754,20.556 10.865,15.355 10.975,10.154C11.064,4.479 6.374,0.315 0.898,0.059C0.539,0.035 0.359,0.024 0,0" style="fill:white;fill-rule:nonzero;"/>
                        </g>
                        <g id="g656" transform="matrix(1,0,0,1,381.247,528.952)">
                            <path id="path658" d="M0,0C2.836,0.135 4.255,0.196 7.093,0.307C10.281,-4.823 13.447,-9.967 16.591,-15.124C16.619,-15.124 16.633,-15.123 16.66,-15.122C16.609,-9.875 16.557,-4.627 16.506,0.621C18.952,0.689 20.176,0.719 22.623,0.769C22.693,-7.46 22.762,-15.688 22.832,-23.917C20.039,-23.974 18.643,-24.009 15.851,-24.09C12.707,-18.948 9.54,-13.819 6.351,-8.704C6.323,-8.705 6.309,-8.706 6.282,-8.707C6.358,-13.943 6.435,-19.179 6.512,-24.415C4.095,-24.513 2.886,-24.566 0.47,-24.682C0.313,-16.455 0.157,-8.227 0,0" style="fill:white;fill-rule:nonzero;"/>
                        </g>
                        <g id="g660" transform="matrix(1,0,0,1,408.366,529.791)">
                            <path id="path662" d="M0,0C2.447,0.039 3.671,0.054 6.119,0.075C6.148,-8.154 6.176,-16.383 6.205,-24.612C3.786,-24.632 2.576,-24.647 0.157,-24.686C0.105,-16.457 0.052,-8.229 0,0" style="fill:white;fill-rule:nonzero;"/>
                        </g>
                        <g id="g664" transform="matrix(1,0,0,1,426.795,524.705)">
                            <path id="path666" d="M0,0C-3.149,0.017 -4.723,0.018 -7.872,0.006C-7.875,2.077 -7.877,3.113 -7.88,5.185C-0.577,5.19 6.72,5.124 14.021,4.986C14.003,2.915 13.994,1.879 13.975,-0.193C10.827,-0.123 9.253,-0.096 6.104,-0.055C6.071,-6.558 6.037,-13.06 6.004,-19.562C3.585,-19.531 2.375,-19.52 -0.044,-19.507C-0.03,-13.005 -0.015,-6.502 0,0" style="fill:white;fill-rule:nonzero;"/>
                        </g>
                        <g id="g668" transform="matrix(1,0,0,1,445.247,529.598)">
                            <path id="path670" d="M0,0C5.523,-0.166 11.043,-0.367 16.564,-0.606C16.525,-2.677 16.506,-3.713 16.467,-5.784C12.3,-5.59 10.215,-5.506 6.045,-5.364C6.02,-7.159 6.008,-8.057 5.983,-9.852C9.379,-9.968 11.077,-10.034 14.471,-10.185C14.434,-12.256 14.416,-13.292 14.379,-15.363C10.993,-15.213 9.3,-15.146 5.912,-15.031C5.886,-16.895 5.874,-17.827 5.848,-19.691C10.184,-19.839 12.351,-19.928 16.685,-20.133C16.646,-22.204 16.626,-23.24 16.587,-25.311C10.969,-25.064 5.352,-24.855 -0.269,-24.685C-0.179,-16.457 -0.09,-8.228 0,0" style="fill:white;fill-rule:nonzero;"/>
                        </g>
                        <g id="g672" transform="matrix(1,0,0,1,466.456,528.812)">
                            <path id="path674" d="M0,0C3.912,-0.199 5.867,-0.31 9.775,-0.555C16.872,-0.82 22.452,-6.624 22.257,-13.746C22.066,-20.734 16.085,-25.902 9.148,-25.233C5.285,-24.99 3.353,-24.879 -0.514,-24.681C-0.342,-16.454 -0.171,-8.227 0,0M9.038,-20.041C13.222,-20.303 15.849,-18.006 15.983,-13.278C16.117,-8.584 13.507,-5.974 9.4,-5.717C8.035,-5.632 7.352,-5.591 5.987,-5.511C5.874,-10.286 5.761,-15.061 5.648,-19.836C7.004,-19.915 7.682,-19.956 9.038,-20.041" style="fill:white;fill-rule:nonzero;"/>
                        </g>
                        <g id="g676" transform="matrix(1,0,0,1,303.636,557.689)">
                            <path id="path678" d="M0,0C3.18,0.402 4.771,0.596 7.954,0.969C9.382,-6.039 10.809,-13.047 12.237,-20.056C12.271,-20.052 12.289,-20.05 12.323,-20.046C13.957,-12.694 15.591,-5.342 17.227,2.01C19.969,2.304 21.341,2.445 24.084,2.718C25.678,-4.301 27.271,-11.319 28.863,-18.338C28.898,-18.334 28.915,-18.333 28.95,-18.329C30.494,-11.015 32.04,-3.701 33.587,3.612C36.725,3.891 38.295,4.024 41.435,4.275C38.816,-6.285 36.2,-16.847 33.587,-27.409C29.905,-27.736 28.065,-27.909 24.386,-28.273C23.135,-22.341 21.885,-16.409 20.634,-10.476C20.599,-10.48 20.582,-10.482 20.547,-10.485C19.296,-16.676 18.046,-22.866 16.797,-29.057C13.085,-29.457 11.23,-29.666 7.522,-30.103C5.016,-20.068 2.508,-10.034 0,0" style="fill:white;fill-rule:nonzero;"/>
                        </g>
                        <g id="g680" transform="matrix(1,0,0,1,503.439,561.526)">
                            <path id="path682" d="M0,0C3.416,-0.294 5.124,-0.449 8.538,-0.775C10.794,-7.433 13.047,-14.092 15.298,-20.753C15.333,-20.756 15.35,-20.758 15.385,-20.761C17.635,-14.566 19.887,-8.371 22.141,-2.177C25.516,-2.55 27.203,-2.745 30.576,-3.15C32.435,-13.719 34.292,-24.288 36.149,-34.858C33.02,-34.462 31.455,-34.271 28.324,-33.903C27.407,-27.001 26.49,-20.099 25.573,-13.196C25.538,-13.192 25.521,-13.19 25.486,-13.186C23.267,-19.736 21.05,-26.287 18.834,-32.838C16.092,-32.545 14.721,-32.404 11.977,-32.131C9.716,-25.118 7.453,-18.106 5.187,-11.094C5.153,-11.091 5.135,-11.09 5.101,-11.086C4.297,-17.81 3.494,-24.533 2.691,-31.257C-0.499,-30.973 -2.094,-30.838 -5.286,-30.582C-3.525,-20.388 -1.763,-10.194 0,0" style="fill:white;fill-rule:nonzero;"/>
                        </g>
                        <g id="g684" transform="matrix(1,0,0,1,348.102,562.142)">
                            <path id="path686" d="M0,0C6.98,0.524 13.962,0.986 20.951,1.384C20.8,-1.227 20.724,-2.533 20.573,-5.144C16.245,-5.393 11.918,-5.662 7.592,-5.95L7.592,-11.591C11.828,-11.297 13.947,-11.163 18.185,-10.919L18.185,-17.427C13.947,-17.671 11.828,-17.805 7.592,-18.099L7.592,-23.956C12.12,-23.642 16.65,-23.362 21.181,-23.117C21.181,-25.72 21.181,-27.021 21.182,-29.624C14.116,-30.026 7.057,-30.491 0,-31.021L0,0" style="fill:white;fill-rule:nonzero;"/>
                        </g>
                        <g id="g688" transform="matrix(1,0,0,1,404.768,558.239)">
                            <path id="path690" d="M0,0C-3.924,-0.067 -5.886,-0.11 -9.809,-0.219L-9.809,6.289C-0.733,6.519 8.34,6.635 17.418,6.638L17.418,0.129C13.494,0.138 11.531,0.131 7.607,0.097L7.607,-24.416C4.564,-24.442 3.043,-24.461 0,-24.513L0,0" style="fill:white;fill-rule:nonzero;"/>
                        </g>
                        <g id="g692" transform="matrix(1,0,0,1,434.82,564.812)">
                            <path id="path694" d="M0,0C3.043,-0.037 4.564,-0.062 7.607,-0.124L7.607,-12.532C12.003,-12.634 16.397,-12.755 20.792,-12.898L20.792,-0.49C23.834,-0.596 25.355,-0.655 28.396,-0.787L28.396,-31.808C25.355,-31.677 23.834,-31.617 20.792,-31.511L20.792,-19.363C16.397,-19.22 12.003,-19.098 7.607,-18.997L7.607,-31.145C4.564,-31.083 3.043,-31.058 0,-31.021L0,0" style="fill:white;fill-rule:nonzero;"/>
                        </g>
                        <g id="g696" transform="matrix(1,0,0,1,485.974,538.267)">
                            <path id="path698" d="M0,0C-4.172,0.284 -6.259,0.413 -10.434,0.649C-11.181,-1.912 -11.554,-3.193 -12.301,-5.755C-15.428,-5.585 -16.991,-5.507 -20.119,-5.364C-16.981,4.818 -13.84,14.998 -10.696,25.177C-6.596,24.947 -4.546,24.82 -0.448,24.544C2.946,13.957 6.335,3.369 9.718,-7.221C6.595,-6.975 5.034,-6.859 1.91,-6.64C1.146,-3.983 0.764,-2.655 0,0M-5.238,17.782C-6.377,14.062 -7.516,10.342 -8.654,6.621C-5.903,6.46 -4.529,6.375 -1.779,6.193C-2.903,10.055 -4.026,13.916 -5.151,17.777C-5.186,17.779 -5.203,17.78 -5.238,17.782" style="fill:white;fill-rule:nonzero;"/>
                        </g>
                        <g id="g700" transform="matrix(1,0,0,1,383.433,564.702)">
                            <path id="path702" d="M0,0C-5.664,-0.201 -12.084,-3.689 -12.126,-10.057C-12.191,-19.778 2.407,-17.169 3.308,-22.481C3.558,-23.951 1.902,-25.185 -0.194,-25.182C-4.098,-25.178 -7.177,-24.417 -10.367,-22.78C-10.522,-25.459 -10.65,-26.868 -10.754,-29.3C-7.462,-31.507 -4.06,-31.982 -0.383,-32.078C5.077,-32.219 11.644,-28.433 11.699,-22.048C11.782,-12.402 -2.69,-14.585 -3.739,-9.569C-4.008,-8.284 -2.439,-7.019 -0.096,-6.885C3.483,-6.681 6.057,-7.568 8.017,-8.374C8.173,-5.289 8.22,-4.848 8.394,-1.845C6.67,-0.856 3.955,0.141 0,0" style="fill:white;fill-rule:nonzero;"/>
                        </g>
                    </g>
                </g>
                <g id="g704" transform="matrix(1,0,0,1,376.928,308.417)">
                    <path id="path706" d="M0,0L3.695,-1.614L-1.516,-13.544L4.65,-16.238L3.266,-19.405L-6.595,-15.098L0,0Z" style="fill:white;fill-rule:nonzero;"/>
                </g>
                <g id="g708">
                    <g id="g710">
                        <g id="g716" transform="matrix(1,0,0,1,395.172,301.907)">
                            <path id="path718" d="M0,0C4.799,-1.318 7.333,-5.837 6.082,-10.392C4.8,-15.058 0.289,-17.737 -4.51,-16.418C-9.309,-15.1 -11.819,-10.492 -10.537,-5.827C-9.286,-1.272 -4.799,1.318 0,0M-3.534,-12.864C-1.156,-13.517 1.316,-11.998 2.06,-9.287C2.774,-6.688 1.401,-4.208 -0.976,-3.555C-3.354,-2.902 -5.801,-4.332 -6.516,-6.931C-7.26,-9.642 -5.911,-12.211 -3.534,-12.864" style="fill:white;fill-rule:nonzero;"/>
                        </g>
                        <g id="g720" transform="matrix(1,0,0,1,405.114,299.187)">
                            <path id="path722" d="M0,0L4.058,-0.413L7.818,-8.532C8.35,-9.675 8.908,-11.469 8.908,-11.469L8.954,-11.474C8.954,-11.474 8.95,-9.69 9.055,-8.658L9.835,-1.001L13.847,-1.41L12.178,-17.801L8.143,-17.39L4.358,-9.292C3.826,-8.149 3.268,-6.355 3.268,-6.355L3.222,-6.35C3.222,-6.35 3.225,-8.134 3.12,-9.166L2.343,-16.8L-1.669,-16.391L0,0Z" style="fill:white;fill-rule:nonzero;"/>
                        </g>
                        <g id="g724" transform="matrix(1,0,0,1,421.804,297.733)">
                            <path id="path726" d="M0,0L5.845,0.315C11.022,0.594 14.498,-2.242 14.777,-7.42C15.055,-12.597 11.908,-15.859 6.73,-16.138L0.886,-16.452L0,0ZM6.384,-12.695C9.168,-12.545 10.781,-10.797 10.612,-7.644C10.443,-4.515 8.585,-2.999 5.869,-3.146L4.213,-3.235L4.727,-12.784L6.384,-12.695Z" style="fill:white;fill-rule:nonzero;"/>
                        </g>
                        <g id="g728" transform="matrix(1,0,0,1,445.189,300.64)">
                            <path id="path730" d="M0,0C4.861,1.069 9.209,-1.75 10.224,-6.363C11.263,-11.089 8.519,-15.562 3.658,-16.632C-1.203,-17.701 -5.571,-14.792 -6.61,-10.066C-7.625,-5.452 -4.861,-1.069 0,0M2.866,-13.031C5.274,-12.501 6.754,-10.005 6.15,-7.259C5.571,-4.626 3.2,-3.071 0.792,-3.601C-1.616,-4.13 -3.116,-6.537 -2.537,-9.17C-1.933,-11.915 0.458,-13.56 2.866,-13.031" style="fill:white;fill-rule:nonzero;"/>
                        </g>
                        <g id="g732" transform="matrix(1,0,0,1,455.242,302.853)">
                            <path id="path734" d="M0,0L3.782,1.526L10.891,-3.903C11.895,-4.666 13.225,-5.992 13.225,-5.992L13.267,-5.975C13.267,-5.975 12.433,-4.399 12.045,-3.437L9.166,3.698L12.904,5.207L19.068,-10.069L15.308,-11.586L8.186,-6.187C7.182,-5.425 5.852,-4.098 5.852,-4.098L5.809,-4.115C5.809,-4.115 6.644,-5.691 7.032,-6.653L9.903,-13.767L6.164,-15.276L0,0Z" style="fill:white;fill-rule:nonzero;"/>
                        </g>
                    </g>
                </g>
            </g>
        </g>
    </g>
</svg>
