<?xml version="1.0" encoding="UTF-8" standalone="no"?>
<!DOCTYPE svg PUBLIC "-//W3C//DTD SVG 1.1//EN" "http://www.w3.org/Graphics/SVG/1.1/DTD/svg11.dtd">
<svg width="100%" height="100%" viewBox="0 0 512 512" version="1.1" xmlns="http://www.w3.org/2000/svg" xmlns:xlink="http://www.w3.org/1999/xlink" xml:space="preserve" xmlns:serif="http://www.serif.com/" style="fill-rule:evenodd;clip-rule:evenodd;">
    <rect x="0" y="0" width="512" height="512" style="fill:white;fill-opacity:0;"/>
    <g id="Logo_Brentford_FC_2017.svg" transform="matrix(0.731429,0,0,0.731429,256,256)">
        <g transform="matrix(1,0,0,1,-350,-350)">
            <clipPath id="_clip1">
                <rect x="0" y="0" width="700" height="700"/>
            </clipPath>
            <g clip-path="url(#_clip1)">
                <g id="g4492">
                    <path id="big-circle" d="M695.524,350.016C695.524,159.475 540.52,4.477 349.998,4.477C159.475,4.477 4.48,159.475 4.48,350.016C4.48,540.524 159.475,695.522 349.998,695.522C540.52,695.522 695.524,540.524 695.524,350.016" style="fill:white;fill-rule:nonzero;stroke:black;stroke-width:8.96px;"/>
                    <path id="path4171" d="M682.997,349.991C682.997,533.582 533.635,682.938 350.055,682.938C166.475,682.938 17.12,533.573 17.12,349.991C17.12,166.392 166.483,17.028 350.055,17.028C533.643,17.028 682.997,166.392 682.997,349.991" style="fill:rgb(227,6,19);fill-rule:nonzero;"/>
                    <g id="g4394">
                        <path id="path4243" d="M575.669,349.988C575.669,474.396 474.456,575.604 350.056,575.604C225.656,575.604 124.448,474.39 124.448,349.988C124.448,225.576 225.662,124.362 350.056,124.362C474.462,124.362 575.669,225.576 575.669,349.988" style="fill:white;fill-rule:nonzero;"/>
                        <path id="path4333" d="M156.543,227.722C155.622,227.702 154.702,227.809 153.811,228.04L127.865,234.788C127.837,234.795 127.808,234.803 127.779,234.81C125.069,235.54 123.119,236.107 121.072,237.025C119.031,237.94 116.382,239.76 114.821,242.148C113.036,244.883 112.694,249.622 113.096,251.788C113.462,253.763 113.959,255.308 114.572,257.503C114.593,257.587 114.614,257.67 114.637,257.753C114.673,257.882 114.684,257.943 114.721,258.077C114.726,258.094 114.731,258.111 114.737,258.128C114.743,258.152 114.749,258.176 114.756,258.201L126.737,299.882C128.493,305.988 135.423,308.93 141.035,305.952L183.557,283.39C188.648,280.688 190.408,274.254 187.4,269.337L164.857,232.499C163.08,229.595 159.947,227.795 156.543,227.722Z" style="fill:white;fill-rule:nonzero;"/>
                        <path id="path4345" d="M542.897,227.63C539.581,227.782 536.556,229.568 534.823,232.4L512.28,269.236C509.271,274.152 511.03,280.588 516.122,283.29L558.645,305.853C564.258,308.829 571.187,305.886 572.942,299.78L584.925,258.099C584.937,258.059 584.948,258.018 584.96,257.978C585.673,255.374 586.183,253.847 586.583,251.677C586.739,250.831 586.662,249.444 586.554,248.093C586.653,245.96 586.067,243.851 584.882,242.076L584.88,242.07L584.87,242.056C584.86,242.04 584.85,242.025 584.84,242.009C584.836,242.004 584.83,242.001 584.827,241.995C584.14,240.927 583.256,239.999 582.221,239.261C581.006,238.261 579.728,237.43 578.594,236.923C576.551,236.008 574.6,235.44 571.889,234.71C571.861,234.702 571.833,234.694 571.805,234.687L545.87,227.941C544.9,227.689 543.898,227.584 542.897,227.63L542.897,227.63Z" style="fill:white;fill-rule:nonzero;"/>
                    </g>
                    <path id="middle-black-border" d="M177.214,232.893C214.812,177.587 278.236,141.192 350.014,141.192C422.278,141.192 486.085,178.101 523.588,234.054L531.506,230.741C492.57,172.204 425.412,132.847 350.01,132.847C274.744,132.847 208.298,171.347 169.328,229.678L177.216,232.882L177.214,232.893ZM136.393,310.782C134.08,323.455 132.869,336.679 132.869,350.013C132.869,469.738 230.276,567.146 350.008,567.146C469.732,567.146 567.138,469.738 567.138,350.013C567.138,336.619 565.917,323.405 563.585,310.683L555.177,310.693C557.559,323.286 558.8,336.729 558.8,350.014C558.8,465.136 465.141,558.821 350.012,558.821C234.875,558.821 141.207,465.144 141.207,350.014C141.207,336.62 142.469,323.516 144.891,310.823L136.393,310.783L136.393,310.782Z" style="fill:rgb(20,14,12);fill-rule:nonzero;"/>
                </g>
                <path id="grey-lines" d="M194.771,360.539L194.771,470.853L198.595,470.183L198.595,360.809L194.771,360.539ZM198.355,242.034L198.355,216.617L194.531,220.121L194.531,240.602L198.355,242.034L198.355,242.034ZM317.964,200.781L317.964,228.3L321.788,226.318L321.788,206.707L317.964,200.781ZM317.964,493.153L317.964,550.282L321.788,550.893L321.788,496.367L317.964,493.153ZM321.788,183.554L321.788,149.289L317.964,150.109L317.964,181.451L321.788,183.554L321.788,183.554ZM260.285,357.222L260.285,349.193L256.461,351.625L256.461,364.99L260.285,357.222ZM260.285,267.292L260.285,250.785L256.461,246.29L256.461,265.62L260.285,267.292ZM256.461,431.575L256.461,528.524L260.285,530.707L260.285,425.368L256.461,431.575ZM260.285,221.083L260.285,167.157L256.461,169.309L256.461,217.378L260.285,221.082L260.285,221.083ZM503.406,360.812L503.406,470.185L507.23,470.856L507.23,360.544L503.406,360.814L503.406,360.812ZM507.47,240.609L507.47,220.127L503.646,216.624L503.646,242.041L507.47,240.609ZM380.219,206.714L380.219,226.325L384.033,228.307L384.033,200.79L380.219,206.716L380.219,206.714ZM380.219,496.368L380.219,550.894L384.033,550.284L384.033,493.155L380.219,496.368L380.219,496.368ZM384.033,181.457L384.033,150.115L380.219,149.294L380.219,183.559L384.033,181.457ZM445.536,364.998L445.536,351.633L441.712,349.201L441.712,357.229L445.536,364.997L445.536,364.998ZM445.536,265.622L445.536,246.292L441.712,250.786L441.712,267.293L445.536,265.621L445.536,265.622ZM441.712,425.379L441.712,530.718L445.536,528.535L445.536,431.589L441.712,425.383L441.712,425.379ZM441.712,221.093L441.712,167.167L445.536,169.32L445.536,217.389L441.712,221.092L441.712,221.093Z" style="fill:rgb(232,228,217);fill-rule:nonzero;"/>
                <g id="g4280" transform="matrix(1,0,0,1,6.98414e-06,615)">
                    <g id="g4237">
                        <g id="path4187" transform="matrix(1,0,0,1,-0.000301361,0)">
                            <path d="M176.152,-508.805C172.692,-508.754 169.009,-507.428 165.475,-504.577L150.539,-492.514L183.043,-452.233L191.121,-458.76L178.277,-474.676L182.012,-477.69L203.674,-468.88L213.463,-476.788L188.918,-486.288C192.331,-492.584 190.951,-499.051 187.598,-503.215C184.681,-506.83 180.601,-508.871 176.152,-508.805ZM174.754,-498.672C176.707,-498.702 178.514,-497.808 179.82,-496.192C182.293,-493.129 181.841,-488.926 178.287,-486.063L172.723,-481.569L164.225,-492.098L170.1,-496.833C171.628,-498.068 173.235,-498.649 174.754,-498.672Z" style="fill:white;fill-rule:nonzero;"/>
                        </g>
                        <path id="path4185" d="M205.907,-531.175L228.249,-484.488L257.127,-498.321L253.294,-506.33L233.784,-496.991L228.379,-508.272L243.494,-515.51L239.66,-523.527L224.545,-516.29L219.109,-527.642L238.049,-536.711L234.215,-544.729L205.906,-531.175L205.907,-531.175Z" style="fill:white;fill-rule:nonzero;"/>
                        <path id="path4183" d="M263.225,-554.75L274.776,-504.299L284.897,-506.621L277.629,-538.364L308.6,-512.047L318.18,-514.239L306.617,-564.691L296.507,-562.378L303.824,-530.405L272.813,-556.953L263.223,-554.751L263.225,-554.75Z" style="fill:white;fill-rule:nonzero;"/>
                        <path id="path4181" d="M328.851,-558.403L345.058,-558.323L344.817,-515.449L355.208,-515.389L355.438,-558.263L371.644,-558.173L371.685,-567.062L328.892,-567.293L328.851,-558.403L328.851,-558.403Z" style="fill:white;fill-rule:nonzero;"/>
                        <path id="path4179" d="M385.808,-513.187L396.009,-511.225L400.053,-532.237L416.51,-529.074L418.19,-537.806L401.744,-540.969L404.116,-553.321L424.737,-549.357L426.417,-558.086L395.592,-564.022L385.817,-513.188L385.808,-513.187Z" style="fill:white;fill-rule:nonzero;"/>
                        <g id="path4177" transform="matrix(1,0,0,1,-0.000301361,0)">
                            <path d="M458.462,-545.315C448.059,-545.357 438.376,-539.194 433.865,-528.42C427.879,-514.126 434.145,-498.961 448.009,-493.155L448.009,-493.157C461.863,-487.351 477.07,-493.517 483.056,-507.811C489.072,-522.176 482.805,-537.341 468.941,-543.147C465.477,-544.598 461.93,-545.301 458.462,-545.315L458.462,-545.315ZM458.921,-535.516C461.022,-535.511 463.157,-535.08 465.224,-534.211C473.492,-530.748 477.525,-521.638 473.421,-511.848C469.346,-502.129 460.027,-498.605 451.759,-502.069L451.759,-502.067C443.49,-505.541 439.456,-514.64 443.531,-524.37C446.601,-531.713 452.617,-535.532 458.921,-535.516L458.921,-535.516Z" style="fill:white;fill-rule:nonzero;"/>
                        </g>
                        <g id="path4175" transform="matrix(1,0,0,1,-0.000301361,0)">
                            <path d="M515.167,-517.571L483.966,-476.268L492.255,-470.012L504.577,-486.329L508.411,-483.436L505.128,-460.292L515.169,-452.704L518.431,-478.831C525.368,-477.039 531.305,-479.953 534.528,-484.217C539.503,-490.814 538.772,-499.743 530.483,-506.008L515.169,-517.571L515.167,-517.571L515.167,-517.571ZM518.107,-504.21L524.132,-499.665C527.715,-496.962 528.097,-493.028 525.864,-490.075C523.491,-486.932 519.307,-486.351 515.663,-489.104L509.958,-493.419L518.107,-504.21Z" style="fill:white;fill-rule:nonzero;"/>
                        </g>
                        <g id="path4189" transform="matrix(1,0,0,1,-0.000301361,0)">
                            <path d="M131.35,-466.3C127.18,-466.48 122.514,-464.36 118.278,-459.311L106.266,-444.958L106.266,-444.956L145.936,-411.723L158.369,-426.557C165.747,-435.357 163.194,-445.185 157.348,-450.081C152.343,-454.275 146.316,-453.575 141.602,-450.032C143.524,-454.897 142.091,-460.292 138.117,-463.626C136.173,-465.255 133.851,-466.191 131.35,-466.299L131.35,-466.3ZM129.404,-455.563C130.548,-455.587 131.751,-455.201 132.926,-454.214C135.759,-451.841 135.807,-448.099 133.385,-445.206L128.692,-439.596L119.707,-447.124L124.557,-452.913C125.752,-454.346 127.498,-455.524 129.404,-455.563ZM146.701,-443.655C148.029,-443.675 149.368,-443.217 150.637,-442.155C154.07,-439.272 153.64,-434.717 150.656,-431.153L145.762,-425.307L135.391,-433.995L140.535,-440.141C142.306,-442.256 144.488,-443.621 146.701,-443.655L146.701,-443.655Z" style="fill:white;fill-rule:nonzero;"/>
                        </g>
                        <g id="path4173" transform="matrix(1,0,0,1,-0.000301361,0)">
                            <path d="M565.157,-476.309L528.302,-439.981L540.333,-427.761C553.257,-414.657 569.353,-417.93 578.372,-426.819C587.451,-435.758 590.015,-451.094 578.032,-463.257L565.169,-476.299L565.157,-476.309L565.157,-476.309ZM566.132,-462.657L571.706,-457.001C579.054,-449.543 577.092,-440.214 570.655,-433.868C564.149,-427.461 554.8,-425.75 547.292,-433.368L541.927,-438.803L566.132,-462.657Z" style="fill:white;fill-rule:nonzero;"/>
                        </g>
                    </g>
                    <g id="g4253">
                        <g id="path4223" transform="matrix(1,0,0,1,-0.000301361,0)">
                            <path d="M646.03,-284.198C638.943,-284.198 633.567,-278.883 633.567,-272.107C633.567,-264.969 639.402,-260.064 645.508,-260.064C646.029,-260.064 646.55,-260.124 647.071,-260.224L639.253,-246.779L645.608,-246.779L656.239,-265.167L656.239,-265.169C657.44,-267.261 658.481,-269.554 658.481,-272.107C658.481,-278.884 653.117,-284.198 646.03,-284.198L646.03,-284.198ZM646.083,-278.898C650.097,-278.898 652.749,-275.824 652.749,-272.12C652.749,-268.477 650.097,-265.345 646.083,-265.345C642.019,-265.345 639.405,-268.477 639.405,-272.12C639.405,-275.824 642.019,-278.898 646.083,-278.898Z" style="fill:white;fill-rule:nonzero;"/>
                        </g>
                        <g id="path4221" transform="matrix(1,0,0,1,-0.000301361,0)">
                            <path d="M612.245,-284.198C606.779,-284.198 602.604,-279.924 602.604,-274.558C602.604,-271.895 603.595,-269.653 605.317,-268.091C601.874,-266.109 599.692,-262.567 599.692,-258.292C599.692,-251.575 605.157,-246.359 612.245,-246.359C619.442,-246.359 624.858,-251.575 624.858,-258.292C624.858,-262.567 622.675,-266.06 619.231,-268.042C620.953,-269.654 621.995,-271.895 621.995,-274.558C621.995,-279.923 617.77,-284.198 612.245,-284.198ZM612.298,-278.898C614.86,-278.898 616.573,-277.026 616.573,-274.573C616.573,-272.121 614.86,-270.249 612.298,-270.249C609.805,-270.249 608.134,-272.121 608.134,-274.573C608.134,-277.026 609.805,-278.898 612.298,-278.898ZM612.298,-264.984C616.422,-264.984 619.135,-262.012 619.135,-258.308C619.135,-254.664 616.422,-251.691 612.298,-251.691C608.284,-251.691 605.581,-254.664 605.581,-258.308C605.581,-262.012 608.284,-264.984 612.298,-264.984Z" style="fill:white;fill-rule:nonzero;"/>
                        </g>
                        <g id="path4193" transform="matrix(1,0,0,1,-0.000301361,0)">
                            <path d="M79.537,-284.113C74.062,-284.113 69.897,-279.838 69.897,-274.472C69.897,-271.809 70.888,-269.567 72.6,-268.005C69.166,-266.023 66.975,-262.481 66.975,-258.206C66.975,-251.479 72.45,-246.275 79.537,-246.275C86.725,-246.275 92.151,-251.479 92.151,-258.206C92.151,-262.481 89.959,-265.974 86.526,-267.956C88.247,-269.568 89.287,-271.809 89.287,-274.472C89.287,-279.837 85.063,-284.113 79.537,-284.113ZM79.553,-278.78C82.106,-278.78 83.826,-276.907 83.826,-274.454C83.826,-272.002 82.106,-270.13 79.553,-270.13C77.051,-270.13 75.379,-272.002 75.379,-274.454C75.379,-276.907 77.051,-278.78 79.553,-278.78ZM79.565,-264.863C83.679,-264.863 86.391,-261.891 86.391,-258.187C86.391,-254.543 83.679,-251.57 79.565,-251.57C75.551,-251.57 72.836,-254.543 72.836,-258.187C72.836,-261.891 75.551,-264.863 79.565,-264.863Z" style="fill:white;fill-rule:nonzero;"/>
                        </g>
                        <path id="path4191" d="M54.783,-284.113L49.047,-280.54L49.047,-246.685L54.783,-246.685L54.783,-284.114L54.783,-284.113Z" style="fill:white;fill-rule:nonzero;"/>
                    </g>
                    <g id="g4266">
                        <g id="path4219" transform="matrix(1,0,0,1,-0.000301361,0)">
                            <path d="M570.444,-112.076C567.554,-112.04 564.34,-110.577 561.294,-107.322L551.665,-97.033L580.114,-70.414L590.054,-81.056C595.96,-87.363 594.459,-94.849 590.265,-98.773L590.263,-98.773C586.669,-102.127 582.116,-101.857 578.432,-99.384C580.074,-102.958 579.223,-107.073 576.37,-109.746C574.745,-111.27 572.692,-112.104 570.444,-112.076L570.444,-112.076ZM569.481,-104.074C570.343,-104.044 571.231,-103.706 572.075,-102.918C574.108,-101.016 573.988,-98.203 572.046,-96.131L568.292,-92.105L561.847,-98.133L565.729,-102.287C566.687,-103.313 568.046,-104.123 569.481,-104.074ZM581.985,-94.404C582.984,-94.364 583.969,-93.963 584.874,-93.115C587.346,-90.813 586.827,-87.4 584.444,-84.847L580.52,-80.652L573.083,-87.621L577.206,-92.025C578.62,-93.539 580.321,-94.471 581.985,-94.404Z" style="fill:white;fill-rule:nonzero;"/>
                        </g>
                        <path id="path4195" d="M125.174,-100.097L132.791,-105.713L142.181,-93L147.567,-96.974L133.543,-115.983L102.191,-92.86L106.836,-86.563L119.789,-96.124L127.277,-85.973L132.662,-89.948L125.175,-100.098L125.174,-100.097Z" style="fill:white;fill-rule:nonzero;"/>
                        <path id="path4217" d="M556.651,-63.638L540.145,-82.547L534.259,-77.402L550.215,-59.124C554.069,-54.709 552.998,-50.545 549.745,-47.702C546.481,-44.859 542.137,-44.439 538.364,-48.763L522.397,-67.052L516.511,-61.907L533.017,-42.998C539.484,-35.6 548.643,-37.082 554.528,-42.217C560.414,-47.362 563.157,-56.191 556.65,-63.639" style="fill:white;fill-rule:nonzero;"/>
                        <path id="path4215" d="M528.432,-22.337L524.718,-27.893L511.775,-19.244L493.847,-46.071L487.351,-41.737L508.993,-9.344L528.432,-22.337L528.432,-22.337Z" style="fill:white;fill-rule:nonzero;"/>
                        <path id="path4213" d="M487.6,-9.844L480.382,-10.334C480.593,-4.468 477.95,-0.194 473.295,1.869C467.229,4.551 460.532,2.149 457.149,-5.489C453.626,-13.437 457.019,-19.533 463.075,-22.216C466.378,-23.688 470.453,-24.128 474.366,-21.586L477.269,-28.633C471.363,-31.726 465.137,-31.166 460.262,-29.003C451.062,-24.929 444.656,-14.259 450.122,-1.916C455.257,9.666 466.529,12.9 475.948,8.725C482.985,5.612 487.74,-1.035 487.6,-9.844" style="fill:white;fill-rule:nonzero;"/>
                        <path id="path4211" d="M422.994,27.735L421.683,21.168L406.418,24.221L400.092,-7.411L392.424,-5.879L400.072,32.32L422.994,27.735L422.994,27.735Z" style="fill:white;fill-rule:nonzero;"/>
                        <path id="path4209" d="M382.093,35.413L381.723,28.736L366.177,29.617L364.345,-2.596L356.547,-2.155L358.749,36.733L382.093,35.412L382.093,35.413Z" style="fill:white;fill-rule:nonzero;"/>
                        <g id="path4205" transform="matrix(1,0,0,1,-0.000301361,0)">
                            <path d="M322.287,-3.836L303.218,33.383L311.636,34.242L315.769,25.795L330.074,27.246L332.425,36.346L340.855,37.205L329.705,-3.086L322.287,-3.836ZM324.879,7.193L328.13,19.727L319.183,18.816L324.879,7.193Z" style="fill:white;fill-rule:nonzero;"/>
                        </g>
                        <g id="path4203" transform="matrix(1,0,0,1,-0.000301361,0)">
                            <path d="M272.828,-13.447L262.367,24.072L276.402,27.986C284.72,30.309 290.666,25.514 292.209,19.978C293.53,15.244 291.177,11.339 287.283,9.207C291.217,9.007 294.47,6.354 295.521,2.59C296.893,-2.315 294.04,-7.53 286.402,-9.662L286.4,-9.662L272.828,-13.447L272.828,-13.447ZM278.531,-4.92L284.008,-3.398L284.008,-3.396C286.17,-2.786 288.321,-1.025 287.49,1.937C286.749,4.62 284.197,5.812 281.465,5.051L276.16,3.57L278.531,-4.92L278.531,-4.92ZM274.416,9.908L280.232,11.529C283.425,12.42 285.637,14.633 284.746,17.826C283.835,21.079 280.572,22.201 277.209,21.26L271.683,19.719L274.416,9.908Z" style="fill:white;fill-rule:nonzero;"/>
                        </g>
                        <path id="path4201" d="M258.254,-17.911L228.954,-31.284L226.181,-25.198L237.273,-20.133L223.869,9.217L230.986,12.47L244.38,-16.889L255.471,-11.824L258.254,-17.911L258.254,-17.911Z" style="fill:white;fill-rule:nonzero;"/>
                        <g id="path4199" transform="matrix(1,0,0,1,-0.000301361,0)">
                            <path d="M193.061,-50.711C186.644,-50.551 180.457,-47.201 176.522,-41.019C170.265,-31.179 172.988,-19.136 182.527,-13.07C192.066,-6.994 204.13,-9.637 210.387,-19.477C216.683,-29.366 213.959,-41.411 204.42,-47.476C200.843,-49.755 196.91,-50.807 193.061,-50.711ZM193.701,-43.287C196.055,-43.362 198.425,-42.712 200.56,-41.353L200.56,-41.355C206.256,-37.732 208.079,-30.464 203.795,-23.717C199.531,-17.02 192.172,-15.599 186.477,-19.223C180.791,-22.845 178.961,-30.114 183.215,-36.81C185.898,-41.027 189.778,-43.162 193.701,-43.287L193.701,-43.287Z" style="fill:white;fill-rule:nonzero;"/>
                        </g>
                        <g id="path4197" transform="matrix(1,0,0,1,-0.000301361,0)">
                            <path d="M154.037,-82.562C148.916,-82.622 143.722,-80.648 139.508,-76.574C131.12,-68.466 130.96,-56.122 138.818,-47.994C146.676,-39.866 159.029,-39.617 167.406,-47.724C175.835,-55.873 175.995,-68.225 168.137,-76.344C164.208,-80.408 159.159,-82.502 154.037,-82.562ZM154.289,-74.978C157.465,-74.982 160.507,-73.686 162.85,-71.263C167.544,-66.41 167.625,-58.911 161.879,-53.365C156.183,-47.85 148.695,-48.18 144,-53.025C139.305,-57.88 139.226,-65.377 144.932,-70.892C147.805,-73.67 151.113,-74.975 154.289,-74.978Z" style="fill:white;fill-rule:nonzero;"/>
                        </g>
                    </g>
                </g>
                <g id="g4464">
                    <g id="g4445">
                        <path id="path4313" d="M576.495,247.519C575.794,246.458 574.303,245.717 569.288,244.366L543.352,237.619C543.302,237.349 520.81,274.456 520.81,274.456L563.332,297.019L575.314,255.337C576.785,249.961 577.276,248.72 576.495,247.519" style="fill:rgb(20,14,12);fill-rule:nonzero;"/>
                        <path id="path4337" d="M410.731,286.148L535.995,235.387L514.293,270.071L410.771,294.046L410.731,286.148L410.731,286.148Z" style="fill:rgb(20,14,12);fill-rule:nonzero;"/>
                        <path id="path4335" d="M410.901,299.761L410.861,305.247L562.031,305.247L513.182,278.59L410.901,299.761L410.901,299.761Z" style="fill:rgb(20,14,12);fill-rule:nonzero;"/>
                        <path id="path4331" d="M186.888,278.59L138.03,305.187L289.21,305.187L289.16,299.761L186.888,278.59L186.888,278.59Z" style="fill:rgb(20,14,12);fill-rule:nonzero;"/>
                        <path id="path4329" d="M166.228,321.303C166.148,322.614 167.469,323.836 169.441,325.918L197.659,353.906L220.371,332.074L177.639,314.176L169.271,318.38C167.079,319.621 166.288,320.412 166.228,321.303" style="fill:rgb(20,14,12);fill-rule:nonzero;"/>
                        <path id="path4327" d="M289.65,286.148L164.386,235.387L186.077,270.071L289.61,294.046L289.65,286.148L289.65,286.148Z" style="fill:rgb(20,14,12);fill-rule:nonzero;"/>
                        <path id="path4325" d="M187.559,310.943L226.808,326.628L289.67,316.318L289.53,310.943L187.559,310.943Z" style="fill:rgb(20,14,12);fill-rule:nonzero;"/>
                        <path id="path4323" d="M230.261,333.395C230.882,333.155 205.056,356.618 205.056,356.618L223.645,357.67C223.645,357.67 229.32,358.04 232.924,357.219C235.226,356.709 242.303,352.725 242.303,352.725C242.303,352.725 289.72,327.279 289.71,327.069L289.61,321.513C289.61,321.513 229.631,333.645 230.261,333.395" style="fill:rgb(20,14,12);fill-rule:nonzero;"/>
                        <path id="path4321" d="M410.771,321.513L410.66,327.069C410.65,327.279 458.068,352.725 458.068,352.725C458.068,352.725 465.145,356.709 467.457,357.219C471.05,358.04 476.726,357.67 476.726,357.67L495.325,356.618C495.325,356.618 469.489,333.155 470.12,333.395C470.75,333.645 410.771,321.513 410.771,321.513" style="fill:rgb(20,14,12);fill-rule:nonzero;"/>
                        <path id="path4319" d="M531.04,318.38L522.662,314.176L479.929,332.074L502.652,353.906L530.87,325.918C532.842,323.836 534.163,322.614 534.073,321.303C534.023,320.412 533.232,319.621 531.04,318.38" style="fill:rgb(20,14,12);fill-rule:nonzero;"/>
                        <path id="path4317" d="M460.87,421.484C460.08,420.423 438.278,362.645 438.278,362.645C434.584,353.405 431.421,351.824 424.825,348.13L409.84,338.57L409.129,339.471L426.306,362.905L426.346,396.949L482.242,467.93C489.889,477.43 490.149,480.593 501.24,480.593L508.097,477.43L495.174,475.308C495.174,475.308 461.661,422.535 460.87,421.484" style="fill:rgb(20,14,12);fill-rule:nonzero;"/>
                        <path id="path4315" d="M239.741,421.484C238.95,422.535 205.437,475.308 205.437,475.308L192.514,477.43L199.371,480.593C210.452,480.593 210.722,477.43 218.369,467.93L274.175,396.949L274.305,362.905L291.472,339.471L290.761,338.57L275.796,348.13C269.2,351.824 266.027,353.405 262.333,362.645C262.333,362.645 240.531,420.423 239.741,421.484" style="fill:rgb(20,14,12);fill-rule:nonzero;"/>
                        <path id="path4311" d="M410.731,310.842L410.59,316.218L473.463,326.528L512.702,310.842L410.731,310.842Z" style="fill:rgb(20,14,12);fill-rule:nonzero;"/>
                        <path id="path4309" d="M409.139,277.369L449.119,234.025L474.844,202.754L476.236,194.245L473.653,191.873L470.49,201.573L403.403,262.524C403.593,263.114 409.139,277.369 409.139,277.369" style="fill:rgb(20,14,12);fill-rule:nonzero;"/>
                        <path id="path4307" d="M251.212,234.025L291.192,277.369C291.192,277.369 296.737,263.114 296.928,262.524L229.841,201.573L226.668,191.873L224.105,194.245L225.487,202.754L251.212,234.025Z" style="fill:rgb(20,14,12);fill-rule:nonzero;"/>
                        <path id="path4305" d="M292.764,176.033L298.785,183.088L317.523,193.379L336.354,220.656L331.021,228.021C331.021,228.021 320.256,231.597 318.023,234.42C315.251,237.953 314.662,251.641 314.662,251.641L306.355,256.41L296.455,285.674L296.455,332.002L303.51,336.693L282.598,365.988L282.598,436.701L305.949,476.271L337.887,500.547L350.18,515.984L362.441,500.547L394.379,476.271L417.73,436.701L417.73,365.988L397.227,336.443L403.873,332.002L403.873,285.674L393.973,256.41L385.652,251.641C385.652,251.641 385.087,237.953 382.305,234.42C380.072,231.597 369.309,228.021 369.309,228.021L364.271,221.078L383.416,193.379L402.139,183.086L408.16,176.033L398.932,178.941L379.146,190.016L360.049,217.043L350.602,214.57L340.811,216.949L321.793,190.016L302.006,178.941L292.764,176.033ZM331.021,230.666L333.898,243.898L320.996,248.871L331.021,230.666ZM369.311,230.668L379.336,248.873L366.588,243.727L369.311,230.668ZM350.072,282.906L388.828,299.799L375.91,328.828L375.91,306.133L350.072,292.932L313.441,297.014L313.129,295.84L350.072,282.906ZM303.682,414.479L328.564,423.348L371.764,423.348L396.664,414.479L396.93,415.199L374.346,432.465L325.986,432.465L303.4,415.199L303.682,414.479Z" style="fill:rgb(20,14,12);fill-rule:nonzero;"/>
                        <path id="path4343" d="M124.366,255.437L136.348,297.119L178.87,274.556C178.87,274.556 156.368,237.449 156.328,237.719L130.382,244.466C125.367,245.817 123.876,246.558 123.185,247.619C122.394,248.82 122.895,250.061 124.366,255.437" style="fill:rgb(20,14,12);fill-rule:nonzero;"/>
                    </g>
                    <g id="g4247" transform="matrix(10.01,0,0,-10.0101,-5172.72,7562.76)">
                        <path id="path4251" d="M557.101,710.848L553.951,709.742L549.546,709.742L546.436,710.848L547.537,708.93L550.127,707.994L548.308,708.038L550.785,706.156L552.711,706.156L555.188,708.038L553.371,707.994L555.96,708.93L557.101,710.848ZM547.069,727.056L549.705,728.453L553.793,728.453L556.429,727.056L556.139,727.874L554.24,729.455L555.928,728.875L555.743,729.455C555.743,729.455 553.924,730.351 553.898,730.43L549.599,730.43C549.573,730.351 547.754,729.455 547.754,729.455L547.569,728.875L549.257,729.455L547.358,727.874L547.069,727.056ZM557.721,718.73L557.715,718.737L554.003,718.282L556.824,719.842L555.711,721.399L554.109,720.33L549.388,720.33L547.828,721.372L546.72,719.842L549.494,718.282L545.782,718.737L545.777,718.73L545.777,716.745L548.175,715.849L555.321,715.849L557.721,716.745L557.721,718.73Z" style="fill:rgb(251,184,0);fill-rule:nonzero;"/>
                    </g>
                </g>
            </g>
        </g>
    </g>
</svg>
