<?xml version="1.0" encoding="UTF-8" standalone="no"?>
<!DOCTYPE svg PUBLIC "-//W3C//DTD SVG 1.1//EN" "http://www.w3.org/Graphics/SVG/1.1/DTD/svg11.dtd">
<svg width="100%" height="100%" viewBox="0 0 512 512" version="1.1" xmlns="http://www.w3.org/2000/svg" xmlns:xlink="http://www.w3.org/1999/xlink" xml:space="preserve" xmlns:serif="http://www.serif.com/" style="fill-rule:evenodd;clip-rule:evenodd;stroke-linejoin:round;stroke-miterlimit:2;">
    <rect x="0" y="0" width="512" height="512" style="fill:white;fill-opacity:0;"/>
    <g id="Logo_Everton_FC_2014.svg" transform="matrix(0.642857,0,0,0.642857,256,256)">
        <g transform="matrix(1,0,0,1,-342,-350)">
            <clipPath id="_clip1">
                <rect x="0" y="0" width="684" height="700"/>
            </clipPath>
            <g clip-path="url(#_clip1)">
                <g id="g5078" transform="matrix(1.25016,0,0,-1.25024,60.7546,835.792)">
                    <g id="Logo">
                        <g id="g50781" serif:id="g5078">
                            <g id="g5047">
                                <path id="path5809" d="M498.515,315.687C498.409,316.005 498.198,316.217 497.88,316.217L463.773,329.351C464.409,331.787 465.68,335.07 468.01,338.46L485.593,330.728C486.229,330.41 486.758,330.304 487.394,330.304C488.982,330.304 490.465,331.151 491.313,332.528C491.736,333.27 493.113,335.494 494.278,338.354C495.973,342.909 496.397,347.039 495.338,350.429C494.278,354.03 491.736,356.784 487.923,358.479L441.001,379.981C441.001,379.981 440.789,380.086 440.683,380.192C438.882,380.934 435.493,381.887 431.362,380.51L431.362,384.959C431.362,388.56 431.256,392.373 431.044,396.186C430.832,400.105 430.515,404.13 430.091,408.261C427.337,431.987 421.829,449.464 419.605,455.819L418.757,457.938C409.542,483.57 402.34,503.907 402.552,528.163C402.658,546.487 425.536,572.12 434.328,580.487L442.589,588.326L355.841,667.448L348.956,662.893C333.068,652.407 312.519,646.688 291.018,646.688C268.563,646.688 247.167,652.937 231.067,664.27L225.029,668.507L218.992,664.27C202.786,652.937 181.496,646.688 159.041,646.688C137.539,646.688 116.991,652.407 101.103,662.893L94.218,667.448L15.837,595.952L7.469,588.326L15.625,580.487C24.417,572.12 47.295,546.487 47.507,528.163C47.613,503.907 40.411,483.57 31.195,457.938L30.454,455.819C28.23,449.464 22.616,431.987 19.968,408.261C19.544,404.13 19.226,400.105 19.015,396.186C18.803,392.373 18.591,388.56 18.591,384.959C18.591,383.476 18.591,381.993 18.697,380.51C14.566,381.887 11.177,380.934 9.482,380.192L9.376,380.192C9.27,380.086 9.164,379.981 9.058,379.981L-37.864,358.479C-41.678,356.784 -44.22,354.03 -45.279,350.429C-46.338,347.039 -45.914,342.909 -44.22,338.354C-43.055,335.494 -41.678,333.27 -41.148,332.528C-40.407,331.151 -38.924,330.304 -37.335,330.304C-36.699,330.304 -36.17,330.41 -35.534,330.728L-17.951,338.46C-15.621,335.07 -14.456,331.787 -13.715,329.351L-47.821,316.217C-48.139,316.217 -48.351,316.005 -48.456,315.687C-48.562,315.369 -48.562,315.157 -48.456,314.84L-46.444,309.65C-25.154,256.478 11.071,210.826 58.205,177.991C102.056,147.486 153.427,129.585 206.705,126.302L224.288,108.931C224.5,108.719 224.712,108.613 225.029,108.613C225.241,108.613 225.559,108.719 225.771,108.931L243.354,126.302C296.631,129.585 348.003,147.486 391.748,177.991C438.988,210.826 475.213,256.478 496.503,309.65L498.515,314.84C498.621,315.157 498.621,315.369 498.515,315.687" style="fill:rgb(39,68,136);fill-rule:nonzero;"/>
                                <path id="path4884" d="M22.288,396.006C22.499,399.925 22.817,403.844 23.347,407.869C25.889,431.384 31.397,448.437 33.621,454.686L34.362,456.804C43.683,482.755 50.992,503.303 50.78,528.195C50.674,547.578 27.054,574.27 17.945,582.955L12.331,588.251L18.051,593.441L94.525,663.243L99.186,660.171C115.709,649.367 136.893,643.33 159.031,643.33C182.121,643.33 204.153,649.897 220.888,661.548L225.019,664.408L229.15,661.548C245.885,649.897 267.811,643.33 291.007,643.33C313.038,643.33 334.328,649.367 350.746,660.171L355.407,663.243L437.707,588.251L432.093,582.849C422.984,574.27 399.363,547.578 399.257,528.195C399.046,503.303 406.354,482.755 415.675,456.804L416.417,454.686C418.641,448.437 424.149,431.384 426.691,407.869C427.114,403.844 427.538,399.925 427.75,396.006C427.856,392.299 428.068,388.486 428.068,384.885C428.174,357.769 422.878,334.149 412.286,314.871C410.485,311.588 408.473,308.304 406.354,305.339C406.142,304.915 405.825,304.491 405.401,303.856L405.189,303.644C367.905,247.718 313.038,212.87 250.546,205.562L250.016,205.562L225.019,180.565L200.022,205.562L199.492,205.562C136.999,212.87 82.027,247.718 44.743,303.644L44.637,303.856C44.213,304.491 43.895,304.915 43.683,305.233C41.565,308.304 39.553,311.588 37.752,314.871C27.16,334.149 21.864,357.769 21.97,384.885C21.97,388.486 22.076,392.299 22.288,396.006" style="fill:white;fill-rule:nonzero;"/>
                                <path id="path4894" d="M494.374,310.529C473.296,257.675 437.389,212.447 390.572,179.823C346.933,149.424 295.879,131.63 242.813,128.452C242.496,128.452 242.284,128.346 242.072,128.134L225.019,111.187L207.966,128.134C207.754,128.346 207.542,128.452 207.224,128.452C154.264,131.63 103.105,149.424 59.466,179.823C12.755,212.447 -23.258,257.675 -44.336,310.529L-46.031,314.66L18.58,339.445C20.275,340.186 22.076,339.551 23.029,338.068L23.135,337.962C23.559,337.327 24.406,336.055 25.677,334.89C26.207,333.196 26.736,331.501 27.372,329.912C23.982,331.183 21.546,334.361 20.593,335.738L20.381,336.161C20.275,336.267 20.063,336.373 19.851,336.373L19.64,336.373L15.085,334.573L13.073,333.725L13.39,332.878C13.602,332.454 13.708,332.031 13.814,331.819C15.721,327.052 17.839,322.498 19.957,317.943C20.381,317.308 20.699,316.566 21.017,315.931L23.029,316.672L31.503,319.744C32.032,318.685 32.562,317.731 32.986,316.778L24.618,313.706L22.499,312.965C22.817,312.329 23.135,311.694 23.559,311.058C40.612,278.859 64.973,251.213 95.161,230.029C129.479,206.197 169.199,192.534 210.931,189.886L214.533,186.39C170.788,188.297 128.949,202.384 93.254,227.381C55.864,253.438 27.16,289.451 10.319,331.607L9.895,332.56L-41.582,312.753L-41.159,311.8C-20.292,259.475 15.191,214.777 61.478,182.471C105.011,152.178 156.065,134.595 209.131,131.735L224.277,116.695L225.019,115.953L240.907,131.735C293.973,134.595 345.026,152.178 388.56,182.471C434.847,214.777 470.436,259.475 491.302,311.8L491.62,312.753L440.143,332.56L439.825,331.607C422.878,289.451 394.173,253.438 356.784,227.381C320.982,202.384 279.25,188.297 235.505,186.39L239.106,189.886C280.839,192.534 320.559,206.197 354.877,230.029C385.064,251.213 409.532,278.859 426.479,311.058C426.903,311.694 427.22,312.329 427.538,312.965L425.42,313.706L417.052,316.778C417.476,317.731 418.005,318.685 418.429,319.744L427.009,316.672L429.021,315.931C429.339,316.566 429.762,317.308 430.08,317.943C432.199,322.498 434.317,327.052 436.224,331.819C436.33,332.031 436.541,332.454 436.647,332.878L437.071,333.725L434.953,334.573L430.398,336.373L430.08,336.373C429.974,336.373 429.762,336.267 429.657,336.161L429.445,335.738C428.491,334.361 426.055,331.183 422.666,329.806C423.195,331.501 423.831,333.196 424.361,334.89C425.526,335.95 426.479,337.327 426.903,337.962L427.009,338.068C427.962,339.551 429.762,340.186 431.457,339.445L496.069,314.66L494.374,310.529Z" style="fill:white;fill-rule:nonzero;"/>
                                <path id="path4892" d="M-16.691,340.398L-17.221,341.246L-36.392,332.666C-37.557,332.242 -38.722,332.666 -39.252,333.725C-39.676,334.255 -41.053,336.373 -42.112,339.127C-43.171,341.987 -44.23,346.118 -43.171,349.825C-42.324,352.791 -40.205,355.121 -37.028,356.498L10.001,378C10.107,378 10.213,378.106 10.319,378.106C11.166,378.529 12.755,379.059 14.555,379.059C15.826,379.059 17.203,378.741 18.686,378.212C18.792,376.835 18.792,375.67 18.898,374.399C17.415,375.246 15.932,375.776 14.449,375.776C13.496,375.776 12.543,375.564 11.696,375.14L11.378,375.034C9.259,373.975 7.777,371.539 7.141,368.255C6.505,364.548 7.141,360.205 9.048,355.968L9.365,355.121C9.789,354.062 9.259,352.897 8.2,352.367L-14.149,342.517L-13.408,341.457C-10.76,337.75 -9.383,334.149 -8.535,331.395L-11.713,330.124C-12.454,332.878 -13.937,336.691 -16.691,340.398" style="fill:white;fill-rule:nonzero;"/>
                                <path id="path4890" d="M208.601,192.216C168.14,195.182 129.691,208.739 96.432,231.936C66.668,252.696 42.518,280.024 25.571,311.8L34.045,314.766C34.257,314.236 34.574,313.812 34.786,313.283C36.693,309.893 38.705,306.504 40.93,303.326C41.141,303.008 41.459,302.585 41.883,302.055L41.989,301.737C79.802,245.176 135.304,209.905 198.539,202.384L208.601,192.216Z" style="fill:white;fill-rule:nonzero;"/>
                                <g id="g4935">
                                    <g id="path4904" transform="matrix(0.833699,0,0,-0.833699,-48.8543,668.539)">
                                        <path d="M166.011,547.102C165.694,547.134 165.375,547.26 165.057,547.451L139.267,566.382L138.886,566.763C138.759,567.144 138.758,567.526 139.139,567.78L143.587,570.702C144.349,571.21 144.985,570.956 145.493,570.575L150.066,566.89L151.464,567.78L158.323,572.226L159.722,573.243L158.323,578.707C158.196,579.469 158.197,580.103 159.214,580.738L163.534,583.66C164.169,584.041 164.549,583.788 164.93,583.28C165.057,583.153 165.058,583.025 165.185,582.644L171.919,551.771C172.046,551.136 171.918,550.501 171.028,549.992L166.963,547.325C166.646,547.135 166.329,547.071 166.011,547.102ZM164.473,555.431C164.219,556.194 163.966,557.082 163.712,558.226L161.17,567.373L154.691,563.181L162.186,557.21C162.948,556.575 163.71,555.939 164.473,555.431Z" style="fill:white;fill-rule:nonzero;"/>
                                    </g>
                                    <g id="path4918" transform="matrix(0.833699,0,0,-0.833699,-48.8543,668.539)">
                                        <path d="M426.719,578.847C425.137,578.868 423.459,579.151 421.696,579.722C412.93,582.645 409.753,591.029 413.056,600.43C416.232,609.959 423.347,614.534 432.24,611.612C440.625,608.817 444.438,600.684 441.008,590.774C438.633,583.549 433.575,578.755 426.719,578.847ZM425.864,585.293C429.027,585.249 431.64,587.676 433.498,593.456C435.912,600.317 434.389,604.256 430.45,605.526C426.258,606.924 422.826,604.764 420.54,597.776C418.253,591.297 419.777,586.977 423.589,585.707C424.375,585.445 425.134,585.302 425.864,585.293Z" style="fill:white;fill-rule:nonzero;"/>
                                    </g>
                                    <g id="path4930" transform="matrix(0.833699,0,0,-0.833699,-48.8543,668.539)">
                                        <path d="M457.886,567.141C455.539,567.218 452.918,568.002 449.9,569.431L443.167,572.481C442.277,572.989 442.023,573.37 442.531,574.387L455.109,601.066C455.49,601.955 456.125,602.082 456.887,601.701L461.08,599.795C462.096,599.287 462.224,598.779 461.843,598.016L457.778,589.378C458.286,589.251 459.683,588.615 460.192,588.361C466.671,585.438 470.229,579.722 467.053,572.989C466.037,570.702 464.13,568.797 461.843,567.78C460.604,567.304 459.295,567.095 457.886,567.141ZM456.501,573.378C458.155,573.445 459.505,574.417 460.458,576.482C461.855,579.531 460.84,581.818 457.791,583.216C457.41,583.47 456.012,584.105 455.377,584.232L451.184,575.211L453.216,574.195C454.407,573.624 455.509,573.338 456.501,573.378Z" style="fill:white;fill-rule:nonzero;"/>
                                    </g>
                                    <path id="path4928" d="M437.707,292.84C437.389,293.476 437.283,294.005 437.707,294.747L439.189,297.077C439.507,297.712 439.931,297.818 440.566,297.395L462.386,285.426C463.127,285.002 463.233,284.472 462.81,283.943L460.691,280.659C460.268,279.812 459.632,279.812 458.785,280.341L447.133,287.014L447.027,287.014L455.925,274.622C456.454,273.986 456.243,273.457 455.925,273.033L455.183,271.868C454.866,271.232 454.442,270.915 453.595,271.02L438.13,272.715L438.024,272.609L449.57,265.195C450.523,264.665 450.417,264.136 449.887,263.5L448.193,260.746C447.769,260.005 447.239,259.793 446.498,260.323L426.161,274.092C425.42,274.728 425.42,275.151 425.738,275.787L427.22,278.117C427.75,278.964 428.174,279.07 429.021,278.964L448.51,276.952L448.616,277.058L437.707,292.84Z" style="fill:white;fill-rule:nonzero;"/>
                                    <path id="path4926" d="M427.856,254.921L417.37,263.394C416.84,263.924 416.946,264.453 417.37,264.983L419.806,267.949C420.336,268.478 420.759,268.69 421.395,268.161L432.093,259.369C438.766,253.755 438.978,247.824 434.105,242.21C429.021,236.067 423.301,236.067 416.946,241.257L406.248,250.048C405.613,250.578 405.825,251.213 406.248,251.743L408.684,254.603C409.214,255.238 409.532,255.344 410.167,254.815L420.547,246.341C425.314,242.422 427.962,242.952 430.292,245.706C432.516,248.354 432.516,251.107 427.856,254.921" style="fill:white;fill-rule:nonzero;"/>
                                    <path id="path4924" d="M397.351,241.151C397.139,241.787 397.245,242.422 397.881,243.058L399.787,244.858C400.423,245.388 400.846,245.282 401.27,244.858L419.17,227.593C419.17,227.487 419.276,227.487 419.276,227.487C419.7,226.958 419.7,226.428 419.17,226.004L416.311,223.356C415.569,222.615 415.04,222.827 414.298,223.674L404.871,233.101L410.061,218.802C410.379,218.06 410.061,217.637 409.744,217.319L408.684,216.366C408.049,215.836 407.731,215.624 406.884,215.942L392.373,221.662L392.267,221.556L401.482,211.387C402.223,210.54 401.905,210.222 401.27,209.587L398.94,207.468C398.304,206.833 397.775,206.727 397.245,207.362L397.139,207.468L381.251,226.11C380.616,226.852 380.721,227.275 381.251,227.805L383.369,229.712C384.005,230.347 384.535,230.347 385.276,230.029L403.494,222.933L403.6,223.039L397.351,241.151Z" style="fill:white;fill-rule:nonzero;"/>
                                    <path id="path4922" d="M385.806,202.596L387.394,203.655C387.924,204.079 388.454,203.867 388.771,203.443L389.937,201.749C390.254,201.431 390.254,200.901 389.831,200.584L381.781,194.652C381.251,194.334 380.721,194.44 380.404,194.758L379.239,196.453C378.815,196.982 378.921,197.512 379.344,197.83L380.827,198.889L369.494,214.141L367.799,212.87C367.27,212.553 366.74,212.764 366.422,213.188L365.257,214.777C364.939,215.201 364.939,215.73 365.363,216.048L373.837,222.191C374.26,222.509 374.79,222.509 375.108,222.085L376.379,220.391C376.696,219.861 376.696,219.437 376.167,219.014L374.472,217.849L385.806,202.596Z" style="fill:white;fill-rule:nonzero;"/>
                                    <path id="path4920" d="M365.893,185.543C366.422,184.696 366.316,184.59 365.681,184.166L361.868,181.942C361.232,181.518 361.126,181.624 360.597,182.259L349.793,200.266L343.649,196.665C343.014,196.241 342.484,196.347 342.167,197.088L340.684,199.524C340.26,200.16 340.472,200.584 341.107,200.901L357.419,210.54L359.114,211.599C359.749,211.917 360.067,211.811 360.385,211.387L360.385,211.281L361.762,208.422C362.08,207.786 361.762,207.362 361.02,206.939L355.089,203.443L365.893,185.543Z" style="fill:white;fill-rule:nonzero;"/>
                                    <path id="path4916" d="M273.742,153.555L275.649,153.873C276.284,153.873 276.708,153.555 276.814,153.025L277.132,151.013C277.237,150.483 276.92,150.06 276.39,149.954L266.54,148.259C266.01,148.153 265.48,148.471 265.48,148.895L265.057,151.013C264.951,151.648 265.268,152.072 265.798,152.178L267.599,152.496L264.421,171.138L262.303,170.82C261.667,170.714 261.349,171.138 261.244,171.667L260.82,173.68C260.82,174.104 261.032,174.527 261.561,174.633L271.941,176.434C272.471,176.54 272.895,176.116 273.001,175.798L273.318,173.68C273.424,173.044 273.107,172.621 272.577,172.515L270.459,172.197L273.742,153.555Z" style="fill:white;fill-rule:nonzero;"/>
                                    <path id="path4914" d="M242.178,165.418C242.39,164.147 243.979,163.617 244.932,163.194L249.592,161.499C252.77,160.44 254.888,158.533 255.206,154.932C255.63,149.424 251.393,145.823 246.097,145.399C243.555,145.187 240.483,145.505 237.835,146.141C237.2,146.247 236.988,146.564 236.988,146.882C236.988,147.094 236.988,147.306 237.094,147.518L237.941,150.801C237.941,151.119 238.153,151.543 238.682,151.543C238.788,151.543 239.106,151.543 239.318,151.437C241.331,150.801 243.555,150.589 245.461,150.695C247.156,150.801 249.063,151.86 248.957,153.767C248.851,155.25 247.58,155.779 246.309,156.309L241.013,158.321C237.941,159.381 235.929,161.605 235.611,164.888C235.187,169.761 239.954,173.044 244.508,173.362C247.368,173.574 249.804,173.256 252.346,172.409C252.982,172.197 253.194,171.985 253.299,171.561C253.299,171.456 253.194,171.244 253.194,170.926L252.134,167.854C252.028,167.325 251.817,167.219 251.499,167.113C251.287,167.113 251.075,167.219 250.757,167.219C249.063,167.748 246.944,168.278 245.355,168.066C243.767,167.96 242.072,167.219 242.178,165.418" style="fill:white;fill-rule:nonzero;"/>
                                    <path id="path4912" d="M4.387,287.438L-8.535,279.494C-9.277,279.07 -9.7,279.282 -10.124,279.918L-12.031,282.989C-12.56,283.731 -12.56,284.155 -11.819,284.684L9.259,297.501C10.213,298.03 10.53,297.712 11.06,297.077L12.755,294.323C13.073,293.581 13.178,293.158 12.861,292.522L5.658,274.516L18.686,282.46C19.428,282.884 19.957,282.672 20.275,282.036L22.288,278.753C22.817,277.905 22.394,277.588 21.864,277.27L0.786,264.453C-0.062,263.924 -0.379,264.136 -0.803,264.771L-2.498,267.631C-2.921,268.161 -2.921,268.796 -2.71,269.432L4.387,287.332L4.387,287.438Z" style="fill:white;fill-rule:nonzero;"/>
                                    <path id="path4910" d="M15.826,249.307C16.144,248.777 15.932,248.248 15.509,247.93L13.92,246.659C13.602,246.447 12.967,246.447 12.649,246.765L6.611,254.709C6.188,255.238 6.4,255.768 6.611,255.98L8.306,257.251C8.836,257.675 9.365,257.569 9.683,257.145L10.848,255.662L25.995,267.313L24.724,268.902C24.3,269.432 24.512,269.961 24.936,270.279L26.63,271.444C26.948,271.762 27.478,271.762 27.795,271.338L34.151,263.076C34.574,262.653 34.468,262.123 34.151,261.805L32.456,260.64C31.926,260.111 31.397,260.323 31.079,260.746L29.702,262.335L14.555,250.896L15.826,249.307Z" style="fill:white;fill-rule:nonzero;"/>
                                    <path id="path4908" d="M35.104,229.394C35.634,228.864 35.528,228.335 34.998,227.805L32.88,225.793C32.244,225.263 31.714,225.369 31.185,225.898L21.122,236.702C20.593,237.338 20.487,237.762 21.228,238.397L39.447,255.132C39.976,255.556 40.506,255.556 41.035,255.027L43.683,252.167C44.213,251.531 44.319,251.107 43.683,250.578L28.431,236.596L35.104,229.394Z" style="fill:white;fill-rule:nonzero;"/>
                                    <path id="path4906" d="M61.902,212.447L59.36,217.637C57.877,220.497 57.983,223.462 59.995,226.004C63.173,229.923 68.787,228.97 72.388,226.11C74.506,224.31 76.095,222.403 77.366,220.073C77.684,219.437 77.684,219.12 77.472,218.908C77.366,218.696 77.154,218.59 76.942,218.484L74.083,216.895C73.659,216.683 73.341,216.683 73.023,216.895C72.917,217.001 72.812,217.213 72.6,217.425C71.858,219.014 70.587,220.708 69.316,221.662C68.151,222.721 66.35,223.356 65.185,221.979C64.444,220.92 65.185,219.437 65.609,218.378L67.833,214.035C69.316,211.07 69.528,208.21 67.304,205.456C63.808,201.113 58.3,201.431 54.064,204.714C52.157,206.303 50.039,208.633 48.662,210.858C48.238,211.493 48.238,211.811 48.556,212.023C48.662,212.235 48.874,212.341 49.085,212.447L51.839,214.247C52.263,214.459 52.581,214.671 53.004,214.353C53.11,214.141 53.216,214.035 53.322,213.824C54.381,212.023 55.864,210.328 57.347,209.057C58.618,207.998 60.737,207.362 62.008,208.845C62.855,210.01 62.431,211.281 61.902,212.447" style="fill:white;fill-rule:nonzero;"/>
                                    <path id="path4902" d="M100.88,199.63C100.245,200.054 100.139,200.478 100.457,201.113L101.834,203.761C102.151,204.291 102.575,204.503 103.211,204.079L120.052,195.393L121.853,194.44C122.488,194.122 122.594,193.699 122.276,193.275L122.276,193.169L120.582,190.521C120.052,189.886 119.522,189.992 118.887,190.415L112.743,193.487L102.999,175.057C102.575,174.315 102.469,174.209 101.728,174.527L97.809,176.646C97.067,176.963 97.067,177.069 97.491,177.811L107.236,196.347L100.88,199.63Z" style="fill:white;fill-rule:nonzero;"/>
                                    <path id="path4900" d="M129.902,166.371C130.432,166.16 130.538,165.63 130.432,165.1L129.585,163.194C129.479,162.77 128.949,162.452 128.42,162.77L119.205,166.371C118.675,166.689 118.463,167.219 118.569,167.536L119.416,169.549C119.628,170.184 120.052,170.29 120.687,170.079L122.276,169.443L129.479,187.026L127.572,187.767C126.937,188.085 126.831,188.615 127.043,189.038L127.89,190.945C127.996,191.369 128.42,191.686 128.949,191.474L138.694,187.555C139.223,187.344 139.435,186.92 139.329,186.39L138.482,184.484C138.164,183.848 137.741,183.742 137.211,183.954L135.198,184.696L128.102,167.113L129.902,166.371Z" style="fill:white;fill-rule:nonzero;"/>
                                    <path id="path4898" d="M151.828,173.15L155.641,169.973C158.183,167.748 159.454,165.1 158.395,161.711C156.806,156.415 151.51,154.614 146.426,156.097C143.99,156.839 141.236,158.215 139.012,159.804C138.482,160.122 138.376,160.44 138.482,160.758C138.482,160.969 138.694,161.181 138.8,161.393L140.706,164.041C140.918,164.465 141.236,164.677 141.766,164.571C141.871,164.465 142.083,164.465 142.295,164.147C143.99,162.982 145.896,161.923 147.803,161.287C149.392,160.863 151.616,161.075 152.146,162.876C152.569,164.359 151.722,165.312 150.663,166.16L146.32,169.973C143.99,172.091 142.825,174.951 143.778,178.023C145.261,182.789 150.875,184.06 155.217,182.683C157.865,181.942 160.09,180.776 162.102,179.082C162.632,178.552 162.738,178.234 162.632,177.917C162.632,177.811 162.526,177.599 162.314,177.493L160.302,174.951C159.984,174.421 159.772,174.315 159.348,174.421C159.242,174.527 159.031,174.633 158.713,174.845C157.442,175.904 155.535,177.069 154.052,177.493C152.569,178.023 150.663,177.917 150.133,176.116C149.815,174.951 151.087,173.786 151.828,173.15" style="fill:white;fill-rule:nonzero;"/>
                                    <path id="path4896" d="M206.906,171.138L203.835,146.882C203.729,145.929 203.199,145.717 202.564,145.823L199.28,146.247C198.539,146.352 198.009,146.67 197.691,147.306L188.053,163.935L187.947,163.935L186.04,149C185.934,148.153 185.511,147.941 184.769,148.047L181.168,148.471C180.32,148.577 179.897,148.789 180.109,149.742L183.074,174.104C183.18,175.057 183.71,175.269 184.557,175.057L187.735,174.739C188.582,174.633 188.9,174.315 189.218,173.68L198.857,156.944L198.962,156.944L200.869,171.985C200.975,172.832 201.399,173.044 202.14,172.938L205.953,172.515C206.906,172.409 206.906,171.773 206.906,171.138" style="fill:white;fill-rule:nonzero;"/>
                                    <path id="path4888" d="M226.29,149C226.925,149 227.243,148.577 227.243,148.047L227.243,145.929C227.243,145.505 226.925,145.081 226.396,145.081L216.333,145.187C215.698,145.187 215.38,145.611 215.38,146.035L215.38,148.153C215.38,148.895 215.804,149.106 216.333,149.106L218.24,149.106L218.452,168.066L216.439,168.172C215.804,168.172 215.486,168.596 215.486,169.125L215.486,171.138C215.486,171.667 215.804,172.091 216.333,172.091L226.819,171.879C227.455,171.879 227.773,171.456 227.773,171.032L227.773,168.913C227.773,168.278 227.349,167.96 226.819,167.96L224.701,167.96L224.383,149L226.29,149Z" style="fill:white;fill-rule:nonzero;"/>
                                </g>
                                <path id="path4886" d="M415.993,314.766L424.466,311.8C407.625,280.024 383.475,252.696 353.606,231.936C320.347,208.739 281.898,195.182 241.436,192.216L251.499,202.384C314.733,209.905 370.235,245.176 407.943,301.737L408.155,302.055C408.473,302.585 408.79,303.008 409.108,303.432C411.226,306.504 413.345,309.893 415.146,313.283C415.463,313.812 415.781,314.236 415.993,314.766" style="fill:white;fill-rule:nonzero;"/>
                                <path id="path4882" d="M431.245,378.106C432.834,378.741 434.317,379.059 435.482,379.059C437.283,379.059 438.766,378.529 439.719,378.106C439.825,378.106 439.931,378 440.037,378L487.065,356.498C490.243,355.121 492.361,352.791 493.209,349.825C494.374,346.118 493.209,341.987 492.149,339.127C491.09,336.373 489.713,334.255 489.29,333.725C488.76,332.666 487.489,332.242 486.536,332.666L467.258,341.246L466.729,340.398C463.975,336.691 462.492,332.878 461.75,330.124L458.679,331.395C459.42,334.149 460.797,337.75 463.445,341.457L464.187,342.517L441.837,352.367C440.778,352.897 440.249,354.062 440.672,355.121L440.99,355.968C442.897,360.205 443.532,364.548 442.897,368.255C442.367,371.539 440.778,373.975 438.66,375.034L438.448,375.14C437.495,375.564 436.541,375.776 435.588,375.776C434.105,375.776 432.622,375.246 431.139,374.293C431.245,375.67 431.245,376.835 431.245,378.106" style="fill:white;fill-rule:nonzero;"/>
                                <path id="path5817" d="M444.591,355.905C446.286,360.354 446.816,364.908 446.18,368.933C446.074,369.145 446.074,369.463 445.968,369.78L445.439,371.899L485.688,353.469C488.019,352.41 489.501,350.927 490.031,348.914C491.302,344.677 488.654,339.17 487.489,336.945L486.959,336.098L444.168,354.952L444.591,355.905Z" style="fill:rgb(39,68,136);fill-rule:nonzero;"/>
                                <path id="path5813" d="M5.478,355.905C3.783,360.354 3.254,364.908 3.889,368.933C3.995,369.145 3.995,369.463 4.101,369.78L4.525,371.899L-35.619,353.469C-37.949,352.41 -39.432,350.927 -39.962,348.914C-41.233,344.677 -38.585,339.17 -37.42,336.945L-36.89,336.098L5.902,354.952L5.478,355.905Z" style="fill:rgb(39,68,136);fill-rule:nonzero;"/>
                            </g>
                            <g id="g4956">
                                <path id="path5893" d="M427.104,588.198L354.76,654.081C337.707,642.959 315.464,636.18 290.996,636.18C265.47,636.18 242.273,643.595 225.008,655.67C207.743,643.595 184.547,636.18 159.02,636.18C134.552,636.18 112.309,642.959 95.362,654.081L22.913,588.198C22.913,588.198 57.866,555.045 58.078,528.248C58.184,501.344 50.24,479.63 40.389,452.197C36.788,441.923 32.551,425.717 30.539,406.969C30.115,403.368 29.691,399.449 29.48,395.53C29.268,392.034 29.268,388.433 29.162,384.832C29.056,362.588 32.869,338.862 44.097,318.314C45.791,315.242 47.592,312.276 49.604,309.417C55.43,301.049 102.776,222.668 203.295,212.394L203.718,212.076L225.008,190.786L246.404,212.076L246.722,212.394C347.24,222.668 394.586,301.049 400.412,309.417C402.424,312.276 404.331,315.242 405.92,318.314C417.147,338.862 420.961,362.588 420.855,384.832C420.855,388.433 420.749,392.034 420.537,395.53C420.325,399.449 419.901,403.368 419.584,406.969C417.465,425.717 413.334,441.923 409.627,452.197C399.882,479.63 391.832,501.344 392.044,528.248C392.15,555.045 427.104,588.198 427.104,588.198" style="fill:rgb(39,68,136);fill-rule:nonzero;"/>
                                <g id="g4843">
                                    <path id="path4618" d="M176.603,523.693L220.03,615.95C218.441,619.445 221.089,623.788 224.479,623.788C227.868,623.788 231.046,619.445 229.457,616.055L273.202,524.329C280.616,520.727 283.9,516.173 283.476,513.101C283.158,509.818 280.828,507.805 278.074,506.746C278.286,490.116 277.545,431.119 277.756,397.436C281.464,396.589 281.464,392.67 281.146,379.959C280.934,367.779 281.993,363.648 273.943,363.648C272.884,363.648 270.766,363.754 270.766,363.754L270.766,367.884C270.66,370.003 270.66,370.638 269.495,371.062C266.105,372.439 262.504,373.604 258.585,375.193C255.831,376.146 173.001,405.804 173.001,405.804C173.001,405.804 169.188,406.863 169.188,410.57C169.188,410.888 169.082,414.066 169.082,415.125L169.082,426.988C169.082,430.06 171.095,431.119 172.895,430.907C173.001,430.907 173.001,431.225 173.001,431.437C172.895,442.346 172.79,499.437 172.79,505.475C168.976,506.64 167.917,509.288 167.917,509.288C166.117,513.207 168.023,519.138 176.603,523.693" style="fill:white;fill-rule:nonzero;"/>
                                    <g id="g4830">
                                        <path id="path5833" d="M271.115,410.136C271.115,410.242 266.137,411.619 262.536,412.254C258.087,412.996 255.439,413.102 254.592,413.208C253.638,413.42 251.202,413.42 251.308,414.797C251.308,415.75 252.367,415.962 253.427,416.068C255.015,416.173 259.146,415.75 261.582,415.432C267.408,414.585 271.115,413.42 271.115,413.631L271.115,420.94C271.115,421.152 262.959,423.906 254.168,424.859C248.236,425.389 245.483,425.283 241.987,425.389C241.352,425.389 239.975,425.177 239.975,426.342C239.975,427.507 241.246,427.613 241.669,427.719C246.118,428.142 251.838,428.248 257.769,427.825C264.336,427.401 271.009,425.071 271.009,425.283L271.009,433.121C268.467,434.286 264.76,435.451 261.688,435.981C257.769,436.616 252.579,436.934 251.838,436.934C251.096,436.934 250.779,437.358 250.673,437.675C250.567,438.205 250.885,438.629 251.626,438.84C252.791,439.052 255.651,439.158 259.146,439.052C261.688,438.946 267.832,438.311 270.903,437.887L270.797,443.925C264.972,446.996 255.969,448.479 250.143,449.327C241.352,450.703 233.302,450.915 231.925,450.915C231.183,451.021 230.442,451.021 230.336,451.763C230.336,452.398 230.76,452.928 231.925,452.928C232.984,452.928 239.869,453.14 250.673,452.186C255.863,451.763 266.137,449.75 270.797,448.797L270.692,454.728C265.501,457.271 257.346,459.177 245.588,460.872C231.183,462.99 203.644,462.037 202.161,461.825C200.149,461.719 199.831,462.143 199.725,462.884C199.619,463.626 200.361,464.049 201.843,464.367C203.326,464.579 222.18,466.38 237.433,465.638C248.978,465.109 265.607,461.825 270.692,460.872L270.586,465.532C261.9,471.464 247.601,472.099 246.648,472.099C245.694,472.205 245.059,472.629 244.953,473.159C244.847,473.688 245.483,474.112 246.224,474.218C246.965,474.324 249.084,474.536 253.533,474.218C257.134,474.006 266.773,471.993 270.586,471.146L270.48,475.807C264.019,479.62 249.084,481.844 237.539,482.903C237.539,482.903 236.162,483.009 233.62,483.115L233.408,480.043C233.408,479.09 232.666,478.455 231.713,478.455C224.934,478.772 222.498,478.772 215.719,478.455L215.613,478.455C214.766,478.455 214.024,479.09 214.024,480.043L213.812,483.115C207.669,482.903 200.467,482.374 192.417,481.526C191.251,481.42 190.086,481.103 189.98,481.95C189.769,482.48 190.086,482.903 191.569,483.327C192.734,483.539 208.728,485.763 212.753,486.187L213.601,486.187L212.541,505.888C212.541,506.312 212.753,506.735 212.965,507.159C213.283,507.477 213.707,507.689 214.13,507.689C222.392,508.006 225.252,508.006 233.302,507.689C233.725,507.689 234.149,507.477 234.467,507.159C234.679,506.841 234.891,506.417 234.891,506.1C238.598,505.994 242.305,505.782 245.271,505.57C251.52,505.252 266.243,503.134 270.162,502.604L270.162,507.159C269.421,507.689 268.361,508.006 267.514,508.43C263.383,510.019 247.389,512.773 224.616,512.773C201.738,512.773 188.074,509.807 185.955,509.277C183.625,508.642 181.083,507.794 181.189,506.312L181.507,454.728C181.189,451.233 181.613,437.358 181.719,434.074C181.825,428.672 190.298,425.283 208.834,418.822C228.218,411.725 252.685,404.099 271.115,399.014L271.115,410.136" style="fill:rgb(39,68,136);fill-rule:nonzero;"/>
                                        <path id="path5837" d="M254.857,399.438C251.149,400.497 249.243,401.133 245.536,402.298C245.112,402.404 244.794,402.192 244.794,401.768L244.794,385.668C244.794,385.245 245.112,384.927 245.43,384.715C249.137,383.444 251.043,382.809 254.857,381.538C255.174,381.326 255.492,381.644 255.492,381.961L255.492,398.485C255.492,398.909 255.174,399.332 254.857,399.438" style="fill:rgb(39,68,136);fill-rule:nonzero;"/>
                                        <path id="path5841" d="M239.212,404.215C235.399,405.38 233.598,405.91 229.785,407.181C229.467,407.287 229.15,407.075 229.15,406.757L229.15,391.081C229.15,390.763 229.467,390.34 229.785,390.234C233.492,388.963 235.399,388.221 239.212,386.95C239.53,386.844 239.848,386.95 239.848,387.374L239.848,403.368C239.848,403.686 239.53,404.109 239.212,404.215" style="fill:rgb(39,68,136);fill-rule:nonzero;"/>
                                        <path id="path5845" d="M207.807,414.574C203.994,415.845 202.193,416.481 198.38,417.964C198.062,418.069 197.744,417.858 197.744,417.54L197.744,402.181C197.744,401.864 198.062,401.44 198.38,401.334C202.087,400.063 203.994,399.322 207.807,397.945C208.125,397.839 208.442,398.051 208.442,398.368L208.442,413.727C208.442,414.045 208.125,414.362 207.807,414.574" style="fill:rgb(39,68,136);fill-rule:nonzero;"/>
                                        <path id="path5849" d="M261.593,528.068C261.275,528.597 261.063,529.233 260.64,530.08C256.933,531.457 247.612,533.787 240.939,534.423C239.668,534.529 237.761,534.635 237.761,535.588C237.761,536.435 238.502,536.753 240.621,536.753C246.023,536.647 254.708,535.27 258.521,534.529C257.462,536.859 256.191,539.613 254.814,542.579C247.612,545.333 233.948,546.18 231.512,546.392C228.864,546.71 228.016,547.027 228.228,547.875C228.334,548.722 230.029,548.616 234.16,548.722C238.926,548.828 249.412,547.981 252.378,547.663C251.425,549.781 250.365,552.006 249.306,554.442C245.281,557.196 237.655,557.725 235.537,557.831C233.524,557.937 232.783,558.679 232.889,559.314C232.995,560.055 234.054,560.267 234.901,560.373C235.643,560.373 244.434,560.479 245.175,560.585C245.705,560.585 246.235,560.903 245.811,561.644C244.964,563.551 244.434,564.716 243.481,566.623C242.104,567.258 240.303,567.788 238.82,567.999C237.549,568.211 233.418,568.423 231.3,568.635C230.135,568.953 229.923,569.165 229.923,569.588C229.923,570.118 230.241,570.436 231.3,570.542C233.948,570.753 238.82,570.542 239.879,570.647C240.621,570.647 241.468,570.965 241.15,571.601C240.621,572.872 240.091,573.931 239.562,575.096C238.397,575.626 236.596,575.944 235.113,576.261C233.206,576.685 229.605,577.003 226.639,577.109C225.898,577.109 225.262,577.532 225.262,577.956C225.262,578.38 225.58,578.803 226.428,578.909C228.44,579.227 232.677,579.227 234.372,579.333C235.749,579.439 237.443,579.651 236.914,580.816C235.96,582.722 235.431,584.099 234.477,585.9C233.206,585.9 230.982,586.006 229.393,586.218C228.758,586.324 227.91,586.43 227.91,586.959C227.804,587.489 228.652,587.807 229.393,588.124C229.923,588.336 231.724,588.866 232.995,589.184C232.359,590.349 231.935,591.408 231.406,592.573C229.605,592.679 226.322,592.891 223.78,592.891C222.72,592.891 222.191,593.42 222.191,593.844C222.191,594.268 222.403,594.585 223.568,594.797C225.474,595.327 228.44,595.539 229.923,595.645C228.228,599.246 226.639,602.741 225.156,605.919C213.505,581.028 192.109,535.164 188.614,527.856C200.689,530.716 217.001,531.775 224.627,531.775C232.253,531.775 249.412,530.61 261.593,528.068" style="fill:rgb(39,68,136);fill-rule:nonzero;"/>
                                        <path id="path5853" d="M192.078,420.209C188.37,421.586 186.464,422.222 182.651,423.704C182.333,423.81 182.015,423.704 182.015,423.281L182.015,407.71C182.015,407.287 182.333,406.863 182.651,406.863C186.464,405.486 188.37,404.851 192.078,403.474C192.501,403.474 192.713,403.58 192.713,404.003L192.713,419.362C192.713,419.679 192.501,419.997 192.078,420.209" style="fill:rgb(39,68,136);fill-rule:nonzero;"/>
                                        <path id="path5857" d="M223.525,409.225C219.712,410.39 217.912,411.132 214.098,412.403C213.781,412.509 213.463,412.297 213.463,411.979L213.463,396.621C213.463,396.303 213.781,395.879 214.098,395.773C217.806,394.396 219.712,393.761 223.525,392.49C223.843,392.278 224.161,392.49 224.161,392.808L224.161,408.378C224.161,408.696 223.843,409.119 223.525,409.225" style="fill:rgb(39,68,136);fill-rule:nonzero;"/>
                                        <path id="path5869" d="M249.084,495.762C249.931,495.868 253.744,495.868 258.723,495.232C262.43,494.703 267.832,493.538 270.268,493.008L270.268,497.245C265.184,499.363 253.532,501.482 247.283,502.223C243.47,502.753 239.021,503.176 234.679,503.494L233.831,486.865C236.056,486.759 237.539,486.759 237.539,486.759C240.398,486.547 243.258,486.441 246.118,486.123C257.134,485.064 266.349,482.946 270.374,482.098L270.374,488.03C264.125,493.22 249.719,493.644 248.872,493.644C248.025,493.644 247.177,493.855 247.177,494.703C247.177,495.55 248.236,495.656 249.084,495.762" style="fill:rgb(39,68,136);fill-rule:nonzero;"/>
                                        <path id="path5873" d="M181.411,513.016C183.318,513.44 197.935,518.736 224.627,518.736C251.213,518.736 267.101,512.91 269.007,512.063C271.126,511.11 273.032,510.474 273.986,512.063C274.833,513.652 273.774,515.664 272.291,516.618C266.465,520.325 246.023,524.985 224.627,524.668C203.125,524.562 181.623,519.795 178.658,518.524C175.586,517.359 174.315,515.558 175.268,513.864C176.857,511.004 179.505,512.487 181.411,513.016" style="fill:rgb(39,68,136);fill-rule:nonzero;"/>
                                        <path id="path5877" d="M270.48,394.799C266.773,395.964 264.866,396.494 261.159,397.553C260.735,397.659 260.523,397.447 260.523,397.023C260.417,390.032 260.417,386.537 260.417,380.288C260.417,379.864 260.735,379.546 261.053,379.334C264.866,378.063 266.773,377.428 270.48,376.051C270.798,375.945 271.115,376.157 271.115,376.475L271.115,393.846C271.115,394.269 270.798,394.693 270.48,394.799" style="fill:rgb(39,68,136);fill-rule:nonzero;"/>
                                        <path id="path5881" d="M219.151,481.865C224.023,481.971 230.167,481.865 230.167,481.865L231.332,503.367C226.247,503.685 217.88,503.261 217.88,503.261L219.151,481.865Z" style="fill:rgb(39,68,136);fill-rule:nonzero;"/>
                                    </g>
                                </g>
                                <g id="g4865">
                                    <g id="path4692" transform="matrix(0.833699,0,0,-0.833699,-48.8543,668.539)">
                                        <path d="M364.639,473.192C358.286,473.192 353.332,477.766 353.332,483.483C353.332,488.438 356.635,491.106 359.938,493.139C354.602,496.188 351.426,499.11 351.426,504.319C351.426,510.417 356.253,514.61 363.24,514.61C370.99,514.61 376.581,509.782 376.581,503.048C376.581,497.585 372.642,494.537 368.196,491.996C371.88,489.963 375.31,487.421 375.31,482.466C375.31,477.13 370.737,473.192 364.639,473.192ZM364.524,476.444C368.082,476.444 370.623,479.112 370.623,482.543C370.623,486.481 367.7,488.513 364.905,490.165C361.347,488.132 358.553,486.1 358.553,482.415C358.553,478.985 361.094,476.444 364.524,476.444ZM363.24,495.032C368.576,497.954 371.245,500.114 371.245,504.053C371.245,508.118 367.942,511.167 363.623,511.167C359.303,511.167 356.253,508.118 356.253,504.053C356.253,500.368 358.54,497.319 363.24,495.032Z" style="fill:white;fill-rule:nonzero;"/>
                                    </g>
                                    <path id="path4690" d="M229.986,240.674L229.881,240.463L229.669,240.463C229.669,240.463 225.856,240.463 223.631,240.251L223.525,240.251L223.102,241.098L239.413,268.955L229.139,268.955C227.55,268.955 225.538,268.743 223.843,267.472L223.631,267.366L222.89,267.79L222.996,268.002C223.525,269.485 223.949,272.027 224.161,272.98L224.161,273.192L243.544,273.192L243.862,273.298L243.862,272.98C243.862,272.556 244.18,270.438 244.286,270.014L244.392,269.908L244.286,269.802C241.744,266.943 238.778,261.647 236.13,256.986C231.893,249.254 230.304,245.017 229.986,240.674" style="fill:white;fill-rule:nonzero;"/>
                                    <g id="path4686" transform="matrix(0.833699,0,0,-0.833699,-48.8543,668.539)">
                                        <path d="M310.769,472.43C304.29,472.43 299.335,476.876 299.335,482.721C299.335,487.548 302.638,490.343 305.941,492.249C300.732,495.425 297.431,498.347 297.431,503.556C297.431,509.527 302.258,513.847 309.245,513.847C316.995,513.847 322.586,508.893 322.586,502.16C322.586,496.697 318.647,493.647 314.201,491.233C317.885,489.2 321.315,486.66 321.315,481.705C321.315,476.369 316.867,472.43 310.769,472.43ZM310.567,475.644C314.124,475.644 316.665,478.312 316.665,481.742C316.665,485.681 313.742,487.713 310.947,489.365C307.39,487.332 304.468,485.299 304.468,481.615C304.468,478.185 307.136,475.644 310.567,475.644ZM309.27,494.243C314.606,497.165 317.274,499.325 317.274,503.264C317.274,507.202 313.972,510.38 309.652,510.38C305.332,510.38 302.283,507.329 302.283,503.264C302.283,499.579 304.569,496.53 309.27,494.243Z" style="fill:white;fill-rule:nonzero;"/>
                                    </g>
                                    <path id="path4684" d="M194.609,240.992C194.08,241.098 193.02,241.204 191.961,241.204C191.114,241.204 190.266,241.098 189.207,240.992L188.784,240.992L188.889,241.31C189.313,243.958 189.419,246.606 189.419,249.572L189.419,264.612C189.419,268.849 189.101,269.273 187.724,269.273C187.407,269.273 186.771,269.167 186.03,269.061L183.699,268.531C182.958,268.32 182.534,268.214 182.005,267.896L181.899,267.896L181.263,268.425L181.369,268.637C181.687,269.273 182.111,270.332 182.322,271.285L182.428,271.497L182.534,271.497C183.805,271.603 184.653,271.709 186.03,272.027L191.008,273.086C191.961,273.298 193.02,273.51 193.868,273.827L193.974,273.827L194.609,273.298L194.503,273.192C194.08,270.332 193.974,267.154 193.974,265.354L193.974,249.042C193.974,245.759 194.291,243.111 194.821,241.416L194.927,240.992L194.609,240.992Z" style="fill:white;fill-rule:nonzero;"/>
                                </g>
                                <g id="g4871">
                                    <g id="path4682" transform="matrix(0.833699,0,0,-0.833699,-48.8543,668.539)">
                                        <path d="M282.692,390.356C267.827,390.356 257.537,401.537 257.537,417.799C257.537,433.807 267.7,444.733 283.835,444.733C289.298,444.733 295.397,443.208 300.097,441.556C300.987,438.507 301.242,437.618 302.258,433.934C302.767,432.282 301.75,431.775 300.86,432.41C297.176,434.824 294.508,435.84 290.061,435.84C278.881,435.84 272.275,428.724 272.02,416.274C275.451,416.146 283.073,416.021 288.536,416.021L301.749,416.021C303.654,416.021 303.655,411.446 303.655,410.43C303.655,397.979 295.651,390.356 282.692,390.356ZM281.905,396.39C286.606,396.39 290.162,399.948 290.162,404.775C290.162,408.079 288.383,409.478 283.936,409.478L271.994,409.858C272.502,401.346 275.298,396.39 281.905,396.39Z" style="fill:white;fill-rule:nonzero;"/>
                                    </g>
                                    <g id="path4696" transform="matrix(0.833699,0,0,-0.833699,-48.8543,668.539)">
                                        <path d="M413.553,390.23C395.004,390.23 385.093,402.172 385.093,418.434C385.093,434.951 394.749,444.48 411.139,444.48C428.417,444.48 439.471,433.425 439.471,415.766C439.471,399.63 430.069,390.23 413.553,390.23ZM411.926,396.151C420.057,396.151 424.631,404.026 424.631,418.509C424.631,431.85 420.31,438.711 412.306,438.711C404.302,438.711 399.984,430.961 399.984,416.35C399.984,404.027 403.287,396.151 411.926,396.151Z" style="fill:white;fill-rule:nonzero;"/>
                                    </g>
                                    <path id="path4698" d="M357.091,299.46C354.231,299.46 351.371,299.354 349.782,299.354C350.63,304.121 350.947,309.628 350.947,316.09L350.947,323.822C350.947,328.906 350.524,334.943 343.215,334.943C340.673,334.943 338.131,333.884 336.118,331.978C333.894,329.753 333.259,327.847 333.259,322.339L333.259,316.09C333.259,307.934 333.788,303.061 335.059,299.354C333.682,299.354 330.822,299.46 328.069,299.46C325.103,299.46 322.349,299.354 320.866,299.354C321.607,304.121 321.925,309.628 321.925,316.09L321.925,326.893C321.925,331.236 321.501,337.697 320.019,342.358C323.938,342.358 329.34,342.358 333.153,342.675L332.835,335.049L336.436,338.121C340.779,341.722 344.274,343.311 348.723,343.311C358.891,343.311 362.387,337.485 362.387,327.529L362.387,316.09C362.387,307.934 362.916,303.061 364.187,299.354C362.704,299.354 359.845,299.46 357.091,299.46" style="fill:white;fill-rule:nonzero;"/>
                                    <path id="path4694" d="M271.295,341.616C270.978,340.345 270.024,336.744 269.495,335.261C266.105,335.579 264.093,335.685 261.763,335.685L257.843,335.685C257.738,332.719 257.632,329.224 257.632,326.682L257.632,316.725C257.632,310.052 258.373,305.074 264.199,305.074C265.999,305.074 267.482,305.498 269.812,306.663C270.236,306.874 271.083,306.874 270.766,305.603C270.236,303.697 269.707,301.896 269.177,299.672C263.881,298.295 261.657,297.977 258.903,297.977C251.276,297.977 246.404,301.155 246.404,311.959L246.404,325.411C246.404,329.647 246.404,332.825 246.298,335.791C243.968,335.791 241.426,335.473 240.261,335.261C240.049,335.261 239.413,335.261 239.731,336.214C239.731,336.532 240.896,340.557 241.32,341.934C242.379,341.828 244.498,341.722 246.616,341.722C246.616,345.218 246.404,347.018 246.298,349.666C249.37,350.62 254.984,353.162 257.42,354.644C258.373,355.28 258.797,354.433 258.691,353.479C258.585,352.42 257.949,349.56 257.843,341.722L263.987,341.722C266.105,341.722 268.435,341.828 270.66,342.358C271.083,342.464 271.507,342.252 271.295,341.616" style="fill:white;fill-rule:nonzero;"/>
                                    <path id="path4688" d="M222.678,299.354C221.301,299.354 218.441,299.46 215.793,299.46C213.039,299.46 210.285,299.354 208.591,299.354C209.438,304.332 209.65,308.675 209.65,314.924L209.65,325.516C209.65,329.647 209.332,337.274 207.849,341.934C211.133,341.934 216.323,342.04 219.818,342.252L219.712,332.189L222.89,336.32C226.809,341.616 229.563,343.205 233.694,343.205C235.177,343.205 235.918,343.099 237.507,342.358C236.236,337.909 234.965,333.249 234.223,330.495C234.011,329.965 233.482,329.118 232.74,330.071C231.046,331.872 230.728,332.613 228.715,332.613C226.173,332.613 224.161,331.236 222.678,328.8C221.407,326.787 220.983,325.093 220.983,320.962L220.983,313.865C220.983,306.239 221.407,303.061 222.678,299.354" style="fill:white;fill-rule:nonzero;"/>
                                    <path id="path4680" d="M152.877,308.251C151.606,305.18 150.97,302.849 150.229,299.354C149.275,299.46 147.263,299.46 145.25,299.46C143.556,299.46 141.331,299.354 139.742,299.354C139.107,303.167 138.366,305.498 137.094,309.417L131.375,326.893C129.574,332.189 127.562,337.909 123.749,342.358C129.468,342.146 133.917,342.358 139.425,342.781C139.848,338.545 140.696,334.414 141.967,330.389L145.144,319.373C145.992,316.725 147.686,310.899 147.686,310.899C148.216,312.806 148.958,314.713 149.593,316.301L154.571,329.33C155.419,331.66 156.584,335.155 156.902,338.651C156.902,339.816 157.007,340.981 156.902,342.464C158.173,342.358 160.397,342.358 162.303,342.358C163.998,342.358 166.858,342.57 168.129,342.781C169.4,342.887 169.188,342.146 168.765,341.722C165.799,337.909 163.363,332.719 161.138,327.423L152.877,308.251Z" style="fill:white;fill-rule:nonzero;"/>
                                    <path id="path4678" d="M126.82,308.357C126.185,306.239 124.384,299.566 124.172,298.93C114.428,299.354 107.966,299.354 102.247,299.354L86.465,299.354C87.1,303.909 87.63,309.205 87.63,315.772L87.63,342.993C87.63,347.442 87.418,355.81 85.935,359.729C88.795,359.517 90.913,359.517 93.032,359.517L109.343,359.517C115.169,359.517 117.499,359.729 123.854,359.729C122.689,355.598 121.524,351.255 120.995,349.56C120.571,347.866 119.618,349.137 119.512,349.348C116.864,353.268 111.568,353.691 106.695,353.691C105.107,353.691 103.306,353.585 101.082,353.585C100.976,352.102 100.764,347.971 100.764,344.158L100.764,335.367L107.966,335.367C113.262,335.367 118.558,335.791 120.677,336.108C121.524,336.108 121.312,335.473 121.312,335.473C120.677,333.037 119.829,329.965 119.3,327.953C113.686,328.482 110.72,328.588 106.801,328.588L100.658,328.588L100.658,316.301C100.658,308.357 101.505,305.709 111.038,305.709C116.334,305.709 119.3,305.709 125.125,310.052C126.079,310.899 127.35,310.476 126.82,308.357" style="fill:white;fill-rule:nonzero;"/>
                                </g>
                                <g id="g4768">
                                    <g id="g4706">
                                        <path id="path4676" d="M83.605,543.5C85.405,544.771 88.371,545.301 91.443,544.665C94.515,544.03 97.057,542.441 98.434,540.64C96.527,539.369 93.667,538.84 90.596,539.475C87.524,540.111 84.982,541.7 83.605,543.5" style="fill:white;fill-rule:nonzero;"/>
                                        <path id="path4674" d="M80.003,554.622C82.122,555.151 84.982,554.516 87.63,552.715C90.384,551.02 92.29,548.584 92.926,546.36C90.913,545.83 88.053,546.466 85.299,548.267C82.651,549.961 80.639,552.397 80.003,554.622" style="fill:white;fill-rule:nonzero;"/>
                                        <path id="path4672" d="M74.602,564.684C76.72,565.108 79.58,564.472 82.334,562.778C85.088,560.977 86.994,558.541 87.63,556.316C85.511,555.893 82.651,556.528 79.898,558.223C77.25,559.918 75.343,562.354 74.602,564.684" style="fill:white;fill-rule:nonzero;"/>
                                        <path id="path4670" d="M75.873,588.516C77.885,587.669 80.003,585.445 81.486,582.373C82.969,579.301 83.499,576.124 82.969,573.793C80.957,574.641 78.838,576.865 77.355,579.937C75.873,583.008 75.343,586.186 75.873,588.516" style="fill:white;fill-rule:nonzero;"/>
                                        <path id="path4668" d="M81.91,596.672C83.499,595.189 84.982,592.329 85.511,588.94C86.041,585.445 85.511,582.267 84.452,580.254C82.757,581.737 81.38,584.597 80.851,587.987C80.321,591.482 80.745,594.66 81.91,596.672" style="fill:white;fill-rule:nonzero;"/>
                                        <path id="path4666" d="M85.088,598.579C85.194,602.18 86.359,605.146 87.842,606.84C89.113,604.934 89.96,601.862 89.748,598.261C89.536,594.871 88.477,591.906 86.994,590.211C85.723,592.012 84.876,595.189 85.088,598.579" style="fill:white;fill-rule:nonzero;"/>
                                        <path id="path4664" d="M88.583,570.933C90.172,569.451 91.549,566.591 92.078,563.201C92.608,559.706 92.184,556.528 91.019,554.516C89.324,555.999 87.947,558.859 87.418,562.354C86.994,565.743 87.418,568.921 88.583,570.933" style="fill:white;fill-rule:nonzero;"/>
                                        <path id="path4662" d="M85.405,562.672C83.287,563.095 80.745,564.79 78.732,567.438C76.72,570.192 75.661,573.158 75.767,575.488C77.885,575.17 80.427,573.476 82.334,570.828C84.346,568.074 85.405,565.108 85.405,562.672" style="fill:white;fill-rule:nonzero;"/>
                                        <path id="path4660" d="M84.028,570.828C83.711,572.946 84.24,575.7 85.723,578.348C87.206,580.996 89.219,582.902 91.019,583.538C91.443,581.42 90.807,578.56 89.324,575.912C87.947,573.264 85.829,571.357 84.028,570.828" style="fill:white;fill-rule:nonzero;"/>
                                        <path id="path4658" d="M90.701,590.846C92.82,592.753 95.256,593.812 97.163,593.706C96.845,591.588 95.468,589.152 93.244,587.139C91.125,585.233 88.689,584.173 86.782,584.279C87.1,586.398 88.477,588.834 90.701,590.846" style="fill:white;fill-rule:nonzero;"/>
                                        <path id="path4656" d="M93.561,602.074C95.362,604.934 97.692,606.84 99.705,607.476C100.022,605.04 99.175,601.862 97.374,599.108C95.68,596.142 93.244,594.236 91.231,593.706C91.019,596.037 91.761,599.214 93.561,602.074" style="fill:white;fill-rule:nonzero;"/>
                                        <path id="path4654" d="M99.705,542.123C97.692,542.971 95.68,545.195 94.197,548.267C92.714,551.338 92.396,554.622 92.926,556.846C94.832,555.999 96.951,553.774 98.434,550.703C99.811,547.525 100.234,544.348 99.705,542.123" style="fill:white;fill-rule:nonzero;"/>
                                        <path id="path4652" d="M106.484,536.721C105.001,534.921 102.353,533.544 99.281,533.12C96.103,532.696 93.244,533.438 91.549,534.815C92.926,536.509 95.68,537.886 98.751,538.31C101.823,538.734 104.683,538.098 106.484,536.721" style="fill:white;fill-rule:nonzero;"/>
                                        <path id="path4650" d="M109.237,542.441C111.78,540.428 113.58,537.886 114.11,535.662C111.991,535.238 109.237,536.086 106.589,538.098C103.941,539.899 102.141,542.547 101.611,544.877C103.73,545.195 106.484,544.348 109.237,542.441" style="fill:white;fill-rule:nonzero;"/>
                                        <path id="path4648" d="M115.275,534.073C115.381,534.073 115.381,533.967 115.381,533.967C116.228,533.544 117.076,533.226 117.923,532.802C117.923,532.802 118.876,533.438 120.677,534.073C122.477,534.815 124.914,535.027 127.456,534.285C130.527,533.544 132.964,531.849 134.235,529.942C132.434,528.777 129.574,528.459 126.397,529.201C123.537,529.942 121.101,531.531 119.829,533.332C119.406,533.014 119.088,532.696 118.664,532.379C121.948,530.366 124.596,527.824 127.244,524.435C126.185,522.846 125.761,521.998 124.702,520.41C122.689,524.858 120.677,528.459 117.923,531.531C115.063,528.459 112.627,524.752 110.72,520.41C109.661,521.998 109.132,522.74 108.178,524.329C110.72,527.718 113.686,530.366 117.076,532.379C116.758,532.696 116.334,533.014 116.016,533.438C114.639,531.531 112.309,529.942 109.343,529.201C106.272,528.459 103.306,528.777 101.505,529.942C102.67,531.849 105.212,533.544 108.284,534.285C110.932,535.027 113.368,534.815 115.169,534.073L115.275,534.073" style="fill:white;fill-rule:nonzero;"/>
                                        <path id="path4646" d="M126.397,542.441C129.045,544.348 131.798,545.195 133.917,544.877C133.387,542.547 131.587,539.899 129.045,538.098C126.397,536.086 123.537,535.238 121.524,535.662C121.948,537.886 123.749,540.428 126.397,542.441" style="fill:white;fill-rule:nonzero;"/>
                                        <path id="path4644" d="M136.883,538.31C139.954,537.886 142.602,536.509 144.085,534.815C142.285,533.438 139.425,532.696 136.247,533.12C133.175,533.544 130.527,534.921 129.15,536.721C130.845,538.098 133.705,538.734 136.883,538.31" style="fill:white;fill-rule:nonzero;"/>
                                        <path id="path4642" d="M137.2,550.703C138.683,553.774 140.696,555.999 142.708,556.846C143.238,554.622 142.814,551.338 141.331,548.267C139.954,545.195 137.836,542.971 135.823,542.123C135.4,544.348 135.717,547.525 137.2,550.703" style="fill:white;fill-rule:nonzero;"/>
                                        <path id="path4640" d="M135.823,607.476C137.942,606.84 140.272,604.934 142.073,602.074C143.767,599.214 144.615,596.037 144.297,593.706C142.285,594.236 139.954,596.142 138.154,599.108C136.353,601.862 135.612,605.04 135.823,607.476" style="fill:white;fill-rule:nonzero;"/>
                                        <path id="path4638" d="M148.852,584.279C146.945,584.173 144.509,585.233 142.285,587.139C140.06,589.152 138.683,591.588 138.366,593.706C140.272,593.812 142.708,592.753 144.933,590.846C147.157,588.834 148.534,586.398 148.852,584.279" style="fill:white;fill-rule:nonzero;"/>
                                        <path id="path4636" d="M147.686,606.84C149.275,605.146 150.334,602.18 150.44,598.579C150.758,595.189 149.911,592.012 148.64,590.211C147.157,591.906 145.992,594.871 145.78,598.261C145.674,601.862 146.415,604.934 147.686,606.84" style="fill:white;fill-rule:nonzero;"/>
                                        <path id="path4634" d="M153.724,596.672C154.889,594.66 155.313,591.482 154.783,587.987C154.254,584.597 152.771,581.737 151.182,580.254C150.017,582.267 149.593,585.445 150.123,588.94C150.652,592.329 152.029,595.189 153.724,596.672" style="fill:white;fill-rule:nonzero;"/>
                                        <path id="path4632" d="M159.655,588.516C160.185,586.186 159.761,583.008 158.278,579.937C156.796,576.865 154.571,574.641 152.665,573.793C152.135,576.124 152.559,579.301 154.042,582.373C155.525,585.445 157.643,587.669 159.655,588.516" style="fill:white;fill-rule:nonzero;"/>
                                        <path id="path4630" d="M148.004,556.316C148.64,558.541 150.546,560.977 153.3,562.778C156.054,564.472 158.808,565.108 160.926,564.684C160.291,562.354 158.384,559.918 155.63,558.223C152.877,556.528 150.017,555.893 148.004,556.316" style="fill:white;fill-rule:nonzero;"/>
                                        <path id="path4628" d="M147.051,570.933C148.11,568.921 148.64,565.743 148.11,562.354C147.581,558.859 146.204,555.999 144.509,554.516C143.45,556.528 142.92,559.706 143.45,563.201C143.979,566.591 145.356,569.451 147.051,570.933" style="fill:white;fill-rule:nonzero;"/>
                                        <path id="path4626" d="M153.194,570.828C155.207,573.476 157.643,575.17 159.761,575.488C159.867,573.158 158.808,570.192 156.796,567.438C154.783,564.79 152.347,563.095 150.229,562.672C150.229,565.108 151.182,568.074 153.194,570.828" style="fill:white;fill-rule:nonzero;"/>
                                        <path id="path4624" d="M151.606,570.828C149.699,571.357 147.686,573.264 146.204,575.912C144.721,578.56 144.191,581.42 144.509,583.538C146.31,582.902 148.322,580.996 149.805,578.348C151.288,575.7 151.923,572.946 151.606,570.828" style="fill:white;fill-rule:nonzero;"/>
                                        <path id="path4622" d="M151.923,543.5C150.652,541.7 148.11,540.111 144.933,539.475C141.861,538.84 139.001,539.369 137.2,540.64C138.471,542.441 141.014,544.03 144.191,544.665C147.263,545.301 150.123,544.771 151.923,543.5" style="fill:white;fill-rule:nonzero;"/>
                                        <path id="path4620" d="M150.229,548.267C147.581,546.466 144.615,545.83 142.602,546.36C143.238,548.584 145.144,551.02 147.898,552.715C150.652,554.516 153.512,555.151 155.525,554.622C154.889,552.397 152.982,549.961 150.229,548.267" style="fill:white;fill-rule:nonzero;"/>
                                    </g>
                                    <g id="g4737">
                                        <path id="path4704" d="M370.119,558.223C367.365,556.528 364.505,555.893 362.493,556.316C363.128,558.541 365.035,560.977 367.789,562.778C370.437,564.472 373.402,565.108 375.415,564.684C374.779,562.354 372.873,559.918 370.119,558.223" style="fill:white;fill-rule:nonzero;"/>
                                        <path id="path4702" d="M364.717,548.267C362.069,546.466 359.209,545.83 357.091,546.36C357.726,548.584 359.633,551.02 362.387,552.715C365.141,554.516 368,555.151 370.119,554.622C369.377,552.397 367.471,549.961 364.717,548.267" style="fill:white;fill-rule:nonzero;"/>
                                        <path id="path4700" d="M359.527,539.475C356.455,538.84 353.489,539.369 351.689,540.64C352.96,542.441 355.608,544.03 358.679,544.665C361.751,545.301 364.611,544.771 366.412,543.5C365.141,541.7 362.599,540.111 359.527,539.475" style="fill:white;fill-rule:nonzero;"/>
                                        <path id="path4616" d="M296.822,562.778C299.47,560.977 301.483,558.541 302.118,556.316C300,555.893 297.14,556.528 294.492,558.223C291.738,559.918 289.725,562.354 289.09,564.684C291.208,565.108 294.068,564.472 296.822,562.778" style="fill:white;fill-rule:nonzero;"/>
                                        <path id="path4614" d="M290.361,588.516C292.373,587.669 294.492,585.445 295.975,582.373C297.458,579.301 297.987,576.124 297.458,573.793C295.445,574.641 293.327,576.865 291.844,579.937C290.361,583.008 289.831,586.186 290.361,588.516" style="fill:white;fill-rule:nonzero;"/>
                                        <path id="path4612" d="M296.398,596.672C298.093,595.189 299.47,592.329 300,588.94C300.529,585.445 300.106,582.267 298.94,580.254C297.246,581.737 295.869,584.597 295.339,587.987C294.81,591.482 295.233,594.66 296.398,596.672" style="fill:white;fill-rule:nonzero;"/>
                                        <path id="path4610" d="M299.576,598.579C299.788,602.18 300.847,605.146 302.33,606.84C303.707,604.934 304.448,601.862 304.236,598.261C304.025,594.871 302.965,591.906 301.483,590.211C300.106,592.012 299.364,595.189 299.576,598.579" style="fill:white;fill-rule:nonzero;"/>
                                        <path id="path4608" d="M305.084,590.846C307.308,592.753 309.744,593.812 311.757,593.706C311.333,591.588 309.956,589.152 307.838,587.139C305.613,585.233 303.071,584.173 301.165,584.279C301.483,586.398 302.965,588.834 305.084,590.846" style="fill:white;fill-rule:nonzero;"/>
                                        <path id="path4606" d="M308.05,602.074C309.85,604.934 312.181,606.84 314.193,607.476C314.511,605.04 313.663,601.862 311.969,599.108C310.062,596.142 307.838,594.236 305.719,593.706C305.508,596.037 306.249,599.214 308.05,602.074" style="fill:white;fill-rule:nonzero;"/>
                                        <path id="path4604" d="M314.193,542.123C312.181,542.971 310.062,545.195 308.685,548.267C307.202,551.338 306.779,554.622 307.308,556.846C309.321,555.999 311.439,553.774 312.816,550.703C314.299,547.525 314.723,544.348 314.193,542.123" style="fill:white;fill-rule:nonzero;"/>
                                        <path id="path4602" d="M305.931,544.665C309.003,544.03 311.545,542.441 312.816,540.64C311.015,539.369 308.156,538.84 305.084,539.475C302.012,540.111 299.47,541.7 298.093,543.5C300,544.771 302.86,545.301 305.931,544.665" style="fill:white;fill-rule:nonzero;"/>
                                        <path id="path4600" d="M307.52,546.36C305.402,545.83 302.542,546.466 299.788,548.267C297.034,549.961 295.127,552.397 294.492,554.622C296.61,555.151 299.47,554.516 302.118,552.715C304.872,551.02 306.779,548.584 307.52,546.36" style="fill:white;fill-rule:nonzero;"/>
                                        <path id="path4598" d="M303.071,570.933C304.766,569.451 306.143,566.591 306.567,563.201C307.096,559.706 306.673,556.528 305.508,554.516C303.813,555.999 302.436,558.859 302.012,562.354C301.483,565.743 301.906,568.921 303.071,570.933" style="fill:white;fill-rule:nonzero;"/>
                                        <path id="path4596" d="M299.788,562.672C297.775,563.095 295.233,564.79 293.221,567.438C291.208,570.192 290.149,573.158 290.255,575.488C292.373,575.17 294.81,573.476 296.822,570.828C298.835,568.074 299.894,565.108 299.788,562.672" style="fill:white;fill-rule:nonzero;"/>
                                        <path id="path4594" d="M298.517,570.828C298.199,572.946 298.729,575.7 300.212,578.348C301.694,580.996 303.707,582.902 305.613,583.538C305.931,581.42 305.296,578.56 303.813,575.912C302.33,573.264 300.317,571.357 298.517,570.828" style="fill:white;fill-rule:nonzero;"/>
                                        <path id="path4592" d="M320.866,536.721C319.489,534.921 316.841,533.544 313.769,533.12C310.592,532.696 307.838,533.438 306.037,534.815C307.52,536.509 310.062,537.886 313.24,538.31C316.311,538.734 319.171,538.098 320.866,536.721" style="fill:white;fill-rule:nonzero;"/>
                                        <path id="path4590" d="M323.726,542.441C326.268,540.428 328.069,537.886 328.598,535.662C326.48,535.238 323.726,536.086 321.078,538.098C318.43,539.899 316.629,542.547 316.1,544.877C318.218,545.195 321.078,544.348 323.726,542.441" style="fill:white;fill-rule:nonzero;"/>
                                        <path id="path4588" d="M332.199,532.802C332.941,533.226 333.788,533.544 334.636,533.967C334.742,533.967 334.742,534.073 334.847,534.073C336.754,534.815 339.19,535.027 341.732,534.285C344.804,533.544 347.346,531.849 348.617,529.942C346.71,528.777 343.745,528.459 340.779,529.201C337.813,529.942 335.377,531.531 334.106,533.438C333.682,533.014 333.365,532.696 332.941,532.379C336.436,530.366 339.402,527.718 341.944,524.329C340.885,522.74 340.461,521.998 339.402,520.41C337.495,524.752 335.059,528.459 332.199,531.531C329.446,528.459 327.327,524.858 325.315,520.41C324.361,521.998 323.832,522.846 322.878,524.435C325.421,527.824 328.069,530.366 331.352,532.379C331.034,532.696 330.611,533.014 330.293,533.332C328.916,531.531 326.586,529.942 323.62,529.201C320.548,528.459 317.688,528.777 315.782,529.942C317.053,531.849 319.489,533.544 322.561,534.285C325.103,535.027 327.539,534.815 329.446,534.073C331.14,533.438 332.199,532.802 332.199,532.802" style="fill:white;fill-rule:nonzero;"/>
                                        <path id="path4586" d="M340.885,542.441C343.533,544.348 346.287,545.195 348.405,544.877C347.876,542.547 346.075,539.899 343.533,538.098C340.885,536.086 338.025,535.238 335.907,535.662C336.436,537.886 338.237,540.428 340.885,542.441" style="fill:white;fill-rule:nonzero;"/>
                                        <path id="path4584" d="M351.371,538.31C354.443,537.886 357.091,536.509 358.468,534.815C356.773,533.438 353.913,532.696 350.841,533.12C347.664,533.544 345.016,534.921 343.639,536.721C345.334,538.098 348.193,538.734 351.371,538.31" style="fill:white;fill-rule:nonzero;"/>
                                        <path id="path4582" d="M351.689,550.703C353.172,553.774 355.184,555.999 357.197,556.846C357.726,554.622 357.303,551.338 355.926,548.267C354.443,545.195 352.324,542.971 350.418,542.123C349.782,544.348 350.206,547.525 351.689,550.703" style="fill:white;fill-rule:nonzero;"/>
                                        <path id="path4580" d="M350.312,607.476C352.43,606.84 354.76,604.934 356.561,602.074C358.362,599.214 359.103,596.037 358.891,593.706C356.773,594.236 354.443,596.142 352.642,599.108C350.841,601.862 350.1,605.04 350.312,607.476" style="fill:white;fill-rule:nonzero;"/>
                                        <path id="path4578" d="M363.34,584.279C361.433,584.173 358.997,585.233 356.773,587.139C354.549,589.152 353.172,591.588 352.854,593.706C354.76,593.812 357.197,592.753 359.421,590.846C361.645,588.834 363.022,586.398 363.34,584.279" style="fill:white;fill-rule:nonzero;"/>
                                        <path id="path4576" d="M362.281,606.84C363.764,605.146 364.823,602.18 365.035,598.579C365.141,595.189 364.399,592.012 363.128,590.211C361.539,591.906 360.48,594.871 360.374,598.261C360.162,601.862 360.904,604.934 362.281,606.84" style="fill:white;fill-rule:nonzero;"/>
                                        <path id="path4574" d="M368.212,596.672C369.271,594.66 369.801,591.482 369.271,587.987C368.742,584.597 367.259,581.737 365.67,580.254C364.505,582.267 364.081,585.445 364.611,588.94C365.141,592.329 366.518,595.189 368.212,596.672" style="fill:white;fill-rule:nonzero;"/>
                                        <path id="path4572" d="M367.683,570.828C369.695,573.476 372.131,575.17 374.25,575.488C374.356,573.158 373.296,570.192 371.284,567.438C369.271,564.79 366.835,563.095 364.717,562.672C364.611,565.108 365.67,568.074 367.683,570.828" style="fill:white;fill-rule:nonzero;"/>
                                        <path id="path4570" d="M362.599,562.354C362.069,558.859 360.692,555.999 358.997,554.516C357.938,556.528 357.408,559.706 357.938,563.201C358.468,566.591 359.845,569.451 361.539,570.933C362.599,568.921 363.128,565.743 362.599,562.354" style="fill:white;fill-rule:nonzero;"/>
                                        <path id="path4568" d="M360.692,575.912C359.209,578.56 358.679,581.42 358.997,583.538C360.798,582.902 362.81,580.996 364.293,578.348C365.776,575.7 366.412,572.946 365.988,570.828C364.187,571.357 362.175,573.264 360.692,575.912" style="fill:white;fill-rule:nonzero;"/>
                                        <path id="path4566" d="M374.144,588.516C374.673,586.186 374.25,583.008 372.661,579.937C371.178,576.865 369.06,574.641 367.153,573.793C366.623,576.124 367.047,579.301 368.53,582.373C370.013,585.445 372.131,587.669 374.144,588.516" style="fill:white;fill-rule:nonzero;"/>
                                    </g>
                                </g>
                            </g>
                        </g>
                    </g>
                </g>
            </g>
        </g>
    </g>
</svg>
