<?xml version="1.0" encoding="UTF-8" standalone="no"?>
<!DOCTYPE svg PUBLIC "-//W3C//DTD SVG 1.1//EN" "http://www.w3.org/Graphics/SVG/1.1/DTD/svg11.dtd">
<svg width="100%" height="100%" viewBox="0 0 512 512" version="1.1" xmlns="http://www.w3.org/2000/svg" xmlns:xlink="http://www.w3.org/1999/xlink" xml:space="preserve" xmlns:serif="http://www.serif.com/" style="fill-rule:evenodd;clip-rule:evenodd;">
    <rect x="0" y="0" width="512" height="512" style="fill:white;fill-opacity:0;"/>
    <g id="Arsenal_FC.svg" transform="matrix(0.519237,0,0,0.519237,256,256)">
        <g transform="matrix(1,0,0,1,-368.475,-433.328)">
            <clipPath id="_clip1">
                <rect x="0" y="0" width="736.949" height="866.656"/>
            </clipPath>
            <g clip-path="url(#_clip1)">
                <g id="Layer-1" serif:id="Layer 1" transform="matrix(1,0,0,1,-6.52549,-99.0341)">
                    <g id="g2623">
                        <path id="path6134" d="M375.014,99.534C287.176,99.534 125.223,122.24 42.67,170.19C-65.936,554.983 81.798,816.707 375.014,965.19C668.23,816.707 815.932,553.686 707.326,170.19C624.773,122.24 462.852,99.534 375.014,99.534Z" style="fill:rgb(157,134,74);stroke:rgb(157,134,74);stroke-width:1px;"/>
                        <path id="path5154" d="M375.014,124.284C288.683,124.284 191.553,135.306 64.295,187.222C-30.446,523.11 79.465,792.343 375.014,939.097C670.562,792.343 780.442,523.11 685.701,187.222C558.443,135.306 461.345,124.284 375.014,124.284Z" style="fill:rgb(1,47,115);stroke:rgb(1,47,115);stroke-width:1px;"/>
                        <path id="path4180" d="M374.582,123.989C288.689,123.989 196.477,136.673 113.301,168.208C26.999,512.13 90.624,763.246 375.082,938.801L374.582,123.989ZM375.082,938.801C659.541,763.246 723.134,512.13 636.832,168.208C553.656,136.673 461.476,123.989 375.582,123.989L375.082,938.801Z" style="fill:white;stroke:white;stroke-width:1px;"/>
                        <path id="path4174" d="M375.08,123.881C288.749,123.881 201.31,136.92 130.206,161.726C40.836,522.135 112.613,765.593 375.218,931.926L375.08,123.881Z" style="fill:rgb(239,0,7);stroke:rgb(239,0,7);stroke-width:1px;"/>
                        <path id="path4176" d="M375.287,123.881C461.618,123.881 549.127,136.92 620.23,161.726C709.6,522.135 637.823,765.593 375.218,931.926L375.287,123.881Z" style="fill:rgb(219,0,7);stroke:rgb(219,0,7);stroke-width:1px;"/>
                        <g id="g2571">
                            <path id="path4139" d="M263.495,667.873C225.382,693.945 195.056,703.365 159.826,712.675L138.548,679.684C170.904,663.326 204.416,640.533 238.163,607.457C241.054,639.552 255.931,662.253 263.495,667.873Z" style="fill:white;"/>
                            <path id="path2197" d="M258.274,666.447C222.157,691.283 171.756,708.523 114.063,717.026L102.336,699.145C151.684,680.655 199.381,653.042 236.379,614.342C241.978,639.135 250.515,655.604 258.274,666.447Z" style="fill:rgb(157,134,74);"/>
                            <g id="path18808" transform="matrix(1.41862,0,0,1.41862,-9.43861,-122.809)">
                                <path d="M120.804,449.505C120.804,459.205 112.822,467.186 103.122,467.186C93.422,467.186 85.44,459.205 85.44,449.505C85.44,439.805 93.422,431.823 103.122,431.823C112.822,431.823 120.804,439.805 120.804,449.505Z" style="fill:white;fill-rule:nonzero;"/>
                            </g>
                            <path id="path15893" d="M159.286,465.457L159.286,560.003L233.794,560.003C238.676,528.366 256.715,494.698 297.495,465.457L159.286,465.457" style="fill:white;"/>
                            <g id="path15895" transform="matrix(1.20576,0,0,1.11397,-0.983659,-43.7959)">
                                <path d="M135.378,542.022C135.275,542.024 135.171,542.025 135.068,542.025C121.35,542.025 110.062,522.869 110.062,499.589C110.062,476.308 121.35,457.152 135.068,457.152C135.125,457.152 135.182,457.152 135.239,457.153" style="fill:white;fill-rule:nonzero;"/>
                            </g>
                            <g id="path18810" transform="matrix(0.980487,0,0,1.0936,32.9192,23.2913)">
                                <path d="M120.804,449.505C120.804,459.205 112.822,467.186 103.122,467.186C93.422,467.186 85.44,459.205 85.44,449.505C85.44,439.805 93.422,431.823 103.122,431.823C112.822,431.823 120.804,439.805 120.804,449.505Z" style="fill:rgb(157,134,74);fill-rule:nonzero;"/>
                            </g>
                            <g id="g15887" transform="matrix(1,0,0,1,1.2852,13.0869)">
                                <path id="path12001" d="M160,457.362L160,542.362L233.967,542.362C239.813,514.119 254.177,484.054 290,457.362L160,457.362" style="fill:rgb(157,134,74);"/>
                                <g id="path12974" transform="matrix(1.13414,0,0,1.00149,9.24873,-0.469345)">
                                    <path d="M135.378,542.022C135.275,542.024 135.171,542.025 135.068,542.025C121.35,542.025 110.062,522.869 110.062,499.589C110.062,476.308 121.35,457.152 135.068,457.152C135.125,457.152 135.182,457.152 135.239,457.153" style="fill:rgb(157,134,74);fill-rule:nonzero;"/>
                                </g>
                            </g>
                            <g id="g13017" transform="matrix(1,0,0,1,6.58289,26.9859)">
                                <g id="g8065" transform="matrix(1,0,0,1,-3.44668,-13.136)">
                                    <g id="path7124" transform="matrix(1.32258,0,0,1.32258,-60.5533,-178.739)">
                                        <path d="M434,564.862C434,624.109 385.247,672.862 326,672.862C266.753,672.862 218,624.109 218,564.862C218,505.615 266.753,456.862 326,456.862C385.247,456.862 434,505.615 434,564.862Z" style="fill:white;fill-rule:nonzero;"/>
                                    </g>
                                    <g id="path9064" transform="matrix(1.25324,0,0,1.25324,-37.9479,-139.57)">
                                        <path d="M434,564.862C434,624.109 385.247,672.862 326,672.862C266.753,672.862 218,624.109 218,564.862C218,505.615 266.753,456.862 326,456.862C385.247,456.862 434,505.615 434,564.862Z" style="fill:rgb(157,134,74);fill-rule:nonzero;"/>
                                    </g>
                                    <g id="path9066" transform="matrix(1.04521,0,0,1.04521,29.8684,-22.0647)">
                                        <path d="M434,564.862C434,624.109 385.247,672.862 326,672.862C266.753,672.862 218,624.109 218,564.862C218,505.615 266.753,456.862 326,456.862C385.247,456.862 434,505.615 434,564.862Z" style="fill:white;fill-rule:nonzero;"/>
                                    </g>
                                    <g id="path9068" transform="matrix(0.975872,0,0,0.975872,52.4738,17.1039)">
                                        <path d="M434,564.862C434,624.109 385.247,672.862 326,672.862C266.753,672.862 218,624.109 218,564.862C218,505.615 266.753,456.862 326,456.862C385.247,456.862 434,505.615 434,564.862Z" style="fill:rgb(157,134,74);fill-rule:nonzero;"/>
                                    </g>
                                    <g id="g16873" transform="matrix(1,0,0,1,-112.653,19.9795)">
                                        <g id="path12989" transform="matrix(1,0,0,1,111.976,-26.2949)">
                                            <path d="M415.26,574.643L415.26,574.662C415.26,598.786 395.409,618.638 371.284,618.638C347.16,618.638 327.309,598.786 327.309,574.662L327.309,574.643C327.309,550.519 347.16,530.667 371.284,530.667C395.409,530.667 415.26,550.519 415.26,574.643Z" style="fill:white;fill-rule:nonzero;"/>
                                        </g>
                                        <g id="path13960" transform="matrix(0.881443,0,0,0.881443,155.995,41.8344)">
                                            <path d="M415.26,574.643L415.26,574.662C415.26,598.786 395.409,618.638 371.284,618.638C347.16,618.638 327.309,598.786 327.309,574.662L327.309,574.643C327.309,550.519 347.16,530.667 371.284,530.667C395.409,530.667 415.26,550.519 415.26,574.643Z" style="fill:rgb(157,134,74);fill-rule:nonzero;"/>
                                        </g>
                                        <g id="path13962" transform="matrix(0.452619,0,0,0.452619,315.21,288.259)">
                                            <path d="M415.26,574.643L415.26,574.662C415.26,598.786 395.409,618.638 371.284,618.638C347.16,618.638 327.309,598.786 327.309,574.662L327.309,574.643C327.309,550.519 347.16,530.667 371.284,530.667C395.409,530.667 415.26,550.519 415.26,574.643Z" style="fill:white;fill-rule:nonzero;"/>
                                        </g>
                                        <g id="path13964" transform="matrix(0.328149,0,0,0.328149,361.424,359.786)">
                                            <path d="M415.26,574.643L415.26,574.662C415.26,598.786 395.409,618.638 371.284,618.638C347.16,618.638 327.309,598.786 327.309,574.662L327.309,574.643C327.309,550.519 347.16,530.667 371.284,530.667C395.409,530.667 415.26,550.519 415.26,574.643Z" style="fill:rgb(157,134,74);fill-rule:nonzero;"/>
                                        </g>
                                    </g>
                                    <g id="g18945" transform="matrix(1,0,0,1,-1.55332,-3.86399)">
                                        <rect id="rect18819" x="357" y="464.362" width="30" height="70" style="fill:white;"/>
                                        <rect id="rect16879" x="361.639" y="454.362" width="20.723" height="88.947" style="fill:rgb(157,134,74);"/>
                                    </g>
                                    <g id="g18911" transform="matrix(1,0,0,1,-1.55332,-3.86399)">
                                        <g id="g18831" transform="matrix(0.544639,0.838671,-0.838671,0.544639,645.257,-301.148)">
                                            <rect id="rect18833" x="572" y="597.362" width="30" height="70" style="fill:white;"/>
                                            <rect id="rect18835" x="576.639" y="587.362" width="20.723" height="88.947" style="fill:rgb(157,134,74);"/>
                                        </g>
                                        <g id="g18905" transform="matrix(-0.544639,0.838671,0.838671,0.544639,97.8595,-301.148)">
                                            <rect id="rect18907" x="572" y="597.362" width="30" height="70" style="fill:white;"/>
                                            <rect id="rect18909" x="576.639" y="587.362" width="20.723" height="88.947" style="fill:rgb(157,134,74);"/>
                                        </g>
                                    </g>
                                    <g id="g18919" transform="matrix(1,0,0,-1,-1.67001,1140.86)">
                                        <g id="g18921" transform="matrix(0.544639,0.838671,-0.838671,0.544639,645.257,-301.148)">
                                            <rect id="rect18923" x="572" y="597.362" width="30" height="70" style="fill:white;"/>
                                            <rect id="rect18925" x="576.639" y="587.362" width="20.723" height="88.947" style="fill:rgb(157,134,74);"/>
                                        </g>
                                        <g id="g18927" transform="matrix(-0.544639,0.838671,0.838671,0.544639,97.8595,-301.148)">
                                            <rect id="rect18929" x="572" y="597.362" width="30" height="70" style="fill:white;"/>
                                            <rect id="rect18931" x="576.639" y="587.362" width="20.723" height="88.947" style="fill:rgb(157,134,74);"/>
                                        </g>
                                    </g>
                                    <g id="g18949" transform="matrix(1,0,0,1,-1.55332,144.136)">
                                        <rect id="rect18951" x="357" y="464.362" width="30" height="70" style="fill:white;"/>
                                        <rect id="rect18953" x="361.639" y="454.362" width="20.723" height="88.947" style="fill:rgb(157,134,74);"/>
                                    </g>
                                </g>
                                <path id="path9069" d="M337.871,587.93C341.954,591.267 346.339,594.403 351.984,596.698L351.836,659.162C323.534,655.528 302.12,641.579 285.9,621.698L337.921,587.93" style="fill:rgb(239,0,7);stroke:rgb(239,0,7);stroke-width:0.4px;"/>
                                <path id="path11978" d="M396.313,588.13C392.231,591.467 387.845,594.603 382.2,596.898L382.348,659.362C410.651,655.728 432.064,641.779 448.284,621.898L396.264,588.13" style="fill:rgb(219,0,7);stroke:rgb(219,0,7);stroke-width:0.4px;"/>
                            </g>
                            <g id="g6099" transform="matrix(1,0,0,1,0.905481,10.6633)">
                                <path id="path2215" d="M416.243,578.295L478.171,570.754C478.671,586.256 474.962,599.955 469.689,612.984L416.088,578.295" style="fill:rgb(219,0,7);"/>
                                <path id="path4159" d="M416.329,578.034C416.564,576.999 416.503,576.184 416.869,573.296L478,565.362C478.299,568.211 478.08,569.224 478.066,570.574L416.329,578.034Z" style="fill:white;stroke:white;stroke-width:0.4px;"/>
                            </g>
                            <g id="g6119" transform="matrix(1,0,0,1,2.90548,0.663318)">
                                <path id="path6119" d="M504.798,536.489L585.082,536.489C582.51,545.98 580.094,555.623 568.595,559.929C550.189,566.821 511.943,573.509 511.943,573.509C511.237,563.013 508.837,548.871 504.798,536.489Z" style="fill:white;"/>
                                <path id="path4177" d="M448.932,463.384L658.544,463.7L651.155,540.197L508.001,547.711C500.268,513.485 474.258,480.764 448.932,463.384Z" style="fill:white;"/>
                                <path id="path3206" d="M456.357,468.852L724,469.114L713.738,531.471L506.119,541.733C497.901,510.664 479.175,488.102 456.357,468.852Z" style="fill:rgb(157,134,74);"/>
                                <path id="path4179" d="M504.78,536.471L578.738,536.471C576.321,544.946 574.541,552.626 563.738,556.471C546.445,562.625 511.655,567.512 511.655,567.512C510.182,557.37 508.099,547.075 504.78,536.471Z" style="fill:rgb(157,134,74);"/>
                            </g>
                        </g>
                        <g id="g2298">
                            <path id="path8269" d="M426.583,352.918C426.583,356.315 425.869,365.651 425.509,368.201L466.994,368.201C464.467,357.164 463.382,341.877 463.022,329.99C463.022,330.84 462.299,306.214 462.299,306.214C462.299,304.515 463.022,301.97 464.098,301.118C465.54,299.423 466.991,299.423 468.793,299.423C470.594,298.576 473.838,298.576 474.207,305.367L475.28,330.843C475.646,342.726 475.646,358.865 474.207,368.204L514.237,368.204C513.881,364.81 512.795,356.321 512.439,353.77C517.49,364.807 528.306,370.749 542.738,370.749C551.396,370.749 557.892,367.355 562.935,363.955C562.935,364.807 565.102,368.201 565.102,368.201L639.407,368.201C636.16,357.164 633.996,341.877 632.911,329.99L622.454,246.774L584.214,239.98C587.466,251.02 589.625,267.153 591.067,278.194L596.838,331.689C597.923,341.031 598.645,351.219 598.645,362.26L598.645,363.106L597.203,359.715C594.316,352.918 592.874,344.422 591.792,331.689L590.35,314.703C588.183,287.53 573.397,275.646 540.927,275.646C535.513,275.646 521.816,276.495 513.518,279.043L515.676,309.608L524.334,304.509C531.553,300.269 536.967,298.57 543.452,298.57C548.506,298.57 551.75,300.269 553.195,303.663C547.064,304.509 540.211,306.208 532.629,309.608C521.088,314.703 513.878,322.344 510.631,330.837L510.631,329.987L509.549,301.964C508.823,284.133 497.281,272.246 479.606,272.246C471.677,272.246 464.461,274.794 457.967,279.043C457.608,278.194 457.242,277.345 456.882,276.495L455.44,273.098L422.254,271.4C423.696,277.347 425.866,294.327 426.223,300.275C424.424,291.782 419.736,282.437 411.072,275.646C404.216,271.4 395.561,268.852 386.549,268.852C374.285,268.852 361.661,273.947 353.363,282.434C344.705,290.927 340.379,302.811 340.011,316.402C336.77,313.008 332.444,309.608 327.395,307.909L312.244,300.272L311.522,300.272C307.915,298.573 307.55,297.724 307.55,296.875C307.915,295.176 311.522,293.478 316.213,293.478C322.698,293.478 331.715,296.875 338.934,301.118L339.651,273.947C334.24,271.4 326.67,269.701 315.848,269.701C310.077,269.701 299.252,270.553 289.877,275.649C287.353,277.347 285.183,279.046 283.024,280.747L283.384,273.101C274.726,271.403 265.349,271.403 253.807,282.44C253.438,281.591 252.725,277.347 252.008,275.649L216.295,277.347C218.819,287.533 219.182,301.97 218.453,314.706L217.737,328.295L217.737,329.99C217.377,336.787 217.011,344.425 216.295,351.219C213.408,341.877 210.167,329.141 207.637,318.956L189.959,239.133L139.462,246.774C139.822,247.626 140.545,250.174 140.904,252.719C141.264,256.116 141.264,262.907 136.576,277.347C128.277,300.275 116.739,335.089 105.557,359.718C104.115,363.109 101.222,368.204 101.222,368.204L140.545,368.204C141.264,362.262 143.791,352.071 146.316,344.428C151.727,344.428 165.793,344.428 172.283,343.582C173.725,349.526 175.17,357.167 175.536,362.265L176.252,368.207L254.895,368.207C253.084,355.474 253.81,338.492 254.526,329.147C255.252,318.109 257.413,310.466 262.105,306.22C265.708,301.976 269.678,301.124 272.565,301.124C272.205,316.411 281.945,323.202 290.6,327.448L306.108,335.095C311.522,338.492 311.522,339.338 311.522,341.04C311.162,343.584 306.833,344.431 302.864,344.431C294.569,344.431 283.387,339.338 271.12,325.75L270.4,361.419C280.14,366.512 292.398,369.06 303.221,369.06C321.256,369.06 340.379,360.57 345.425,344.431C354.448,361.419 372.124,369.06 389.436,369.06C404.947,369.051 416.486,363.952 426.583,352.918ZM155.693,318.101C157.86,312.156 159.662,307.063 162.912,297.724C165.073,307.063 166.158,313.008 167.241,317.254C162.912,318.101 160.747,318.101 155.693,318.101ZM376.452,308.759C376.452,296.875 380.781,291.779 385.11,291.779C386.552,291.779 389.796,290.927 391.238,296.875C391.963,299.42 392.323,301.115 392.323,301.967C392.323,305.364 390.521,306.211 388.351,306.211L388.351,307.063C388.351,307.063 382.223,308.759 376.452,311.306L376.452,308.759ZM417.571,333.387C409.999,340.184 404.587,344.422 395.564,344.422C388.351,343.576 384.022,339.329 381.498,333.387C389.074,330.84 418.294,319.802 426.58,316.402C426.58,323.196 426.949,330.84 426.949,330.84L426.949,345.274L417.571,333.387ZM552.112,345.271C545.265,345.271 543.817,340.182 543.455,336.784C543.814,333.387 544.897,328.292 555.722,324.895C556.082,329.138 556.447,332.538 556.447,332.538L556.447,335.932C556.804,338.483 556.804,341.031 557.164,343.576C555.725,344.422 553.923,344.422 552.112,345.271" style="fill:rgb(157,134,74);fill-rule:nonzero;"/>
                            <path id="path8271" d="M333.526,278.194C329.914,277.345 324.503,275.646 315.851,275.646C308.995,275.646 299.98,277.345 293.127,280.745C285.189,285.837 279.418,292.628 279.058,300.275C278.332,312.159 284.469,317.257 293.487,321.501C299.623,324.895 305.391,328.295 308.995,329.99C313.689,332.538 318.018,335.089 317.649,341.031C317.296,346.973 311.882,351.219 302.867,351.219C295.285,351.219 284.472,346.121 276.89,339.332L276.531,357.164C283.027,360.561 293.487,362.262 303.224,362.262C319.817,362.262 340.382,354.619 340.742,335.935C341.099,321.501 331.002,316.405 324.871,313.011C318.735,310.463 312.607,307.066 309.72,306.214C306.833,304.515 301.062,302.817 301.425,296.028C302.141,290.084 308.995,287.533 316.219,287.533C322.347,287.533 328.475,289.231 333.169,291.782" style="fill:white;fill-rule:nonzero;"/>
                            <path id="path8273" d="M185.276,246.771L147.035,251.869C147.761,256.965 146.319,267.153 142.349,279.043C134.411,301.964 121.427,340.182 111.328,362.26L135.134,362.26C136.576,354.616 138.38,347.822 141.987,338.483L177.335,337.631C178.777,344.422 181.304,355.465 181.663,362.26L213.765,362.26C209.795,352.918 204.75,333.387 201.5,319.802L185.276,246.771ZM147.035,324.042L164.354,273.947L174.81,323.196" style="fill:white;fill-rule:nonzero;"/>
                            <path id="path8275" d="M276.89,278.194L276.174,295.176C270.403,294.327 263.19,296.025 257.413,301.967C252.368,307.066 249.118,314.703 248.399,328.295C247.673,339.332 247.316,352.071 248.039,362.262L220.98,362.262C222.782,352.071 223.508,340.187 223.867,329.144L224.593,315.562C225.309,304.518 225.309,293.484 223.511,283.292L247.316,282.443C248.399,285.84 249.115,291.788 248.758,297.733C259.221,281.588 269.321,278.194 276.89,278.194" style="fill:white;fill-rule:nonzero;"/>
                            <path id="path8277" d="M617.046,251.869L592.515,247.623C595.042,258.664 595.767,266.301 597.209,277.345L602.98,330.84C604.065,341.877 605.139,352.068 604.779,362.26L631.472,362.26C628.953,352.068 627.868,341.877 626.786,330.84" style="fill:white;fill-rule:nonzero;"/>
                            <path id="path8279" d="M507.027,362.26C505.585,352.068 504.866,341.877 504.5,330.84L503.424,302.814C502.701,287.53 494.044,279.043 479.612,279.043C471.683,279.043 462.302,281.585 454.361,291.779C454.001,289.228 452.919,282.434 451.474,279.043L429.835,278.194C431.634,288.382 432.36,298.573 432.722,309.608L433.079,330.837C433.439,341.874 433.079,352.065 432.363,362.257L459.415,362.257C457.973,352.065 457.248,341.874 456.888,330.837L456.172,307.06C455.812,298.57 462.302,292.622 468.796,292.622C476.365,292.622 479.978,297.721 480.337,305.359L481.42,330.834C481.779,341.871 481.779,352.062 481.06,362.254" style="fill:white;fill-rule:nonzero;"/>
                            <path id="path8281" d="M591.435,362.26C588.183,353.767 586.384,343.576 585.658,332.538L584.216,315.556C582.775,295.176 574.12,281.585 540.93,281.585C535.162,281.585 526.861,282.434 520.008,284.133L521.09,299.42C527.947,295.176 534.8,291.779 543.455,291.779C552.478,291.779 560.048,296.023 560.776,308.759C552.112,309.608 544.18,311.306 535.159,315.556C525.06,319.799 514.603,328.292 515.679,341.877C516.762,357.164 528.303,363.952 542.738,363.952C553.92,363.952 561.49,358.86 565.819,353.767C566.544,357.161 567.626,359.715 568.706,362.26L591.435,362.26ZM552.112,351.219C544.183,351.219 537.684,346.973 537.327,337.634C537.327,328.295 543.098,320.651 561.49,318.103L562.575,332.541C562.932,337.637 562.932,341.034 563.657,345.274C561.136,348.671 556.807,350.37 552.112,351.219" style="fill:white;fill-rule:nonzero;"/>
                            <path id="path8283" d="M407.474,280.742C401.338,276.495 394.125,274.794 386.552,274.794C368.874,274.794 345.428,287.527 346.153,319.799C346.51,352.915 371.761,363.106 389.439,363.106C404.95,363.106 414.327,357.161 421.903,349.521L416.489,341.877C412.52,345.271 406.032,350.37 395.567,350.37C384.385,349.521 377.175,341.877 373.203,329.99L422.26,312.159C420.815,296.025 415.044,286.684 407.474,280.742ZM390.521,312.159L371.044,319.802C370.679,316.405 370.319,313.008 370.319,308.762C370.319,289.231 381.144,285.837 384.745,285.837C390.524,284.988 395.57,288.385 397.377,295.179C399.536,302.814 398.817,309.608 390.521,312.159" style="fill:white;fill-rule:nonzero;"/>
                        </g>
                    </g>
                </g>
            </g>
        </g>
    </g>
</svg>
