<?xml version="1.0" encoding="UTF-8" standalone="no"?>
<!DOCTYPE svg PUBLIC "-//W3C//DTD SVG 1.1//EN" "http://www.w3.org/Graphics/SVG/1.1/DTD/svg11.dtd">
<svg width="100%" height="100%" viewBox="0 0 512 512" version="1.1" xmlns="http://www.w3.org/2000/svg" xmlns:xlink="http://www.w3.org/1999/xlink" xml:space="preserve" xmlns:serif="http://www.serif.com/" style="fill-rule:evenodd;clip-rule:evenodd;stroke-miterlimit:3.864;">
    <rect x="0" y="0" width="512" height="512" style="fill:white;fill-opacity:0;"/>
    <g id="Sheffield_United_FC_logo.svg" transform="matrix(1.27245,0,0,1.27245,256,255.992)">
        <g transform="matrix(1,0,0,1,-201.187,-201.181)">
            <path d="M26.119,201.181C26.119,104.49 104.502,26.12 201.181,26.12C297.872,26.116 376.254,104.49 376.254,201.181C376.254,297.872 297.872,376.242 201.181,376.242C104.502,376.242 26.119,297.872 26.119,201.181" style="fill:white;"/>
            <g>
                <clipPath id="_clip1">
                    <rect x="0.06" y="0.002" width="402.314" height="402.36"/>
                </clipPath>
                <g clip-path="url(#_clip1)">
                    <path d="M0,201.181C0,145.627 22.519,95.333 58.925,58.926C95.333,22.518 145.631,0 201.181,0L201.187,0C256.74,0 307.035,22.517 343.444,58.923C379.789,95.265 402.271,145.554 402.271,201.175L402.374,201.175L402.374,201.181C402.374,256.736 379.853,307.03 343.445,343.437C307.035,379.845 256.736,402.362 201.181,402.362C145.63,402.362 95.333,379.844 58.925,343.436C22.519,307.029 0,256.735 0,201.181M95.86,95.861C68.909,122.812 52.239,160.047 52.239,201.181C52.239,242.314 68.909,279.551 95.86,306.501C122.813,333.453 160.05,350.123 201.181,350.123C242.317,350.123 279.557,333.453 306.511,306.502C333.464,279.552 350.135,242.314 350.135,201.181L350.135,201.175L350.237,201.175C350.236,160.111 333.526,122.871 306.51,95.857C279.557,68.907 242.321,52.239 201.187,52.239L201.181,52.239C160.05,52.239 122.813,68.909 95.86,95.861Z" style="fill:rgb(238,34,39);fill-rule:nonzero;"/>
                </g>
            </g>
            <path d="M60.672,201.181C60.672,123.575 123.575,60.668 201.181,60.668C278.787,60.668 341.691,123.575 341.691,201.181C341.691,278.787 278.787,341.69 201.181,341.69C123.575,341.69 60.672,278.787 60.672,201.181" style="fill:rgb(33,30,31);"/>
            <path d="M60.672,201.181C60.672,123.575 123.575,60.668 201.181,60.668C278.787,60.668 341.691,123.575 341.691,201.181C341.691,278.787 278.787,341.69 201.181,341.69C123.575,341.69 60.672,278.787 60.672,201.181Z" style="fill:none;fill-rule:nonzero;stroke:rgb(33,30,31);stroke-width:0.58px;"/>
            <path d="M194.899,88.578C194.899,88.578 196.656,88.578 198.124,86.232C199.869,83.453 200.479,81.242 200.479,81.242C200.479,81.242 201.688,84.507 203.703,86.522C205.718,88.546 206.925,88.876 206.925,88.876C206.925,88.876 204.354,89.178 202.338,90.614C200.323,92.049 200.323,93.496 200.323,93.496C200.323,93.496 200.323,92.629 198.876,90.904C197.441,89.178 194.899,88.578 194.899,88.578" style="fill:white;"/>
            <path d="M194.899,88.578C194.899,88.578 196.656,88.578 198.124,86.232C199.869,83.453 200.479,81.242 200.479,81.242C200.479,81.242 201.688,84.507 203.703,86.522C205.718,88.546 206.925,88.876 206.925,88.876C206.925,88.876 204.354,89.178 202.338,90.614C200.323,92.049 200.323,93.496 200.323,93.496C200.323,93.496 200.323,92.629 198.876,90.904C197.441,89.178 194.899,88.578 194.899,88.578Z" style="fill:none;fill-rule:nonzero;stroke:white;stroke-width:0.29px;"/>
            <path d="M187.934,128.905C187.934,123.501 192.327,119.12 197.731,119.12C203.135,119.12 207.517,123.501 207.517,128.905C207.517,134.309 203.135,138.699 197.731,138.699C192.327,138.699 187.934,134.309 187.934,128.905" style="fill:white;"/>
            <path d="M187.934,128.905C187.934,123.501 192.327,119.12 197.731,119.12C203.135,119.12 207.517,123.501 207.517,128.905C207.517,134.309 203.135,138.699 197.731,138.699C192.327,138.699 187.934,134.309 187.934,128.905Z" style="fill:none;fill-rule:nonzero;stroke:white;stroke-width:0.29px;"/>
            <path d="M175.557,95.789C181.892,90.324 185.57,89.559 189.671,90.034C194.559,90.614 199.354,93.156 198.308,95.511C197.151,98.094 197.151,95.221 192.544,94.934C187.934,94.644 188.804,94.354 186.789,96.369C184.773,98.384 185.26,100.047 182.759,102.133C179.297,105.006 179.297,103.28 175.847,104.429C172.663,105.492 170.659,107.311 170.37,109.616C170.091,111.918 172.106,117.673 172.106,117.673C172.106,117.673 167.786,117.383 166.629,113.933C165.484,110.482 163.993,110.119 166.629,105.296C170.091,98.961 169.225,101.266 175.557,95.789" style="fill:white;"/>
            <path d="M175.557,95.789C181.892,90.324 185.57,89.559 189.671,90.034C194.559,90.614 199.354,93.156 198.308,95.511C197.151,98.094 197.151,95.221 192.544,94.934C187.934,94.644 188.804,94.354 186.789,96.369C184.773,98.384 185.26,100.047 182.759,102.133C179.297,105.006 179.297,103.28 175.847,104.429C172.663,105.492 170.659,107.311 170.37,109.616C170.091,111.918 172.106,117.673 172.106,117.673C172.106,117.673 167.786,117.383 166.629,113.933C165.484,110.482 163.993,110.119 166.629,105.296C170.091,98.961 169.225,101.266 175.557,95.789Z" style="fill:none;fill-rule:nonzero;stroke:white;stroke-width:0.29px;"/>
            <path d="M191.964,96.658C195.716,97.815 198.308,97.525 198.018,104.429C197.731,111.341 196.574,117.105 196.574,117.105C196.574,117.105 194.559,116.815 191.686,118.543C188.804,120.268 186.499,123.15 186.499,123.15C186.499,123.15 176.136,121.135 174.121,117.383C173.386,116.021 172.964,111.628 173.832,109.036C174.73,106.338 181.033,106.453 183.617,104.716C186.209,102.991 188.804,96.658 191.964,96.658" style="fill:white;"/>
            <path d="M191.964,96.658C195.716,97.815 198.308,97.525 198.018,104.429C197.731,111.341 196.574,117.105 196.574,117.105C196.574,117.105 194.559,116.815 191.686,118.543C188.804,120.268 186.499,123.15 186.499,123.15C186.499,123.15 176.136,121.135 174.121,117.383C173.386,116.021 172.964,111.628 173.832,109.036C174.73,106.338 181.033,106.453 183.617,104.716C186.209,102.991 188.804,96.658 191.964,96.658Z" style="fill:none;fill-rule:nonzero;stroke:white;stroke-width:0.29px;"/>
            <path d="M159.386,139.766C156.141,132.045 156.545,128.305 158.271,124.565C160.326,120.081 164.222,116.32 166.143,118.036C168.252,119.937 165.514,119.047 163.809,123.334C162.113,127.634 162.104,126.715 163.404,129.257C164.696,131.799 166.424,131.849 167.631,134.877C169.306,139.051 167.663,138.515 167.692,142.153C167.716,145.509 168.829,147.978 170.929,148.959C173.026,149.94 179.133,149.809 179.133,149.809C179.133,149.809 177.519,153.827 173.884,153.859C170.234,153.88 169.441,155.18 165.657,151.183C160.71,145.942 162.632,147.471 159.386,139.766" style="fill:white;"/>
            <path d="M159.386,139.766C156.141,132.045 156.545,128.305 158.271,124.565C160.326,120.081 164.222,116.32 166.143,118.036C168.252,119.937 165.514,119.047 163.809,123.334C162.113,127.634 162.104,126.715 163.404,129.257C164.696,131.799 166.424,131.849 167.631,134.877C169.306,139.051 167.692,138.515 167.692,142.153C167.692,145.509 168.829,147.978 170.929,148.959C173.026,149.94 179.133,149.809 179.133,149.809C179.133,149.809 177.519,153.827 173.884,153.859C170.234,153.88 169.441,155.18 165.657,151.183C160.71,145.942 162.632,147.471 159.386,139.766Z" style="fill:none;fill-rule:nonzero;stroke:white;stroke-width:0.29px;"/>
            <path d="M165.276,124.421C167.528,121.217 168.056,118.666 174.543,121.073C181.021,123.481 186.147,126.354 186.147,126.354C186.147,126.354 185.248,128.182 186.004,131.457C186.757,134.722 188.783,137.812 188.783,137.812C188.783,137.812 183.658,147.038 179.484,147.802C177.955,148.081 173.644,147.12 171.444,145.5C169.151,143.805 171.207,137.853 170.37,134.845C169.523,131.849 164.304,127.426 165.276,124.421" style="fill:white;"/>
            <path d="M165.276,124.421C167.528,121.217 168.056,118.666 174.543,121.073C181.021,123.481 186.147,126.354 186.147,126.354C186.147,126.354 185.248,128.182 186.004,131.457C186.757,134.722 188.783,137.812 188.783,137.812C188.783,137.812 183.658,147.038 179.484,147.802C177.955,148.081 173.644,147.12 171.444,145.5C169.151,143.805 171.207,137.853 170.37,134.845C169.523,131.849 164.304,127.426 165.276,124.421Z" style="fill:none;fill-rule:nonzero;stroke:white;stroke-width:0.29px;"/>
            <path d="M196.202,168.727C187.863,169.429 184.431,167.889 181.405,165.089C177.779,161.752 175.401,156.876 177.633,155.593C180.082,154.167 178.389,156.504 181.953,159.439C185.506,162.382 184.639,162.104 187.459,161.659C190.271,161.214 190.848,159.591 194.102,159.374C198.586,159.075 197.576,160.47 201.046,161.565C204.25,162.579 206.937,162.289 208.518,160.596C210.109,158.899 211.854,153.051 211.854,153.051C211.854,153.051 215.182,155.83 214.086,159.304C212.99,162.774 213.972,163.932 209.014,166.287C202.493,169.376 204.541,168.023 196.202,168.727" style="fill:white;"/>
            <path d="M196.202,168.727C187.863,169.429 184.431,167.889 181.405,165.089C177.779,161.752 175.401,156.876 177.633,155.593C180.082,154.167 178.389,156.504 181.953,159.439C185.506,162.382 184.639,162.104 187.459,161.659C190.271,161.214 190.848,159.591 194.102,159.374C198.586,159.075 197.576,160.47 201.046,161.565C204.25,162.579 206.937,162.289 208.518,160.596C210.109,158.899 211.854,153.051 211.854,153.051C211.854,153.051 215.182,155.83 214.086,159.304C212.99,162.774 213.972,163.932 209.014,166.287C202.493,169.376 204.541,168.023 196.202,168.727Z" style="fill:none;fill-rule:nonzero;stroke:white;stroke-width:0.29px;"/>
            <path d="M183.429,158.384C181.083,155.253 178.811,153.962 183.11,148.537C187.406,143.113 191.718,139.133 191.718,139.133C191.718,139.133 193.186,140.551 196.533,140.85C199.869,141.139 203.425,140.167 203.425,140.167C203.425,140.167 210.624,147.884 210.056,152.102C209.851,153.64 207.608,157.444 205.387,159.022C203.062,160.687 198.041,156.896 194.931,156.771C191.809,156.636 185.992,160.244 183.429,158.384" style="fill:white;"/>
            <path d="M183.429,158.384C181.083,155.253 178.811,153.962 183.11,148.537C187.406,143.113 191.718,139.133 191.718,139.133C191.718,139.133 193.186,140.551 196.533,140.85C199.869,141.139 203.425,140.167 203.425,140.167C203.425,140.167 210.624,147.884 210.056,152.102C209.851,153.64 207.608,157.444 205.387,159.022C203.062,160.687 198.041,156.896 194.931,156.771C191.809,156.636 185.992,160.244 183.429,158.384Z" style="fill:none;fill-rule:nonzero;stroke:white;stroke-width:0.29px;"/>
            <path d="M235.124,142.668C233.223,150.81 230.689,153.599 227.096,155.613C222.797,158.033 217.434,158.786 216.898,156.264C216.309,153.496 217.994,155.821 221.889,153.353C225.784,150.872 225.256,151.616 225.7,148.795C226.156,145.983 224.78,144.932 225.577,141.769C226.683,137.408 227.694,138.805 229.823,135.85C231.777,133.111 232.325,130.466 231.197,128.439C230.081,126.404 225.061,122.933 225.061,122.933C225.061,122.933 228.728,120.628 231.683,122.746C234.65,124.866 236.053,124.278 236.767,129.731C237.695,136.88 237.033,134.517 235.124,142.668" style="fill:white;"/>
            <path d="M235.124,142.668C233.223,150.81 230.689,153.599 227.096,155.613C222.797,158.033 217.434,158.786 216.898,156.264C216.309,153.496 217.994,155.821 221.889,153.353C225.784,150.872 225.256,151.616 225.7,148.795C226.156,145.983 224.78,144.932 225.577,141.769C226.683,137.408 227.694,138.805 229.823,135.85C231.777,133.111 232.325,130.466 231.197,128.439C230.081,126.404 225.061,122.933 225.061,122.933C225.061,122.933 228.728,120.628 231.683,122.746C234.65,124.866 236.053,124.278 236.767,129.731C237.695,136.88 237.033,134.517 235.124,142.668Z" style="fill:none;fill-rule:nonzero;stroke:white;stroke-width:0.29px;"/>
            <path d="M221.341,151.616C217.642,152.875 215.708,154.632 211.887,148.877C208.053,143.113 205.604,137.78 205.604,137.78C205.604,137.78 207.403,136.831 208.715,133.741C210.027,130.651 210.202,126.963 210.202,126.963C210.202,126.963 219.767,122.5 223.601,124.348C224.996,125.019 227.91,128.325 228.738,130.929C229.605,133.647 224.439,137.264 223.355,140.179C222.281,143.102 223.903,149.744 221.341,151.616" style="fill:white;"/>
            <path d="M221.341,151.616C217.642,152.875 215.708,154.632 211.887,148.877C208.053,143.113 205.604,137.78 205.604,137.78C205.604,137.78 207.403,136.831 208.715,133.741C210.027,130.651 210.202,126.963 210.202,126.963C210.202,126.963 219.767,122.5 223.601,124.348C224.996,125.019 227.91,128.325 228.738,130.929C229.605,133.647 224.439,137.264 223.355,140.179C222.281,143.102 223.903,149.744 221.341,151.616Z" style="fill:none;fill-rule:nonzero;stroke:white;stroke-width:0.29px;"/>
            <path d="M222.371,97.587C229.532,101.927 231.404,105.182 232.209,109.232C233.17,114.056 232.23,119.398 229.668,119.132C226.847,118.842 229.585,117.954 228.439,113.479C227.293,109.004 227.829,109.739 225.286,108.447C222.756,107.155 221.33,108.128 218.571,106.391C214.769,103.992 216.412,103.468 214.242,100.533C212.247,97.836 209.901,96.492 207.628,96.937C205.347,97.37 200.491,101.069 200.491,101.069C200.491,101.069 199.425,96.863 202.359,94.705C205.294,92.547 205.171,91.027 210.575,92.04C217.671,93.36 215.213,93.258 222.371,97.587" style="fill:white;"/>
            <path d="M222.371,97.587C229.532,101.927 231.404,105.182 232.209,109.232C233.17,114.056 232.23,119.398 229.668,119.132C226.847,118.842 229.585,117.954 228.439,113.479C227.293,109.004 227.829,109.739 225.286,108.447C222.756,107.155 221.33,108.128 218.571,106.391C214.769,103.992 216.412,103.468 214.242,100.533C212.247,97.836 209.901,96.492 207.628,96.937C205.347,97.37 200.491,101.069 200.491,101.069C200.491,101.069 199.425,96.863 202.359,94.705C205.294,92.547 205.171,91.027 210.575,92.04C217.671,93.36 215.213,93.258 222.371,97.587Z" style="fill:none;fill-rule:nonzero;stroke:white;stroke-width:0.29px;"/>
            <path d="M226.618,113.467C226.682,117.383 227.755,119.761 221.092,121.621C214.438,123.481 208.6,124.164 208.6,124.164C208.6,124.164 208.248,122.157 205.718,119.958C203.185,117.746 199.734,116.443 199.734,116.443C199.734,116.443 198.454,105.966 201.386,102.9C202.461,101.772 206.503,100.015 209.241,100.035C212.092,100.056 213.93,106.081 216.37,108.014C218.818,109.943 225.637,110.45 226.618,113.467" style="fill:white;"/>
            <path d="M226.618,113.467C226.618,117.383 227.755,119.761 221.092,121.621C214.438,123.481 208.6,124.164 208.6,124.164C208.6,124.164 208.248,122.157 205.718,119.958C203.185,117.746 199.734,116.443 199.734,116.443C199.734,116.443 198.454,105.966 201.386,102.9C202.461,101.772 206.503,100.015 209.241,100.035C212.092,100.056 213.93,106.081 216.37,108.014C218.818,109.943 225.637,110.45 226.618,113.467Z" style="fill:none;fill-rule:nonzero;stroke:white;stroke-width:0.29px;"/>
            <path d="M232.459,120.567C232.459,120.567 233.574,119.925 235.391,117.187C237.45,114.108 236.6,112.788 236.6,112.788C236.6,112.788 237.467,114.513 239.483,116.528C241.498,118.543 244.051,118.801 244.051,118.801C244.051,118.801 241.787,119.978 239.764,121.425C237.748,122.86 238.906,126.601 238.906,126.601C238.906,126.601 237.561,124.348 236.127,122.623C234.69,120.886 232.459,120.567 232.459,120.567" style="fill:white;"/>
            <path d="M232.459,120.567C232.459,120.567 233.574,119.925 235.391,117.187C237.45,114.108 236.6,112.788 236.6,112.788C236.6,112.788 237.467,114.513 239.483,116.528C241.498,118.543 244.051,118.801 244.051,118.801C244.051,118.801 241.787,119.978 239.764,121.425C237.748,122.86 238.906,126.601 238.906,126.601C238.906,126.601 237.561,124.348 236.127,122.623C234.69,120.886 232.459,120.567 232.459,120.567Z" style="fill:none;fill-rule:nonzero;stroke:white;stroke-width:0.29px;"/>
            <path d="M216.247,159.427C216.247,159.427 217.589,160.956 220.875,161.009C223.654,161.059 225.658,160.016 225.658,160.016C225.658,160.016 224.387,159.705 224.284,162.558C224.181,165.411 224.832,169.274 224.832,169.274C224.832,169.274 222.857,167.414 220.43,166.928C218.002,166.433 214.262,168.097 214.262,168.097C214.262,168.097 216.028,166.629 217.311,163.943C218.271,161.917 216.244,159.427 216.247,159.427" style="fill:white;"/>
            <path d="M216.247,159.427C216.247,159.427 217.589,160.956 220.875,161.009C223.654,161.059 225.658,160.016 225.658,160.016C225.658,160.016 224.284,159.705 224.284,162.558C224.284,165.411 224.832,169.274 224.832,169.274C224.832,169.274 222.857,167.414 220.43,166.928C218.002,166.433 214.262,168.097 214.262,168.097C214.262,168.097 216.028,166.629 217.311,163.943C218.271,161.917 216.247,159.427 216.247,159.427Z" style="fill:none;fill-rule:nonzero;stroke:white;stroke-width:0.29px;"/>
            <path d="M167.001,155.666C167.001,155.666 168.346,157.277 171.632,157.257C174.068,157.248 175.557,155.107 175.557,155.107C175.557,155.107 173.925,156.864 173.832,159.717C173.729,162.567 175.557,164.324 175.557,164.324C175.557,164.324 173.77,163.115 171.723,163.115C169.245,163.115 166.339,165.472 166.339,165.472C166.339,165.472 167.912,162.992 168.199,160.76C168.48,158.528 167.001,155.666 167.001,155.666" style="fill:white;"/>
            <path d="M167.001,155.666C167.001,155.666 168.346,157.277 171.632,157.257C174.068,157.248 175.557,155.107 175.557,155.107C175.557,155.107 173.832,156.864 173.832,159.717C173.832,162.567 175.557,164.324 175.557,164.324C175.557,164.324 173.77,163.115 171.723,163.115C169.245,163.115 166.339,165.472 166.339,165.472C166.339,165.472 167.912,162.992 168.199,160.76C168.48,158.528 167.001,155.666 167.001,155.666Z" style="fill:none;fill-rule:nonzero;stroke:white;stroke-width:0.29px;"/>
            <path d="M163.167,107.144C163.167,107.144 162.62,107.817 162.558,111.104C162.497,114.387 164.831,115.163 164.831,115.163C164.831,115.163 164.087,114.398 161.152,116.165C158.715,117.632 157.931,119.688 157.931,119.688C157.931,119.688 158.52,116.165 157.629,114.398C156.524,112.188 154.996,110.295 154.996,110.295C154.996,110.295 157.216,109.004 159.468,108.975C161.712,108.942 163.167,107.144 163.167,107.144" style="fill:white;"/>
            <path d="M163.167,107.144C163.167,107.144 162.558,107.817 162.558,111.104C162.558,114.387 164.831,115.163 164.831,115.163C164.831,115.163 164.087,114.398 161.152,116.165C158.715,117.632 157.931,119.688 157.931,119.688C157.931,119.688 158.52,116.165 157.629,114.398C156.524,112.188 154.996,110.295 154.996,110.295C154.996,110.295 157.216,109.004 159.468,108.975C161.712,108.942 163.167,107.144 163.167,107.144Z" style="fill:none;fill-rule:nonzero;stroke:white;stroke-width:0.29px;"/>
            <path d="M239.764,263.082C244.37,263.37 246.965,266.255 245.528,273.457C244.081,280.647 240.34,282.952 239.196,291.021C238.039,299.078 238.1,297.345 236.6,302.818C234.875,309.154 237.458,317.677 231.413,318.081C227.096,318.371 225.658,312.615 225.947,307.14C226.267,301.095 226.237,300.518 228.83,293.896C232.251,285.142 235.443,284.11 234.585,275.47C233.718,266.832 236.023,263.082 239.764,263.082" style="fill:white;"/>
            <path d="M243.223,291.021C244.08,294.472 244.08,297.066 244.08,297.066C244.08,297.066 242.646,298.502 241.497,295.619C240.34,292.746 242.355,287.56 243.223,291.021" style="fill:rgb(252,238,35);"/>
            <path d="M243.223,291.021C244.08,294.472 244.08,297.066 244.08,297.066C244.08,297.066 242.646,298.502 241.497,295.619C240.34,292.746 242.355,287.56 243.223,291.021Z" style="fill:none;fill-rule:nonzero;stroke:rgb(252,238,35);stroke-width:0.59px;"/>
            <path d="M245.237,288.139C245.817,291.021 247.252,292.455 247.542,295.337C247.832,298.211 250.992,301.384 251.282,298.211C251.572,295.052 250.992,293.314 249.557,291.021C248.122,288.717 244.66,285.253 245.237,288.139" style="fill:rgb(252,238,35);"/>
            <path d="M245.237,288.139C245.817,291.021 247.252,292.455 247.542,295.337C247.832,298.211 250.992,301.384 251.282,298.211C251.572,295.052 250.992,293.314 249.557,291.021C248.122,288.717 244.66,285.253 245.237,288.139Z" style="fill:none;fill-rule:nonzero;stroke:rgb(252,238,35);stroke-width:0.59px;"/>
            <path d="M252.439,287.27C252.439,289.284 252.152,288.139 252.439,290.731C252.72,293.314 252.946,292.86 254.164,295.906C255.312,298.791 261.366,302.242 259.064,297.922C256.76,293.604 252.439,285.253 252.439,287.27" style="fill:rgb(252,238,35);"/>
            <path d="M252.439,287.27C252.439,289.284 252.152,288.139 252.439,290.731C252.72,293.314 252.946,292.86 254.164,295.906C255.312,298.791 261.366,302.242 259.064,297.922C256.76,293.604 252.439,285.253 252.439,287.27Z" style="fill:none;fill-rule:nonzero;stroke:rgb(252,238,35);stroke-width:0.59px;"/>
            <path d="M258.774,287.27C262.514,289.864 262.804,292.166 263.66,294.472C264.529,296.776 265.686,298.79 264.529,299.077C263.382,299.368 262.514,299.368 260.789,295.618C259.064,291.879 255.603,286.411 258.774,287.27" style="fill:rgb(252,238,35);"/>
            <path d="M258.774,287.27C262.514,289.864 262.804,292.166 263.66,294.472C264.529,296.776 265.686,298.79 264.529,299.077C263.382,299.368 262.514,299.368 260.789,295.618C259.064,291.879 255.603,286.411 258.774,287.27Z" style="fill:none;fill-rule:nonzero;stroke:rgb(252,238,35);stroke-width:0.59px;"/>
            <path d="M264.24,287.85C264.24,287.85 265.965,288.717 267.701,291.021C269.427,293.314 271.389,296.714 270.007,297.921C267.701,299.937 268.56,298.211 266.255,294.182C263.949,290.151 263.092,288.994 263.092,287.85C263.092,286.165 264.24,287.85 264.24,287.85" style="fill:rgb(252,238,35);"/>
            <path d="M264.24,287.85C264.24,287.85 265.965,288.717 267.701,291.021C269.427,293.314 271.389,296.714 270.007,297.921C267.701,299.937 268.56,298.211 266.255,294.182C263.949,290.151 263.092,288.994 263.092,287.85C263.092,286.165 264.24,287.85 264.24,287.85Z" style="fill:none;fill-rule:nonzero;stroke:rgb(252,238,35);stroke-width:0.59px;"/>
            <path d="M269.717,287.56C268.27,288.426 271.153,291.3 272.587,293.895C274.034,296.486 274.034,298.791 275.182,297.354C276.339,295.906 277.198,294.182 274.893,291.879C272.59,289.574 270.574,285.253 269.717,287.56" style="fill:rgb(252,238,35);"/>
            <path d="M269.717,287.56C268.27,288.426 271.153,291.3 272.587,293.895C274.034,296.486 274.034,298.791 275.182,297.354C276.339,295.906 277.198,294.182 274.893,291.879C272.59,289.574 270.574,285.253 269.717,287.56Z" style="fill:none;fill-rule:nonzero;stroke:rgb(252,238,35);stroke-width:0.59px;"/>
            <path d="M277.487,287.56C277.487,287.56 274.601,286.123 276.907,289.574C279.212,293.036 281.513,293.036 281.513,293.036C281.513,293.036 282.96,292.746 281.513,290.441C280.079,288.139 277.487,287.56 277.487,287.56" style="fill:rgb(252,238,35);"/>
            <path d="M277.487,287.56C277.487,287.56 274.601,286.123 276.907,289.574C279.212,293.036 281.513,293.036 281.513,293.036C281.513,293.036 282.96,292.746 281.513,290.441C280.079,288.139 277.487,287.56 277.487,287.56Z" style="fill:none;fill-rule:nonzero;stroke:rgb(252,238,35);stroke-width:0.59px;"/>
            <path d="M163.179,263.66C158.569,263.949 155.977,266.832 157.412,274.025C158.859,281.224 162.599,283.529 163.747,291.589C164.904,299.657 164.852,297.921 166.339,303.398C168.064,309.733 165.484,318.256 171.526,318.661C175.847,318.948 177.281,313.184 176.991,307.72C176.684,301.674 176.713,301.095 174.121,294.473C170.691,285.721 167.496,284.679 168.354,276.037C169.225,267.399 166.919,263.66 163.179,263.66" style="fill:white;"/>
            <path d="M296.196,153.382L259.92,172.961C259.92,172.961 255.717,207.844 239.195,227.672C219.035,251.859 215.585,254.732 204.063,262.792C192.543,270.86 172.383,283.528 172.383,283.528L176.99,295.051C176.99,295.051 237.592,264.134 259.342,242.064C299.082,201.758 296.196,153.382 296.196,153.382" style="fill:white;"/>
            <path d="M159.717,291.589C158.859,295.052 158.859,297.635 158.859,297.635C158.859,297.635 160.297,299.077 161.454,296.196C162.599,293.314 160.584,288.139 159.717,291.589" style="fill:rgb(252,238,35);"/>
            <path d="M159.717,291.589C158.859,295.052 158.859,297.635 158.859,297.635C158.859,297.635 160.297,299.077 161.454,296.196C162.599,293.314 160.584,288.139 159.717,291.589Z" style="fill:none;fill-rule:nonzero;stroke:rgb(252,238,35);stroke-width:0.59px;"/>
            <path d="M157.702,288.717C157.134,291.589 155.687,293.035 155.397,295.905C155.11,298.79 151.947,301.951 151.657,298.79C151.37,295.618 151.947,293.894 153.382,291.589C154.829,289.284 158.282,285.833 157.702,288.717" style="fill:rgb(252,238,35);"/>
            <path d="M157.702,288.717C157.134,291.589 155.687,293.035 155.397,295.905C155.11,298.79 151.947,301.951 151.657,298.79C151.37,295.618 151.947,293.894 153.382,291.589C154.829,289.284 158.282,285.833 157.702,288.717Z" style="fill:none;fill-rule:nonzero;stroke:rgb(252,238,35);stroke-width:0.59px;"/>
            <path d="M150.512,287.85C150.512,289.864 150.79,288.717 150.512,291.3C150.222,293.892 149.993,293.438 148.775,296.486C147.63,299.369 141.584,302.818 143.887,298.502C146.191,294.182 150.512,285.833 150.512,287.85" style="fill:rgb(252,238,35);"/>
            <path d="M150.512,287.85C150.512,289.864 150.79,288.717 150.512,291.3C150.222,293.892 149.993,293.438 148.775,296.486C147.63,299.369 141.584,302.818 143.887,298.502C146.191,294.182 150.512,285.833 150.512,287.85Z" style="fill:none;fill-rule:nonzero;stroke:rgb(252,238,35);stroke-width:0.59px;"/>
            <path d="M144.177,287.85C140.428,290.441 140.138,292.746 139.279,295.052C138.413,297.354 137.265,299.368 138.413,299.657C139.569,299.936 140.428,299.936 142.152,296.195C143.887,292.456 147.34,286.979 144.177,287.85" style="fill:rgb(252,238,35);"/>
            <path d="M144.177,287.85C140.428,290.441 140.138,292.746 139.279,295.052C138.413,297.354 137.265,299.368 138.413,299.657C139.569,299.936 140.428,299.936 142.152,296.195C143.887,292.456 147.34,286.979 144.177,287.85Z" style="fill:none;fill-rule:nonzero;stroke:rgb(252,238,35);stroke-width:0.59px;"/>
            <path d="M138.699,288.426C138.699,288.426 136.975,289.283 135.249,291.589C133.516,293.892 131.55,297.291 132.944,298.501C135.249,300.517 134.382,298.79 136.688,294.762C138.989,290.731 139.848,289.574 139.848,288.426C139.848,286.742 138.699,288.426 138.699,288.426" style="fill:rgb(252,238,35);"/>
            <path d="M138.699,288.426C138.699,288.426 136.975,289.283 135.249,291.589C133.516,293.892 131.55,297.291 132.944,298.501C135.249,300.517 134.382,298.79 136.688,294.762C138.989,290.731 139.848,289.574 139.848,288.426C139.848,286.742 138.699,288.426 138.699,288.426Z" style="fill:none;fill-rule:nonzero;stroke:rgb(252,238,35);stroke-width:0.59px;"/>
            <path d="M133.234,288.139C134.672,288.993 131.787,291.879 130.353,294.472C128.917,297.066 128.917,299.368 127.76,297.921C126.612,296.485 125.745,294.762 128.047,292.455C130.353,290.151 132.367,285.833 133.234,288.139" style="fill:rgb(252,238,35);"/>
            <path d="M133.234,288.139C134.672,288.993 131.787,291.879 130.353,294.472C128.917,297.066 128.917,299.368 127.76,297.921C126.612,296.485 125.745,294.762 128.047,292.455C130.353,290.151 132.367,285.833 133.234,288.139Z" style="fill:none;fill-rule:nonzero;stroke:rgb(252,238,35);stroke-width:0.59px;"/>
            <path d="M125.455,288.139C125.455,288.139 128.337,286.692 126.032,290.151C123.73,293.604 121.425,293.604 121.425,293.604C121.425,293.604 119.99,293.314 121.425,291.021C122.86,288.717 125.455,288.139 125.455,288.139" style="fill:rgb(252,238,35);"/>
            <path d="M125.455,288.139C125.455,288.139 128.337,286.692 126.032,290.151C123.73,293.604 121.425,293.604 121.425,293.604C121.425,293.604 119.99,293.314 121.425,291.021C122.86,288.717 125.455,288.139 125.455,288.139Z" style="fill:none;fill-rule:nonzero;stroke:rgb(252,238,35);stroke-width:0.59px;"/>
            <path d="M155.854,362.975L156.814,358.491C158.912,358.843 160.388,359.018 161.267,359.01C162.652,358.997 163.85,358.638 164.872,357.935C165.566,357.457 166.175,356.746 166.682,355.806C166.969,355.245 167.156,354.814 167.218,354.526L172.695,355.691L165.566,389.189L158.83,387.753L163.735,364.65L155.854,362.975" style="fill:white;"/>
            <path d="M180.879,385.258C181.696,386.238 182.874,386.786 184.415,386.901C185.952,387.004 187.183,386.631 188.113,385.765C189.063,384.896 189.59,383.623 189.704,381.939C189.827,380.194 189.476,378.854 188.641,377.893C187.824,376.919 186.667,376.384 185.158,376.27C183.65,376.164 182.42,376.536 181.459,377.386C180.507,378.221 179.98,379.512 179.857,381.248C179.743,382.933 180.085,384.266 180.879,385.258M174.515,376.094C175.496,374.606 176.861,373.52 178.598,372.86C177.025,371.639 176.035,370.38 175.622,369.067C175.229,367.744 175.063,366.537 175.145,365.421C175.312,362.93 176.396,360.885 178.39,359.274C180.384,357.651 183.082,356.949 186.491,357.187C189.9,357.422 192.472,358.486 194.221,360.378C195.966,362.259 196.76,364.439 196.584,366.918C196.502,368.033 196.171,369.211 195.573,370.462C195.005,371.7 193.857,372.734 192.144,373.562C193.755,374.627 194.932,375.959 195.676,377.583C196.411,379.193 196.71,380.96 196.584,382.872C196.379,385.745 195.14,388.121 192.867,390.001C190.604,391.861 187.566,392.657 183.744,392.389C179.931,392.131 177.11,390.921 175.279,388.772C173.46,386.613 172.655,384.091 172.852,381.221C172.986,379.294 173.545,377.59 174.515,376.094ZM182.42,369.738C183.132,370.576 184.166,371.041 185.519,371.134C186.884,371.228 187.958,370.916 188.752,370.185C189.561,369.449 190.015,368.458 190.097,367.218C190.19,365.864 189.892,364.789 189.188,363.983C188.506,363.158 187.484,362.704 186.107,362.61C184.766,362.517 183.67,362.827 182.854,363.539C182.048,364.241 181.594,365.268 181.5,366.62C181.406,367.857 181.717,368.9 182.42,369.738Z" style="fill:white;"/>
            <path d="M208.346,385.971C209.286,386.839 210.526,387.221 212.066,387.106C213.607,387.003 214.772,386.456 215.579,385.462C216.384,384.482 216.735,383.141 216.624,381.464C216.498,379.72 215.962,378.428 215.001,377.603C214.062,376.755 212.831,376.384 211.323,376.486C209.814,376.589 208.645,377.128 207.819,378.098C206.994,379.058 206.651,380.411 206.777,382.148C206.888,383.832 207.414,385.104 208.346,385.971M200.76,377.787C201.525,376.177 202.726,374.916 204.358,374.006C202.632,373.025 201.476,371.92 200.876,370.68C200.298,369.429 199.977,368.242 199.895,367.126C199.719,364.646 200.515,362.466 202.261,360.596C204.007,358.702 206.581,357.64 209.99,357.402C213.399,357.165 216.096,357.856 218.089,359.48C220.083,361.102 221.158,363.147 221.334,365.626C221.419,366.742 221.251,367.961 220.839,369.284C220.435,370.584 219.444,371.773 217.863,372.828C219.608,373.654 220.962,374.811 221.923,376.311C222.874,377.808 223.422,379.512 223.557,381.425C223.753,384.307 222.863,386.827 220.869,388.997C218.887,391.156 215.983,392.378 212.17,392.644C208.357,392.901 205.393,392.108 203.284,390.228C201.187,388.347 200.03,385.959 199.834,383.086C199.697,381.176 200.007,379.409 200.76,377.787ZM207.705,370.389C208.521,371.123 209.617,371.443 210.959,371.35C212.332,371.246 213.357,370.781 214.04,369.946C214.74,369.108 215.041,368.074 214.959,366.824C214.865,365.482 214.412,364.449 213.604,363.746C212.81,363.034 211.735,362.725 210.371,362.817C209.017,362.908 207.983,363.374 207.272,364.191C206.569,364.996 206.258,366.08 206.364,367.434C206.445,368.675 206.888,369.656 207.705,370.389Z" style="fill:white;"/>
            <path d="M225.834,359.647C227.447,356.974 229.897,355.277 233.211,354.574C238.305,353.491 242.282,355.009 245.135,359.111C246.758,361.446 248.017,364.691 248.907,368.865C249.765,372.916 249.97,376.406 249.505,379.343C248.638,384.921 245.568,388.27 240.299,389.386C237.789,389.924 235.37,389.662 233.056,388.612C230.731,387.537 229.131,385.616 228.233,382.825L234.794,381.431C235.154,382.379 235.743,383.095 236.552,383.569C237.357,384.043 238.326,384.157 239.454,383.92C241.624,383.454 242.895,381.927 243.255,379.344C243.452,377.916 243.337,375.925 242.925,373.351C242.483,374.238 241.964,374.953 241.375,375.489C240.3,376.494 238.864,377.185 237.055,377.565C234.402,378.133 231.839,377.721 229.378,376.326C226.93,374.921 225.327,372.484 224.596,369.011C223.83,365.422 224.243,362.304 225.834,359.647M239.752,370.569C241.043,369.298 241.436,367.479 240.94,365.125C240.536,363.232 239.763,361.83 238.635,360.91C237.519,359.99 236.198,359.688 234.657,360.012C233.532,360.257 232.634,360.776 231.971,361.58C230.916,362.831 230.638,364.64 231.142,366.996C231.567,368.979 232.282,370.386 233.291,371.221C234.316,372.037 235.67,372.254 237.354,371.903C238.264,371.706 239.061,371.261 239.752,370.569Z" style="fill:white;"/>
            <path d="M194.539,129.392C194.539,127.086 196.108,125.227 198.05,125.227C199.992,125.227 201.564,127.086 201.564,129.392C201.564,131.694 199.992,133.565 198.05,133.565C196.108,133.565 194.539,131.694 194.539,129.392" style="fill:white;"/>
            <path d="M194.539,129.392C194.539,127.086 196.108,125.227 198.05,125.227C199.992,125.227 201.564,127.086 201.564,129.392C201.564,131.694 199.992,133.565 198.05,133.565C196.108,133.565 194.539,131.694 194.539,129.392Z" style="fill:none;fill-rule:nonzero;stroke:rgb(232,231,231);stroke-width:0.88px;"/>
            <path d="M196.738,131.591C196.738,129.286 198.308,127.417 200.25,127.417C202.183,127.417 203.765,129.286 203.765,131.591C203.765,133.896 202.183,135.765 200.25,135.765C198.308,135.765 196.738,133.896 196.738,131.591Z" style="fill:none;fill-rule:nonzero;stroke:rgb(33,30,31);stroke-width:1.75px;"/>
            <path d="M191.902,131.146C191.902,128.844 193.473,126.984 195.417,126.984C197.359,126.984 198.929,128.844 198.929,131.146C198.929,133.451 197.359,135.322 195.417,135.322C193.473,135.322 191.902,133.451 191.902,131.146Z" style="fill:none;fill-rule:nonzero;stroke:rgb(33,30,31);stroke-width:1.75px;"/>
            <path d="M192.348,126.755C192.348,124.451 193.917,122.591 195.859,122.591C197.792,122.591 199.374,124.451 199.374,126.755C199.374,129.061 197.792,130.929 195.859,130.929C193.917,130.929 192.348,129.061 192.348,126.755Z" style="fill:none;fill-rule:nonzero;stroke:rgb(33,30,31);stroke-width:1.75px;"/>
            <path d="M196.738,126.322C196.738,124.017 198.308,122.148 200.25,122.148C202.183,122.148 203.765,124.017 203.765,126.322C203.765,128.627 202.183,130.496 200.25,130.496C198.308,130.496 196.738,128.627 196.738,126.322Z" style="fill:none;fill-rule:nonzero;stroke:rgb(33,30,31);stroke-width:1.75px;"/>
            <path d="M106.743,152.805L143.02,172.384C143.02,172.384 147.226,207.268 163.747,227.093C183.907,251.281 187.366,254.155 198.876,262.225C210.398,270.285 230.555,282.952 230.555,282.952L225.948,294.473C225.948,294.473 165.351,263.558 143.601,241.489C103.86,201.181 106.743,152.805 106.743,152.805" style="fill:white;"/>
            <path d="M106.743,152.805L143.02,172.384C143.02,172.384 147.226,207.268 163.747,227.093C183.907,251.281 187.366,254.155 198.876,262.225C210.398,270.285 230.555,282.952 230.555,282.952L225.948,294.473C225.948,294.473 165.351,263.558 143.601,241.489C103.86,201.181 106.743,152.805 106.743,152.805Z" style="fill:none;fill-rule:nonzero;stroke:rgb(33,30,31);stroke-width:0.88px;"/>
            <path d="M35.252,225.253C36.824,224.893 37.97,224.357 38.693,223.643C40.017,222.342 40.553,220.266 40.304,217.413C40.152,215.708 39.85,214.335 39.376,213.302C38.477,211.338 37.05,210.44 35.088,210.615C33.94,210.718 33.105,211.295 32.557,212.349C32.039,213.414 31.638,215.037 31.348,217.226L30.852,220.966C30.346,224.645 29.684,227.219 28.847,228.687C27.452,231.155 25.045,232.548 21.644,232.848C18.534,233.117 15.86,232.209 13.607,230.132C11.356,228.054 10.043,224.831 9.65,220.449C9.328,216.791 10.031,213.599 11.756,210.852C13.461,208.093 16.149,206.49 19.816,206.044L20.426,213.01C18.358,213.32 16.955,214.354 16.22,216.128C15.746,217.31 15.57,218.732 15.725,220.416C15.88,222.287 16.387,223.743 17.242,224.789C18.092,225.831 19.196,226.297 20.54,226.184C21.779,226.069 22.657,225.448 23.173,224.291C23.516,223.547 23.867,221.998 24.207,219.651L25.127,213.545C25.519,210.871 26.19,208.823 27.121,207.398C28.577,205.189 30.841,203.938 33.931,203.669C37.103,203.392 39.842,204.38 42.155,206.624C44.46,208.864 45.802,212.191 46.186,216.614C46.578,221.131 45.863,224.768 44.036,227.536C42.196,230.307 39.469,231.856 35.864,232.166L35.252,225.253" style="fill:white;"/>
            <path d="M43.913,197.842L9.349,193.607L10.228,186.458L23.402,188.068L25.066,174.563L11.892,172.953L12.77,165.771L47.322,170.018L46.444,177.188L31.017,175.299L29.366,188.801L44.78,190.693L43.913,197.842" style="fill:white;"/>
            <path d="M29.365,130.268L23.671,147.782L30.697,150.066L35.925,133.99L41.669,135.858L36.452,151.935L44.967,154.706L50.915,136.374L56.867,138.307L48.716,163.396L15.611,152.638L23.495,128.357L29.365,130.268" style="fill:white;"/>
            <path d="M29.042,116.794L41.006,95.2L46.361,98.167L37.896,113.438L44.902,117.322L52.312,103.951L57.601,106.886L50.195,120.248L62.953,127.324L59.45,133.647L29.042,116.794" style="fill:white;"/>
            <path d="M47.723,86.252L63.586,67.343L68.275,71.28L57.054,84.65L63.191,89.796L73.008,78.089L77.648,81.976L67.821,93.683L79.001,103.063L74.361,108.603L47.723,86.252" style="fill:white;"/>
            <path d="M98.911,82.483L93.539,87.318L70.249,61.444L75.62,56.609L98.911,82.483" style="fill:white;"/>
            <path d="M109.575,39.932L94.128,49.967L98.147,56.165L112.334,46.959L115.629,52.032L101.441,61.237L106.318,68.749L122.479,58.252L125.889,63.501L103.767,77.873L84.809,48.675L106.216,34.766L109.575,39.932" style="fill:white;"/>
            <path d="M117.468,28.639L124.216,25.923L134.909,52.395L150.893,45.937L153.238,51.742L130.508,60.918L117.468,28.639" style="fill:white;"/>
            <path d="M159.067,20.54L163.404,42.838L169.989,41.567C173.357,40.905 175.381,38.787 176.063,35.202C176.435,33.237 176.382,30.996 175.888,28.475C175.217,25.001 174.142,22.441 172.683,20.798C171.236,19.143 168.894,18.628 165.648,19.258L159.067,20.54M171.134,12.799C173.688,13.121 175.899,14.197 177.8,16.003C179.317,17.471 180.486,19.155 181.3,21.044C182.117,22.948 182.706,24.787 183.049,26.582C183.936,31.131 183.772,35.15 182.563,38.661C180.908,43.394 177.51,46.256 172.344,47.258L157.62,50.122L150.975,15.95L165.701,13.089C167.827,12.708 169.637,12.615 171.134,12.799Z" style="fill:white;"/>
            <path d="M209.147,9.565L216.484,10.464L213.88,31.708C213.578,34.083 213.651,35.852 214.085,37.017C214.715,39.065 216.504,40.263 219.447,40.626C222.37,40.986 224.385,40.254 225.501,38.415C226.196,37.389 226.69,35.697 226.98,33.318L229.584,12.075L236.93,12.974L234.318,34.217C233.873,37.887 232.941,40.675 231.559,42.588C228.964,46.079 224.688,47.453 218.695,46.721C212.712,45.985 208.878,43.61 207.194,39.601C206.306,37.41 206.09,34.478 206.544,30.808L209.147,9.565" style="fill:white;"/>
            <path d="M250.383,15.652L257.597,18.132L262.793,45.626L270.697,22.646L277.115,24.848L265.78,57.766L258.897,55.399L253.506,27.388L245.454,50.772L239.049,48.561L250.383,15.652" style="fill:white;"/>
            <path d="M277.186,64.388L270.801,60.999L287.146,30.26L293.522,33.649L277.186,64.388" style="fill:white;"/>
            <path d="M324.756,54.512L321.13,59.503L312.709,53.376L295.869,76.561L289.938,72.253L306.778,49.076L298.317,42.929L301.943,37.938L324.756,54.512" style="fill:white;"/>
            <path d="M346.269,85.374L333.704,71.901L328.3,76.945L339.831,89.31L335.408,93.434L323.877,81.066L317.328,87.172L330.482,101.266L325.893,105.545L307.903,86.244L333.364,62.499L350.785,81.171L346.269,85.374" style="fill:white;"/>
            <path d="M357.264,101.102L337.787,112.808L341.236,118.552C343.003,121.495 345.687,122.676 349.285,122.096C351.26,121.765 353.348,120.95 355.547,119.626C358.584,117.799 360.632,115.918 361.675,113.994C362.738,112.064 362.418,109.686 360.714,106.845L357.264,101.102M368.66,109.792C369.228,112.302 368.978,114.75 367.925,117.146C367.067,119.079 365.881,120.754 364.381,122.169C362.885,123.583 361.356,124.761 359.782,125.701C355.816,128.088 351.97,129.318 348.263,129.38C343.251,129.441 339.397,127.23 336.691,122.717L328.962,109.862L358.801,91.938L366.531,104.789C367.614,106.648 368.329,108.324 368.66,109.792Z" style="fill:white;"/>
            <path d="M384.095,144.053L390.066,168.003L384.127,169.479L379.9,152.544L372.143,154.478L375.83,169.306L369.972,170.771L366.272,155.944L352.105,159.468L350.36,152.462L384.095,144.053" style="fill:white;"/>
            <path d="M362.48,174.183L363.473,181.271L356.499,182.252L355.506,175.164L362.48,174.183" style="fill:white;"/>
            <path d="M388.869,192.717C391.689,195.602 393.055,199.228 392.981,203.609C392.878,209.467 390.884,213.713 387,216.35C384.81,217.806 382.64,218.57 380.457,218.652L380.584,211.38C382.268,210.936 383.539,210.347 384.394,209.622C385.935,208.33 386.719,206.377 386.772,203.785C386.813,201.14 385.78,199.031 383.663,197.47C381.565,195.9 378.569,195.083 374.662,195.021C370.758,194.948 367.811,195.704 365.829,197.274C363.866,198.867 362.864,200.902 362.823,203.38C362.78,205.935 363.576,207.896 365.219,209.259C366.106,210.015 367.438,210.655 369.229,211.171L369.103,218.372C365.321,217.683 362.264,216.018 359.929,213.373C357.595,210.746 356.467,207.421 356.54,203.371C356.622,198.359 358.295,194.453 361.561,191.644C364.835,188.832 369.29,187.478 374.911,187.582C380.984,187.685 385.636,189.401 388.869,192.717" style="fill:white;"/>
            <path d="M363.184,223.797L362.066,230.865L355.113,229.761L356.23,222.693L363.184,223.797" style="fill:white;"/>
        </g>
    </g>
</svg>
