<?xml version="1.0" encoding="UTF-8" standalone="no"?>
<!DOCTYPE svg PUBLIC "-//W3C//DTD SVG 1.1//EN" "http://www.w3.org/Graphics/SVG/1.1/DTD/svg11.dtd">
<svg width="100%" height="100%" viewBox="0 0 512 512" version="1.1" xmlns="http://www.w3.org/2000/svg" xmlns:xlink="http://www.w3.org/1999/xlink" xml:space="preserve" xmlns:serif="http://www.serif.com/" style="fill-rule:evenodd;clip-rule:evenodd;stroke-linejoin:round;stroke-miterlimit:2;">
    <rect x="0" y="0" width="512" height="512" style="fill:white;fill-opacity:0;"/>
    <clipPath id="_clip1">
        <rect x="0" y="0" width="512" height="512"/>
    </clipPath>
    <g clip-path="url(#_clip1)">
        <g id="Logo_Chelsea.svg" transform="matrix(2.4381,0,0,2.4381,256,256)">
            <g transform="matrix(1,0,0,1,-105,-105)">
                <path id="path3381" d="M209.5,104.7C209.5,162.6 162.6,209.5 104.7,209.5C46.9,209.5 0,162.6 0,104.7C0,46.9 46.9,0 104.7,0C162.6,0 209.5,46.9 209.5,104.7Z" style="fill:rgb(219,161,17);fill-rule:nonzero;"/>
                <path id="path3383" d="M206,104.7C206,160.7 160.7,206 104.7,206C48.8,206 3.5,160.7 3.5,104.7C3.5,48.8 48.8,3.5 104.7,3.5C160.7,3.5 206,48.8 206,104.7Z" style="fill:rgb(0,20,137);fill-rule:nonzero;"/>
                <path id="path3385" d="M176.9,104.7C176.9,144.6 144.6,176.9 104.7,176.9C64.9,176.9 32.6,144.6 32.6,104.7C32.6,64.9 64.9,32.6 104.7,32.6C144.6,32.6 176.9,64.9 176.9,104.7Z" style="fill:rgb(219,161,17);fill-rule:nonzero;"/>
                <path id="path3387" d="M174.7,104.7C174.7,143.4 143.4,174.7 104.7,174.7C66.1,174.7 34.8,143.4 34.8,104.7C34.8,66.1 66.1,34.8 104.7,34.8C143.4,34.8 174.7,66.1 174.7,104.7Z" style="fill:white;fill-rule:nonzero;"/>
                <path id="path3389" d="M44.8,165.1C45.6,165.8 47.5,167.7 47.5,167.7L49.3,165.7L43.8,160.5L43.1,161.3L35.8,168.9L38.6,171.6C38.6,171.6 41,169.1 41.8,168.2C42.5,168.9 44.2,170.5 44.2,170.5L46.1,168.6C46.1,168.6 44.4,167 43.6,166.3C44.1,165.8 44.3,165.6 44.8,165.1Z" style="fill:rgb(219,161,17);fill-rule:nonzero;"/>
                <path id="path3391" d="M58,174.8C58,176.1 57.6,177.4 56.8,178.5C55.8,179.9 54.4,180.8 52.8,181.1C51.3,181.3 49.8,181 48.6,180.1C47.3,179.2 46.5,177.9 46.3,176.4C46,174.9 46.4,173.2 47.4,171.8C48.4,170.4 49.8,169.5 51.4,169.2C52.9,169 54.4,169.3 55.6,170.2C56.8,171.1 57.7,172.4 57.9,173.9C57.967,174.167 58,174.467 58,174.8ZM53.6,176.2C54.2,175.4 55.4,173.3 54.1,172.4C52.8,171.5 51.4,173.1 50.6,174.1C49.9,175.1 48.8,177 50.1,177.9C51.4,178.9 53,177 53.6,176.2Z" style="fill:rgb(219,161,17);"/>
                <path id="path3393" d="M68.9,184.8C68.1,186.3 66.8,187.4 65.3,187.9C63.9,188.4 62.4,188.3 61,187.6C59.6,186.9 58.6,185.8 58.2,184.3C57.7,182.8 57.8,181.1 58.6,179.6C60.2,176.5 63.5,175.3 66.5,176.8C69.4,178.2 70.5,181.7 68.9,184.8ZM65.4,183C66,181.8 66.2,180.6 66,179.9C65.867,179.567 65.633,179.3 65.3,179.1C63.9,178.4 62.7,180.2 62.1,181.4C61.8,182 61.4,183 61.4,183.8C61.4,184.4 61.6,184.9 62.2,185.2C62.533,185.4 62.867,185.433 63.2,185.3C63.9,185.1 64.7,184.2 65.4,183Z" style="fill:rgb(219,161,17);"/>
                <path id="path3395" d="M72.5,181L72,182.6C72,182.6 73.4,183 73.8,183.2C73.3,184.7 70.8,191.6 70.8,191.6L74.4,192.9C74.4,192.9 76.9,186 77.4,184.4C77.8,184.6 79.2,185.1 79.2,185.1L80.1,182.6L72.9,180L72.5,181Z" style="fill:rgb(219,161,17);fill-rule:nonzero;"/>
                <path id="path3397" d="M90.6,187.8C90.6,188.067 90.567,188.3 90.5,188.5C90.4,189.3 90,189.9 89.4,190.4C89.8,190.933 90,191.533 90,192.2L90,193C89.7,194 89.2,194.8 88.5,195.3C87.9,195.7 86.8,196.1 85.2,195.7L80.3,194.7L82.4,184.3L82.7,183.3L87.5,184.4C89.8,184.8 90.6,186.5 90.6,187.8ZM86.2,191.9C86.2,191.6 86.1,191.1 85.5,191C85.5,191 85.2,190.9 85,190.9C84.8,191.6 84.7,192.1 84.6,192.9C84.8,192.9 85,193 85,193C85.4,193.067 85.7,193.033 85.9,192.9C86,192.8 86.1,192.5 86.2,192.3L86.2,191.9ZM85.5,188.3C85.7,188.3 85.8,188.4 85.8,188.4C86.6,188.5 86.7,188.1 86.8,187.8L86.8,187.5C86.8,187.367 86.767,187.267 86.7,187.2C86.6,187 86.3,186.8 85.9,186.7C85.7,187.4 85.7,187.7 85.5,188.3Z" style="fill:rgb(219,161,17);"/>
                <path id="path3399" d="M96.5,186L91.2,196.9L94.3,197.1C94.3,197.1 95.1,195.4 95.4,194.7C96.067,194.767 96.7,194.833 97.3,194.9C97.6,195.6 98.2,197.4 98.2,197.4L102.2,197.7L97.7,183.8L96.5,186Z" style="fill:rgb(219,161,17);fill-rule:nonzero;"/>
                <path id="path3401" d="M108.5,194.7C108.4,193.1 108.1,185.9 108.1,185.9L104.3,186.1L104.8,197.7L112.5,197.3L112.3,194.6C112.3,194.6 109.6,194.7 108.5,194.7Z" style="fill:rgb(219,161,17);fill-rule:nonzero;"/>
                <path id="path3403" d="M119,193.6C118.8,192 117.6,184.9 117.6,184.9L116.6,185.1L113.8,185.5L115.6,197L123.2,195.8L122.8,193C122.8,193 120.1,193.4 119,193.6Z" style="fill:rgb(219,161,17);fill-rule:nonzero;"/>
                <path id="path3405" d="M141,185.9C140.9,186.9 140.3,187.7 139.4,188.1C138.933,188.3 138.467,188.3 138,188.1C137.2,187.8 136.5,187 136.1,185.9C135.6,184.7 135.5,183.7 135.8,183C136.067,182.467 136.533,182.067 137.2,181.8C137.9,181.5 138.5,181.8 139.5,182.3L140.3,182.8L141.7,180.6L140.9,180C139.4,179 137.4,178.8 135.8,179.5C134.3,180.1 133.1,181.2 132.4,182.7C131.8,184.2 131.8,185.9 132.5,187.5C133.7,190.5 137.1,192 140.1,190.8C142.3,190 143.5,188.3 143.7,186L143.8,185L141,184.8L141,185.9Z" style="fill:rgb(219,161,17);fill-rule:nonzero;"/>
                <path id="path3407" d="M149.9,182.7C149.1,181.3 145.6,175 145.6,175L144.7,175.5L142.2,176.9L147.9,187L154.6,183.3L153.3,180.8C153.3,180.8 150.9,182.2 149.9,182.7Z" style="fill:rgb(219,161,17);fill-rule:nonzero;"/>
                <path id="path3409" d="M157.3,167.1L156.5,167.7L155.1,168.8L159.8,175.2C160,175.4 160,175.6 160,175.8C159.9,176.1 159.6,176.4 159.3,176.7C159.1,176.8 158.8,176.9 158.5,176.9C158.233,176.833 158.033,176.7 157.9,176.5L153.2,170.1L150.1,172.4L154.7,178.7C155.433,179.633 156.3,180.167 157.3,180.3C158.4,180.5 159.7,180.1 160.8,179.2C163.3,177.5 163.2,175.1 162.2,173.7L157.3,167.1Z" style="fill:rgb(219,161,17);fill-rule:nonzero;"/>
                <path id="path3411" d="M172.5,167.3C172.5,168 172.2,169.1 171.1,170.2L167.4,173.7L159.3,165.4L162.9,161.9C164.9,160 167.1,160.8 168,161.8C168.6,162.3 168.9,163 168.9,163.7C169.9,163.7 170.7,164 171.4,164.8C172.1,165.5 172.5,166.4 172.5,167.3ZM163.9,164.6C164.4,165.1 164.6,165.3 165.1,165.8C165.2,165.7 165.2,165.6 165.2,165.6C165.5,165.4 165.6,165.1 165.6,165C165.6,164.8 165.5,164.6 165.3,164.5C165.1,164.2 164.7,163.9 163.9,164.6ZM166.9,167.7C167.4,168.2 167.8,168.6 168.3,169.2C168.5,169 168.6,168.9 168.6,168.9C168.9,168.6 169.1,168.3 169.1,168.1C169.1,167.9 168.9,167.6 168.7,167.5C168.5,167.3 167.9,166.7 167.3,167.4C167.3,167.4 167.1,167.5 166.9,167.7Z" style="fill:rgb(219,161,17);"/>
                <path id="path3413" d="M44.8,164C45.1,164.3 47.4,166.6 47.4,166.6L48.2,165.8L43.9,161.6L43.7,161.8L36.9,168.9L38.6,170.5C38.6,170.5 41.5,167.5 41.8,167.1C42.1,167.4 44.2,169.5 44.2,169.5L45,168.7C45,168.7 42.9,166.6 42.6,166.3C42.8,166 44.5,164.3 44.8,164Z" style="fill:white;fill-rule:nonzero;"/>
                <path id="path3415" d="M57.2,174L57.2,174.8C57.2,175.9 56.9,177.1 56.2,178.1C55.3,179.3 54,180.1 52.7,180.3C51.4,180.5 50.1,180.2 49,179.5C47.9,178.7 47.2,177.6 47,176.3C46.8,174.9 47.1,173.5 48,172.2C48.9,171 50.1,170.2 51.5,170C52.8,169.7 54.1,170.1 55.2,170.8C56.2,171.6 57,172.7 57.2,174ZM54.5,171.7C52.6,170.4 50.7,172.6 50,173.7C49.3,174.7 47.8,177.2 49.7,178.5C51.5,179.9 53.4,177.7 54.2,176.6C54.9,175.6 56.4,173.1 54.5,171.7Z" style="fill:white;"/>
                <path id="path3417" d="M68.2,184.4C67.5,185.8 66.4,186.8 65.1,187.2C63.9,187.6 62.5,187.5 61.3,186.9C60.2,186.3 59.3,185.3 58.9,184.1C58.5,182.8 58.6,181.3 59.3,179.9C60.6,177.2 63.6,176.2 66.1,177.4C68.7,178.7 69.6,181.7 68.2,184.4ZM63.5,186.1C64.7,185.7 65.6,184.2 66,183.3C66.5,182.5 67.1,180.9 66.7,179.7C66.5,179.167 66.133,178.767 65.6,178.5C63.6,177.4 62,179.9 61.5,181C60.9,182.1 59.8,184.9 61.9,185.9C62.433,186.167 62.967,186.233 63.5,186.1Z" style="fill:white;"/>
                <path id="path3419" d="M73.3,181.3L73,182.1C73,182.1 74.4,182.6 74.8,182.7C74.6,183.2 71.8,191.2 71.8,191.2L74,191.9C74,191.9 76.8,183.9 76.9,183.5C77.3,183.6 78.7,184.1 78.7,184.1L79.1,183L73.3,181L73.3,181.3Z" style="fill:white;fill-rule:nonzero;"/>
                <path id="path3421" d="M89.8,187.8L89.8,188.4C89.6,189.3 89,189.9 88.1,190.2C88.9,190.7 89.3,191.4 89.3,192.3C89.3,192.433 89.267,192.633 89.2,192.9C89,193.6 88.6,194.3 88,194.6C87.333,195.067 86.467,195.2 85.4,195L81.2,194.1L83.2,184.5L83.2,184.2L87.4,185.1C89.3,185.5 89.8,186.9 89.8,187.8ZM85.3,185.8C85.2,186.2 84.7,188.5 84.6,188.9C85,189 85.6,189.1 85.6,189.1C86.2,189.2 87.2,189.2 87.5,188C87.567,187.8 87.6,187.633 87.6,187.5C87.6,187.233 87.533,186.967 87.4,186.7C87.133,186.367 86.633,186.133 85.9,186C85.9,186 85.5,185.9 85.3,185.8ZM84.4,190C84.3,190.4 83.7,193.1 83.7,193.5C84.1,193.6 84.8,193.7 84.8,193.7C85.467,193.833 85.967,193.8 86.3,193.6C86.633,193.4 86.833,193 86.9,192.4C86.9,192.4 87,192.2 87,192C87,191.4 86.8,190.5 85.6,190.2C85.6,190.2 84.7,190.1 84.4,190Z" style="fill:white;"/>
                <path id="path3423" d="M97.5,185.8L101.1,196.9L98.7,196.7C98.7,196.7 98,194.4 97.9,194.1C97.6,194.1 95.3,193.9 95,193.9C94.8,194.2 93.8,196.3 93.8,196.3L92.4,196.2L97.2,186.4L97.5,185.8ZM95.5,192.8C96,192.8 97.1,192.9 97.5,193C97.4,192.5 96.9,191 96.7,190.3C96.4,191 95.7,192.4 95.5,192.8Z" style="fill:white;"/>
                <path id="path3425" d="M107.8,195.5C107.8,195 107.4,186.7 107.4,186.7L107.2,186.7L105.1,186.8L105.5,196.9L111.7,196.6L111.6,195.3C111.6,195.4 108.2,195.5 107.8,195.5Z" style="fill:white;fill-rule:nonzero;"/>
                <path id="path3427" d="M118.4,194.5C118.3,194 117,185.8 117,185.8L116.8,185.8L114.7,186.1L116.3,196.1L122.4,195.1L122.2,193.9C122.2,193.9 118.8,194.4 118.4,194.5Z" style="fill:white;fill-rule:nonzero;"/>
                <path id="path3429" d="M141.7,185.9C141.7,187.2 140.9,188.3 139.7,188.8C139.033,189.067 138.367,189.067 137.7,188.8C136.7,188.4 135.9,187.5 135.4,186.2C134.8,184.8 134.8,183.6 135.1,182.6C135.433,181.933 136.033,181.433 136.9,181.1C138,180.6 139,181.2 139.9,181.7L140.1,181.8L140.7,180.8L140.5,180.7C139.1,179.8 137.5,179.6 136.1,180.2C134.7,180.7 133.7,181.7 133.1,183C132.6,184.3 132.6,185.8 133.2,187.2C134.2,189.9 137.2,191.2 139.9,190.1C141.767,189.367 142.767,188 142.9,186L143,185.7L141.7,185.6L141.7,185.9Z" style="fill:white;fill-rule:nonzero;"/>
                <path id="path3431" d="M149.6,183.8C149.4,183.3 145.3,176 145.3,176L145.1,176.2L143.3,177.2L148.2,186L153.6,183L153,181.9C153,181.9 150,183.5 149.6,183.8Z" style="fill:white;fill-rule:nonzero;"/>
                <path id="path3433" d="M157.2,168.2L157,168.3L156.1,168.9L160.4,174.7C160.667,175.1 160.767,175.5 160.7,175.9C160.6,176.6 160,177.1 159.7,177.3C159.4,177.5 158.9,177.7 158.4,177.6C157.933,177.533 157.567,177.3 157.3,176.9L153.1,171.2L151.2,172.6L155.4,178.2C155.933,179 156.6,179.467 157.4,179.6C158.6,179.8 159.8,179.1 160.4,178.6C162.4,177.2 162.4,175.3 161.6,174.1L157.2,168.2Z" style="fill:white;fill-rule:nonzero;"/>
                <path id="path3435" d="M171.7,167.3C171.7,168.1 171.3,168.867 170.5,169.6L167.4,172.7L160.4,165.4L163.5,162.5C165.2,160.8 166.9,161.6 167.5,162.3C168,162.8 168.2,163.4 168.2,164C168.2,164.2 168.167,164.433 168.1,164.7C169.1,164.3 170.1,164.5 170.9,165.3C171.5,165.9 171.7,166.5 171.7,167.3ZM165.9,164C165.167,163.2 164.3,163.233 163.3,164.1C163.3,164.1 163,164.4 162.9,164.6C163.1,164.9 164.8,166.6 165,166.9C165.3,166.6 165.8,166.2 165.8,166.2C166,165.9 166.4,165.5 166.4,165C166.4,164.7 166.2,164.3 165.9,164ZM169.2,169.4C169.6,168.933 169.833,168.5 169.9,168.1C169.9,167.7 169.7,167.3 169.3,166.9C169.2,166.9 168,165.6 166.7,166.8C166.7,166.8 166.1,167.4 165.8,167.7C166.1,168 168,169.9 168.3,170.2C168.5,170 169.2,169.4 169.2,169.4Z" style="fill:white;"/>
                <path id="path3437" d="M58.2,35.7L54,36.9L54.5,38.4C55,40.2 54.5,42.2 53.1,43.4C52.3,44.133 51.367,44.467 50.3,44.4C48.8,44.3 47.1,43.3 45.7,41.7C44.1,39.8 43.3,38.1 43.4,36.5C43.4,35.4 44,34.5 45,33.6C46.1,32.6 47.6,32.6 49.5,33L51,33.3L51.9,29.2L50.5,28.9C47.3,28.1 44.1,28.9 41.7,30.9C37.2,34.9 36.8,41.4 40.9,46.1C44.6,50.4 51.2,50.9 55.5,47.2C58.6,44.5 59.7,41 58.6,37.2L58.2,35.7Z" style="fill:rgb(219,161,17);fill-rule:nonzero;"/>
                <path id="path3439" d="M69.7,14.5L65.4,16.5C65.4,16.5 67.8,21.7 68.6,23.4C67.4,24 66.2,24.6 65,25.1C64.1,23.4 61.7,18.3 61.7,18.3L56,21L64.7,39.3L70.4,36.7C70.4,36.7 67.7,31 66.8,29.1C68.1,28.6 69.3,28 70.5,27.4C71.4,29.2 74.1,34.9 74.1,34.9L79.7,32.2L71.1,13.9L69.7,14.5Z" style="fill:rgb(219,161,17);fill-rule:nonzero;"/>
                <path id="path3441" d="M89,25.9C88.733,24.5 88.433,23.133 88.1,21.8C89.9,21.4 94.6,20.5 94.6,20.5L93.8,16.4C93.8,16.4 89.1,17.3 87.3,17.7C87.1,16.4 86.9,15.4 86.6,14.1C88.4,13.8 93.4,12.8 93.4,12.8L92.6,8.7L79.6,11.3L83.6,31.2L96.7,28.6L95.9,24.5C95.9,24.5 90.8,25.5 89,25.9Z" style="fill:rgb(219,161,17);fill-rule:nonzero;"/>
                <path id="path3443" d="M107.6,8.2L101.3,8.1L101.2,9.6L100.8,28.4L114.1,28.7L114.2,24.3C114.2,24.3 109.1,24.2 107.2,24.1C107.3,21.6 107.6,8.2 107.6,8.2Z" style="fill:rgb(219,161,17);fill-rule:nonzero;"/>
                <path id="path3445" d="M128,18.5C126.4,17.3 125.9,16.8 126.1,16.1C126.1,15.8 126.5,14.7 127.7,15C128.4,15.2 129.1,15.5 129.4,17.1L129.7,18.7L133.9,17.3L133.7,16C133.1,13.4 131,11.3 128.2,10.6C126.3,10.1 124.3,10.4 122.7,11.3C121.2,12.2 120.2,13.6 119.8,15.3C118.7,19.4 121.5,21.4 123.4,22.8C125.3,24.1 125.8,24.7 125.5,25.8C125.433,26.133 125.233,26.4 124.9,26.6C124.5,26.9 124,26.9 123.6,26.8C122.6,26.6 122.2,26.1 121.8,24.8L121.3,23.3L117.1,25L117.5,26.3C118.3,28.9 120.1,30.5 123.2,31.3C126.6,32.1 130.8,30.5 131.8,26.4C132.9,22.1 130,19.9 128,18.5Z" style="fill:rgb(219,161,17);fill-rule:nonzero;"/>
                <path id="path3447" d="M143,29.3C144.6,30.1 148.9,32.3 148.9,32.3L150.8,28.5C150.8,28.5 146.5,26.4 144.9,25.6C145.5,24.4 146,23.5 146.6,22.3C148.2,23.2 152.8,25.5 152.8,25.5L154.7,21.8L142.8,15.8L142.1,17.1L133.6,33.9L145.6,40L147.5,36.2C147.5,36.2 142.8,33.9 141.1,33.1C141.767,31.833 142.4,30.567 143,29.3Z" style="fill:rgb(219,161,17);fill-rule:nonzero;"/>
                <path id="path3449" d="M166.6,31.2L147.7,41L151.3,44.2C151.3,44.2 154.4,42.5 155.5,41.9C156.4,42.6 157.6,43.7 158.5,44.5C158.1,45.7 156.9,49.1 156.9,49.1L161.9,53.4L170,29.5L166.6,31.2Z" style="fill:rgb(219,161,17);fill-rule:nonzero;"/>
                <path id="path3451" d="M57.5,37L55.3,37.6L55.4,38.1C56.1,40.3 55.5,42.7 53.7,44.2C52.7,45.067 51.567,45.467 50.3,45.4C48.4,45.3 46.5,44.2 44.9,42.4C43.1,40.3 42.2,38.3 42.4,36.5C42.467,35.1 43.1,33.867 44.3,32.8C45.9,31.4 48,31.7 49.7,32L50.2,32.1L50.7,30L50.2,29.9C47.4,29.2 44.5,29.9 42.4,31.7C38.3,35.3 37.9,41.2 41.6,45.4C45,49.3 51,49.8 54.8,46.4C57.6,43.9 58.6,40.9 57.6,37.5L57.5,37Z" style="fill:white;fill-rule:nonzero;"/>
                <path id="path3453" d="M70.1,15.4L66.7,17C66.7,17 69.6,23.1 70,23.9C69.2,24.2 65.2,26.2 64.5,26.5C64.1,25.7 61.2,19.6 61.2,19.6L57.4,21.4L65.2,38L69,36.2C69,36.2 65.9,29.5 65.5,28.6C66.2,28.3 70.3,26.4 71,26.1C71.4,26.9 74.5,33.6 74.5,33.6L78.4,31.8L70.6,15.2L70.1,15.4Z" style="fill:white;fill-rule:nonzero;"/>
                <path id="path3455" d="M88.2,27.1C88,26.3 87.1,21.8 87,21C87.8,20.8 93.4,19.7 93.4,19.7L93,17.6C93,17.6 87.4,18.7 86.5,18.9C86.4,18.1 85.6,14.1 85.4,13.3C86.3,13.2 92.2,12 92.2,12L91.8,9.9L80.8,12.1L84.4,30L95.5,27.8L95.1,25.7C95.1,25.7 89,26.9 88.2,27.1Z" style="fill:white;fill-rule:nonzero;"/>
                <path id="path3457" d="M106.5,9.2L102.3,9.1L102.3,9.6L101.9,27.4L113.1,27.6L113.1,25.3C113.1,25.3 107.1,25.1 106.2,25.1C106.2,24.2 106.5,9.2 106.5,9.2Z" style="fill:white;fill-rule:nonzero;"/>
                <path id="path3459" d="M127.9,14C129.3,14.3 130.1,15.2 130.4,16.8L130.5,17.4L132.7,16.7L132.7,16.2C132.2,14 130.3,12.2 128,11.6C126.3,11.1 124.6,11.4 123.2,12.2C122,12.9 121.1,14.1 120.8,15.5C119.9,19 122.2,20.6 124,21.9C125.8,23.3 127,24.2 126.5,26C126.3,26.8 125.8,27.3 125.4,27.5C124.8,27.9 124,28 123.4,27.8C122,27.5 121.3,26.8 120.8,25.1L120.6,24.6L118.3,25.6L118.5,26C119.1,28.2 120.8,29.6 123.4,30.3C126.4,31 130,29.7 130.9,26.2C131.8,22.5 129.4,20.7 127.4,19.3C125.7,18 124.7,17.2 125.1,15.9C125.4,14.7 126.4,13.6 127.9,14Z" style="fill:white;fill-rule:nonzero;"/>
                <path id="path3461" d="M146.1,21C146.9,21.4 152.3,24.1 152.3,24.1L153.3,22.2L143.3,17.2L143,17.6L135,33.5L145.1,38.6L146.1,36.7C146.1,36.7 140.6,33.9 139.8,33.5C140.1,32.8 142.2,28.7 142.6,27.9C143.4,28.3 148.5,30.9 148.5,30.9L149.4,29C149.4,29 144.3,26.4 143.6,26C143.9,25.3 145.8,21.7 146.1,21Z" style="fill:white;fill-rule:nonzero;"/>
                <path id="path3463" d="M168.2,31.6L161.4,51.7L158.1,48.7C158.1,48.7 159.5,44.7 159.7,44.1C159.2,43.8 156.1,41.1 155.7,40.7C155.2,41 151.4,42.9 151.4,42.9L149.4,41.2L167.1,32.1L168.2,31.6ZM160.3,42C160.7,41.1 161.4,38.8 161.9,37.5C160.6,38.1 158.5,39.2 157.7,39.7C158.3,40.3 159.7,41.4 160.3,42Z" style="fill:white;"/>
                <path id="path3465" d="M148.9,112.1C152.2,107.6 146.4,103.2 143.5,105.4C138.5,109.1 149.2,112.8 149.2,122.5C149.2,132.8 132.6,131.6 127.5,125.6C127.5,127.8 132.8,139.3 142.7,134.7C131.4,147 139.8,159.5 134,159.5C131,159.5 131.2,162.4 131.2,162.4C131.2,162.4 128.9,161.7 129,159.4C127.3,159.4 124.9,159.9 124.8,163.2C124.8,163.2 122.8,162.7 122.9,159.4C119.7,159.3 117.2,160 117.2,162.7C117.2,162.7 115.2,161.2 115.4,158.8C114.2,157.4 113.8,151.1 124.3,151.6C127.2,151.8 127.9,144.3 125.9,142.1C124.6,142 119.7,141.9 115.2,133.3C113,133.3 106.7,135.7 106.7,139.2C106.7,143.1 113.7,144.1 113.7,144.1C99.6,146.8 108.3,156.3 99,157.9C95.3,158.6 96.2,161.8 96.2,161.8C96.2,161.8 92.9,160.7 92.9,157.9C90.8,157.9 88.5,159.2 88.5,162.6C88.5,162.6 85.9,161.8 85.9,157.9C82,157.9 80.9,159.7 81.4,161.8C81.4,161.8 78.5,160.5 79.3,156.8C77.5,152.3 79.9,148.4 89.5,149.5C96.1,150.4 96.3,140 96.3,138.6C85.2,133.8 101.2,119.9 108.5,117.5L105,111.6C105,111.6 99,118.7 92,120.5C90.9,118.3 87.2,118 84.5,119.3C83.6,119.8 82.8,120.4 82.2,121.3C82.2,121.3 81.2,122.4 81.5,124.2L81,124.2C80.667,124.133 80.367,124.033 80.1,123.9L80.1,137.5L81.4,137.5L81.4,141.8L79.2,141.8C80.4,142.3 81.2,143.3 81.3,144.5C81.5,146.4 80,147.9 78.1,148.1C76.2,148.2 74.5,146.9 74.4,145.1C74.3,143.6 75.1,142.3 76.5,141.8L74.1,141.8L74.1,137.5L75.4,137.5L75.4,122.1C75.4,122.1 74.3,121 74.3,118.2C74.3,118.2 74.6,115.9 73,117.5C73,117.5 70.7,117.6 72.5,115.3C72.5,115.3 73.1,113 71.7,114.1C71.6,108.8 72.8,111.5 72.8,111.5C73.2,110.6 74,109.6 75.4,108.8L75.4,88.6C75,88.5 74.6,88.4 74.1,88.2C72.6,87.8 72.4,86.1 72.6,85.1C70.3,82.4 72,82 72.7,80.7C71.9,79.7 71.4,79.1 71.9,77.6C72.4,76 73.5,75.5 75.3,75.2L75.4,75.2L75.4,74L74.9,74C74.9,73.933 74.867,73.9 74.8,73.9C74.667,73.9 74.533,73.867 74.4,73.8L74.3,73.8C74.033,73.733 73.8,73.633 73.6,73.5L73.5,73.5C73.367,73.5 73.267,73.467 73.2,73.4L73.1,73.4C73.033,73.333 72.967,73.267 72.9,73.2L72.8,73.2C72.733,73.2 72.7,73.167 72.7,73.1L72.6,73.1C72.533,73.033 72.467,73 72.4,73C72.7,73 73.8,72.6 75.1,71.8C71.4,70.8 68.5,67.7 68.1,63.7C67.7,58.7 71.6,54.3 76.9,53.8C79.1,53.7 81.2,54.2 83,55.3C83.2,55.433 83.367,55.533 83.5,55.6C83.567,55.667 83.6,55.7 83.6,55.7C83.8,55.833 83.967,55.967 84.1,56.1C84.1,56.1 84.133,56.133 84.2,56.2C84.467,56.4 84.733,56.633 85,56.9C85.067,56.967 85.133,57.033 85.2,57.1C85.267,57.233 85.333,57.367 85.4,57.5C85.467,57.567 85.567,57.667 85.7,57.8C85.767,57.867 85.833,57.967 85.9,58.1C85.967,58.233 86.033,58.367 86.1,58.5C86.167,58.567 86.233,58.667 86.3,58.8C86.433,59 86.533,59.233 86.6,59.5C86.667,59.567 86.7,59.633 86.7,59.7C86.833,59.9 86.9,60.1 86.9,60.3C86.967,60.367 87,60.433 87,60.5C87.067,60.7 87.133,60.9 87.2,61.1L87.2,61.4C87.267,61.667 87.3,61.933 87.3,62.2C87.6,64.6 86.8,66.9 85.3,68.6C83.5,71 81.7,72.4 80.1,73.2L80.1,75.2C81.2,75.6 82.5,76.5 84.1,78C87.9,81.6 94.5,82.3 98.6,82.5C101.4,79.7 102.5,75.2 102.5,75.2C99.6,74.2 98.5,70.1 100.4,68.2C100.4,71 108.5,71.1 108.5,65C108.5,64.1 110,60.8 107.1,61.3C109.4,56.6 110.6,58.3 112.1,58.1C110.1,55.4 113.4,54.7 114.7,54.7C114.3,61.4 131.1,59.5 132.1,59.8C133.4,63.1 135.2,61.8 136.5,64.5L135.3,66.5L134,66L134.1,67.6C133,68.6 132.4,69.4 132,70.1C131.5,70.8 131.7,69.9 131.2,70.6C131.3,69.8 130.9,70.7 130.4,70.3C130.1,70.1 129.5,70 128.6,70C127,70 126.1,71.3 125.5,72.4C125,73.3 125.4,75.8 129.7,74.4C129.1,76.2 129.3,78.2 129.7,81.2C129.3,79.4 121.4,74.9 121.4,83.4C121.4,89.7 128.3,89.9 128.3,86.6C133.6,93.3 125.5,97.7 122.4,95.9L122.1,99.7C127.4,105.4 122,124.2 137.3,124.2C139.7,124.2 141.4,122.2 141.6,120.6C142.6,111.5 132.6,110.6 132.6,100.6C132.6,91.6 145.1,88 145.1,82.7C145.1,77.3 138,78.2 138,82.7C135.1,72.7 154.7,68.9 154.7,82.7C154.7,90.9 142.1,92.8 139,101.7C140.1,100.2 141.7,99 143.6,98.3C148.3,96.5 153.3,98.2 154.8,102C156.2,105.8 153.6,110.4 148.9,112.1ZM98.9,97.9C98.3,96.6 97.5,95.1 96.7,95.2C95.1,98.6 87.6,100.6 85.4,96.5C88.8,95.8 88.8,92.7 86.1,91.2C83.4,90.1 81,89.7 80.1,89.6L80.1,108.7C80.5,108.8 80.9,108.7 81.4,108.5C84.8,107.3 87.3,104.5 91.1,102.3C95.7,99.6 97.9,98.5 98.9,97.9ZM137,71.8C139.1,71.6 140.8,70.4 141.1,69L141.1,69.3C141.4,72 139.4,74.4 136.7,74.6C134.7,74.8 132.9,73.8 132,72.3C132.3,71.8 132.7,71.2 133.1,70.7C134,71.5 135.4,71.9 137,71.8Z" style="fill:rgb(209,211,212);"/>
                <path id="path3467" d="M71.1,136.5C72.1,136.5 74.6,135.9 74.6,135.4L74.6,117.2C73.4,117.2 72.4,119.1 72.4,119.1C72.4,117.4 73.1,116 73.5,115.6C72.9,115 71.2,115.2 71.2,115.2C71.2,115.2 70.6,115.2 69,116.8C69,115.1 70.9,113 71.3,112.6C71.3,112.6 70.6,112.2 69.5,112.2C69.5,112.2 68.4,112.2 67,113.3C67,111.9 69.1,109.5 70.5,109.5C70.5,107.7 75.7,107.7 78,107.7C83.5,107.7 102.5,95.6 102.5,95.6C97.8,95.6 95.9,94.9 95.9,94.9C95.2,93.5 94.5,92.1 93.7,92.2C92.1,95.6 84.5,97.6 82.4,93.4C84.2,94 86,93.3 86.4,91.9C86.9,90.5 85.7,88.9 83.9,88.4C83.633,88.267 83.367,88.2 83.1,88.2L83.1,88.1C80.3,87 78,86.7 77.1,86.6L77.1,105.7C76.3,105.6 75.4,105.5 74.6,105.5L74.6,88.1C74.6,86.3 73.3,85.5 72.4,85.5C72,85.5 71.6,85.4 71.1,85.2C69.6,84.7 69.4,83.1 69.6,82.1C67.2,79.4 69,78.9 69.7,77.7C68.9,76.6 68.4,76.1 68.9,74.5C69.4,73 70.5,72.5 72.2,72.2C72.267,72.2 72.333,72.167 72.4,72.1C72.8,72.6 74.4,73.1 74.6,73.1L74.6,70.8C74.6,70.8 73.4,71.1 72.4,71C72.2,71 72.033,70.967 71.9,70.9L71.8,70.9C71.667,70.833 71.533,70.8 71.4,70.8L71.3,70.8C71.033,70.733 70.767,70.633 70.5,70.5L70.4,70.5C70.333,70.433 70.267,70.4 70.2,70.4C70.133,70.333 70.1,70.3 70.1,70.3C70.033,70.3 69.933,70.267 69.8,70.2C69.733,70.133 69.667,70.1 69.6,70.1C69.533,70.033 69.467,70 69.4,70C69.7,70 70.8,69.5 72.1,68.8L72,68.8C69.2,67.4 67.2,64 67.2,60C67.2,55.8 69.4,52.2 72.5,51C72.967,50.933 73.433,50.867 73.9,50.8C76.1,50.6 78.2,51.2 79.9,52.2L79.9,52.3C80.1,52.367 80.3,52.467 80.5,52.6C80.5,52.667 80.533,52.7 80.6,52.7C80.733,52.833 80.9,52.967 81.1,53.1C81.433,53.367 81.7,53.633 81.9,53.9C81.967,53.967 82.333,54.333 82.4,54.4C82.467,54.533 82.533,54.633 82.6,54.7C82.667,54.833 82.767,54.967 82.9,55.1C82.967,55.233 83.033,55.367 83.1,55.5C83.167,55.567 83.233,55.633 83.3,55.7C83.433,55.967 83.533,56.2 83.6,56.4C83.667,56.533 83.7,56.633 83.7,56.7C83.767,56.833 83.833,57 83.9,57.2C83.967,57.333 84,57.433 84,57.5C84.067,57.7 84.1,57.9 84.1,58.1C84.167,58.167 84.2,58.233 84.2,58.3C84.267,58.633 84.3,58.933 84.3,59.2C84.5,61.6 83.7,63.8 82.3,65.6C80.5,67.9 78.7,69.3 77.1,70.1L77.1,74C77.1,74 79.7,74.9 82.9,76.3C83.767,76.833 84.667,77.3 85.6,77.7C90.8,80.4 96.2,84.6 94.4,89.6C99.5,89.6 99.1,83 98,81.9C99.7,80.2 103,72.7 103,71.3C103,71.3 96.3,69.9 97.4,65.2C97.5,66.3 98.8,67 100.4,67C111.1,67 107.3,53.2 101.5,59C103.9,54.2 107.5,55.3 109.1,55.1L112,55.1C109.7,52.8 113.1,48.5 114.4,48.5C113.9,55.2 128,56.5 129.1,56.8C130.4,60.1 132.2,58.8 133.4,61.5L132.2,63.4L131,63L131,64.5C128.9,66.6 128.6,67.7 127.7,69C127.8,67.8 128,66.9 125.6,66.9C123.9,66.9 123.1,68.2 122.5,69.3C121.9,70.3 122.3,72.7 126.6,71.4C126.1,73.1 126.3,75.1 126.6,78.2C126.2,76.3 118.3,71.9 118.3,80.4C118.3,86.7 125.2,86.8 125.2,83.5C130.6,90.3 122.4,94.7 119.3,92.8L119.1,96.7C122.6,100.4 121.4,109.8 124.5,115.8C126.2,120.3 129.1,123.7 135.2,123.7C141.6,123.7 142.1,119 142.1,117.9C142.1,108.8 132.6,106.6 132.6,98C132.6,89.5 145.5,86 145.5,79.8C145.5,72.4 135.4,73.6 134.9,79.2L134.9,79.7C132.1,69.7 151.7,65.8 151.7,79.6C151.7,87.9 139,89.8 135.9,98.7C137,97.2 138.6,96 140.6,95.2C145.3,93.5 150.3,95.1 151.7,98.9C153.2,102.8 150.5,107.3 145.8,109.1C147.6,108.4 148.9,106.6 148.9,104.5C148.9,101.8 146.7,99.7 144,99.7C141.5,99.7 139.4,101.6 139.1,104.1C138.5,107.4 146.2,111.3 146.2,119.5C146.2,129.7 129.6,128.5 124.4,122.6C124.4,124.8 129.7,136.3 139.7,131.7C128.4,144 136.8,156.5 131,156.5C127.9,156.5 128.2,159.4 128.2,159.4C127.4,158.6 126.9,156.9 127.4,156.4L126,156.4C124.3,156.3 121.9,156.9 121.8,160.1C120.9,159.3 120.8,157.2 121.6,156.4L119.9,156.4C116.7,156.2 114.1,157 114.1,159.6C113.5,159 113,156.6 113.9,155.7L112.3,155.7C112.3,150.9 115.6,149.8 123.9,149.8C123.9,149.8 130.7,141.1 125.3,135.7C123.9,135.7 117.5,136 116.9,130.4C115.5,130.1 113.9,130.1 112.2,130.3C110,130.3 103.6,132.7 103.6,136.2C103.6,140 110.6,141.1 110.6,141.1C96.5,143.7 105.3,153.3 96,154.9C92.3,155.5 93.1,158.7 93.1,158.7C92,157.6 91.2,155.4 91.7,154.9L89.9,154.9C87.8,154.9 85.5,156.1 85.4,159.5C84.7,158.8 83.8,156.4 85.4,154.8L82.9,154.8C78.9,154.8 77.9,156.6 78.3,158.8C78.3,158.8 76.4,155.8 78.5,153.7L76.3,153.7C76.3,147 81.1,148.2 87.2,148.2C91.1,148.2 96.8,143.3 96.8,135.1C96.8,135.1 93,133.6 93,129.8C93,120.8 114.7,119.7 114.7,112.3C114.7,109.2 112.1,107.9 110.2,107.9C110.7,108.4 113.6,114.5 105.5,114.5L102,108.6C102,108.6 96,115.6 89,117.5C87.9,115.3 84.2,114.9 81.4,116.3C80.5,116.7 79.7,117.4 79.2,118.2C79.2,118.2 78.1,119.4 78.5,121.2C78.5,121.2 76.6,119.5 77.4,117.8C76.9,117.5 76.1,117.3 75.3,117.3C75.1,118.7 75.8,120.2 77,120.8L77,134.5L78.3,134.5L78.4,138.7L76.2,138.8C77.3,139.2 78.1,140.2 78.3,141.5C78.4,143.3 77,144.9 75.1,145.1C73.2,145.2 71.5,143.9 71.3,142L71.3,141.9C71.6,142.7 72.4,143.3 73.4,143.3C74.5,143.3 75.5,142.4 75.5,141.2C75.5,140 74.5,139.1 73.4,139.1C73.133,139.1 72.867,139.133 72.6,139.2C72.867,139 73.133,138.867 73.4,138.8L71.1,138.8M145.8,109.1L145.8,109.1ZM83.1,88.2L83.2,88.2L83.1,88.2ZM83.1,88.2L83.1,88.2ZM79.4,60.1C79.4,58.2 77.8,56.6 75.8,56.6C74.2,56.6 72.9,57.7 72.4,59.1L72.4,59.2C72.333,59.467 72.3,59.767 72.3,60.1C72.3,62.1 73.9,63.7 75.8,63.7L75.9,63.7C76.1,64.5 76.2,65.5 75.9,66.1C77.8,64.5 79.4,62.4 79.4,60.1ZM72.4,59.2L72.4,59.2ZM72.4,59.2L72.4,59.2ZM72.4,59.2L72.4,59.2ZM75.1,82.8C75.1,82.6 72.9,82.1 71.8,82.1C71.3,82.1 71.1,82.8 71.1,83C71.1,83.2 71.4,83.8 71.8,83.8C72.9,83.8 75.1,83.1 75.1,82.8ZM75.8,80C75.8,79.7 72.8,78.6 71.3,78.5C70.6,78.4 70.3,79.3 70.3,79.6C70.3,79.9 70.5,80.7 71.1,80.8C72.6,80.9 75.8,80.3 75.8,80ZM76,77C76.1,76.7 73.1,74.9 71.5,74.5C70.8,74.3 70.3,75.2 70.2,75.5C70.1,75.8 70.2,76.8 70.9,76.9C72.5,77.4 75.9,77.3 76,77ZM72.5,59.1C72.433,59.167 72.4,59.2 72.4,59.2C72.467,59.133 72.5,59.1 72.5,59.1ZM72.6,58.9L72.6,58.9ZM72.5,59.1C72.5,59.033 72.533,58.967 72.6,58.9C72.533,58.967 72.5,59.033 72.5,59.1ZM72.4,59.2L72.4,59.2ZM72.6,139.2L72.6,139.2Z" style="fill:rgb(0,20,137);"/>
                <path id="path3469" d="M128.9,69.2C129.9,70.8 131.7,71.8 133.6,71.6C136.3,71.3 138.3,68.9 138.1,66.2C138.1,66.133 138.067,66.033 138,65.9C137.8,67.3 136.1,68.5 134,68.7C132.4,68.9 130.9,68.4 130.1,67.6C129.7,68.2 129.3,68.7 128.9,69.2Z" style="fill:rgb(255,0,0);fill-rule:nonzero;"/>
                <path id="path3471" d="M122.3,60L124,60.1L123.2,61.3C123.2,61.3 122,61.7 122.3,60ZM118.2,60L120.7,60C120.7,60 120.6,62 122.4,62.2L122,62.8C122,62.8 117.2,61.6 118.2,60Z" style="fill:white;fill-rule:nonzero;"/>
                <path id="path3473" d="M70.9,76.9C70.2,76.8 70.1,75.8 70.2,75.5C70.3,75.2 70.8,74.3 71.5,74.5C73.1,74.9 76.1,76.7 76,77C75.9,77.3 72.5,77.4 70.9,76.9ZM71.1,80.8C70.5,80.7 70.3,79.9 70.3,79.6C70.3,79.3 70.6,78.4 71.3,78.5C72.8,78.6 75.8,79.7 75.8,80C75.7,80.3 72.6,80.9 71.1,80.8ZM74.6,70.8L74.6,73.1C74.4,73.1 72.8,72.6 72.4,72.1L72.4,71C73.4,71.1 74.6,70.8 74.6,70.8ZM75.1,82.8C75.1,83.1 72.9,83.8 71.8,83.8C71.4,83.8 71.1,83.2 71.1,83C71.1,82.8 71.3,82.1 71.8,82.1C72.9,82.1 75.1,82.6 75.1,82.8ZM71.3,112.6C70.9,113 69,115.1 69,116.8C69,116.8 67.7,114.6 69.5,112.2C70.6,112.2 71.3,112.6 71.3,112.6ZM96.8,135.1C96.8,143.3 91.1,148.2 87.2,148.2C81.1,148.2 76.3,147 76.3,153.7C74.5,149.3 76.9,145.3 86.4,146.5C93.1,147.3 93.3,137 93.3,135.6C82.2,130.8 98.1,116.9 105.5,114.5C113.6,114.5 110.7,108.4 110.2,107.9C112.1,107.9 114.7,109.2 114.7,112.3C114.7,119.7 93,120.8 93,129.8C93,133.6 96.8,135.1 96.8,135.1ZM65.1,60.7C64.7,56.1 67.9,52 72.5,51C69.4,52.2 67.2,55.8 67.2,60C67.2,64 69.2,67.4 72,68.8C68.3,67.7 65.4,64.6 65.1,60.7ZM100.4,67C102.7,67 105.5,65.6 105.5,62C105.5,61.1 104.5,58.4 101.5,59C107.3,53.2 111.1,67 100.4,67ZM85.6,77.7C89,79 92.8,79.3 95.6,79.4C98.4,76.6 99.5,72.2 99.5,72.2C96.6,71.2 95.5,67.1 97.3,65.2L97.4,65.2C96.3,69.9 103,71.3 103,71.3C103,72.7 99.7,80.2 98,81.9C99.1,83 99.5,89.6 94.4,89.6C96.2,84.6 90.8,80.4 85.6,77.7ZM72.4,59.2C72.9,57.7 74.2,56.6 75.8,56.6C77.8,56.6 79.4,58.2 79.4,60.1C79.4,62.4 77.8,64.5 75.9,66.1C76.2,65.5 76.1,64.5 75.9,63.7L75.8,63.7C73.9,63.7 72.3,62.1 72.3,60.1C72.4,61.4 73.6,62.3 74.9,62.2C76.2,62.1 77.2,61 77.1,59.8C77,58.5 75.8,57.6 74.5,57.7C73.5,57.7 72.7,58.4 72.4,59.2ZM109.1,55.1C107.1,52.4 113,48.5 114.4,48.5C113.1,48.5 109.7,52.8 112,55.1L109.1,55.1ZM70.5,109.5C69.1,109.5 67,111.9 67,113.3C67,108.1 69.8,108.4 69.8,108.4C70.2,107.5 70.9,106.5 72.4,105.8L72.4,85.5C73.3,85.5 74.6,86.3 74.6,88.1L74.6,105.5C75.4,105.5 76.3,105.6 77.1,105.7C77.4,105.7 77.8,105.7 78.3,105.5C81.8,104.3 84.3,101.5 88,99.3C92.7,96.5 94.8,95.4 95.9,94.9C95.9,94.9 97.8,95.6 102.5,95.6C102.5,95.6 83.5,107.7 78,107.7C75.7,107.7 70.5,107.7 70.5,109.5ZM77.1,72.1C78.2,72.6 79.5,73.4 81.1,75C81.633,75.467 82.233,75.9 82.9,76.3C79.7,74.9 77.1,74 77.1,74L77.1,72.1ZM83.1,88.2C83.367,88.2 83.633,88.233 83.9,88.3C85.7,88.9 86.9,90.5 86.4,91.9C86,93.3 84.2,94 82.4,93.4C85.8,92.7 85.8,89.7 83.1,88.2ZM123.9,149.7C115.6,149.7 112.3,150.9 112.3,155.7C111.1,154.4 110.8,148 121.3,148.6C124.2,148.7 124.8,141.2 122.8,139C121.6,138.9 116.7,138.9 112.2,130.3C113.9,130 115.5,130.1 116.9,130.4C117.5,135.9 123.9,135.7 125.3,135.7C130.7,141.1 123.9,149.7 123.9,149.7ZM128.2,159.4C128.2,159.4 125.9,158.7 126,156.4L127.4,156.4C126.9,156.9 127.4,158.6 128.2,159.4ZM112.3,155.7L113.9,155.7C113,156.6 113.5,159 114.1,159.6C114.1,159.6 112.2,158.2 112.3,155.7ZM132.6,97.9C132.6,106.6 142.1,108.8 142.1,117.9C142.1,119 141.6,123.7 135.2,123.7C129.1,123.7 126.2,120.2 124.5,115.8C126.2,118.9 129,121.2 134.2,121.2C136.7,121.2 138.3,119.1 138.5,117.5C139.5,108.4 129.6,107.5 129.6,97.5C129.6,88.5 142.1,85 142.1,79.6C142.1,74.5 135.4,75.1 134.9,79.2C135.4,73.6 145.5,72.4 145.5,79.8C145.5,86 132.6,89.5 132.6,97.9ZM73.5,115.6C73.1,116 72.4,117.4 72.4,119.1C72.4,119.1 71.2,118 71.2,115.2C71.2,115.2 72.9,115 73.5,115.6ZM148.9,104.5C148.9,106.6 147.6,108.3 145.8,109.1C149.1,104.5 143.4,100.2 140.4,102.3C139.7,102.9 139.3,103.5 139.1,104.1C139.4,101.6 141.5,99.6 144,99.6C146.7,99.6 148.9,101.8 148.9,104.5ZM121.8,160.1C121.8,160.1 119.7,159.6 119.9,156.4L121.6,156.4C120.8,157.2 120.9,159.2 121.8,160.1ZM75.5,141.2C75.5,142.4 74.6,143.3 73.4,143.3C72.4,143.3 71.6,142.7 71.3,141.8C71.3,140.8 71.8,139.8 72.6,139.2C72.867,139.133 73.133,139.1 73.4,139.1C74.6,139.1 75.5,140 75.5,141.2ZM85.4,159.5C85.4,159.5 82.9,158.8 82.9,154.8L85.4,154.8C83.8,156.4 84.7,158.8 85.4,159.5ZM77.4,117.8C76.6,119.4 78.5,121.2 78.5,121.2L78.3,121.2C78.167,121.2 78.033,121.167 77.9,121.1C77.633,121.033 77.333,120.933 77,120.8C75.8,120.2 75.1,118.7 75.3,117.3C76.1,117.3 76.9,117.5 77.4,117.8ZM71.1,136.4L71,134.5L72.4,134.5L72.4,119.1C72.4,119.1 73.4,117.2 74.6,117.2L74.6,135.4C74.6,135.9 72.1,136.4 71.1,136.4ZM76.3,153.7L78.5,153.7C76.4,155.8 78.3,158.8 78.3,158.8C78.3,158.8 75.4,157.5 76.3,153.7ZM93.1,158.7C93.1,158.7 89.9,157.7 89.9,154.9L91.7,154.9C91.2,155.4 92,157.6 93.1,158.7Z" style="fill:rgb(106,122,181);"/>
                <path id="path3477" d="M31.4,124.7L31.3,124.4L31.3,124C31.1,122.7 30.8,120.2 28.9,119.8C28.367,119.667 27.833,119.733 27.3,120C27.433,119.4 27.433,118.867 27.3,118.4C26.6,116.6 24.1,116.6 22.8,116.6L22,116.6C20.7,116.3 18.3,115.9 17.3,117.5C17.033,117.967 16.933,118.5 17,119.1C16.533,118.767 16.033,118.6 15.5,118.6C13.6,118.7 12.8,121.1 12.4,122.3L12.3,122.7L12.1,123C11.5,124.2 10.3,126.3 11.6,127.8C11.933,128.2 12.4,128.467 13,128.6C12.533,129 12.233,129.433 12.1,129.9C11.6,131.8 13.6,133.2 14.6,133.9L15,134.2L15.2,134.5C16.1,135.4 17.8,137.2 19.6,136.4C20.067,136.2 20.467,135.867 20.8,135.4C21,135.933 21.3,136.333 21.7,136.6C23.4,137.7 25.3,136.2 26.4,135.4L26.7,135.2L27.1,135C28.2,134.5 30.5,133.4 30.3,131.5C30.233,130.967 30,130.5 29.6,130.1C30.2,130.033 30.7,129.833 31.1,129.5C32.6,128.3 31.9,126 31.4,124.7Z" style="fill:white;fill-rule:nonzero;"/>
                <path id="path3479" d="M23,126.3C33.8,132.7 30.4,125.6 30.2,124.6C30,123.6 29.9,115.8 23,126.3Z" style="fill:rgb(255,0,0);fill-rule:nonzero;"/>
                <path id="path3481" d="M22.3,127.9C19.6,140.1 25.2,134.8 26.1,134.2C27,133.7 34.4,131.2 22.3,127.9Z" style="fill:rgb(255,0,0);fill-rule:nonzero;"/>
                <path id="path3483" d="M20.6,127.7C8.1,128.9 14.9,132.6 15.7,133.3C16.5,134 21.1,140.2 20.6,127.7Z" style="fill:rgb(255,0,0);fill-rule:nonzero;"/>
                <path id="path3485" d="M20.2,126C15.2,114.5 13.8,122.2 13.4,123.1C12.9,124.1 8.4,130.4 20.2,126Z" style="fill:rgb(255,0,0);fill-rule:nonzero;"/>
                <path id="path3487" d="M198.4,123L198.2,122.7L198.1,122.3C197.7,121.1 197,118.7 195,118.6C194.533,118.6 194.033,118.767 193.5,119.1C193.567,118.5 193.467,117.967 193.2,117.5C192.2,115.9 189.8,116.3 188.5,116.6L187.7,116.6C186.4,116.6 183.9,116.6 183.3,118.4C183.1,118.867 183.067,119.4 183.2,120C182.667,119.733 182.133,119.667 181.6,119.8C179.8,120.2 179.4,122.7 179.3,124L179.2,124.4L179.1,124.7C178.7,126 177.9,128.3 179.4,129.5C179.8,129.833 180.3,130.033 180.9,130.1C180.5,130.5 180.267,130.967 180.2,131.5C180.1,133.4 182.3,134.5 183.5,135L184.1,135.4C185.2,136.2 187.2,137.7 188.8,136.6C189.2,136.333 189.5,135.933 189.7,135.4C190.033,135.867 190.433,136.2 190.9,136.4C192.7,137.2 194.4,135.4 195.3,134.5L195.9,133.9C196.9,133.2 198.9,131.8 198.4,129.9C198.267,129.433 198,129 197.6,128.6C198.133,128.467 198.567,128.2 198.9,127.8C200.2,126.3 199,124.2 198.4,123Z" style="fill:white;fill-rule:nonzero;"/>
                <path id="path3489" d="M188.8,125.1C179.5,116.9 187.1,117.8 188.2,117.7C189.3,117.7 196.7,115.3 188.8,125.1Z" style="fill:rgb(255,0,0);fill-rule:nonzero;"/>
                <path id="path3491" d="M187.5,126.3C176.8,132.7 180.1,125.6 180.3,124.6C180.5,123.6 180.6,115.8 187.5,126.3Z" style="fill:rgb(255,0,0);fill-rule:nonzero;"/>
                <path id="path3493" d="M188.2,127.9C190.9,140.1 185.3,134.8 184.4,134.2C183.5,133.7 176.1,131.2 188.2,127.9Z" style="fill:rgb(255,0,0);fill-rule:nonzero;"/>
                <path id="path3495" d="M189.9,127.7C202.4,128.9 195.6,132.6 194.8,133.3C194,134 189.4,140.2 189.9,127.7Z" style="fill:rgb(255,0,0);fill-rule:nonzero;"/>
                <path id="path3497" d="M190.3,126C195.3,114.5 196.8,122.2 197.2,123.1C197.6,124.1 202.1,130.4 190.3,126Z" style="fill:rgb(255,0,0);fill-rule:nonzero;"/>
                <path id="path3499" d="M192.8,126.4C192.733,126.267 192.7,126.167 192.7,126.1C193.7,125.4 194.8,124.6 194.8,124.6L194.7,124.3C194.7,124.3 193.4,124.6 192.2,124.8C191.6,123.8 190.6,123.1 189.4,123C189,121.9 188.6,120.7 188.6,120.7L188.4,120.7C188.4,120.7 188.2,121.9 188,123.1C187.3,123.3 186.6,123.7 186.1,124.3C185.9,124.633 185.7,125 185.5,125.4L183,125.4L183,125.6C183,125.6 184.2,126.2 185.3,126.7L185.3,127C185.4,128 185.8,128.9 186.6,129.5C186.2,130.8 185.7,132.1 185.7,132.1L186,132.3C186,132.3 187,131.2 187.9,130.3C188.367,130.433 188.833,130.5 189.3,130.5C189.833,130.433 190.333,130.267 190.8,130C191.8,130.8 193,131.6 193,131.6L193.2,131.5C193.2,131.5 192.5,130.2 191.9,129.1C192.6,128.3 192.8,127.4 192.8,126.4Z" style="fill:white;fill-rule:nonzero;"/>
                <path id="path3501" d="M188.8,124.5C188.2,124.6 187.7,124.8 187.3,125.3C186.9,125.7 186.8,126.3 186.8,126.9C186.9,128.1 188,129 189.2,128.9C189.8,128.9 190.3,128.6 190.7,128.1C191.1,127.7 191.3,127.1 191.2,126.5C191.1,125.3 190,124.4 188.8,124.5Z" style="fill:rgb(255,0,0);fill-rule:nonzero;"/>
                <path id="path3503" d="M21.7,125.1C31.1,116.9 23.4,117.8 22.3,117.7C21.3,117.7 13.9,115.3 21.7,125.1Z" style="fill:rgb(255,0,0);fill-rule:nonzero;"/>
                <path id="path3505" d="M25.2,126.7C26.3,126.2 27.5,125.6 27.5,125.6L27.5,125.4L25,125.4C24.867,125 24.667,124.633 24.4,124.3C23.9,123.7 23.2,123.3 22.5,123.1C22.3,121.9 22.2,120.7 22.2,120.7L21.9,120.7C21.9,120.7 21.5,121.9 21.1,123C20,123.1 18.9,123.8 18.3,124.8C17.1,124.6 15.8,124.3 15.8,124.3L15.7,124.6C15.7,124.6 16.8,125.4 17.8,126.1L17.8,126.4C17.7,127.4 18,128.3 18.6,129.1C18,130.2 17.3,131.5 17.3,131.5L17.5,131.6C17.5,131.6 18.7,130.8 19.7,130C20.167,130.267 20.667,130.433 21.2,130.5C21.667,130.5 22.167,130.433 22.7,130.3C23.6,131.2 24.6,132.3 24.6,132.3L24.8,132.1C24.8,132.1 24.3,130.8 24,129.5C24.7,128.9 25.1,128 25.2,127L25.2,126.7Z" style="fill:white;fill-rule:nonzero;"/>
                <path id="path3507" d="M23.2,125.3C22.8,124.8 22.3,124.6 21.7,124.5C20.5,124.4 19.4,125.3 19.3,126.5C19.2,127.1 19.4,127.7 19.8,128.1C20.2,128.6 20.7,128.9 21.3,128.9C22.5,129 23.6,128.1 23.7,126.9C23.8,126.3 23.6,125.8 23.2,125.3Z" style="fill:rgb(255,0,0);fill-rule:nonzero;"/>
                <path id="path3509" d="M23,73C17.8,72.1 12.8,75.6 11.8,80.9C10.9,86.1 14.4,91.1 19.7,92.1C24.9,93 30,89.5 30.9,84.2C31.8,79 28.3,73.9 23,73Z" style="fill:white;fill-rule:nonzero;"/>
                <path id="path3511" d="M25.2,80.3C25.133,80.233 25,80.167 24.8,80.1C24,79.5 22.5,78.5 22.4,78.5C22.2,78.3 22,78.133 21.8,78C21.133,77.533 20.5,77.133 19.9,76.8C19.7,76.667 19.467,76.567 19.2,76.5C18.3,76 17.4,75.7 16.4,75.6C15.6,76.2 14.9,76.933 14.3,77.8C16.7,78.7 19.1,80 24,83.1C24.2,82.4 25.2,80.4 25.2,80.3Z" style="fill:rgb(255,0,0);fill-rule:nonzero;"/>
                <path id="path3513" d="M23,85.5C23.1,85.3 23.5,84.2 23.7,83.8C18.7,80.6 16.3,79.3 13.9,78.4C13.567,79.067 13.3,79.8 13.1,80.6C14.5,82.5 18.2,84.3 23,85.5Z" style="fill:rgb(255,0,0);fill-rule:nonzero;"/>
                <path id="path3515" d="M22.4,77.6C24.3,76.5 26.4,76.8 28.1,77.4C27.5,76.533 26.767,75.833 25.9,75.3C24.3,75 22.2,75 20.5,76.3C21.1,76.7 21.733,77.133 22.4,77.6Z" style="fill:rgb(255,0,0);fill-rule:nonzero;"/>
                <path id="path3517" d="M14.9,86.6C15.167,86.733 15.433,86.9 15.7,87.1C16.3,87.367 16.9,87.633 17.5,87.9C17.767,87.967 18.033,88.033 18.3,88.1C19.2,88.4 21.4,89 21.6,89C21.6,89 22.4,87 22.7,86.2C19,85.3 14.9,83.6 12.9,81.5C12.833,82.5 12.9,83.467 13.1,84.4C13.5,85.3 14.1,86 14.9,86.6Z" style="fill:rgb(255,0,0);fill-rule:nonzero;"/>
                <path id="path3519" d="M21.7,89.8L20.9,89.6C20.167,89.4 19.4,89.2 18.6,89C19,89.8 19.6,90.5 20.3,91C21.167,91.067 22,91.033 22.8,90.9C22.2,90.4 21.7,89.8 21.7,89.8Z" style="fill:rgb(255,0,0);fill-rule:nonzero;"/>
                <path id="path3521" d="M29.5,80.1C29.3,79.5 29.067,78.933 28.8,78.4C27.3,77.7 25.1,77.1 23.1,78.1L25.8,79.8L28.1,79.8C28.633,79.867 29.1,79.967 29.5,80.1Z" style="fill:rgb(255,0,0);fill-rule:nonzero;"/>
                <path id="path3523" d="M28.1,80.6C28,85 25.9,88.4 24.1,90.6C27,89.6 29.2,87.2 29.7,84C29.9,82.9 29.9,81.9 29.7,80.9C29.233,80.767 28.7,80.667 28.1,80.6Z" style="fill:rgb(255,0,0);fill-rule:nonzero;"/>
                <path id="path3525" d="M19.8,76C21.1,74.8 22.5,74.5 23.9,74.4C23.567,74.333 23.2,74.267 22.8,74.2C20.9,73.8 19,74.2 17.3,75.1C18.2,75.2 19,75.5 19.8,76Z" style="fill:rgb(255,0,0);fill-rule:nonzero;"/>
                <path id="path3527" d="M25.9,80.6C25.3,81.9 24.9,82.7 24.6,83.5C24.467,83.7 24.367,83.9 24.3,84.1C24.2,84.5 23.7,85.7 23.7,85.7L23.4,86.4L22.2,89.3C22.6,89.8 23,90.1 23.3,90.4C25.1,88.4 27.3,85 27.4,80.5C26.933,80.5 26.433,80.533 25.9,80.6Z" style="fill:rgb(255,0,0);fill-rule:nonzero;"/>
                <path id="path3529" d="M17.7,88.7C17.1,88.5 16.533,88.267 16,88C16.2,88.6 16.5,89.2 16.8,89.7C17.4,90.1 18.1,90.433 18.9,90.7C18.4,90.1 17.9,89.5 17.7,88.7Z" style="fill:rgb(255,0,0);fill-rule:nonzero;"/>
                <path id="path3531" d="M15.1,87.5C14.7,87.233 14.3,86.967 13.9,86.7C14.3,87.433 14.8,88.067 15.4,88.6C15.267,88.267 15.167,87.9 15.1,87.5Z" style="fill:rgb(255,0,0);fill-rule:nonzero;"/>
                <path id="path3533" d="M178.6,84.2C179.5,89.5 184.5,93 189.8,92.1C195,91.1 198.6,86.1 197.6,80.9C196.7,75.6 191.7,72.1 186.4,73C181.2,73.9 177.6,79 178.6,84.2Z" style="fill:white;fill-rule:nonzero;"/>
                <path id="path3535" d="M184.2,80.3C184.333,80.233 184.5,80.167 184.7,80.1C185.4,79.5 187,78.5 187,78.5C187.267,78.3 187.5,78.133 187.7,78C188.367,77.533 189,77.133 189.6,76.8C189.8,76.667 190,76.567 190.2,76.5C191.1,76 192,75.7 193.1,75.6C193.9,76.2 194.6,76.933 195.2,77.8C192.7,78.7 190.4,80 185.5,83.1C185.2,82.4 184.3,80.4 184.2,80.3Z" style="fill:rgb(255,0,0);fill-rule:nonzero;"/>
                <path id="path3537" d="M186.5,85.5C186.4,85.3 186,84.2 185.8,83.8C190.8,80.6 193.1,79.3 195.5,78.4C195.9,79.067 196.2,79.8 196.4,80.6C195,82.5 191.3,84.3 186.5,85.5Z" style="fill:rgb(255,0,0);fill-rule:nonzero;"/>
                <path id="path3539" d="M187,77.6C185.2,76.5 183,76.8 181.4,77.4C182,76.533 182.733,75.833 183.6,75.3C185.2,75 187.3,75 189,76.3C188.4,76.7 187.733,77.133 187,77.6Z" style="fill:rgb(255,0,0);fill-rule:nonzero;"/>
                <path id="path3541" d="M194.5,86.6C194.3,86.733 194.033,86.9 193.7,87.1C193.167,87.367 192.6,87.633 192,87.9C191.733,87.967 191.467,88.033 191.2,88.1C190.2,88.4 188.1,89 187.9,89C187.9,89 187.1,87 186.8,86.2C190.5,85.3 194.6,83.6 196.5,81.5C196.633,82.5 196.6,83.467 196.4,84.4C196,85.3 195.3,86 194.5,86.6Z" style="fill:rgb(255,0,0);fill-rule:nonzero;"/>
                <path id="path3543" d="M187.8,89.8L188.6,89.6C189.333,89.4 190.1,89.2 190.9,89C190.5,89.8 189.9,90.5 189.2,91C188.333,91.067 187.5,91.033 186.7,90.9C187.3,90.4 187.8,89.8 187.8,89.8Z" style="fill:rgb(255,0,0);fill-rule:nonzero;"/>
                <path id="path3545" d="M180,80.1C180.133,79.5 180.367,78.933 180.7,78.4C182.2,77.7 184.4,77.1 186.4,78.1L183.7,79.8L181.4,79.8C180.867,79.867 180.4,79.967 180,80.1Z" style="fill:rgb(255,0,0);fill-rule:nonzero;"/>
                <path id="path3547" d="M181.4,80.6C181.4,85 183.5,88.4 185.3,90.6C182.5,89.6 180.3,87.2 179.7,84C179.567,82.933 179.6,81.9 179.8,80.9C180.2,80.767 180.733,80.667 181.4,80.6Z" style="fill:rgb(255,0,0);fill-rule:nonzero;"/>
                <path id="path3549" d="M189.7,76C188.4,74.8 186.9,74.5 185.6,74.4C185.933,74.333 186.267,74.267 186.6,74.2C188.6,73.8 190.5,74.2 192.1,75.1C191.3,75.2 190.5,75.5 189.7,76Z" style="fill:rgb(255,0,0);fill-rule:nonzero;"/>
                <path id="path3551" d="M183.5,80.6C184.2,81.9 184.6,82.7 184.9,83.5C184.967,83.7 185.067,83.9 185.2,84.1C185.3,84.5 185.8,85.7 185.8,85.7L186.1,86.4L187.3,89.3C186.9,89.8 186.5,90.1 186.1,90.4C184.4,88.4 182.1,85 182.1,80.5C182.567,80.5 183.033,80.533 183.5,80.6Z" style="fill:rgb(255,0,0);fill-rule:nonzero;"/>
                <path id="path3553" d="M191.8,88.7C192.4,88.5 192.967,88.267 193.5,88C193.3,88.6 193,89.2 192.7,89.7C192.033,90.1 191.333,90.433 190.6,90.7C191.1,90.1 191.5,89.5 191.8,88.7Z" style="fill:rgb(255,0,0);fill-rule:nonzero;"/>
                <path id="path3555" d="M194.4,87.5C194.8,87.233 195.167,86.967 195.5,86.7C195.1,87.433 194.633,88.067 194.1,88.6C194.233,88.267 194.333,87.9 194.4,87.5Z" style="fill:rgb(255,0,0);fill-rule:nonzero;"/>
            </g>
        </g>
    </g>
</svg>
