<?xml version="1.0" encoding="UTF-8" standalone="no"?>
<!DOCTYPE svg PUBLIC "-//W3C//DTD SVG 1.1//EN" "http://www.w3.org/Graphics/SVG/1.1/DTD/svg11.dtd">
<svg width="100%" height="100%" viewBox="0 0 512 512" version="1.1" xmlns="http://www.w3.org/2000/svg" xmlns:xlink="http://www.w3.org/1999/xlink" xml:space="preserve" xmlns:serif="http://www.serif.com/" style="fill-rule:evenodd;clip-rule:evenodd;stroke-linejoin:round;stroke-miterlimit:2;">
    <rect x="0" y="0" width="512" height="512" style="fill:white;fill-opacity:0;"/>
    <g id="AFC_Bournemouth_-2013-.svg" serif:id="AFC_Bournemouth_(2013).svg" transform="matrix(1.42482,0,0,1.42482,256,256)">
        <g transform="matrix(1,0,0,1,-120.441,-157.915)">
            <g>
                <clipPath id="_clip1">
                    <path id="polygon29" d="M10.918,36.173L10.918,115.54C27.797,253.707 121.048,307.522 121.048,307.522C121.048,307.522 222.753,238.155 229.872,115.54L229.872,36.173L10.918,36.173Z"/>
                </clipPath>
                <g clip-path="url(#_clip1)">
                    <path d="M201.591,380.957L-80.089,272.474L39.199,-37.261L320.88,71.222L201.591,380.957Z" style="fill:url(#_Linear2);fill-rule:nonzero;"/>
                </g>
            </g>
            <g>
                <path id="path39" d="M143.052,148.961C144.591,149.101 146.149,149.185 147.72,149.204C146.148,149.185 144.591,149.101 143.052,148.961" style="fill:white;fill-rule:nonzero;"/>
            </g>
            <g>
                <path id="polygon41" d="M139.583,148.571L139.583,148.585L139.591,148.571L139.583,148.571Z" style="fill:white;fill-rule:nonzero;"/>
            </g>
            <g>
                <path id="path43" d="M95.748,139.645L71.153,138.993L70.711,148.756C70.711,148.756 67.098,148.547 63.288,148.756C59.473,148.986 59.258,154.278 59.258,154.278C59.258,154.278 56.284,154.067 53.109,154.911C49.931,155.763 50.355,160.647 50.355,160.647C50.355,160.647 42.076,160.862 39.32,164.04C36.561,167.235 36.144,173.794 38.907,177.616C41.656,181.438 57.349,203.913 61.38,212.824C65.411,221.745 66.054,251.871 66.054,251.871L66.292,252.59L66.303,252.597C80.37,269.96 98.091,286.679 120.469,301.685C128.049,296.609 135.095,291.31 141.638,285.867L100.841,238.777L103.34,236.611L104.132,236.568C104.397,236.551 104.656,236.539 104.929,236.539C106.399,236.553 107.835,236.723 109.48,236.717C112.099,236.717 115.184,236.346 119.173,234.243C120.811,233.361 121.884,232.134 122.604,230.639C123.328,229.136 123.658,227.393 123.638,225.71C123.658,223.904 123.23,222.171 122.749,221.231C121.98,219.658 120.236,218.427 118.315,217.659C116.407,216.874 114.468,216.563 113.772,216.485C113.569,216.449 113.501,216.449 113.501,216.449L113.379,216.449L111.059,216.037L103.398,207.501L107.029,204.366L113.528,211.593L114.031,211.679C114.527,211.734 116.359,211.952 118.555,212.663L109.514,202.215L113.143,199.062L167.13,261.394C167.772,260.676 168.392,259.964 169.014,259.248L115.281,197.226L118.907,194.083L172.181,255.563C172.79,254.834 173.401,254.086 173.999,253.362L121.04,192.237L122.297,191.149C122.297,191.149 124.13,191.67 127.009,191.778L177.052,249.548C177.642,248.787 178.24,248.034 178.823,247.269L130.685,191.707C132.366,191.58 134.218,191.27 136.171,190.703L181.768,243.331C182.332,242.546 182.891,241.772 183.456,240.977L139.011,189.684C140.622,188.87 141.771,187.746 142.574,186.468L186.287,236.918C186.83,236.116 187.389,235.289 187.914,234.48L143.832,183.599C144.644,180.752 144.404,177.888 144.252,176.748L190.623,230.272C191.149,229.438 191.672,228.6 192.186,227.76L141.894,169.714L141.894,162.383L194.782,223.428C195.353,222.438 195.926,221.453 196.481,220.454L133.366,147.324C132.726,147.16 132.104,146.967 131.474,146.79C128.909,146.036 126.416,145.116 123.996,144.049C123.537,143.843 123.084,143.611 122.632,143.386C121.098,142.656 119.595,141.872 118.128,141.017C117.618,140.718 117.113,140.407 116.61,140.092C115.191,139.204 113.82,138.268 112.483,137.265C112.065,136.957 111.643,136.653 111.23,136.323C109.647,135.077 108.133,133.759 106.685,132.367C106.602,132.29 106.507,132.222 106.425,132.141C100.584,133.097 95.748,139.645 95.748,139.645" style="fill:white;fill-rule:nonzero;"/>
            </g>
            <g>
                <path id="path53" d="M17.291,145.43C19.877,159.074 23.864,174.236 30.023,190.034C30.495,191.23 31.017,192.439 31.506,193.644C31.017,192.439 30.494,191.23 30.023,190.027C23.864,174.235 19.877,159.073 17.291,145.43" style="fill:white;fill-rule:nonzero;"/>
            </g>
            <g>
                <clipPath id="_clip3">
                    <rect id="path55" x="0" y="0" width="240.882" height="315.83"/>
                </clipPath>
                <g clip-path="url(#_clip3)">
                    <path d="M0.04,17.138L0.04,50.4L0,50.4L0.068,96.377C0.048,97.417 0.04,98.517 0.04,99.683C0.04,100.814 0.056,102.036 0.076,103.281L0.076,103.475L0.08,103.475C0.159,108.125 0.393,113.511 0.878,119.544C2.489,139.351 6.919,165.982 18.106,194.687C33.647,234.601 62.409,278.577 114.528,313.122L120.397,316.866L126.371,313.134C131.262,309.889 135.947,306.569 140.428,303.192C180.741,272.671 205.137,236.395 219.688,202.36L219.749,202.214L219.866,201.917C220.902,199.499 221.885,197.084 222.829,194.678C223.81,192.132 224.749,189.615 225.632,187.107C238.682,150.246 240.878,117.628 240.887,99.68C240.887,99.006 240.876,98.398 240.87,97.767L240.887,97.759L240.887,17.139C162.229,-5.713 78.692,-5.713 0.04,17.138M196.471,213.71L179.003,194.17L179.003,136.408C187.876,126.861 192.161,113.88 191.95,99.623C191.76,86.303 187.825,73.735 179.003,63.88L179.003,44.736C184.046,45.429 191.464,46.744 196.487,47.613L196.472,213.71L196.471,213.71ZM160.707,172.894L159.106,171.211L142.955,152.491C143.636,152.481 144.318,152.481 144.996,152.449C149.937,152.171 156.264,150.178 160.707,148.584L160.707,172.894ZM145.317,282.774L109.567,241.52C110.639,241.52 111.834,241.448 113.118,241.252L147.431,280.908C146.729,281.511 146.019,282.149 145.317,282.774M151.003,277.688L118.291,239.917C119.171,239.578 120.064,239.175 120.992,238.71L153.07,275.781C152.395,276.419 151.701,277.051 151.003,277.688M156.539,272.444L124.848,235.828C125.502,235.092 126.05,234.313 126.526,233.488L158.544,270.452C157.873,271.115 157.219,271.769 156.539,272.444M161.912,267.004L128.267,228.176C128.382,227.342 128.441,226.53 128.441,225.708C128.441,225.124 128.41,224.534 128.352,223.958L163.869,264.942C163.228,265.637 162.563,266.332 161.912,267.004M194.781,223.428L141.892,162.384L141.892,169.715L192.184,227.761C191.667,228.601 191.148,229.439 190.621,230.273L144.248,176.749C144.403,177.889 144.642,180.753 143.83,183.6L187.912,234.481C187.388,235.29 186.83,236.117 186.285,236.919L142.572,186.469C141.768,187.745 140.621,188.869 139.009,189.685L183.454,240.978C182.891,241.773 182.333,242.546 181.766,243.332L136.168,190.704C134.215,191.271 132.361,191.581 130.683,191.708L178.821,247.27C178.24,248.037 177.64,248.79 177.05,249.549L127.007,191.779C124.128,191.671 122.294,191.15 122.294,191.15L121.038,192.238L174,253.36C173.398,254.086 172.789,254.833 172.181,255.561L118.907,194.081L115.281,197.224L169.015,259.246C168.392,259.962 167.771,260.674 167.129,261.392L113.143,199.06L109.514,202.213L118.555,212.661C116.359,211.95 114.527,211.729 114.031,211.677L113.528,211.591L107.029,204.364L103.398,207.499L111.059,216.035L113.379,216.446L113.5,216.446C113.5,216.446 113.568,216.446 113.771,216.483C114.467,216.561 116.406,216.872 118.314,217.657C120.235,218.427 121.979,219.655 122.747,221.229C123.227,222.169 123.655,223.903 123.636,225.708C123.657,227.391 123.324,229.134 122.603,230.637C121.882,232.131 120.81,233.36 119.171,234.241C115.183,236.344 112.099,236.715 109.479,236.715C107.834,236.721 106.398,236.551 104.928,236.537C104.657,236.537 104.396,236.551 104.13,236.566L103.338,236.609L100.839,238.775L141.636,285.865C135.093,291.308 128.046,296.607 120.467,301.683C98.086,286.679 80.368,269.96 66.3,252.601L66.29,252.59C50.539,233.182 39.427,213.006 31.504,193.644C31.017,192.441 30.493,191.23 30.023,190.036C23.863,174.236 19.876,159.076 17.29,145.432C14.403,130.165 13.301,116.867 12.973,106.742L12.973,54.303C60.818,41.999 111.838,38.304 160.705,42.695L160.705,50.544C154.725,48.141 146.739,45.829 140.169,45.784C111.39,45.534 89.029,69.759 89.463,98.943C89.887,126.857 110.841,149.936 137.632,152.276L196.479,220.457C195.921,221.455 195.351,222.438 194.781,223.428M213.991,181.627C213.991,181.633 214.251,181.637 214.249,181.642L214.249,50.966C218.904,51.998 223.281,53.102 227.909,54.29L227.909,106.744L227.959,106.709C227.395,124.254 224.494,151.476 213.991,181.627" style="fill-rule:nonzero;"/>
                </g>
            </g>
            <g>
                <path id="path65" d="M101.567,123.029L120.02,128.337L131.08,144.995C134.405,145.791 137.852,146.245 141.381,146.276C144.865,146.294 148.24,145.899 151.484,145.177L161.762,128.974L180.441,123.705C183.825,117.845 185.954,111.13 186.485,103.916L174.422,88.576L174.922,68.672C174.201,67.827 173.455,66.995 172.68,66.211C168.547,62.024 163.682,58.612 158.295,56.219L140.524,62.91L122.132,55.819C116.675,58.158 111.793,61.568 107.694,65.791C106.995,66.52 106.329,67.275 105.66,68.052L106.818,87.537L94.995,103.138C95.728,110.335 98.024,117.098 101.567,123.029M140.777,79.423L160.636,94.173L153.489,117.731L129.193,117.572L121.371,93.907L140.777,79.423Z" style="fill:white;fill-rule:nonzero;"/>
            </g>
            <g>
                <path id="polygon67" d="M160.636,93.908L140.777,79.158L121.373,93.641L129.193,117.306L153.489,117.465L160.636,93.908Z" style="fill-rule:nonzero;"/>
            </g>
            <g>
                <path id="path69" d="M109.567,241.521L145.317,282.775C146.019,282.15 146.729,281.511 147.43,280.91L113.118,241.254C111.834,241.448 110.639,241.521 109.567,241.521" style="fill:white;fill-rule:nonzero;"/>
            </g>
            <g>
                <path id="path71" d="M118.291,239.917L151.003,277.688C151.7,277.051 152.397,276.418 153.069,275.781L120.991,238.709C120.064,239.174 119.171,239.577 118.291,239.917" style="fill:white;fill-rule:nonzero;"/>
            </g>
            <g>
                <path id="path73" d="M124.847,235.828L156.538,272.444C157.22,271.77 157.872,271.114 158.542,270.451L126.523,233.487C126.049,234.313 125.501,235.091 124.847,235.828" style="fill:white;fill-rule:nonzero;"/>
            </g>
            <g>
                <path id="path75" d="M128.352,223.959C128.412,224.535 128.442,225.125 128.442,225.709C128.442,226.528 128.382,227.343 128.268,228.176L161.914,267.005C162.563,266.332 163.229,265.638 163.871,264.944L128.352,223.959Z" style="fill:white;fill-rule:nonzero;"/>
            </g>
            <g>
                <clipPath id="_clip4">
                    <path id="polygon92" d="M19.744,26.683C19.793,26.449 19.857,26.321 20.053,26.275C20.259,26.233 20.3,26.333 20.345,26.552C20.795,28.515 21.245,30.473 21.699,32.438C20.598,32.679 19.497,32.932 18.397,33.174C18.848,31.014 19.295,28.853 19.744,26.683M20.053,23.095C18.523,23.434 16.889,24.149 16.378,26.418C15.281,31.309 14.182,36.204 13.084,41.099C13.09,41.148 13.053,41.203 13.061,41.222C13.053,41.442 13.222,41.543 13.439,41.492C14.472,41.246 15.502,40.997 16.536,40.763C16.758,40.708 16.93,40.485 16.98,40.251C17.246,38.967 17.507,37.675 17.776,36.39C19.291,36.039 20.804,35.699 22.321,35.373C22.585,36.541 22.852,37.711 23.117,38.874C23.163,39.09 23.337,39.231 23.566,39.181C24.597,38.959 25.634,38.745 26.673,38.527C26.895,38.48 27.046,38.313 27.046,38.09C27.05,38.072 27.026,38.03 27.026,37.981C25.921,33.572 24.818,29.174 23.723,24.779C23.362,23.339 22.443,22.921 21.396,22.921C20.961,22.921 20.502,22.994 20.053,23.095"/>
                </clipPath>
                <g clip-path="url(#_clip4)">
                    <path d="M4.122,34.866L18.072,16.209L35.98,29.598L22.031,48.256L4.122,34.866Z" style="fill:url(#_Linear5);fill-rule:nonzero;"/>
                </g>
            </g>
            <g>
                <clipPath id="_clip6">
                    <path id="polygon109" d="M38.682,19.645C37.898,19.675 36.783,19.694 34.374,20.15C31.501,20.697 28.945,21.94 28.945,26.018L28.945,37.608C28.945,37.859 29.147,38.018 29.394,37.969C30.355,37.777 31.32,37.583 32.284,37.391C32.528,37.343 32.732,37.107 32.732,36.86L32.732,30.312C34.65,29.941 36.575,29.578 38.5,29.23C38.738,29.187 38.949,28.947 38.943,28.704L38.943,26.571C38.943,26.321 38.748,26.155 38.5,26.203C36.575,26.546 34.65,26.914 32.732,27.285L32.732,25.267C32.732,24.096 33.109,23.663 34.155,23.465C35.665,23.179 37.169,22.9 38.681,22.624C38.926,22.584 39.127,22.341 39.127,22.101L39.127,20.013C39.13,19.74 39.004,19.644 38.731,19.644C38.715,19.644 38.699,19.644 38.682,19.645"/>
                </clipPath>
                <g clip-path="url(#_clip6)">
                    <path d="M20.133,31.43L32.598,14.759L47.942,26.232L35.478,42.903L20.133,31.43Z" style="fill:url(#_Linear7);fill-rule:nonzero;"/>
                </g>
            </g>
            <g>
                <clipPath id="_clip8">
                    <path id="polygon126" d="M48.187,17.716C44.786,18.252 41.57,20.587 41.572,25.929L41.572,28.753C41.57,34.091 44.791,35.317 48.187,34.779C49.751,34.527 51.05,34.107 51.519,33.878C51.837,33.748 52.015,33.609 52.015,33.29L52.015,31.116C52.015,30.853 51.874,30.683 51.586,30.724C51.566,30.731 51.537,30.738 51.519,30.738C50.665,30.937 49.44,31.245 48.206,31.436C46.664,31.687 45.431,31.074 45.431,28.096L45.431,25.274C45.431,22.286 46.664,21.279 48.206,21.031C49.439,20.839 50.665,20.755 51.519,20.697C51.537,20.691 51.571,20.684 51.586,20.679C51.878,20.642 52.015,20.444 52.015,20.174L52.015,17.998C52.005,17.679 51.837,17.622 51.519,17.582C51.325,17.544 50.986,17.518 50.543,17.518C49.924,17.518 49.102,17.571 48.187,17.716"/>
                </clipPath>
                <g clip-path="url(#_clip8)">
                    <path d="M33.034,28.935L45.316,12.507L60.555,23.9L48.272,40.328L33.034,28.935Z" style="fill:url(#_Linear9);fill-rule:nonzero;"/>
                </g>
            </g>
            <g>
                <clipPath id="_clip10">
                    <path id="polygon143" d="M64.102,25.176C64.939,25.073 65.781,24.973 66.619,24.869C68.417,24.663 69,25.519 69,26.596L69,26.841C69,28.101 68.255,28.898 65.94,29.17C65.627,29.205 64.458,29.321 64.102,29.369L64.102,25.176M64.102,18.636C64.414,18.57 65.446,18.439 65.804,18.397C68.119,18.119 68.911,18.6 68.911,19.83L68.911,20.168C68.911,21.135 68.388,21.998 66.618,22.204C65.78,22.304 64.938,22.407 64.101,22.511C64.101,21.213 64.101,19.922 64.102,18.636M65.515,15.297C64.079,15.464 62.261,15.832 61.496,16.044C60.619,16.293 60.308,16.649 60.308,17.652L60.308,31.287C60.308,32.299 60.648,32.546 61.542,32.587C62.415,32.63 64.171,32.523 65.648,32.341C69.534,31.88 72.734,30.473 72.73,26.528L72.73,26.192C72.73,24.651 71.921,23.535 70.73,23.088C71.917,22.37 72.612,21.05 72.617,19.584L72.617,19.18C72.617,16.24 70.664,15.161 67.594,15.161C66.948,15.161 66.252,15.209 65.515,15.297"/>
                </clipPath>
                <g clip-path="url(#_clip10)">
                    <path d="M51.931,26.366L64.764,9.202L81.111,21.425L68.278,38.589L51.931,26.366Z" style="fill:url(#_Linear11);fill-rule:nonzero;"/>
                </g>
            </g>
            <g>
                <clipPath id="_clip12">
                    <path id="polygon160" d="M78.833,23.76L78.833,21.086C78.833,18.397 79.711,17.172 81.604,17.007C83.501,16.853 84.391,17.925 84.395,20.617L84.395,23.283C84.395,25.978 83.495,27.191 81.604,27.346C81.481,27.357 81.362,27.363 81.247,27.363C79.6,27.361 78.833,26.274 78.833,23.76M81.603,13.644C77.89,13.957 74.941,16.257 74.941,21.454L74.941,24.128C74.941,29.333 77.884,31.025 81.603,30.706C85.32,30.394 88.269,28.197 88.274,22.998L88.274,20.325C88.274,15.497 85.731,13.61 82.396,13.61C82.137,13.61 81.872,13.621 81.603,13.644"/>
                </clipPath>
                <g clip-path="url(#_clip12)">
                    <path d="M66.589,24.781L79.722,7.216L96.626,19.855L83.493,37.419L66.589,24.781Z" style="fill:url(#_Linear13);fill-rule:nonzero;"/>
                </g>
            </g>
            <g>
                <clipPath id="_clip14">
                    <path id="polygon177" d="M103.508,12.516C102.529,12.553 101.551,12.589 100.57,12.635C100.323,12.641 100.118,12.835 100.12,13.075L100.12,23.058C100.12,25.347 99.493,26.333 97.458,26.431C95.432,26.534 94.822,25.616 94.822,23.32L94.822,13.346C94.822,13.1 94.62,12.932 94.367,12.942C93.383,12.998 92.398,13.057 91.411,13.124C91.163,13.136 90.961,13.334 90.961,13.571L90.961,23.554C90.96,28.673 93.873,29.82 97.458,29.64C101.043,29.464 103.985,28.017 103.982,22.907L103.982,12.926C103.982,12.681 103.758,12.516 103.519,12.516L103.508,12.516"/>
                </clipPath>
                <g clip-path="url(#_clip14)">
                    <path d="M82.661,23.615L95.63,6.27L112.283,18.721L99.314,36.066L82.661,23.615Z" style="fill:url(#_Linear15);fill-rule:nonzero;"/>
                </g>
            </g>
            <g>
                <clipPath id="_clip16">
                    <path id="polygon194" d="M110.894,19.73L110.894,15.425C111.163,15.389 112.337,15.328 112.655,15.315C114.551,15.284 115.609,15.911 115.609,17.274L115.609,17.571C115.609,19.086 114.867,19.7 112.491,19.743C112.405,19.745 112.215,19.746 111.994,19.746C111.579,19.746 111.054,19.742 110.894,19.73M112.655,12.063C111.029,12.089 109.109,12.276 108.071,12.462C107.38,12.589 107.052,12.799 107.054,13.566L107.054,28.614C107.054,28.859 107.263,29.051 107.505,29.044C108.483,29.019 109.463,28.996 110.438,28.972C110.688,28.964 110.889,28.765 110.894,28.515L110.894,22.825C111.123,22.818 111.43,22.824 111.74,22.829C112.005,22.835 112.272,22.839 112.491,22.835C112.575,22.825 112.661,22.818 112.742,22.811C113.752,24.678 114.761,26.559 115.774,28.44C115.885,28.668 115.966,28.883 116.216,28.883C117.37,28.871 118.524,28.871 119.681,28.865C119.928,28.865 120.019,28.753 120.019,28.596C120.019,28.528 119.992,28.44 119.951,28.349C118.808,26.239 117.673,24.141 116.538,22.04C118.187,21.375 119.456,19.916 119.451,17.539L119.451,17.251C119.451,13.368 116.622,12.062 112.896,12.062C112.816,12.062 112.736,12.063 112.655,12.063"/>
                </clipPath>
                <g clip-path="url(#_clip16)">
                    <path d="M98.905,22.96L111.702,5.844L128.166,18.154L115.37,35.269L98.905,22.96Z" style="fill:url(#_Linear17);fill-rule:nonzero;"/>
                </g>
            </g>
            <g>
                <clipPath id="_clip18">
                    <path id="polygon211" d="M123.242,12.209C122.779,12.209 122.399,12.593 122.399,13.057L122.399,28.415C122.399,28.668 122.601,28.871 122.851,28.871C123.738,28.877 124.626,28.883 125.515,28.89C125.761,28.892 125.972,28.698 125.968,28.451L125.968,19.37C125.968,19.229 126.011,19.186 126.077,19.186C126.142,19.186 126.194,19.229 126.278,19.37C127.999,22.333 129.714,25.315 131.427,28.3C131.789,28.911 132.131,29.014 132.601,29.027C133.334,29.044 134.077,29.063 134.811,29.087C135.286,29.106 135.69,28.741 135.695,28.263L135.695,12.884C135.695,12.635 135.489,12.443 135.245,12.438C134.356,12.413 133.468,12.383 132.579,12.365C132.335,12.352 132.128,12.529 132.128,12.775L132.128,22.259C132.139,22.42 132.06,22.457 132.014,22.457C131.951,22.457 131.919,22.414 131.839,22.274C130.051,19.153 128.267,16.044 126.485,12.939C126.214,12.462 125.992,12.234 125.537,12.234C124.775,12.222 124.014,12.215 123.254,12.209L123.242,12.209"/>
                </clipPath>
                <g clip-path="url(#_clip18)">
                    <path d="M114.296,23.047L127.167,5.832L143.8,18.268L130.929,35.483L114.296,23.047Z" style="fill:url(#_Linear19);fill-rule:nonzero;"/>
                </g>
            </g>
            <g>
                <clipPath id="_clip20">
                    <path id="polygon228" d="M138.769,17.166L138.769,24.608C138.769,28.692 141.337,29.531 144.255,29.683C146.691,29.801 147.841,29.701 148.632,29.633C148.947,29.61 149.073,29.487 149.073,29.187L149.073,27.105C149.073,26.86 148.878,26.641 148.632,26.628C147.103,26.541 145.579,26.449 144.052,26.37C142.985,26.321 142.603,25.948 142.612,24.771L142.612,22.402C144.556,22.493 146.506,22.6 148.451,22.715C148.697,22.733 148.9,22.547 148.9,22.298L148.9,20.168C148.9,19.922 148.697,19.706 148.451,19.688C146.506,19.566 144.556,19.466 142.612,19.375L142.612,17.333C142.612,16.17 142.992,15.825 144.052,15.88C145.579,15.959 147.103,16.044 148.632,16.139C148.874,16.151 149.081,15.966 149.073,15.72L149.073,13.626C149.073,13.34 148.947,13.221 148.632,13.154C147.847,12.99 146.71,12.744 144.278,12.62C144.019,12.606 143.765,12.599 143.513,12.599C140.927,12.599 138.769,13.443 138.769,17.166"/>
                </clipPath>
                <g clip-path="url(#_clip20)">
                    <path d="M130.52,23.633L142.468,7.653L157.333,18.767L145.384,34.747L130.52,23.633Z" style="fill:url(#_Linear21);fill-rule:nonzero;"/>
                </g>
            </g>
            <g>
                <clipPath id="_clip22">
                    <path id="polygon245" d="M151.91,14.042L151.91,29.628C151.9,29.868 152.119,29.953 152.295,29.964C153.287,30.033 154.274,30.107 155.269,30.181C155.47,30.2 155.629,30.008 155.629,29.753L155.629,20.408C155.629,20.253 155.697,20.235 155.739,20.235C155.804,20.242 155.859,20.296 155.922,20.408C156.598,21.693 157.273,22.986 157.947,24.27C158.108,24.546 158.33,24.678 158.625,24.708C159.224,24.756 159.825,24.802 160.426,24.857C160.722,24.887 160.947,24.789 161.108,24.541C161.778,23.361 162.452,22.192 163.128,21.022C163.197,20.918 163.245,20.876 163.308,20.876C163.359,20.883 163.425,20.918 163.425,21.067L163.425,30.418C163.425,30.674 163.581,30.883 163.782,30.908C164.775,30.996 165.761,31.092 166.749,31.196C166.932,31.214 167.141,31.172 167.134,30.919L167.134,15.357C167.144,14.887 166.796,14.54 166.329,14.494C165.622,14.421 164.913,14.348 164.21,14.282C163.731,14.24 163.426,14.434 163.218,14.802C162.072,16.823 160.921,18.849 159.771,20.876C159.685,21.05 159.619,21.159 159.531,21.147C159.443,21.147 159.373,21.022 159.285,20.839C158.131,18.612 156.988,16.388 155.838,14.17C155.633,13.765 155.317,13.525 154.842,13.489C154.139,13.437 153.432,13.382 152.726,13.334C152.7,13.332 152.671,13.331 152.643,13.331C152.209,13.331 151.906,13.6 151.91,14.042"/>
                </clipPath>
                <g clip-path="url(#_clip22)">
                    <path d="M143.328,24.802L157.367,6.025L175.714,19.743L161.675,38.52L143.328,24.802Z" style="fill:url(#_Linear23);fill-rule:nonzero;"/>
                </g>
            </g>
            <g>
                <clipPath id="_clip24">
                    <path id="polygon262" d="M176.533,29.127C174.644,28.892 173.765,27.65 173.765,24.966L173.765,22.293C173.775,19.603 174.646,18.557 176.533,18.795C178.418,19.022 179.315,20.284 179.315,22.973L179.315,25.647C179.315,28.092 178.569,29.158 177.019,29.158C176.867,29.158 176.703,29.147 176.533,29.127M169.88,21.857L169.88,24.528C169.88,29.731 172.829,32.034 176.531,32.493C180.232,32.95 183.175,31.363 183.175,26.16L183.175,23.49C183.175,18.288 180.237,15.88 176.531,15.428C176.148,15.381 175.774,15.356 175.411,15.356C172.248,15.356 169.88,17.193 169.88,21.857"/>
                </clipPath>
                <g clip-path="url(#_clip24)">
                    <path d="M161.439,26.642L174.645,8.978L191.613,21.665L178.408,39.328L161.439,26.642Z" style="fill:url(#_Linear25);fill-rule:nonzero;"/>
                </g>
            </g>
            <g>
                <clipPath id="_clip26">
                    <path id="polygon279" d="M185.846,17.293L185.846,27.273C185.856,32.391 188.745,34.138 192.296,34.702C195.85,35.268 198.758,34.427 198.758,29.315L198.758,19.333C198.758,19.086 198.53,18.87 198.286,18.831C197.321,18.661 196.352,18.5 195.387,18.342C195.138,18.293 194.938,18.445 194.938,18.692L194.938,28.673C194.938,30.962 194.315,31.818 192.297,31.496C190.286,31.178 189.682,30.127 189.682,27.838L189.682,17.862C189.682,17.615 189.481,17.407 189.234,17.364C188.258,17.221 187.275,17.075 186.296,16.932C186.273,16.928 186.247,16.926 186.225,16.926C186.011,16.926 185.846,17.074 185.846,17.293"/>
                </clipPath>
                <g clip-path="url(#_clip26)">
                    <path d="M177.05,28.691L190.476,10.734L207.555,23.503L194.128,41.46L177.05,28.691Z" style="fill:url(#_Linear27);fill-rule:nonzero;"/>
                </g>
            </g>
            <g>
                <clipPath id="_clip28">
                    <path id="polygon296" d="M200.791,19.688L200.791,21.998C200.801,22.247 200.989,22.463 201.246,22.505C202.453,22.727 203.664,22.943 204.877,23.174L204.877,36.216C204.877,36.468 205.078,36.702 205.324,36.75C206.299,36.937 207.269,37.125 208.238,37.309C208.486,37.355 208.688,37.198 208.683,36.942L208.683,23.897C209.882,24.133 211.089,24.374 212.29,24.614C212.532,24.669 212.761,24.536 212.755,24.284L212.755,21.967C212.755,21.729 212.535,21.502 212.29,21.454C208.617,20.702 204.933,20.007 201.243,19.345C201.21,19.339 201.179,19.336 201.149,19.336C200.948,19.336 200.798,19.474 200.791,19.688"/>
                </clipPath>
                <g clip-path="url(#_clip28)">
                    <path d="M192.149,30.894L205.083,13.595L221.403,25.797L208.47,43.096L192.149,30.894Z" style="fill:url(#_Linear29);fill-rule:nonzero;"/>
                </g>
            </g>
            <g>
                <clipPath id="_clip30">
                    <path id="polygon313" d="M214.858,22.407L214.858,38.198C214.858,38.446 215.052,38.686 215.298,38.739C216.272,38.941 217.241,39.152 218.206,39.363C218.446,39.409 218.651,39.254 218.651,39.008L218.651,32.529C220.48,32.925 222.299,33.332 224.126,33.754L224.126,40.233C224.126,40.485 224.329,40.731 224.567,40.792C225.534,41.014 226.501,41.245 227.467,41.473C227.705,41.531 227.905,41.376 227.905,41.13L227.905,25.34C227.905,25.097 227.705,24.869 227.467,24.808C226.5,24.583 225.532,24.356 224.567,24.133C224.321,24.074 224.122,24.21 224.126,24.451L224.126,30.412C222.3,29.996 220.48,29.585 218.651,29.187L218.651,23.219C218.651,22.973 218.456,22.751 218.206,22.697C217.241,22.487 216.27,22.274 215.298,22.076C215.261,22.068 215.228,22.064 215.194,22.064C215,22.064 214.858,22.197 214.858,22.407"/>
                </clipPath>
                <g clip-path="url(#_clip30)">
                    <path d="M205.521,34.551L219.537,15.805L237.246,29.044L223.229,47.79L205.521,34.551Z" style="fill:url(#_Linear31);fill-rule:nonzero;"/>
                </g>
            </g>
        </g>
    </g>
    <defs>
        <linearGradient id="_Linear2" x1="0" y1="0" x2="1" y2="0" gradientUnits="userSpaceOnUse" gradientTransform="matrix(105.021,-272.689,272.689,105.021,75.2481,289.861)"><stop offset="0" style="stop-color:rgb(139,3,4);stop-opacity:1"/><stop offset="1" style="stop-color:rgb(237,28,36);stop-opacity:1"/></linearGradient>
        <linearGradient id="_Linear5" x1="0" y1="0" x2="1" y2="0" gradientUnits="userSpaceOnUse" gradientTransform="matrix(119.894,89.6408,-89.6408,119.894,25.5283,36.3767)"><stop offset="0" style="stop-color:rgb(168,153,110);stop-opacity:1"/><stop offset="0.44" style="stop-color:rgb(255,229,199);stop-opacity:1"/><stop offset="1" style="stop-color:rgb(168,153,110);stop-opacity:1"/></linearGradient>
        <linearGradient id="_Linear7" x1="0" y1="0" x2="1" y2="0" gradientUnits="userSpaceOnUse" gradientTransform="matrix(119.878,89.6283,-89.6283,119.878,32.2854,27.4083)"><stop offset="0" style="stop-color:rgb(168,153,110);stop-opacity:1"/><stop offset="0.44" style="stop-color:rgb(255,229,199);stop-opacity:1"/><stop offset="1" style="stop-color:rgb(168,153,110);stop-opacity:1"/></linearGradient>
        <linearGradient id="_Linear9" x1="0" y1="0" x2="1" y2="0" gradientUnits="userSpaceOnUse" gradientTransform="matrix(120.301,89.9446,-89.9446,120.301,37.9896,19.722)"><stop offset="0" style="stop-color:rgb(168,153,110);stop-opacity:1"/><stop offset="0.44" style="stop-color:rgb(255,229,199);stop-opacity:1"/><stop offset="1" style="stop-color:rgb(168,153,110);stop-opacity:1"/></linearGradient>
        <linearGradient id="_Linear11" x1="0" y1="0" x2="1" y2="0" gradientUnits="userSpaceOnUse" gradientTransform="matrix(119.459,89.315,-89.315,119.459,46.3049,8.71836)"><stop offset="0" style="stop-color:rgb(168,153,110);stop-opacity:1"/><stop offset="0.44" style="stop-color:rgb(255,229,199);stop-opacity:1"/><stop offset="1" style="stop-color:rgb(168,153,110);stop-opacity:1"/></linearGradient>
        <linearGradient id="_Linear13" x1="0" y1="0" x2="1" y2="0" gradientUnits="userSpaceOnUse" gradientTransform="matrix(119.857,89.613,-89.613,119.857,52.3536,0.460005)"><stop offset="0" style="stop-color:rgb(168,153,110);stop-opacity:1"/><stop offset="0.44" style="stop-color:rgb(255,229,199);stop-opacity:1"/><stop offset="1" style="stop-color:rgb(168,153,110);stop-opacity:1"/></linearGradient>
        <linearGradient id="_Linear15" x1="0" y1="0" x2="1" y2="0" gradientUnits="userSpaceOnUse" gradientTransform="matrix(119.396,89.2675,-89.2675,119.396,58.8192,-7.82683)"><stop offset="0" style="stop-color:rgb(168,153,110);stop-opacity:1"/><stop offset="0.44" style="stop-color:rgb(255,229,199);stop-opacity:1"/><stop offset="1" style="stop-color:rgb(168,153,110);stop-opacity:1"/></linearGradient>
        <linearGradient id="_Linear17" x1="0" y1="0" x2="1" y2="0" gradientUnits="userSpaceOnUse" gradientTransform="matrix(119.826,89.5893,-89.5893,119.826,64.6743,-16.0333)"><stop offset="0" style="stop-color:rgb(168,153,110);stop-opacity:1"/><stop offset="0.44" style="stop-color:rgb(255,229,199);stop-opacity:1"/><stop offset="1" style="stop-color:rgb(168,153,110);stop-opacity:1"/></linearGradient>
        <linearGradient id="_Linear19" x1="0" y1="0" x2="1" y2="0" gradientUnits="userSpaceOnUse" gradientTransform="matrix(120.314,89.954,-89.954,120.314,69.989,-23.5263)"><stop offset="0" style="stop-color:rgb(168,153,110);stop-opacity:1"/><stop offset="0.44" style="stop-color:rgb(255,229,199);stop-opacity:1"/><stop offset="1" style="stop-color:rgb(168,153,110);stop-opacity:1"/></linearGradient>
        <linearGradient id="_Linear21" x1="0" y1="0" x2="1" y2="0" gradientUnits="userSpaceOnUse" gradientTransform="matrix(119.848,89.6057,-89.6057,119.848,75.2844,-30.0947)"><stop offset="0" style="stop-color:rgb(168,153,110);stop-opacity:1"/><stop offset="0.44" style="stop-color:rgb(255,229,199);stop-opacity:1"/><stop offset="1" style="stop-color:rgb(168,153,110);stop-opacity:1"/></linearGradient>
        <linearGradient id="_Linear23" x1="0" y1="0" x2="1" y2="0" gradientUnits="userSpaceOnUse" gradientTransform="matrix(120.281,89.9295,-89.9295,120.281,80.0572,-37.1872)"><stop offset="0" style="stop-color:rgb(168,153,110);stop-opacity:1"/><stop offset="0.44" style="stop-color:rgb(255,229,199);stop-opacity:1"/><stop offset="1" style="stop-color:rgb(168,153,110);stop-opacity:1"/></linearGradient>
        <linearGradient id="_Linear25" x1="0" y1="0" x2="1" y2="0" gradientUnits="userSpaceOnUse" gradientTransform="matrix(119.869,89.6217,-89.6217,119.869,85.5191,-43.876)"><stop offset="0" style="stop-color:rgb(168,153,110);stop-opacity:1"/><stop offset="0.44" style="stop-color:rgb(255,229,199);stop-opacity:1"/><stop offset="1" style="stop-color:rgb(168,153,110);stop-opacity:1"/></linearGradient>
        <linearGradient id="_Linear27" x1="0" y1="0" x2="1" y2="0" gradientUnits="userSpaceOnUse" gradientTransform="matrix(120.264,89.9164,-89.9164,120.264,89.9684,-50.487)"><stop offset="0" style="stop-color:rgb(168,153,110);stop-opacity:1"/><stop offset="0.44" style="stop-color:rgb(255,229,199);stop-opacity:1"/><stop offset="1" style="stop-color:rgb(168,153,110);stop-opacity:1"/></linearGradient>
        <linearGradient id="_Linear29" x1="0" y1="0" x2="1" y2="0" gradientUnits="userSpaceOnUse" gradientTransform="matrix(119.451,89.3091,-89.3091,119.451,94.6588,-55.4494)"><stop offset="0" style="stop-color:rgb(168,153,110);stop-opacity:1"/><stop offset="0.44" style="stop-color:rgb(255,229,199);stop-opacity:1"/><stop offset="1" style="stop-color:rgb(168,153,110);stop-opacity:1"/></linearGradient>
        <linearGradient id="_Linear31" x1="0" y1="0" x2="1" y2="0" gradientUnits="userSpaceOnUse" gradientTransform="matrix(119.452,89.3097,-89.3097,119.452,98.4011,-60.2272)"><stop offset="0" style="stop-color:rgb(168,153,110);stop-opacity:1"/><stop offset="0.44" style="stop-color:rgb(255,229,199);stop-opacity:1"/><stop offset="1" style="stop-color:rgb(168,153,110);stop-opacity:1"/></linearGradient>
    </defs>
</svg>
