<?xml version="1.0" encoding="UTF-8" standalone="no"?>
<!DOCTYPE svg PUBLIC "-//W3C//DTD SVG 1.1//EN" "http://www.w3.org/Graphics/SVG/1.1/DTD/svg11.dtd">
<svg width="100%" height="100%" viewBox="0 0 512 512" version="1.1" xmlns="http://www.w3.org/2000/svg" xmlns:xlink="http://www.w3.org/1999/xlink" xml:space="preserve" xmlns:serif="http://www.serif.com/" style="fill-rule:evenodd;clip-rule:evenodd;stroke-linejoin:round;stroke-miterlimit:2;">
    <rect x="0" y="0" width="512" height="512" style="fill:white;fill-opacity:0;"/>
    <g id="Logo_Tottenham_Hotspur.svg" transform="matrix(0.444422,0,0,0.444422,256,256)">
        <g transform="matrix(1,0,0,1,-250,-506.275)">
            <g id="g2568" transform="matrix(1.49744,0,0,1.49744,737.739,282.399)">
                <g id="Ebene-1" serif:id="Ebene 1">
                    <g id="g25681" serif:id="g2568">
                        <path id="path2474" d="M-397.174,265.425C-399.016,264.964 -400.607,263.821 -401.835,262.107C-408.063,271.715 -410.689,280.305 -408.399,288.014C-398.818,320.364 -370.276,344.255 -336.093,347.437C-368.763,337.514 -392.941,303.473 -397.174,265.425M-403.864,246.307C-405.922,244.84 -407.685,243.467 -408.939,242.269C-411.124,250.317 -412.132,258.831 -411.774,267.604C-411.704,269.376 -411.577,271.132 -411.401,272.871C-410.137,267.687 -407.647,262.271 -404.079,256.747C-404.769,253.515 -404.659,249.839 -403.864,246.307ZM-402.253,241.369C-401.39,239.408 -400.309,237.599 -399.022,236.073C-397.987,234.854 -396.884,233.884 -395.713,233.164C-392.604,218.675 -386.111,205.77 -376.62,196.014C-390.791,206.089 -401.652,220.455 -407.362,237.124C-406.604,238.163 -404.589,239.73 -402.253,241.369ZM-279.663,315.748C-286.737,314.962 -296.201,313.093 -300.333,311.662C-304.945,310.067 -309.048,306.214 -311.303,301.346C-312.237,299.334 -313.082,296.658 -313.217,293.413C-313.293,291.473 -313.108,289.334 -312.54,287.019C-338.476,279.109 -365.948,268.123 -385.073,257.91C-385.747,259.142 -386.516,260.288 -387.379,261.309C-388.817,263.011 -390.433,264.245 -392.096,264.95C-390.3,280.863 -384.774,296.456 -375.975,310.042C-364.303,328.064 -348.406,340.414 -331.234,344.302C-325.146,345.674 -317.189,347.386 -310.069,345.809C-283.673,339.964 -262.156,321.706 -251.64,297.689C-252.872,297.908 -254.256,298.034 -255.743,298.085C-261.764,315.706 -274.43,316.325 -279.663,315.748ZM-244.735,260.805C-245.11,251.525 -246.982,242.664 -250.113,234.441C-253.963,224.357 -266.83,217.206 -283.779,213.367C-315.114,206.283 -356.274,217.985 -382.465,240.02C-381.459,244.039 -381.757,248.832 -383.108,253.205C-364.236,263.352 -336.79,274.335 -310.895,282.217C-304.801,268.222 -293.133,265.554 -284.033,267.828C-277.514,269.454 -273.323,270.307 -270.264,270.923L-266.898,271.634C-262.573,272.646 -258.778,275.52 -256.502,279.524C-254.889,282.353 -253.408,286.827 -254.419,292.989C-251.237,292.803 -249.697,292.269 -249.341,291.848C-245.943,282.16 -244.289,271.68 -244.735,260.805ZM-259.584,292.988C-258.542,287.825 -259.669,284.232 -260.924,282.035C-262.496,279.261 -265.102,277.274 -268.05,276.584L-271.274,275.906C-274.208,275.313 -278.633,274.413 -285.265,272.758C-294.147,270.54 -301.768,274.607 -305.976,283.677C-301.65,284.935 -297.388,286.098 -293.235,287.15C-292.566,283.919 -292.423,281.678 -292.423,281.638C-292.337,280.239 -291.134,279.17 -289.734,279.252C-288.333,279.334 -287.264,280.531 -287.348,281.937C-287.356,282.119 -287.52,284.689 -288.291,288.356C-287.469,288.549 -286.645,288.743 -285.837,288.924C-285.004,289.115 -284.184,289.296 -283.38,289.466C-282.656,285.892 -282.189,282.855 -282.177,282.793C-281.966,281.406 -280.669,280.454 -279.285,280.664C-277.893,280.872 -276.941,282.168 -277.147,283.557C-277.184,283.801 -277.656,286.843 -278.401,290.489C-276.697,290.822 -275.081,291.112 -273.549,291.374C-272.985,288.291 -272.847,285.84 -272.847,285.794C-272.78,284.393 -271.584,283.312 -270.183,283.381C-268.778,283.448 -267.696,284.64 -267.768,286.038C-267.777,286.247 -267.914,288.821 -268.518,292.135C-264.996,292.613 -262.038,292.875 -259.584,292.988ZM-306.69,299.203C-304.705,303.491 -301.245,305.97 -298.669,306.857C-295.321,308.018 -286.464,309.878 -279.107,310.685C-271.037,311.578 -264.728,307.088 -261.132,298.016C-263.832,297.861 -266.724,297.544 -269.715,297.128C-270.276,298.954 -270.99,300.775 -271.912,302.392C-272.605,303.612 -274.154,304.033 -275.375,303.343C-276.595,302.649 -277.021,301.096 -276.325,299.871C-275.715,298.799 -275.211,297.582 -274.793,296.328C-276.371,296.059 -277.959,295.76 -279.531,295.457C-280.07,297.565 -280.688,299.568 -281.336,301.066C-281.897,302.353 -283.399,302.938 -284.686,302.379C-285.975,301.819 -286.558,300.321 -285.999,299.034C-285.474,297.83 -284.972,296.197 -284.51,294.427C-285.334,294.246 -286.151,294.065 -286.959,293.883C-287.813,293.691 -288.688,293.484 -289.56,293.274C-290.018,294.747 -290.556,296.279 -291.213,297.831C-291.755,299.123 -293.254,299.728 -294.546,299.183C-295.836,298.639 -296.447,297.146 -295.9,295.855C-295.352,294.575 -294.899,293.3 -294.511,292.072C-298.794,290.986 -303.196,289.778 -307.659,288.476C-308.735,293.157 -307.801,296.817 -306.69,299.203ZM-390.437,235.857C-391.564,235.651 -393.8,235.668 -396.034,238.097C-399.573,241.932 -401.234,247.129 -400.978,253.532C-400.907,255.165 -400.679,256.08 -400.217,257.396C-399.392,259.723 -397.41,261.261 -395.962,261.524C-394.241,261.839 -392.298,260.833 -390.484,258.686C-386.521,253.984 -384.812,245.362 -386.756,239.861C-387.563,237.567 -388.868,236.145 -390.437,235.857Z" style="fill:rgb(0,33,86);fill-rule:nonzero;"/>
                        <path id="path2476" d="M-364.472,-181.911C-397.22,-181.911 -404.983,-165.12 -404.983,-165.12C-404.983,-165.12 -367.197,-167.851 -367.197,-130.532C-367.197,-113.737 -376.337,-102.353 -386.011,-90.306C-397.25,-76.315 -409.982,-60.456 -409.982,-33.852C-409.982,10.187 -381.69,30.847 -356.729,49.073C-334.983,64.955 -314.445,79.953 -314.445,108.194C-314.445,136.592 -326.9,158.607 -332.585,164.289C-342.12,173.824 -350.712,175.558 -357.609,176.953C-364.694,178.383 -371.389,179.757 -372.794,189.935C-399.014,205.682 -414.898,233.729 -414.898,264.158C-414.898,265.344 -414.873,266.536 -414.826,267.729C-413.884,290.855 -403.992,312.23 -386.975,327.913C-369.959,343.6 -347.851,351.716 -324.729,350.773C-301.604,349.831 -280.233,339.938 -264.546,322.926C-248.859,305.909 -240.742,283.8 -241.689,260.681C-243.121,225.379 -265.523,194.783 -298.756,182.736L-298.629,182.783C-298.65,182.774 -299.082,182.601 -299.082,182.601C-299.087,182.597 -299.866,182.326 -299.866,182.326C-304.069,180.875 -308.837,179.227 -308.837,168.417C-308.837,157.942 -304.082,157.073 -294.618,155.335C-288.992,154.302 -282.109,153.04 -275.359,148.916C-263.345,141.583 -261.09,132.736 -263.278,130.552C-266.254,127.571 -269.536,133.832 -281.629,137.475C-285.988,138.791 -290.376,139.556 -293.34,139.556C-295.805,139.556 -297.645,139.349 -298.995,139.104C-292.644,127.205 -285.529,117.465 -285.45,117.363L-283.9,115.253L-285.753,113.4C-288.21,110.944 -289.624,105.834 -289.624,98.982C-289.624,90.528 -287.474,79.426 -282.484,67.373C-276.58,53.13 -253.15,6.646 -199.409,6.646L-196.358,6.646L-196.358,3.596C-196.358,-15.617 -198.114,-33.287 -201.572,-48.923L-202.246,-51.961C-202.246,-51.961 -207.463,-50.48 -211.809,-49.51C-212.327,-49.396 -216.392,-48.397 -216.576,-49.255C-216.74,-50.013 -213.601,-51.59 -212.516,-52.134C-208.435,-54.164 -203.348,-56.3 -203.348,-56.3L-204.05,-58.745C-207.883,-72.123 -211.741,-78.517 -211.906,-78.784L-213.151,-80.822L-215.422,-80.103C-260.175,-66.005 -269.744,-36.308 -275.462,-18.568C-278.245,-9.947 -279.966,-5.07 -283.078,-5.07C-292.315,-5.07 -299.956,-12.709 -302.468,-15.22C-330.369,-43.124 -328.233,-63.241 -324.992,-93.696C-323.845,-104.443 -322.548,-116.621 -322.548,-130.53C-322.549,-165.584 -335.87,-181.911 -364.472,-181.911" style="fill:white;fill-rule:nonzero;"/>
                        <path id="path2478" d="M-311.394,108.193C-311.394,136.475 -323.457,159.475 -330.427,166.443C-352.025,188.043 -369.84,172.314 -370.033,193.984C-379.834,202.86 -386.885,216.355 -390.345,231.768C-390.13,231.789 -389.916,231.819 -389.705,231.859C-387.677,232.229 -385.935,233.388 -384.605,235.218C-357.173,212.861 -314.937,201.106 -282.655,208.406C-272.391,210.726 -263.686,214.515 -257.092,220.313C-267.006,204.278 -282.161,191.903 -300.075,185.482C-304.328,183.957 -311.886,182.211 -311.886,168.415C-311.886,142.666 -283.715,162.685 -265.154,134.64C-264.246,133.255 -265.553,132.046 -266.643,133.135C-272.257,138.745 -286.045,142.606 -293.338,142.606C-300.639,142.606 -303.385,140.943 -303.385,140.943C-296.493,127.228 -287.909,115.555 -287.909,115.555C-305.14,98.325 -276.14,3.593 -199.407,3.593C-199.407,-18.382 -201.729,-35.522 -204.55,-48.268C-206.376,-47.823 -220.829,-44.415 -221.49,-47.454C-222.075,-50.147 -210.844,-55.985 -206.977,-57.906C-210.748,-71.041 -214.504,-77.197 -214.504,-77.197C-280.273,-56.476 -267.055,-2.024 -283.077,-2.024C-293.505,-2.024 -301.697,-10.141 -304.622,-13.067C-343.905,-52.344 -325.597,-78.339 -325.597,-130.534C-325.597,-165.695 -339.252,-178.863 -364.47,-178.863C-389.686,-178.863 -398.696,-167.944 -398.696,-167.944C-398.696,-167.944 -364.145,-166.825 -364.145,-130.534C-364.145,-92.54 -406.931,-82.053 -406.931,-33.855C-406.932,46.38 -311.394,44.873 -311.394,108.193M-356.94,-130.532C-356.94,-135.19 -357.441,-139.396 -358.35,-143.192C-358.35,-143.192 -350.83,-143.585 -350.83,-152.737C-350.83,-160.281 -355.863,-165.425 -357.212,-165.425C-358.301,-165.425 -358.571,-164.269 -360.928,-164.269C-366.671,-164.269 -367.092,-171.608 -367.092,-171.608C-366.242,-171.637 -365.368,-171.65 -364.472,-171.65C-348.028,-171.65 -332.808,-166.671 -332.808,-130.531C-332.808,-117.166 -334.074,-105.274 -335.19,-94.782C-336.296,-84.42 -337.318,-74.781 -337.024,-65.369C-337.024,-65.369 -365.659,-68.744 -365.659,-90.287C-365.659,-104.276 -356.94,-107.68 -356.94,-130.532ZM-397.174,265.425C-399.016,264.964 -400.607,263.821 -401.835,262.107C-408.063,271.715 -410.689,280.305 -408.399,288.014C-398.818,320.364 -370.276,344.255 -336.093,347.437C-368.763,337.514 -392.941,303.473 -397.174,265.425ZM-403.864,246.307C-405.922,244.84 -407.685,243.467 -408.939,242.269C-411.124,250.317 -412.132,258.831 -411.774,267.604C-411.704,269.376 -411.577,271.132 -411.401,272.871C-410.137,267.687 -407.647,262.271 -404.079,256.747C-404.769,253.515 -404.659,249.839 -403.864,246.307ZM-402.253,241.369C-401.39,239.408 -400.309,237.599 -399.022,236.073C-397.987,234.854 -396.884,233.884 -395.713,233.164C-392.604,218.675 -386.111,205.77 -376.62,196.014C-390.791,206.089 -401.652,220.455 -407.362,237.124C-406.604,238.163 -404.589,239.73 -402.253,241.369ZM-279.663,315.748C-286.737,314.962 -296.201,313.093 -300.333,311.662C-304.945,310.067 -309.048,306.214 -311.303,301.346C-312.237,299.334 -313.082,296.658 -313.217,293.413C-313.293,291.473 -313.108,289.334 -312.54,287.019C-338.476,279.109 -365.948,268.123 -385.073,257.91C-385.747,259.142 -386.516,260.288 -387.379,261.309C-388.817,263.011 -390.433,264.245 -392.096,264.95C-390.3,280.863 -384.774,296.456 -375.975,310.042C-364.303,328.064 -348.406,340.414 -331.234,344.302C-325.146,345.674 -317.189,347.386 -310.069,345.809C-283.673,339.964 -262.156,321.706 -251.64,297.689C-252.872,297.908 -254.256,298.034 -255.743,298.085C-261.764,315.706 -274.43,316.325 -279.663,315.748ZM-250.113,234.441C-253.963,224.357 -266.83,217.206 -283.779,213.367C-315.114,206.283 -356.274,217.985 -382.465,240.02C-381.459,244.039 -381.757,248.832 -383.108,253.205C-364.236,263.352 -336.79,274.335 -310.895,282.217C-304.801,268.222 -293.133,265.554 -284.033,267.828C-277.514,269.454 -273.323,270.307 -270.264,270.923L-266.898,271.634C-262.573,272.646 -258.778,275.52 -256.502,279.524C-254.889,282.353 -253.408,286.827 -254.419,292.989C-251.237,292.803 -249.697,292.269 -249.341,291.848C-245.945,282.16 -244.29,271.681 -244.737,260.806C-245.11,251.525 -246.982,242.665 -250.113,234.441ZM-306.69,299.203C-304.705,303.491 -301.245,305.97 -298.669,306.857C-295.321,308.018 -286.464,309.878 -279.107,310.685C-271.037,311.578 -264.728,307.088 -261.132,298.016C-263.832,297.861 -266.724,297.544 -269.715,297.128C-270.276,298.954 -270.99,300.775 -271.912,302.392C-272.605,303.612 -274.154,304.033 -275.375,303.343C-276.595,302.649 -277.021,301.096 -276.325,299.871C-275.715,298.799 -275.211,297.582 -274.793,296.328C-276.371,296.059 -277.959,295.76 -279.531,295.457C-280.07,297.565 -280.688,299.568 -281.336,301.066C-281.897,302.353 -283.399,302.938 -284.686,302.379C-285.975,301.819 -286.558,300.321 -285.999,299.034C-285.474,297.83 -284.972,296.197 -284.51,294.427C-285.334,294.246 -286.151,294.065 -286.959,293.883C-287.813,293.691 -288.688,293.484 -289.56,293.274C-290.018,294.747 -290.556,296.279 -291.213,297.831C-291.755,299.123 -293.254,299.728 -294.546,299.183C-295.836,298.639 -296.447,297.146 -295.9,295.855C-295.352,294.575 -294.899,293.3 -294.511,292.072C-298.794,290.986 -303.196,289.778 -307.659,288.476C-308.735,293.157 -307.801,296.817 -306.69,299.203ZM-259.584,292.988C-258.542,287.825 -259.669,284.232 -260.924,282.035C-262.496,279.261 -265.102,277.274 -268.05,276.584L-271.274,275.906C-274.208,275.313 -278.633,274.413 -285.265,272.758C-294.147,270.54 -301.768,274.607 -305.976,283.677C-301.65,284.935 -297.388,286.098 -293.235,287.15C-292.566,283.919 -292.423,281.678 -292.423,281.638C-292.337,280.239 -291.134,279.17 -289.734,279.252C-288.333,279.334 -287.264,280.531 -287.348,281.937C-287.356,282.119 -287.52,284.689 -288.291,288.356C-287.469,288.549 -286.645,288.743 -285.837,288.924C-285.004,289.115 -284.184,289.296 -283.38,289.466C-282.656,285.892 -282.189,282.855 -282.177,282.793C-281.966,281.406 -280.669,280.454 -279.285,280.664C-277.893,280.872 -276.941,282.168 -277.147,283.557C-277.184,283.801 -277.656,286.843 -278.401,290.489C-276.697,290.822 -275.081,291.112 -273.549,291.374C-272.985,288.291 -272.847,285.84 -272.847,285.794C-272.78,284.393 -271.584,283.312 -270.183,283.381C-268.778,283.448 -267.696,284.64 -267.768,286.038C-267.777,286.247 -267.914,288.821 -268.518,292.135C-264.996,292.613 -262.038,292.875 -259.584,292.988ZM-390.437,235.857C-391.564,235.651 -393.8,235.668 -396.034,238.097C-399.573,241.932 -401.234,247.129 -400.978,253.532C-400.907,255.165 -400.679,256.08 -400.217,257.396C-399.392,259.723 -397.41,261.261 -395.962,261.524C-394.241,261.839 -392.298,260.833 -390.484,258.686C-386.521,253.984 -384.812,245.362 -386.756,239.861C-387.563,237.567 -388.868,236.145 -390.437,235.857Z" style="fill:rgb(0,33,86);fill-rule:nonzero;"/>
                        <path id="path2480" d="M-456.187,337.341C-449.775,341.57 -442.984,345.374 -442.984,345.374L-445.361,351.534C-446.249,347.802 -449.951,345.777 -454.728,342.82L-470.368,365.436C-472.278,368.163 -476.002,374.134 -476.302,376.46C-476.302,376.46 -478.869,374.831 -481.211,373.086C-483.66,371.26 -485.987,369.569 -485.987,369.569C-483.656,369.002 -479.63,363.064 -477.202,359.773L-461.986,338.062C-467.685,333.656 -469.91,332.793 -473.937,332.583L-468.521,328.522C-468.521,328.522 -463.316,332.642 -456.187,337.341" style="fill:rgb(0,33,86);fill-rule:nonzero;"/>
                        <path id="path2484" d="M-446.064,393.44C-456.928,388.255 -458.372,376.285 -453.023,365.08C-447.65,353.828 -437.409,347.495 -426.594,352.663C-415.784,357.825 -414.261,369.767 -419.638,381.022C-424.987,392.228 -435.2,398.628 -446.064,393.44M-428.148,355.911C-435.095,352.596 -440.557,360.442 -444.676,369.069C-448.795,377.694 -451.489,386.934 -444.541,390.251C-437.594,393.563 -432.103,385.664 -427.983,377.038C-423.864,368.412 -421.2,359.226 -428.148,355.911Z" style="fill:rgb(0,33,86);fill-rule:nonzero;"/>
                        <path id="path2486" d="M-397.447,364.234C-390.1,366.308 -384.121,367.697 -384.121,367.697L-384.757,374.273C-386.726,371.429 -387.63,370.734 -393.901,369.136L-401.504,394.701C-402.114,397.041 -405.148,405.894 -404.176,407.559C-404.176,407.559 -406.288,407.109 -409.697,406.163C-413.53,405.101 -415.331,404.382 -415.331,404.382C-413.365,403.09 -410.892,395.522 -410.083,392.445L-402.442,366.71C-408.939,364.543 -410.449,364.392 -413.554,365.835L-409.788,360.227C-409.789,360.228 -405.547,361.94 -397.447,364.234" style="fill:rgb(0,33,86);fill-rule:nonzero;"/>
                        <path id="path2488" d="M-367.139,371.025C-359.898,372.119 -353.076,372.738 -353.076,372.738L-352.802,379.336C-355.508,376.929 -356.527,376.15 -363.676,375.25L-367.816,401.503C-368.107,403.909 -369.646,413.041 -368.456,414.555C-368.456,414.555 -370.964,414.277 -374.427,413.793C-377.89,413.301 -380.018,412.813 -380.018,412.813C-378.327,411.492 -376.921,402.846 -376.627,400.438L-372.385,373.858C-378.58,372.621 -379.853,373.096 -382.828,374.821L-380.131,368.578C-380.132,368.577 -374.347,369.936 -367.139,371.025" style="fill:rgb(0,33,86);fill-rule:nonzero;"/>
                        <path id="path2490" d="M-340.29,395.986L-340.835,413.629C-331.584,413.751 -325.251,413.166 -322.431,409.152L-323.846,417.168C-323.846,417.168 -328.97,417.272 -336.473,417.168C-344.719,417.05 -351.191,416.512 -351.191,416.512C-349.818,415.153 -349.478,406.555 -349.462,404.138L-348.708,386.822C-348.675,382.211 -348.254,374.759 -349.802,373.193C-343.1,373.656 -343.953,373.648 -337.798,373.887C-329.739,374.207 -325.175,373.967 -325.175,373.967L-324.161,380.586C-327.307,377.96 -332.024,377.652 -339.725,377.607L-340.149,392.415L-328.322,392.482C-327.257,392.494 -327.19,393.087 -327.193,394.274C-327.206,395.443 -327.222,396.066 -328.346,396.054L-340.29,395.986" style="fill:rgb(0,33,86);fill-rule:nonzero;"/>
                        <path id="path2492" d="M-288.631,401.297C-287.949,407.717 -287.272,412.329 -285.808,413.171C-286.174,413.835 -287.334,414.706 -288.874,414.87C-290.729,415.068 -292.132,414.155 -293.419,412.666L-314.391,388.609L-313.601,403.914C-313.347,406.32 -313.07,415.438 -311.573,416.655L-318.561,416.973C-317.345,415.471 -317.668,406.783 -317.926,404.371L-318.914,387.099C-319.17,384.692 -319.621,375.14 -321.123,373.933L-314.715,373.701L-293.222,399.229L-295.01,384.541C-295.266,382.126 -296.574,373.374 -298.02,372.157C-298.02,372.157 -297.249,372.082 -294.64,371.728C-292.036,371.374 -291.088,371.185 -291.088,371.185C-292.296,372.691 -290.895,381.67 -290.635,384.078L-288.631,401.297" style="fill:rgb(0,33,86);fill-rule:nonzero;"/>
                        <path id="path2494" d="M-249.229,392.195C-248.484,395.182 -247.006,402.852 -244.814,404.354C-244.814,404.354 -248.131,405.314 -250.159,405.937C-251.964,406.492 -255.94,407.523 -255.94,407.523C-255.002,405.866 -257.093,396.659 -257.67,394.361L-259.663,386.35L-272.989,389.619L-271.474,397.765C-271.036,400.399 -269.648,409.261 -267.851,410.343C-267.851,410.343 -269.715,410.729 -273.599,411.525C-276.851,412.194 -279.117,412.552 -279.117,412.552C-278.119,410.894 -279.457,402.675 -279.87,400.054L-283.1,382.831C-283.689,379.621 -285.171,371.5 -286.954,370.549C-286.954,370.549 -285.225,370.221 -281.42,369.481C-277.613,368.74 -275.748,368.235 -275.748,368.235C-276.686,370.163 -275.033,377.956 -274.583,380.686L-273.558,386.152L-260.445,382.955L-261.859,377.371C-262.63,374.412 -264.258,367.314 -266.08,365.997C-266.08,365.997 -264.28,365.476 -260.632,364.439C-256.983,363.409 -255.41,362.82 -255.41,362.82C-256.133,364.789 -254.104,371.703 -253.264,375.266L-249.229,392.195" style="fill:rgb(0,33,86);fill-rule:nonzero;"/>
                        <path id="path2496" d="M-224.883,381.986L-237.886,387.078L-237.435,394.219C-237.145,396.656 -237.136,398.895 -236.602,400.157C-236.34,400.784 -235.89,401.199 -235.461,401.423C-235.461,401.423 -236.817,401.916 -239.051,402.64C-241.286,403.363 -242.514,403.718 -242.514,403.718C-241.735,402.373 -241.546,400.523 -241.614,398.213L-242.76,364.361C-242.868,363.132 -243.016,361.979 -243.424,361.012C-243.785,360.149 -244.395,359.664 -244.82,359.303C-243.34,358.343 -241.487,357.291 -239.603,356.501C-236.616,355.242 -235.356,355.293 -233.177,357.834L-214.1,381.494C-210.632,386.01 -207.565,389.048 -205.57,389.653C-205.57,389.653 -207.519,390.553 -211.187,392.186C-214.853,393.814 -217.28,394.74 -217.28,394.74C-217.062,393.974 -217.037,393.162 -217.515,391.942C-218.025,390.625 -219.902,388.395 -221.113,386.704L-224.883,381.986M-227.243,379.184L-238.798,363.173L-237.983,383.282L-227.243,379.184Z" style="fill:rgb(0,33,86);fill-rule:nonzero;"/>
                        <path id="path2498" d="M-170.401,369.713C-173.017,371.476 -174.975,372.826 -174.975,372.826C-175.167,370.252 -180.137,363.889 -181.597,361.958L-192.803,347.34L-183.789,376.158C-184.14,376.731 -184.778,377.531 -185.372,377.98C-187.151,379.332 -188.881,379.066 -190.462,377.821L-211.801,360.131L-204.332,373.887C-202.505,377.371 -198.984,384.621 -196.614,385.336C-196.614,385.336 -198.087,386.123 -199.952,387.027C-201.803,387.923 -202.935,388.45 -202.935,388.45C-202.522,386.426 -205.989,380.409 -208.008,376.558L-216.319,360.926C-218.84,356.222 -221.621,351.434 -224.01,350.479C-222.162,349.583 -221.604,349.309 -218.961,348.004C-216.757,346.918 -214.815,345.854 -214.815,345.854L-190.79,366.291L-200.24,337.355C-200.24,337.355 -198.974,336.496 -196.572,334.893C-194.176,333.289 -192.014,331.695 -192.014,331.695C-191.832,334.283 -186.829,340.881 -185.007,343.242L-174.66,356.555C-172.465,359.294 -168.362,365.392 -165.441,366.09C-165.444,366.089 -167.783,367.941 -170.401,369.713" style="fill:rgb(0,33,86);fill-rule:nonzero;"/>
                        <path id="path2502" d="M-416.278,422.33C-414.051,423.147 -411.178,424.144 -411.178,424.144C-413.597,425.898 -415.819,432.874 -417.262,436.662L-422.842,452.143C-424.335,456.345 -426.881,462.435 -426.028,464.609C-426.028,464.609 -429.098,463.549 -431.582,462.667C-433.707,461.909 -434.914,461.505 -437.165,460.542C-434.43,459.817 -431.852,450.72 -431.013,448.432L-428.459,441.207L-441.832,435.632L-445.699,443.896C-446.958,446.766 -449.97,453.266 -449.254,455.302C-449.254,455.302 -451.616,454.339 -455.074,452.748C-459.147,450.873 -460.034,450.376 -460.034,450.376C-457.164,448.966 -455.465,444.333 -453.28,439.653L-446.287,424.166C-443.924,418.864 -441.79,414.269 -441.95,411.247C-441.95,411.247 -440.701,411.992 -437.262,413.537C-434.522,414.769 -433.122,415.385 -431.585,416.002C-433.761,416.868 -436.79,424.682 -438.389,428.188L-440.438,432.565L-427.374,437.947L-425.37,432.986C-424.432,430.452 -421.192,422.879 -421.891,420.286C-421.891,420.285 -419.21,421.258 -416.278,422.33" style="fill:rgb(0,33,86);fill-rule:nonzero;"/>
                        <path id="path2504" d="M-401.172,472.571C-412.818,469.508 -416.522,458.23 -413.433,446.482C-410.328,434.671 -401.509,426.757 -389.92,429.808C-378.336,432.854 -374.554,444.084 -377.654,455.895C-380.747,467.648 -389.524,475.634 -401.172,472.571M-390.815,433.212C-398.259,431.255 -402.105,439.788 -404.486,448.836C-406.873,457.878 -407.731,467.266 -400.292,469.227C-392.848,471.179 -388.981,462.586 -386.604,453.543C-384.218,444.497 -383.373,435.172 -390.815,433.212Z" style="fill:rgb(0,33,86);fill-rule:nonzero;"/>
                        <path id="path2506" d="M-369.626,476.729C-369.626,476.729 -368.885,475.928 -368.38,474.296C-367.668,472.003 -367.21,467.594 -366.662,464.155L-363.401,438.942C-370.348,438.071 -372.112,438.571 -375.163,440.377L-372.301,433.921C-370.138,434.401 -365.345,434.919 -359.514,435.655C-355.612,436.143 -343.991,437.192 -343.991,437.192L-343.596,443.649C-346.159,440.684 -348.818,440.415 -354.608,439.96L-357.856,465.258C-358.147,467.613 -359.439,475.785 -358.158,478.204C-359.555,478.045 -361.869,477.783 -363.81,477.59C-365.821,477.384 -368.469,476.926 -369.626,476.729" style="fill:rgb(0,33,86);fill-rule:nonzero;"/>
                        <path id="path2508" d="M-314.269,467.972C-314.188,475.562 -320.362,481.058 -329.858,480.918C-337.243,480.81 -341.105,477.771 -342.583,476.534L-341.046,469.331C-338.753,473.921 -334.953,477.258 -330.675,477.325C-326.206,477.388 -322.689,474.758 -322.616,470.328C-322.57,467.108 -324.342,465.164 -331.797,461.285C-338.942,457.596 -341.601,453.914 -341.601,448.426C-341.601,440.952 -335.101,437.157 -327.463,437.155C-321.847,437.15 -317.929,438.871 -315.467,440.187L-317.054,446.787C-320.461,442.237 -323.546,440.551 -327.266,440.5C-330.931,440.44 -333.526,442.439 -333.502,446.205C-333.477,450.309 -328.962,452.529 -322.873,455.93C-315.872,459.846 -314.31,463.773 -314.269,467.972" style="fill:rgb(0,33,86);fill-rule:nonzero;"/>
                        <path id="path2510" d="M-279.689,444.72C-279.419,445.611 -279.255,446.693 -279.171,447.543C-279.099,448.326 -279.061,449.364 -279.154,450.346C-279.355,452.806 -280.522,455.664 -282.453,457.675C-285.402,460.755 -289.245,462.286 -294.34,462.524C-296.306,462.645 -296.776,462.044 -296.907,460.626L-296.919,460.318C-296.919,460.318 -296.961,459.77 -296.532,459.741L-296.039,459.692C-294.533,459.505 -292.299,459.034 -290.507,456.855C-288.789,454.613 -288.201,451.633 -288.5,448.426C-288.819,445.095 -289.82,442.695 -292.059,440.971C-294.003,439.477 -296.288,438.992 -298.64,439.178C-298.64,439.178 -299.583,439.258 -300.63,439.423C-300.63,439.423 -301.244,439.477 -301.191,440.078L-298.667,466.229C-298.448,468.53 -297.82,476.634 -295.932,478.306C-295.932,478.306 -298.081,478.533 -302.13,478.865C-305.218,479.118 -307.624,479.18 -307.624,479.18C-306.812,477.173 -306.947,474.206 -307.149,470.751L-309.106,450.13C-309.328,447.77 -309.727,439.681 -311.651,437.683C-311.651,437.683 -306.475,436.917 -296.899,436.013C-291.891,435.538 -287.789,436.177 -284.251,438.571C-281.936,440.13 -280.345,442.401 -279.689,444.72" style="fill:rgb(0,33,86);fill-rule:nonzero;"/>
                        <path id="path2512" d="M-240.507,453.152C-238.457,462.216 -242.711,469.933 -252.142,472.29C-258.769,473.947 -268.312,471.516 -270.976,459.89L-274.22,446.164C-275.074,442.321 -276.47,435.518 -278.7,433.746C-278.7,433.746 -276.209,433.393 -272.308,432.665C-268.407,431.937 -266.595,431.503 -266.595,431.503C-267.62,433.118 -266.544,439.478 -265.525,444.149L-261.384,461.597C-260.645,464.795 -259.601,466.984 -257.808,468.275C-256.479,469.235 -254.704,469.497 -252.856,469.16C-251.173,468.847 -249.422,467.897 -248.505,466.193C-247.532,464.405 -247.537,461.818 -248.286,458.623L-252.934,441.175C-254.206,436.372 -255.67,430.361 -257.244,429.355C-257.244,429.355 -255.35,428.842 -251.761,427.815C-249.043,427.041 -247.427,426.569 -246.254,426.156C-247.327,428.783 -244.773,436.837 -244.231,439.142L-240.507,453.152" style="fill:rgb(0,33,86);fill-rule:nonzero;"/>
                        <path id="path2514" d="M-198.16,449.576C-197.246,449.926 -196.262,450.166 -195.436,449.815C-195.53,450.384 -196.064,451.52 -196.959,452.437C-200.772,456.345 -204.352,455.673 -205.564,455.193C-212.14,452.685 -223.136,442.94 -223.589,441.876C-223.589,441.876 -223.702,441.598 -223.417,441.48L-223.018,441.304C-221.301,440.589 -219.352,438.648 -218.583,436.811C-217.354,434.117 -217.561,431.698 -218.81,428.736C-220.102,425.656 -222.365,423.716 -224.137,423.194C-226.758,422.42 -228.714,423.034 -229.906,423.509C-229.906,423.509 -231.479,424.128 -231.947,424.599C-231.947,424.599 -232.263,424.86 -231.896,425.933L-223.589,449.66C-222.327,453.15 -220.135,459.958 -218.149,461.106C-218.149,461.106 -220.393,461.989 -223.796,463.218C-227.2,464.447 -229.27,465.019 -229.27,465.019C-228.577,462.369 -231.198,455.165 -231.859,453.144L-237.231,437.122C-238.574,433.26 -241.026,426.338 -243.022,425.23C-243.022,425.23 -239.1,424.132 -230.284,420.429C-225.596,418.46 -221.053,417.618 -216.955,418.818C-214.468,419.549 -212.788,420.798 -211.413,422.79C-210.887,423.561 -210.501,424.318 -210.167,425.103C-209.861,425.832 -209.65,426.669 -209.511,427.447C-209.077,429.868 -209.441,432.442 -210.841,434.87C-210.841,434.87 -212.104,437.315 -214.8,439.233C-214.8,439.232 -206.141,446.568 -198.16,449.576" style="fill:rgb(0,33,86);fill-rule:nonzero;"/>
                    </g>
                </g>
            </g>
        </g>
    </g>
</svg>
