<?xml version="1.0" encoding="UTF-8" standalone="no"?>
<!DOCTYPE svg PUBLIC "-//W3C//DTD SVG 1.1//EN" "http://www.w3.org/Graphics/SVG/1.1/DTD/svg11.dtd">
<svg width="100%" height="100%" viewBox="0 0 512 512" version="1.1" xmlns="http://www.w3.org/2000/svg" xmlns:xlink="http://www.w3.org/1999/xlink" xml:space="preserve" xmlns:serif="http://www.serif.com/" style="fill-rule:evenodd;clip-rule:evenodd;stroke-linejoin:round;stroke-miterlimit:2;">
    <rect x="0" y="0" width="512" height="512" style="fill:white;fill-opacity:0;"/>
    <g id="Logo_Fulham.svg" transform="matrix(0.993816,0,0,0.993816,256,256)">
        <g transform="matrix(1,0,0,1,-170.115,-226.4)">
            <clipPath id="_clip1">
                <rect x="0" y="0" width="340.231" height="452.8"/>
            </clipPath>
            <g clip-path="url(#_clip1)">
                <path d="M332.744,21.319C332.214,21.191 257.846,0.033 170.877,0C170.622,0 170.371,0.01 170.115,0.01C169.859,0.01 169.609,0 169.354,0C82.385,0.033 8.018,21.191 7.488,21.319C3.06,22.573 0,26.621 0,31.233L0,268.692L0.189,270.608C0.393,272.169 23.31,389.331 165.958,451.939C167.273,452.511 168.687,452.8 170.102,452.8C170.107,452.8 170.111,452.796 170.116,452.796C170.121,452.796 170.125,452.8 170.13,452.8C171.545,452.8 172.959,452.511 174.274,451.939C316.922,389.331 339.839,272.169 340.043,270.608L340.232,268.692L340.232,31.233C340.231,26.621 337.171,22.573 332.744,21.319Z" style="fill:white;fill-rule:nonzero;"/>
                <path d="M331.093,27.061C330.871,27.004 255.831,6.121 170.116,5.979C84.4,6.121 9.361,27.005 9.139,27.061C7.261,27.577 5.974,29.275 5.974,31.224L5.974,268.692L6.045,269.501C6.13,270.145 28.215,384.979 168.375,446.471C168.928,446.712 169.524,446.835 170.116,446.835C170.708,446.835 171.303,446.712 171.857,446.471C312.017,384.979 334.102,270.145 334.187,269.501L334.258,268.692L334.258,31.224C334.257,29.275 332.97,27.577 331.093,27.061Z" style="fill-rule:nonzero;"/>
                <path d="M170.116,14.645C134.82,14.687 101.377,18.33 74.321,22.54L74.321,371.73C97.007,395.366 127.966,419.003 170.116,437.768C212.266,419.003 243.225,395.366 265.911,371.73L265.911,22.539C238.854,18.329 205.412,14.687 170.116,14.645Z" style="fill:white;fill-rule:nonzero;"/>
                <path d="M123.25,337.89C110.043,324.693 103.975,308.994 103.984,293.27C103.984,274.52 112.55,255.779 127.469,240.87C139.167,229.177 153.187,221.4 167.746,218.567L147.392,198.222C141.943,203.666 120.927,224.635 113.093,232.469L113.188,232.469L109.991,235.629L108.865,236.722C108.117,237.356 106.973,237.942 105.668,237.923C104.192,238.018 102.636,237.218 101.638,236.078L90.484,224.802C89.377,223.832 88.526,222.318 88.62,220.8C88.596,219.485 89.197,218.34 89.954,217.456L167.226,140.217L150.207,123.222C144.768,128.657 123.742,149.635 115.904,157.478L115.98,157.478L112.801,160.624L111.666,161.726C110.937,162.336 109.802,162.961 108.463,162.937C106.983,163.032 105.455,162.223 104.447,161.087L93.279,149.806C92.196,148.836 91.335,147.342 91.42,145.809C91.396,144.489 91.997,143.345 92.763,142.46L179.103,56.163C180.872,54.332 183.365,53.197 186.103,53.197C188.818,53.183 191.245,54.299 192.962,56.087L250.415,113.545C251.049,114.301 251.64,115.446 251.617,116.752C251.711,118.218 250.922,119.774 249.796,120.773L249.252,121.312L249.229,121.312C248.902,121.615 248.458,122.06 247.923,122.584C246.83,123.667 245.378,125.11 243.926,126.562C241.022,129.452 238.136,132.337 238.127,132.337L236.812,133.633L188.303,85.11L166.256,107.176L247.596,188.525C248.24,189.287 248.831,190.441 248.807,191.736C248.902,193.207 248.112,194.754 246.976,195.766L234.025,208.637L185.503,160.115L163.446,182.162L203.496,222.212C210.903,225.381 218.003,230.15 224.489,236.649C236.99,249.297 244.081,264.524 244.091,279.693C244.091,290.681 240.345,301.585 232.403,311.243L231.107,312.823L212.177,293.879L212.906,292.649C216.44,286.661 218.502,280.516 218.492,274.442C218.483,267.181 215.63,259.901 208.44,252.693C200.706,244.978 192.291,241.875 183.715,241.856C170.716,241.833 157.207,249.273 146.56,259.944C135.889,270.583 128.457,284.106 128.481,297.11C128.491,305.686 131.604,314.105 139.309,321.82C145.841,328.343 153.102,331.12 160.534,331.129C168.991,331.129 177.737,327.44 185.495,321.04L186.786,319.99L205.432,338.636L203.971,339.937C192.06,350.504 178.201,355.925 164.365,355.925C149.767,355.927 135.254,349.895 123.25,337.89Z" style="fill-rule:nonzero;"/>
                <path d="M175.527,221.116L171.833,221.613C156.914,223.661 142.231,231.315 130.08,243.476C115.738,257.799 107.664,275.655 107.664,293.27C107.678,308.047 113.297,322.701 125.847,335.279C137.265,346.674 150.78,352.232 164.365,352.241C176.673,352.241 189.085,347.648 200.05,338.457L186.531,324.929C178.584,331.112 169.578,334.805 160.534,334.815C152.157,334.825 143.822,331.575 136.708,324.428C128.374,316.127 124.778,306.605 124.797,297.112C124.816,282.685 132.839,268.461 143.959,257.345C155.08,246.224 169.298,238.198 183.716,238.174C193.205,238.165 202.731,241.755 211.042,250.085C218.786,257.809 222.196,266.168 222.177,274.445C222.177,280.911 220.134,287.25 216.794,293.276L230.824,307.31C237.38,298.678 240.403,289.246 240.403,279.695C240.412,265.694 233.833,251.347 221.88,239.247C215.622,232.975 208.801,228.439 201.73,225.454L201.375,225.303L158.231,182.164L185.505,154.909L234.027,203.426L244.381,193.157C245.261,192.135 245.029,192.547 245.124,191.738C245.105,191.369 245.086,191.317 244.873,191.009L161.04,107.177L188.305,79.903L236.831,128.439C239.641,125.634 246.102,119.177 247.2,118.156C248.07,117.158 247.843,117.56 247.933,116.751C247.914,116.382 247.905,116.33 247.683,116.003L190.334,58.664C189.218,57.529 187.827,56.89 186.105,56.876C184.388,56.876 182.851,57.581 181.734,58.739L95.489,144.932C95.144,145.386 95.125,145.457 95.101,145.807C95.186,146.55 94.973,146.162 95.891,147.203L107.068,158.494C108.075,159.388 107.688,159.161 108.463,159.255C108.804,159.232 108.899,159.213 109.225,158.981L110.067,158.148L110.129,158.072L110.181,158.01L110.285,157.906C110.37,157.821 110.474,157.707 110.621,157.556C110.91,157.272 111.33,156.851 111.856,156.326C112.915,155.262 114.424,153.739 116.241,151.928C119.874,148.3 124.712,143.456 129.556,138.627C139.225,128.968 148.908,119.318 148.908,119.318L150.199,118.026L172.435,140.215L92.685,219.914C92.358,220.359 92.326,220.444 92.302,220.799C92.396,221.556 92.165,221.158 93.092,222.209L104.26,233.49C105.258,234.365 104.87,234.153 105.67,234.238C106.024,234.219 106.1,234.196 106.417,233.978L107.325,233.075L107.372,233.018L107.476,232.905C107.561,232.829 107.665,232.716 107.812,232.564C108.101,232.28 108.521,231.859 109.046,231.325C110.106,230.261 111.614,228.747 113.431,226.926C117.064,223.298 121.903,218.464 126.746,213.625C136.415,203.966 146.097,194.307 146.097,194.307L147.389,193.011L172.889,218.488L171.583,219.793L172.889,218.488L175.527,221.116Z" style="fill:rgb(229,49,56);fill-rule:nonzero;"/>
            </g>
        </g>
    </g>
</svg>
