<?xml version="1.0" encoding="UTF-8" standalone="no"?>
<!DOCTYPE svg PUBLIC "-//W3C//DTD SVG 1.1//EN" "http://www.w3.org/Graphics/SVG/1.1/DTD/svg11.dtd">
<svg width="100%" height="100%" viewBox="0 0 512 512" version="1.1" xmlns="http://www.w3.org/2000/svg" xmlns:xlink="http://www.w3.org/1999/xlink" xml:space="preserve" xmlns:serif="http://www.serif.com/" style="fill-rule:evenodd;clip-rule:evenodd;stroke-linejoin:round;stroke-miterlimit:2;">
    <rect x="0" y="0" width="512" height="512" style="fill:white;fill-opacity:0;"/>
    <g id="Logo_Crystal_Palace_FC_-_2022.svg" transform="matrix(0.642857,0,0,0.642857,256,256)">
        <g transform="matrix(1,0,0,1,-281.613,-350)">
            <clipPath id="_clip1">
                <rect x="0" y="0" width="563.227" height="700"/>
            </clipPath>
            <g clip-path="url(#_clip1)">
                <g id="g12768">
                    <path id="path1170" d="M520.13,92.986C519.096,89.814 513.717,87.366 491.893,87.366C483.377,87.366 475.481,87.711 475.378,87.711C475.033,87.711 474.688,87.78 474.378,87.884C460.863,88.883 447.968,91.986 436.315,97.055C451.761,78.437 475.826,66.783 490.376,61.025C491.134,60.715 493.272,59.75 493.755,59.026C494.479,57.922 495.651,56.888 494.651,55.095C492.962,51.992 486.342,51.199 481.929,51.199C477.171,51.199 470.448,51.854 462.001,53.13C458.001,53.578 454.002,54.233 450.209,55.061C450.037,55.095 449.865,55.13 449.692,55.199C432.936,58.957 417.076,66.473 403.837,76.92C401.975,78.368 400.182,79.919 398.458,81.471L409.112,63.301C414.87,53.889 421.11,45.166 427.73,37.408C428.178,36.891 428.454,36.271 428.592,35.615C428.833,34.305 430.35,32.237 429.488,31.168C428.937,30.513 427.73,29.409 425.558,29.409C423.627,29.409 417.249,30.065 392.804,48.614C369.807,64.68 350.086,85.505 335.709,108.915C329.917,119.258 319.849,138.462 316.47,151.978C316.264,150.598 316.091,149.254 315.919,147.944C315.333,142.496 314.988,136.876 314.884,130.188C314.781,122.189 315.126,115.052 315.471,110.466C315.609,108.536 315.229,104.019 313.367,103.536C311.506,103.088 308.644,106.812 307.886,108.605C296.025,136.014 292.853,158.77 292.233,172.354L287.854,212.279C287.371,215.037 285.268,228.38 285.268,228.38C281.958,222.622 279.614,218.313 277.062,212.072C276.994,211.865 276.89,211.658 276.752,211.452L272.994,205.418C272.891,205.246 272.787,205.108 272.649,204.97C266.961,198.178 261.203,194.695 254.514,190.661C245.171,184.973 233.517,177.939 216.209,157.908C206.659,146.875 195.592,124.533 192.006,109.156C184.938,78.713 185.593,42.304 193.73,9.619C194.488,7.447 195.006,3.448 194.006,2.103C193.247,1.069 191.868,0.345 190.593,0.345C188.041,0.345 185.731,2.586 169.768,27.961C169.734,28.03 169.699,28.099 169.63,28.168C159.149,44.855 151.736,63.956 148.219,83.436C147.461,87.677 146.875,91.917 146.461,96.124C142.738,86.918 139.669,77.368 137.29,67.645C132.187,46.786 130.498,25.651 132.394,6.482C132.532,5.275 132.773,2.069 131.912,1.241C131.119,0.448 129.981,0 128.774,0C125.257,0 119.844,4.551 108.605,34.581C97.917,63.198 94.469,89.435 97.813,118.086C85.643,102.261 80.195,80.023 75.265,59.957C74.058,54.992 72.851,50.096 71.576,45.442C70.955,43.097 69.266,37.443 67.128,38.512C66.99,38.581 66.852,38.684 66.714,38.753C66.68,38.753 66.68,38.787 66.645,38.787C66.576,38.822 66.507,38.891 66.404,38.96C66.301,39.029 66.197,39.132 66.128,39.201C65.68,39.615 64.163,44.545 63.887,45.097C63.198,46.372 62.784,48.269 62.508,50.958C62.508,51.096 62.474,51.199 62.474,51.337C62.474,52.268 62.405,53.199 62.37,54.13C62.301,55.164 62.232,56.199 62.232,57.233C60.784,72.265 59.646,111.156 79.609,151.805L80.057,152.874C80.333,153.495 80.609,154.115 80.885,154.736C83.057,159.321 85.505,163.528 87.849,167.561C88.642,168.906 89.401,170.216 90.159,171.526C92.917,176.353 95.331,179.318 97.813,182.111C86.539,179.801 69.886,176.491 61.853,175.284C59.991,175.043 58.233,176.043 57.543,177.801C56.888,179.525 57.509,181.525 59.095,182.525C65.818,186.903 78.057,197.971 90.883,209.9L90.711,209.935L113.535,231.173L115.604,233.138C123.051,240.137 130.774,247.377 138.152,254.066L122.534,252.514C120.81,252.308 119.155,253.342 118.465,254.962C117.81,256.583 118.258,258.445 119.637,259.548L156.011,288.992L155.977,288.992L171.906,301.645C172.009,301.749 172.112,301.886 172.25,301.99L199.557,323.952C200.246,324.504 201.074,324.814 201.936,324.814L208.935,324.986C194.109,331.158 180.559,331.365 164.7,326.021C152.46,321.918 140.772,315.54 130.843,307.575C129.429,306.437 125.809,304.334 124.361,305.403C122.913,306.472 123.982,310.471 124.671,312.161C127.774,319.746 133.463,326.4 139.221,332.434C120.396,329.951 103.261,324.745 83.712,315.815C82.091,315.091 79.161,313.161 77.988,314.505C76.851,315.85 77.782,320.091 78.712,321.573C87.573,335.295 94.641,344.708 101.709,352.051C109.122,359.74 118.879,367.635 123.671,370.531C124.602,371.083 127.05,372.566 138.773,372.566C143.22,372.566 148.116,372.324 152.253,371.945C152.771,371.911 153.288,371.842 153.77,371.807C142.082,375.944 131.325,377.496 122.051,376.324C120.051,376.048 115.466,376.22 114.983,378.186C114.5,380.151 118.293,383.288 120.189,383.978C134.118,388.943 147.737,392.321 160.804,394.08C165.114,395.286 177.319,398.493 190.489,399.631C191.385,399.7 192.213,399.734 193.006,399.7C194.075,399.803 195.178,399.906 196.212,400.01C201.281,400.493 206.038,400.941 211.141,400.941C215.313,400.941 219.485,400.63 223.76,399.975C223.795,400.493 223.932,401.01 224.174,401.458L226.484,405.974C225.656,406.112 224.829,406.526 224.243,407.181C223.105,408.422 222.829,410.25 223.657,411.767L228.587,421.007C228.69,421.214 228.828,421.42 229.001,421.627C229.035,421.662 229.139,421.8 229.38,422.076C229.173,422.179 228.966,422.282 228.759,422.42C227.415,423.351 226.794,425.041 227.208,426.627C229.759,436.901 234.724,440.521 238.379,443.176C240.861,444.969 242.378,446.072 243.136,448.865C243.654,450.726 244.516,452.83 245.412,455.071C247.308,459.794 250.135,466.896 248.377,469.724C245.998,473.516 244.343,474.619 241.619,476.412C239.93,477.55 237.792,478.964 235.241,481.274C229.07,486.825 228.621,494.203 233.965,503.201L234.276,503.719C235.103,505.167 236.724,505.925 238.379,505.649C239.999,505.374 241.309,504.132 241.619,502.512C242.861,496.168 253.307,491.134 255.342,490.996C258.927,490.755 262.341,490.514 264.685,488.169C268.478,484.377 289.095,484.135 289.095,484.135C289.095,484.135 291.543,484.239 295.301,484.997C296.025,485.377 296.784,485.687 297.439,486.135C298.094,486.549 298.783,486.79 299.576,486.756C300.025,486.756 306.955,489.548 307.506,490.203C308.541,491.41 320.229,497.892 321.573,498.616C322.366,499.03 329.193,508.097 330.158,508.097C331.744,510.442 332.33,509.787 332.365,507.408C336.812,504.787 340.777,498.961 342.329,492.72C343.846,486.514 342.949,480.619 339.674,475.654C339.502,475.378 339.26,475.137 339.019,474.895C338.329,474.275 336.536,472.827 334.399,471.172C331.537,468.896 326.71,465.138 325.745,464C322.814,460.656 321.401,457.036 319.987,452.899C321.125,452.83 322.159,452.278 322.849,451.416C323.607,450.485 323.883,449.244 323.607,448.072L323.09,445.796C322.263,442.314 321.366,438.349 320.608,434.005L320.573,433.798C320.746,433.832 320.884,433.832 321.056,433.832L321.125,433.832C323.297,433.832 325.09,432.074 325.09,429.868C325.09,429.143 324.883,428.454 324.538,427.833L320.16,415.973C320.539,416.421 320.849,416.766 320.987,416.904C322.056,418.042 324.676,419.972 326.159,419.455C327.641,418.938 327.676,416.042 327.814,414.49C328.434,406.561 334.468,398.562 340.984,393.873C341.363,394.942 341.708,395.666 341.812,395.838C342.501,397.148 342.57,400.044 344.053,400.044L344.122,400.044C345.639,400.01 346.776,397.941 348.914,395.7C351.638,392.873 353.948,390.391 356.809,389.563L370.497,395.08C371.324,397.527 373.014,401.527 375.979,403.906C378.53,405.974 381.047,407.56 385.564,410.422C386.046,410.732 386.564,411.043 387.081,411.387C386.667,411.594 386.219,411.801 385.702,411.974C384.15,412.525 379.668,414.008 379.634,415.697C379.634,417.352 384.081,418.835 385.667,419.421C388.701,420.559 392.046,421.145 395.321,421.145C402.044,421.145 407.94,418.731 411.525,414.525C414.456,411.077 415.594,406.699 414.766,401.872C414.18,398.286 412.732,389.391 412.284,386.529L415.973,374.393C416.111,374.014 416.145,373.6 416.145,373.221C416.111,367.463 414.491,361.085 411.284,354.155L411.146,353.706C411.008,353.224 410.767,352.81 410.457,352.431C410.284,352.086 410.112,351.741 409.974,351.465C409.112,349.569 408.043,347.673 406.699,345.639C396.872,329.469 382.943,316.298 382.323,315.746C381.151,314.643 378.806,312.712 377.324,313.367C375.876,314.057 375.565,317.229 375.634,318.849L375.703,319.711C374.738,317.436 371.083,313.643 370.29,312.437C368.532,309.782 367.222,307.093 366.739,305.162C378.53,250.653 414.559,214.382 414.904,214.037C415.559,213.382 415.973,212.52 416.042,211.624C423.834,133.67 512.89,99.33 513.786,98.985C514.131,98.847 516.441,98.123 516.717,97.917C519.889,95.572 520.371,93.779 520.13,92.986L520.13,92.986ZM317.85,432.66C317.953,432.729 318.091,432.764 318.194,432.833L316.47,433.108L317.85,432.66Z" style="fill:white;fill-rule:nonzero;"/>
                    <g id="g12470">
                        <path id="path1194" d="M407.629,355.568C407.492,355.12 407.388,354.879 407.388,354.879C407.388,354.879 407.423,355.051 407.492,355.327C407.147,354.568 406.767,353.81 406.388,353.051C405.526,351.121 404.457,349.362 403.354,347.638C393.7,331.744 379.668,318.574 379.668,318.574L379.875,322.435L379.944,322.47L380.358,328.503C380.358,328.503 335.088,302.231 315.815,277.993C300.852,259.203 283.613,238.723 273.408,213.555L269.65,207.521C256.617,192.006 242.999,194.937 213.244,160.494C203.039,148.668 191.765,125.43 188.179,110.053C180.628,77.575 181.973,40.58 190.006,8.344C190.006,8.344 193.764,-2.655 173.181,30.065C162.872,46.441 155.632,65.094 152.184,84.125C150.426,93.848 149.633,103.64 149.943,113.294C142.944,99.365 137.359,84.194 133.498,68.542C128.429,47.924 126.464,26.513 128.533,6.034C128.533,6.034 124.913,2.482 112.397,35.926C99.882,69.369 97.917,97.917 103.64,129.877C80.643,110.397 75.437,74.679 67.783,46.441C67.783,46.441 67.749,46.441 67.749,46.476C67.68,46.545 67.576,46.648 67.473,46.89C67.197,47.441 66.783,48.682 66.542,51.303C66.542,53.337 66.301,55.371 66.301,57.405C64.921,71.541 63.611,109.984 83.333,150.185C83.746,151.116 84.16,152.081 84.574,153.012C87.366,158.908 90.676,164.252 93.71,169.561C98.71,178.353 102.571,180.525 108.191,188.283C107.605,188.214 73.748,181.077 61.37,179.249C68.852,184.145 82.574,196.626 98.192,211.245C98.192,211.245 144.875,215.003 181.559,242.102C181.559,242.102 149.805,226.587 111.708,223.932C113.949,226.036 116.19,228.173 118.431,230.276C129.291,240.482 140.221,250.687 149.909,259.238L149.771,259.238L122.223,256.514L161.804,288.544L168.906,288.785C168.906,288.785 182.214,288.337 195.385,291.302C209.417,294.474 216.899,299.025 216.899,299.025C209.038,296.37 196.006,295.956 188.145,296.473C182.525,296.853 178.87,298.404 174.802,298.956L177.112,300.818L202.108,320.918L224.346,321.504C205.556,333.192 187.11,337.812 163.493,329.882C150.943,325.676 138.773,319.091 128.429,310.747C132.601,321.022 142.324,329.813 149.874,337.605C124.982,335.675 104.916,329.917 82.16,319.505C90.849,333.02 97.779,342.191 104.674,349.397C111.57,356.568 121.086,364.36 125.843,367.222C128.878,369.049 142.772,368.945 151.978,368.084C153.701,367.911 155.287,367.739 156.598,367.497C158.701,367.153 161.355,366.567 164.148,365.946C173.595,363.774 185.007,360.567 184.387,360.981C180.284,363.67 175.802,366.291 171.078,368.704C168.285,370.152 165.424,371.497 162.493,372.772C149.254,378.461 134.842,381.978 121.672,380.323C136.394,385.564 151.771,389.425 167.355,390.873C172.733,391.39 174.664,391.321 179.318,389.149C186.283,385.943 192.006,383.288 197.557,380.633C200.35,379.289 203.142,377.91 205.97,376.496C209.866,374.531 213.865,372.428 218.313,369.945C215.727,372.359 213.141,374.634 210.486,376.875C209.004,378.117 207.487,379.392 205.935,380.633C200.557,385.047 194.799,389.598 188.248,395.355C205.832,396.597 216.003,399.493 239.378,392.183C239.378,392.183 234.586,395.769 227.897,399.665L234.827,413.249L227.311,409.87L232.242,419.11C232.242,419.11 235.758,423.455 240.758,427.109L242.447,432.557C238.585,431.419 233.621,427.282 231.173,425.627C235.069,441.314 244.412,438.246 247.101,447.761C248.929,454.174 255.721,465.69 251.859,471.792C247.343,478.998 244.378,478.481 238.034,484.204C230.656,490.824 236.344,499.099 237.861,501.753C239.378,493.996 245.171,488.962 248.412,487.997C253.549,486.48 259.72,487.652 261.996,485.377C270.132,477.274 287.613,475.206 299.68,482.791C294.094,473.758 291.198,474.033 280.062,470.792C299.749,472.103 301.024,476.378 310.678,487.618C311.471,481.239 306.162,473.102 301.645,469.241C300.231,468.034 284.613,465.828 269.408,464.518C264.064,464.069 261.927,457.174 261.134,453.485C262.065,454.002 266.374,456.277 270.546,456.208C269.477,450.864 267.995,444.762 267.133,441.107C268.615,441.797 270.167,442.728 273.546,442.866L271.339,433.867C270.305,426.696 267.96,421.489 274.856,410.526C278.648,413.215 280.338,414.353 282.062,416.283C282.062,416.283 283.475,423.144 285.061,426.799C285.372,427.489 292.129,433.281 292.371,433.97L280.717,430.592C280.717,430.592 284.613,439.452 292.302,444.555C296.853,446.175 300.921,448.003 302.266,449.761C303.645,451.623 305.955,456.588 304.852,459.242C303.99,461.415 297.784,452.209 284.717,463.173C293.612,463.311 304.3,465.759 306.61,468.482C309.609,471.999 311.713,475.206 313.885,476.516C323.366,482.205 324.021,485.17 323.263,496.34C329.124,491.824 327.469,480.033 326.607,477.171C334.364,486.48 332.675,499.133 330.296,504.098C336.123,500.857 343.191,487.997 336.502,477.826C334.709,476.171 324.849,468.827 322.918,466.621C317.987,461.001 316.746,454.622 314.298,448.175C316.022,448.244 318.16,448.968 319.884,448.934C319.022,445.107 317.781,440.142 316.85,434.66C316.746,434.177 316.677,433.66 316.608,433.177C316.574,432.97 316.539,432.764 316.505,432.557C316.367,431.729 316.264,430.936 316.16,430.074C316.126,429.868 316.126,429.661 316.091,429.488C315.988,428.661 315.884,427.799 315.815,426.937C319.022,428.971 321.228,429.868 321.228,429.868L315.746,415.008L315.746,414.973C315.85,413.835 315.988,412.732 316.16,411.594C316.16,411.525 316.195,411.456 316.195,411.387C316.367,410.353 316.574,409.353 316.815,408.353C316.85,408.181 316.884,408.009 316.919,407.871C317.16,406.94 317.436,406.043 317.712,405.113C317.781,404.906 317.85,404.664 317.919,404.457C318.298,403.354 318.746,402.285 319.229,401.217C316.746,406.526 324.021,414.215 324.021,414.215C324.952,402.458 335.468,391.459 344.294,387.494C343.811,390.77 345.501,394.045 345.501,394.045C348.121,388.494 353.431,386.288 357.258,385.426L364.394,388.287L371.98,391.321L373.945,392.114C373.945,392.114 375.324,398.148 378.668,400.837C381.909,403.458 385.253,405.354 393.287,410.526C392.701,412.525 390.873,414.387 387.253,415.697C398.7,419.972 413.111,414.835 411.043,402.561C410.319,398.217 408.422,386.253 408.422,386.253L408.422,386.219L411.112,377.392L411.905,374.772L412.008,374.496L412.387,373.29C412.215,367.497 410.388,361.464 407.629,355.568L407.629,355.568ZM367.015,373.703L360.947,362.774L345.432,354.948L358.119,369.67C351.431,365.842 340.053,359.809 327.71,357.499C327.71,357.499 338.191,367.291 343.191,372.186C344.156,372.807 344.328,373.29 344.328,373.29C343.984,372.979 343.604,372.566 343.191,372.186C341.708,371.221 338.364,369.945 330.71,369.497C323.607,368.773 315.16,366.911 307.506,362.602C307.506,362.602 309.023,364.843 312.161,367.532C312.195,367.566 312.264,367.601 312.299,367.635L312.333,367.67C315.264,370.152 319.573,373.014 325.4,374.91C325.848,375.048 331.675,377.461 332.123,377.599C327.952,379.254 324.435,381.289 321.504,383.53C315.85,387.908 312.333,393.149 310.23,398.527C306.61,407.802 303.266,424.523 305.851,434.039C297.818,423.248 290.716,409.353 294.646,393.597C282.407,400.493 274.546,398.252 266.064,397.01C262.134,402.285 256.962,414.939 256.307,425.799C255.583,424.661 254.928,423.42 254.307,422.11C251.135,415.387 249.515,407.664 249.136,400.251C248.963,397.286 248.963,394.459 249.205,391.839L249.205,391.804L277.166,371.979L236.482,368.566C237.137,368.049 237.861,367.566 238.551,367.084C254.204,356.051 273.511,348.466 292.922,349.328C294.439,349.397 295.922,349.5 297.404,349.672C284.923,342.673 262.996,343.018 249.998,347.087C232.345,352.603 225.346,352.913 206.487,349.603C226.311,345.57 225.587,345.052 237.344,339.502C246.998,334.089 265.34,324.124 288.475,328.365C282.82,325.883 277.959,323.538 271.063,321.918C264.34,320.366 253.376,318.884 241.62,321.401C241.62,321.401 249.618,312.85 264.547,310.747C244.171,292.371 184.007,263.582 184.007,263.582C269.409,283.751 305.748,323.849 311.161,330.33C311.54,330.606 311.885,330.917 312.23,331.192C309.023,323.883 290.061,279.683 238.137,247.343C230.931,242.861 223.002,239.689 215.658,235.448C203.935,228.621 193.109,221.071 183.249,212.831L183.283,213.003C86.677,136.221 122.637,30.651 122.637,30.651C119.534,55.164 123.671,79.126 130.774,100.468C135.29,114.018 140.979,126.499 146.771,137.359C153.253,149.564 159.873,159.701 165.045,167.01C177.077,181.697 191.351,194.247 207.866,203.315C207.866,203.315 134.946,153.667 176.388,47.821C174.767,52.337 146.116,137.187 253.825,211.038C255.893,212.417 257.41,212.382 258.031,213.899C272.374,248.412 327.572,303.334 337.847,329.779C337.398,324.366 336.916,318.987 336.468,313.574C342.639,320.194 347.466,328.434 350.017,337.157C350.465,331.813 350.948,323.711 351.396,318.401C360.326,323.297 373.565,333.537 384.46,345.328C384.46,345.328 384.323,345.19 384.15,345.018C383.771,344.604 383.392,344.191 383.081,343.846C383.254,344.018 383.426,344.191 383.564,344.363C383.667,344.466 383.736,344.535 383.805,344.639C383.943,344.777 384.081,344.915 384.15,345.018C384.254,345.121 384.323,345.225 384.46,345.328L383.978,337.502L383.736,333.847C383.736,333.847 400.217,354.12 405.837,369.807C406.147,370.704 406.423,371.566 406.699,372.428C406.595,376.841 405.974,379.806 405.25,381.737C404.63,383.392 402.113,386.15 401.561,386.564C401.148,386.874 400.906,386.943 400.906,386.943C401.665,386.357 401.837,384.909 401.872,383.598C401.872,381.944 401.527,380.22 400.906,378.22C400.32,376.358 399.631,374.6 399.044,373.221C398.424,371.738 397.941,370.738 397.941,370.738C398.286,374.393 398.114,377.048 397.7,378.978C397.7,379.047 397.7,379.116 397.665,379.151C396.838,382.805 395.183,383.736 394.735,383.943C394.666,383.978 394.631,383.978 394.597,383.978C394.459,383.392 394.355,382.84 394.218,382.323C393.769,381.013 393.252,379.703 392.735,378.427C390.873,373.772 384.047,360.878 381.806,356.361C379.875,359.119 382.461,365.498 382.461,365.498C383.323,367.187 385.357,371.497 385.357,371.497C383.461,375.807 386.253,380.564 390.046,382.392C388.977,382.874 385.46,382.357 382.978,380.909C383.909,382.771 387.219,387.253 388.874,388.529C384.012,387.391 373.014,378.668 367.015,373.703L367.015,373.703ZM391.735,406.147L386.977,402.285L383.564,399.527L382.702,396.907L382.495,396.217L381.323,392.632L381.288,392.528C385.115,394.769 388.15,398.872 390.115,402.113C390.528,402.803 392.666,406.905 392.666,406.905L391.735,406.147ZM406.492,408.94C405.044,410.767 402.734,412.387 400.286,413.456C397.562,414.663 394.666,415.215 392.459,414.663C392.528,414.628 392.563,414.594 392.632,414.594C392.873,414.49 393.08,414.353 393.287,414.249C393.459,414.18 393.631,414.077 393.769,414.008C399.286,410.594 396.321,404.147 390.563,397.562L390.46,397.527L377.324,386.115L376.6,385.495L376.393,385.322L376.531,385.288L376.944,385.15L377.048,385.115L377.53,384.943L379.496,386.046L386.184,389.804L386.667,390.08L389.632,391.735L392.839,393.562L392.942,393.562C395.942,392.873 399.355,392.011 399.838,391.873C402.079,391.287 403.354,390.632 404.044,390.115C404.147,390.597 409.802,404.733 406.492,408.939L406.492,408.94Z" style="fill:rgb(0,85,165);fill-rule:nonzero;"/>
                        <path id="path1196" d="M475.55,91.676L476.205,91.745C457.794,92.848 439.59,98.192 424.42,107.812C436.901,83.47 464.518,66.99 488.928,57.336C488.928,57.336 491.962,52.647 462.449,57.061C458.622,57.474 454.829,58.129 451.037,58.957C450.968,58.957 450.933,58.957 450.864,58.991L450.933,58.991C434.729,62.577 419.317,69.783 406.319,80.023C398.976,85.815 392.39,92.573 386.839,100.192C361.981,133.256 353.568,162.183 353.568,162.183C353.568,162.183 349.983,119.5 404.526,63.198C410.526,53.165 417.283,43.58 424.73,34.857C424.73,34.857 425.972,28.479 395.114,51.923C372.773,67.542 353.293,88.021 339.226,110.915C334.158,119.948 323.366,140.255 320.229,153.701C320.263,154.081 320.297,154.494 320.297,154.908C320.297,154.908 320.642,162.976 322.125,173.664C323.918,186.593 329.227,204.487 329.227,204.487C325.607,197.109 319.16,180.87 317.022,173.388C315.988,169.734 315.126,166.286 314.436,162.941C313.988,160.873 313.643,158.908 313.299,156.942C313.126,155.908 312.954,154.805 312.781,153.701C312.506,151.943 312.264,150.185 312.057,148.495C311.368,142.22 311.092,136.325 311.023,130.395C310.92,122.534 311.23,115.466 311.609,110.329C297.439,142.841 296.094,167.872 296.06,177.87C295.336,184.249 294.991,189.041 294.715,193.04C298.404,203.487 304.92,217.416 316.608,235.069C316.608,235.069 306.093,229.208 293.715,207.59C293.233,212.348 292.336,217.795 290.44,226.242C304.472,250.067 318.539,268.374 331.227,282.372L331.227,253.928C335.778,258.479 338.915,262.03 341.088,264.754C343.122,255.514 345.949,244.447 349.914,232.655C374.634,159.114 403.94,136.704 403.94,136.704C376.979,178.836 352.224,264.03 353.258,303.817C358.464,308.265 363.153,311.85 367.015,314.574C364.912,311.437 363.153,307.851 362.705,305.058C374.703,248.205 412.146,211.141 412.146,211.141C420.283,129.705 512.441,95.193 512.441,95.193C519.958,89.711 475.55,91.676 475.55,91.676L475.55,91.676Z" style="fill:rgb(0,85,165);fill-rule:nonzero;"/>
                    </g>
                </g>
                <path id="path1192" d="M314.402,162.907C313.574,158.908 312.678,153.977 312.023,148.426C312.54,152.977 313.299,157.77 314.402,162.907Z" style="fill:white;fill-rule:nonzero;"/>
                <g id="g13128">
                    <path id="path1148" d="M50.785,420.352C46.303,420.352 45.717,423.799 45.717,423.799L45.717,427.73L28.203,444.314L28.203,458.691L33.547,460.691L33.547,469.104L28.203,471.482L28.203,483.549L33.547,485.549L33.547,574.742L60.039,569.609C60.037,569.658 59.99,571.123 59.99,571.123L178.318,594.393L178.318,630.941L386.736,630.941L386.736,594.326L504.719,571.123C504.719,571.123 504.656,569.281 504.652,569.199L533.266,574.742L533.266,485.549L538.609,483.549L538.609,471.482L533.266,469.104L533.266,460.691L538.609,458.691L538.609,444.314L521.096,427.73L521.096,423.799C521.096,423.799 520.509,420.352 516.027,420.352L510.855,420.352C510.855,420.352 506.822,420.937 506.822,423.799L506.822,427.453L488.893,444.383L489.066,458.76L494.41,460.656L494.41,469.033L488.963,471.379L488.963,477.207C449.952,524.603 390.874,552.997 386.736,554.945L386.736,535.816L344.115,535.816C340.581,505.412 314.44,481.791 282.717,481.791C250.993,481.791 224.853,505.412 221.318,535.816L178.318,535.816L178.318,554.025C175.824,552.761 117.465,522.901 77.85,475.779L77.85,471.379L72.576,469.107C72.519,469.034 72.459,468.962 72.402,468.889L72.402,460.656L77.748,458.76L77.92,444.383L59.99,427.453L59.99,423.799C59.99,420.937 55.957,420.352 55.957,420.352L50.785,420.352Z" style="fill:white;fill-rule:nonzero;"/>
                    <g id="g12296">
                        <path id="path1240" d="M77.299,544.471L77.299,514.683C82.126,518.406 86.642,521.716 90.952,524.716L90.952,538.3L97.917,538.3L97.917,529.473C127.843,549.264 142.669,551.332 142.669,551.332C122.499,541.023 108.087,530.922 97.917,522.302L97.917,504.719C133.153,534.99 164.941,551.194 178.318,557.297L178.318,565.365C178.318,565.365 124.671,565.641 123.361,565.365C107.708,562.02 91.952,561.779 77.299,563.227" style="fill:rgb(228,228,228);fill-rule:nonzero;"/>
                        <path id="path1252" d="M90.952,515.993L90.952,498.444L77.299,484.653L77.299,500.099C79.161,502.995 83.298,508.649 90.952,515.993Z" style="fill:rgb(228,228,228);fill-rule:nonzero;"/>
                        <path id="path1198" d="M489.376,560.745L489.376,514.683C484.549,518.406 480.033,521.716 475.723,524.716L475.723,538.3L468.758,538.3L468.758,529.473C438.832,549.264 424.006,551.332 424.006,551.332C444.176,541.023 458.587,530.922 468.758,522.302L468.758,504.719C431.971,536.335 398.941,552.608 386.701,558.021L386.701,565.33L449.761,565.33C462.345,563.227 475.826,562.227 489.341,562.813" style="fill:rgb(228,228,228);fill-rule:nonzero;"/>
                        <path id="path1254" d="M489.376,500.099C487.514,502.995 483.377,508.649 475.723,515.993L475.723,498.409L489.376,484.618L489.376,500.099Z" style="fill:rgb(228,228,228);fill-rule:nonzero;"/>
                    </g>
                    <g id="g11899">
                        <path id="path1260" d="M63.956,478.24C65.99,478.619 67.955,479.102 69.817,479.688L69.817,505.994C67.955,505.408 65.99,504.925 63.956,504.546L63.956,478.24Z" style="fill:rgb(183,183,183);fill-rule:nonzero;"/>
                        <path id="path1262" d="M60.543,504.029C58.647,503.788 56.681,503.65 54.682,503.581L54.682,477.274C55.647,477.309 56.612,477.343 57.543,477.412C58.543,477.481 59.577,477.585 60.543,477.722L60.543,504.029Z" style="fill:rgb(183,183,183);fill-rule:nonzero;"/>
                        <path id="path1264" d="M45.373,504.029C47.269,503.788 49.234,503.65 51.268,503.581L51.268,477.274C49.269,477.343 47.303,477.481 45.373,477.722L45.373,504.029Z" style="fill:rgb(183,183,183);fill-rule:nonzero;"/>
                        <path id="path1266" d="M36.098,506.029C37.96,505.443 39.925,504.96 41.959,504.581L41.959,478.274C39.925,478.653 37.96,479.136 36.098,479.722L36.098,506.029Z" style="fill:rgb(183,183,183);fill-rule:nonzero;"/>
                        <path id="path1268" d="M30.789,456.864C32.064,456.277 33.374,455.76 34.788,455.278L34.788,458.449L30.789,456.864Z" style="fill:rgb(183,183,183);fill-rule:nonzero;"/>
                        <path id="path1270" d="M51.268,466.104C49.269,466.173 47.303,466.31 45.373,466.552L45.373,452.864C47.269,452.623 49.234,452.485 51.268,452.416L51.268,466.104Z" style="fill:rgb(183,183,183);fill-rule:nonzero;"/>
                        <path id="path1272" d="M60.543,452.83C58.647,452.588 56.681,452.45 54.682,452.381L54.682,466.069C56.681,466.138 58.647,466.276 60.543,466.517L60.543,452.83Z" style="fill:rgb(183,183,183);fill-rule:nonzero;"/>
                        <path id="path1274" d="M63.956,453.381C65.99,453.761 67.955,454.243 69.817,454.829L69.817,468.517C67.955,467.931 65.99,467.448 63.956,467.069L63.956,453.381Z" style="fill:rgb(183,183,183);fill-rule:nonzero;"/>
                        <path id="path1276" d="M41.959,467.069C39.925,467.448 37.96,467.931 36.098,468.517L36.098,454.829C37.96,454.243 39.925,453.761 41.959,453.381L41.959,467.069Z" style="fill:rgb(183,183,183);fill-rule:nonzero;"/>
                        <path id="path1278" d="M71.127,455.243C72.541,455.726 73.886,456.277 75.161,456.864L71.127,458.415L71.127,455.243Z" style="fill:rgb(183,183,183);fill-rule:nonzero;"/>
                        <path id="path1280" d="M30.789,481.722C32.064,481.136 33.374,480.619 34.788,480.136L34.788,483.308L30.789,481.722Z" style="fill:rgb(183,183,183);fill-rule:nonzero;"/>
                        <path id="path1282" d="M71.127,480.136C72.541,480.619 73.886,481.17 75.161,481.756L71.127,483.308L71.127,480.136Z" style="fill:rgb(183,183,183);fill-rule:nonzero;"/>
                        <path id="path1284" d="M75.196,447.968C69.093,445.141 61.37,443.452 52.992,443.452C44.614,443.452 36.926,445.141 30.823,447.934L30.823,453.657C36.926,450.83 44.614,449.175 52.992,449.175C61.405,449.175 69.128,450.864 75.23,453.692L75.196,447.968Z" style="fill:rgb(183,183,183);fill-rule:nonzero;"/>
                        <path id="path1286" d="M75.196,473.068C69.093,470.241 61.37,468.551 52.992,468.551C44.614,468.551 36.926,470.241 30.823,473.034L30.823,478.757C36.926,475.93 44.614,474.275 52.992,474.275C61.405,474.275 69.128,475.964 75.23,478.791L75.196,473.068Z" style="fill:rgb(183,183,183);fill-rule:nonzero;"/>
                        <path id="path1288" d="M75.196,445.451C69.093,442.624 61.37,440.935 52.992,440.935C44.614,440.935 36.926,442.624 30.823,445.417L48.407,428.626C49.889,428.523 51.441,428.454 52.992,428.454C54.544,428.454 56.061,428.523 57.543,428.626L75.196,445.451Z" style="fill:rgb(183,183,183);fill-rule:nonzero;"/>
                        <path id="path1290" d="M48.407,423.972L48.407,426.73C49.889,426.627 51.441,426.558 52.992,426.558C54.544,426.558 56.061,426.627 57.543,426.73L57.543,423.972C57.543,422.938 55.268,422.903 54.682,422.869C54.13,422.869 53.544,422.834 52.992,422.834C52.406,422.834 51.854,422.834 51.268,422.869C50.648,422.903 48.407,422.869 48.407,423.972Z" style="fill:rgb(183,183,183);fill-rule:nonzero;"/>
                        <path id="path1292" d="M69.817,534.542C67.955,533.956 65.99,533.473 63.956,533.094L63.956,507.477C65.99,507.856 67.955,508.339 69.817,508.925L69.817,534.542Z" style="fill:rgb(183,183,183);fill-rule:nonzero;"/>
                        <path id="path1294" d="M60.543,532.576C58.647,532.335 56.681,532.197 54.682,532.128L54.682,506.511C56.681,506.58 58.647,506.718 60.543,506.96L60.543,532.576Z" style="fill:rgb(183,183,183);fill-rule:nonzero;"/>
                        <path id="path1296" d="M51.268,532.128C49.269,532.197 47.303,532.335 45.373,532.576L45.373,506.96C47.269,506.718 49.234,506.58 51.268,506.511L51.268,532.128Z" style="fill:rgb(183,183,183);fill-rule:nonzero;"/>
                        <path id="path1298" d="M41.959,533.094C39.925,533.473 37.96,533.956 36.098,534.542L36.098,508.925C37.96,508.339 39.925,507.856 41.959,507.477L41.959,533.094Z" style="fill:rgb(183,183,183);fill-rule:nonzero;"/>
                        <path id="path2780" d="M41.925,569.709C39.925,570.261 37.96,570.847 36.098,571.433L36.098,537.679C36.098,537.679 39.925,536.61 41.959,536.231L41.959,556.228L41.925,569.709Z" style="fill:rgb(183,183,183);fill-rule:nonzero;"/>
                        <path id="path2778" d="M51.303,567.295C49.269,567.778 47.269,568.261 45.304,568.778C45.304,567.364 45.338,555.47 45.338,555.47L45.338,535.714C45.338,535.714 49.2,535.335 51.234,535.266L51.303,555.47L51.303,567.295Z" style="fill:rgb(183,183,183);fill-rule:nonzero;"/>
                        <path id="path2776" d="M60.543,535.679C58.647,535.438 54.682,535.231 54.682,535.231L54.682,555.435C54.682,555.435 54.647,564.848 54.647,566.502C56.578,566.089 58.509,565.675 60.508,565.296L60.543,535.679Z" style="fill:rgb(183,183,183);fill-rule:nonzero;"/>
                        <path id="path2774" d="M69.817,554.573L69.817,537.679C67.955,537.093 63.956,536.231 63.956,536.231L63.956,554.608L63.922,564.744C63.922,564.744 67.818,564.124 69.783,563.813L69.817,554.573Z" style="fill:rgb(183,183,183);fill-rule:nonzero;"/>
                    </g>
                    <g id="g12324">
                        <path id="path1200" d="M432.419,569.019C422.558,571.571 413.594,574.743 406.043,578.19L406.043,569.019L432.419,569.019Z" style="fill:rgb(183,183,183);fill-rule:nonzero;"/>
                        <path id="path1202" d="M353.189,607.634C350.741,608.738 346.328,610.668 344.501,611.427L344.535,602.083L344.535,582.879L353.189,582.879L353.189,602.083L353.189,607.634Z" style="fill:rgb(183,183,183);fill-rule:nonzero;"/>
                        <rect id="rect1204" x="344.535" y="557.745" width="8.654" height="21.721" style="fill:rgb(183,183,183);"/>
                        <path id="path1206" d="M383.219,589.706L383.219,582.914L375.496,582.914L375.496,595.981C378.048,594.498 380.633,592.947 383.254,591.395L383.219,589.706Z" style="fill:rgb(183,183,183);fill-rule:nonzero;"/>
                        <rect id="rect1208" x="375.496" y="557.745" width="7.723" height="21.721" style="fill:rgb(183,183,183);"/>
                        <path id="path1210" d="M362.602,603.083L362.602,582.914L356.637,582.914L356.637,606.083C358.637,605.117 360.602,604.118 362.602,603.083Z" style="fill:rgb(183,183,183);fill-rule:nonzero;"/>
                        <rect id="rect1212" x="356.637" y="557.745" width="5.965" height="21.721" style="fill:rgb(183,183,183);"/>
                        <rect id="rect1214" x="366.015" y="557.745" width="5.965" height="21.721" style="fill:rgb(183,183,183);"/>
                        <path id="path1216" d="M371.945,598.015L371.945,582.914L365.98,582.914L365.98,601.29C367.946,600.222 369.945,599.153 371.945,598.015Z" style="fill:rgb(183,183,183);fill-rule:nonzero;"/>
                        <rect id="rect1218" x="344.535" y="539.265" width="38.753" height="14.998" style="fill:rgb(183,183,183);"/>
                        <path id="path1220" d="M190.282,592.085C187.455,590.706 184.628,589.327 181.766,587.948L181.766,582.914L190.282,582.914L190.282,592.085Z" style="fill:rgb(183,183,183);fill-rule:nonzero;"/>
                        <rect id="rect1222" x="181.766" y="557.745" width="8.654" height="21.721" style="fill:rgb(183,183,183);"/>
                        <path id="path1224" d="M212.52,602.842C215.141,604.083 217.761,605.29 220.381,606.462L220.45,589.603L220.45,582.914L212.52,582.914L212.52,589.603L212.52,602.842Z" style="fill:rgb(183,183,183);fill-rule:nonzero;"/>
                        <rect id="rect1226" x="212.693" y="557.745" width="7.757" height="21.721" style="fill:rgb(183,183,183);"/>
                        <rect id="rect1228" x="193.73" y="557.745" width="5.93" height="21.721" style="fill:rgb(183,183,183);"/>
                        <rect id="rect1230" x="203.246" y="557.745" width="5.861" height="21.721" style="fill:rgb(183,183,183);"/>
                        <rect id="rect1232" x="181.766" y="539.265" width="38.753" height="14.998" style="fill:rgb(183,183,183);"/>
                        <path id="path1234" d="M203.142,598.36C204.935,599.222 207.211,600.429 209.107,601.359L209.107,582.914L203.142,582.914L203.142,598.36Z" style="fill:rgb(183,183,183);fill-rule:nonzero;"/>
                        <path id="path1236" d="M172.354,583.5C174.354,584.431 176.319,585.362 178.318,586.293L178.318,569.054L172.354,569.054L172.354,583.5Z" style="fill:rgb(183,183,183);fill-rule:nonzero;"/>
                        <path id="path1238" d="M193.73,593.74C194.075,593.912 194.385,594.05 194.73,594.223C196.385,595.05 198.04,595.843 199.695,596.636L199.695,582.914L193.764,582.914L193.764,592.119L193.73,593.74Z" style="fill:rgb(183,183,183);fill-rule:nonzero;"/>
                        <path id="path1242" d="M159.494,577.949C151.978,574.846 141.876,570.778 136.29,568.881L159.494,568.881L159.494,577.949Z" style="fill:rgb(183,183,183);fill-rule:nonzero;"/>
                        <path id="path1244" d="M162.941,579.363L162.941,569.054L168.906,569.054L168.906,581.914C168.32,581.638 166.079,580.673 162.941,579.363Z" style="fill:rgb(183,183,183);fill-rule:nonzero;"/>
                        <path id="path1246" d="M393.252,585.189L393.252,569.054L386.736,569.054L386.736,589.292C388.908,587.948 391.08,586.603 393.252,585.189Z" style="fill:rgb(183,183,183);fill-rule:nonzero;"/>
                        <path id="path1248" d="M402.665,578.19L402.665,569.054L396.7,569.054L396.7,578.19L396.769,583.017C398.596,581.948 400.562,580.88 402.665,579.845L402.665,578.19L402.665,578.19Z" style="fill:rgb(183,183,183);fill-rule:nonzero;"/>
                        <path id="path1250" d="M341.122,554.297L341.122,543.678C341.122,511.304 314.885,485.066 282.51,485.066C250.135,485.066 223.898,511.304 223.898,543.678L223.898,554.297L233.896,554.297C233.276,551.125 232.931,547.885 232.931,544.54C232.931,517.337 254.997,495.272 282.2,495.272C309.403,495.272 331.468,517.337 331.468,544.54C331.468,547.885 331.123,551.16 330.503,554.332L341.122,554.297Z" style="fill:rgb(183,183,183);fill-rule:nonzero;"/>
                        <path id="path1342" d="M329.606,557.814C323.814,578.57 304.748,593.774 282.165,593.774C259.548,593.774 240.516,578.535 234.724,557.78L223.898,557.745L223.898,598.222L223.863,607.979C244.205,616.805 264.582,623.287 286.716,623.287L287.164,623.287C306.472,623.218 323.849,619.495 341.053,612.84L341.156,557.676L329.606,557.814Z" style="fill:rgb(183,183,183);fill-rule:nonzero;"/>
                    </g>
                    <g id="g1477">
                        <path id="path1344" d="M263.237,561.331C271.167,565.675 278.752,567.675 283.751,568.606C283.855,568.606 283.958,568.64 284.027,568.64C284.372,568.64 284.717,568.502 284.992,568.295C285.337,568.02 285.578,567.606 285.578,567.123C285.923,558.676 284.027,551.194 283.234,548.367C283.096,547.954 282.82,547.574 282.407,547.402C272.305,542.506 264.133,537.162 258.134,531.439C253.721,527.267 250.549,523.026 248.653,518.785C248.412,518.268 247.929,517.923 247.377,517.855C246.826,517.786 246.274,518.061 245.964,518.51C242.619,523.302 240.171,528.853 238.896,534.576C238.827,534.921 238.861,535.266 238.999,535.576C243.998,546.609 252.17,555.263 263.237,561.331L263.237,561.331Z" style="fill:rgb(238,46,36);fill-rule:nonzero;"/>
                        <path id="path1346" d="M260.203,528.991C260.513,529.267 260.892,529.405 261.272,529.405L261.41,529.405C261.858,529.37 262.272,529.129 262.547,528.784C274.339,512.89 287.233,506.96 295.991,504.822C296.68,504.65 297.163,504.063 297.197,503.374C297.232,502.684 296.784,502.029 296.129,501.822C291.681,500.374 287.061,499.65 282.338,499.65C276.338,499.65 270.512,500.857 264.926,503.201C259.617,505.443 254.893,508.649 250.859,512.717C250.48,513.097 250.308,513.648 250.446,514.2C251.066,516.82 253.169,522.268 260.203,528.991Z" style="fill:rgb(238,46,36);fill-rule:nonzero;"/>
                        <path id="path1348" d="M264.823,531.059C264.34,531.749 264.444,532.714 265.133,533.232C269.995,537.024 275.925,540.644 282.786,544.058C282.993,544.161 283.234,544.23 283.475,544.23C283.924,544.23 284.372,544.023 284.648,543.678C288.75,538.92 300.404,527.543 319.918,524.543C320.435,524.474 320.884,524.129 321.09,523.681C321.297,523.233 321.297,522.681 321.056,522.233C317.608,516.165 312.747,510.924 306.955,507.097C306.713,506.925 306.437,506.856 306.127,506.822C304.369,506.787 297.749,506.891 289.337,510.58C280.062,514.614 271.822,521.509 264.823,531.059L264.823,531.059Z" style="fill:rgb(238,46,36);fill-rule:nonzero;"/>
                        <path id="path1350" d="M323.918,528.37C323.642,527.681 322.987,527.267 322.263,527.37C318.815,527.784 315.402,528.508 312.161,529.542C311.747,529.68 311.437,529.956 311.23,530.301C311.057,530.68 310.989,531.094 311.126,531.508C312.264,535.059 314.264,542.265 314.609,550.746C314.816,556.125 314.367,561.262 313.23,565.985C312.471,569.123 311.402,572.157 310.058,574.984C309.747,575.674 309.92,576.467 310.54,576.915C310.816,577.122 311.161,577.225 311.471,577.225C311.85,577.225 312.23,577.087 312.54,576.811C317.367,572.364 321.09,566.985 323.573,560.814C327.814,550.436 327.917,538.886 323.918,528.37Z" style="fill:rgb(238,46,36);fill-rule:nonzero;"/>
                        <path id="path1352" d="M284.613,572.467C284.372,572.122 284.027,571.881 283.613,571.812C278.752,570.916 271.27,569.019 263.306,564.917C253.859,560.055 246.274,553.401 240.758,545.195C240.378,544.609 239.62,544.368 238.965,544.575C238.31,544.816 237.861,545.437 237.896,546.126C238.103,551.436 239.275,556.642 241.378,561.607C244.481,568.95 249.515,575.294 255.928,580.018C262.065,584.534 269.305,587.396 276.89,588.361L277.097,588.361C277.545,588.361 277.959,588.154 278.269,587.81C281.579,583.983 283.82,579.225 284.889,573.639C284.923,573.226 284.854,572.812 284.613,572.467Z" style="fill:rgb(238,46,36);fill-rule:nonzero;"/>
                        <path id="path1354" d="M308.23,532.783C308.092,532.37 307.782,532.025 307.368,531.818C306.955,531.646 306.506,531.646 306.093,531.818C295.474,536.576 288.957,543.437 286.647,546.195C286.303,546.609 286.199,547.161 286.337,547.643C287.199,550.574 288.681,556.607 288.854,563.744C288.957,568.226 288.509,572.433 287.544,576.26C286.613,579.914 285.199,583.259 283.303,586.224C282.993,586.706 282.993,587.361 283.268,587.879C283.544,588.361 284.061,588.637 284.613,588.637L284.717,588.637C289.199,588.396 293.646,587.43 297.99,585.775C298.197,585.707 298.37,585.603 298.508,585.465C303.128,581.155 306.541,575.984 308.713,570.088C310.54,565.158 311.471,559.676 311.54,553.78C311.609,544.644 309.506,536.714 308.23,532.783L308.23,532.783Z" style="fill:rgb(238,46,36);fill-rule:nonzero;"/>
                    </g>
                    <g id="g1485">
                        <path id="path1256" d="M272.684,600.842C271.098,600.842 270.029,601.877 270.029,603.669C270.029,605.393 270.891,606.324 272.684,606.324C273.787,606.324 274.753,605.979 275.718,605.255L275.718,605.152C275.683,602.394 274.477,600.842 272.684,600.842Z" style="fill:rgb(183,183,183);fill-rule:nonzero;"/>
                        <path id="path1258" d="M287.475,600.911C285.441,600.911 284.303,602.876 284.303,606.462C284.303,610.048 285.441,612.013 287.475,612.013C289.509,612.013 290.612,610.048 290.612,606.462C290.612,602.876 289.543,600.911 287.475,600.911Z" style="fill:rgb(183,183,183);fill-rule:nonzero;"/>
                        <path id="path1356" d="M264.616,614.771L264.616,601.532L261.306,602.807L260.961,600.394L264.961,598.532L267.685,598.532L267.685,614.771L264.616,614.771Z" style="fill:white;fill-rule:nonzero;"/>
                        <path id="path1358" d="M271.201,602.532C271.201,599.946 273.442,598.222 276.683,598.222C279.993,598.222 282.027,599.98 282.027,602.325C282.027,604.014 280.958,605.29 279.373,606.221C281.407,607.221 282.544,608.324 282.544,610.496C282.544,613.116 280.269,615.082 276.58,615.082C272.684,615.082 270.615,613.013 270.615,610.565C270.615,608.738 271.856,607.29 273.753,606.255C272.236,605.462 271.201,604.359 271.201,602.532ZM273.58,610.358C273.58,611.91 274.89,612.806 276.683,612.806C278.407,612.806 279.648,611.91 279.648,610.496C279.648,609.013 278.717,608.393 275.925,607.255C274.511,608.014 273.58,609.082 273.58,610.358ZM279.2,602.497C279.2,601.256 278.235,600.463 276.614,600.463C274.959,600.463 274.063,601.359 274.063,602.497C274.063,603.704 274.925,604.359 277.235,605.29C278.476,604.531 279.2,603.635 279.2,602.497Z" style="fill:white;fill-rule:nonzero;"/>
                        <path id="path1360" d="M291.612,604.669C294.405,604.669 296.404,606.462 296.404,609.6C296.404,612.875 293.922,615.082 290.612,615.082C287.095,615.082 284.579,612.703 284.579,608.22C284.579,602.497 288.406,599.394 293.646,598.222L294.026,600.773C290.854,601.532 288.302,602.98 287.578,605.876C288.75,605.152 290.026,604.669 291.612,604.669ZM290.647,612.703C292.336,612.703 293.474,611.599 293.474,609.772C293.474,608.014 292.577,607.048 290.647,607.048C289.474,607.048 288.406,607.462 287.406,608.22C287.44,611.082 288.75,612.703 290.647,612.703Z" style="fill:white;fill-rule:nonzero;"/>
                        <path id="path1362" d="M300.921,614.771L300.921,601.532L297.611,602.807L297.266,600.394L301.266,598.532L303.99,598.532L303.99,614.771L300.921,614.771Z" style="fill:white;fill-rule:nonzero;"/>
                    </g>
                    <g id="g12011" transform="matrix(-1,0,0,1,566.761,0)">
                        <path id="path11963" d="M63.956,478.24C65.99,478.619 67.955,479.102 69.817,479.688L69.817,505.994C67.955,505.408 65.99,504.925 63.956,504.546L63.956,478.24Z" style="fill:rgb(183,183,183);fill-rule:nonzero;"/>
                        <path id="path11965" d="M60.543,504.029C58.647,503.788 56.681,503.65 54.682,503.581L54.682,477.274C55.647,477.309 56.612,477.343 57.543,477.412C58.543,477.481 59.577,477.585 60.543,477.722L60.543,504.029Z" style="fill:rgb(183,183,183);fill-rule:nonzero;"/>
                        <path id="path11967" d="M45.373,504.029C47.269,503.788 49.234,503.65 51.268,503.581L51.268,477.274C49.269,477.343 47.303,477.481 45.373,477.722L45.373,504.029Z" style="fill:rgb(183,183,183);fill-rule:nonzero;"/>
                        <path id="path11969" d="M36.098,506.029C37.96,505.443 39.925,504.96 41.959,504.581L41.959,478.274C39.925,478.653 37.96,479.136 36.098,479.722L36.098,506.029Z" style="fill:rgb(183,183,183);fill-rule:nonzero;"/>
                        <path id="path11971" d="M30.789,456.864C32.064,456.277 33.374,455.76 34.788,455.278L34.788,458.449L30.789,456.864Z" style="fill:rgb(183,183,183);fill-rule:nonzero;"/>
                        <path id="path11973" d="M51.268,466.104C49.269,466.173 47.303,466.31 45.373,466.552L45.373,452.864C47.269,452.623 49.234,452.485 51.268,452.416L51.268,466.104Z" style="fill:rgb(183,183,183);fill-rule:nonzero;"/>
                        <path id="path11975" d="M60.543,452.83C58.647,452.588 56.681,452.45 54.682,452.381L54.682,466.069C56.681,466.138 58.647,466.276 60.543,466.517L60.543,452.83Z" style="fill:rgb(183,183,183);fill-rule:nonzero;"/>
                        <path id="path11977" d="M63.956,453.381C65.99,453.761 67.955,454.243 69.817,454.829L69.817,468.517C67.955,467.931 65.99,467.448 63.956,467.069L63.956,453.381Z" style="fill:rgb(183,183,183);fill-rule:nonzero;"/>
                        <path id="path11979" d="M41.959,467.069C39.925,467.448 37.96,467.931 36.098,468.517L36.098,454.829C37.96,454.243 39.925,453.761 41.959,453.381L41.959,467.069Z" style="fill:rgb(183,183,183);fill-rule:nonzero;"/>
                        <path id="path11981" d="M71.127,455.243C72.541,455.726 73.886,456.277 75.161,456.864L71.127,458.415L71.127,455.243Z" style="fill:rgb(183,183,183);fill-rule:nonzero;"/>
                        <path id="path11983" d="M30.789,481.722C32.064,481.136 33.374,480.619 34.788,480.136L34.788,483.308L30.789,481.722Z" style="fill:rgb(183,183,183);fill-rule:nonzero;"/>
                        <path id="path11985" d="M71.127,480.136C72.541,480.619 73.886,481.17 75.161,481.756L71.127,483.308L71.127,480.136Z" style="fill:rgb(183,183,183);fill-rule:nonzero;"/>
                        <path id="path11987" d="M75.196,447.968C69.093,445.141 61.37,443.452 52.992,443.452C44.614,443.452 36.926,445.141 30.823,447.934L30.823,453.657C36.926,450.83 44.614,449.175 52.992,449.175C61.405,449.175 69.128,450.864 75.23,453.692L75.196,447.968Z" style="fill:rgb(183,183,183);fill-rule:nonzero;"/>
                        <path id="path11989" d="M75.196,473.068C69.093,470.241 61.37,468.551 52.992,468.551C44.614,468.551 36.926,470.241 30.823,473.034L30.823,478.757C36.926,475.93 44.614,474.275 52.992,474.275C61.405,474.275 69.128,475.964 75.23,478.791L75.196,473.068Z" style="fill:rgb(183,183,183);fill-rule:nonzero;"/>
                        <path id="path11991" d="M75.196,445.451C69.093,442.624 61.37,440.935 52.992,440.935C44.614,440.935 36.926,442.624 30.823,445.417L48.407,428.626C49.889,428.523 51.441,428.454 52.992,428.454C54.544,428.454 56.061,428.523 57.543,428.626L75.196,445.451Z" style="fill:rgb(183,183,183);fill-rule:nonzero;"/>
                        <path id="path11993" d="M48.407,423.972L48.407,426.73C49.889,426.627 51.441,426.558 52.992,426.558C54.544,426.558 56.061,426.627 57.543,426.73L57.543,423.972C57.543,422.938 55.268,422.903 54.682,422.869C54.13,422.869 53.544,422.834 52.992,422.834C52.406,422.834 51.854,422.834 51.268,422.869C50.648,422.903 48.407,422.869 48.407,423.972Z" style="fill:rgb(183,183,183);fill-rule:nonzero;"/>
                        <path id="path11995" d="M69.817,534.542C67.955,533.956 65.99,533.473 63.956,533.094L63.956,507.477C65.99,507.856 67.955,508.339 69.817,508.925L69.817,534.542Z" style="fill:rgb(183,183,183);fill-rule:nonzero;"/>
                        <path id="path11997" d="M60.543,532.576C58.647,532.335 56.681,532.197 54.682,532.128L54.682,506.511C56.681,506.58 58.647,506.718 60.543,506.96L60.543,532.576Z" style="fill:rgb(183,183,183);fill-rule:nonzero;"/>
                        <path id="path11999" d="M51.268,532.128C49.269,532.197 47.303,532.335 45.373,532.576L45.373,506.96C47.269,506.718 49.234,506.58 51.268,506.511L51.268,532.128Z" style="fill:rgb(183,183,183);fill-rule:nonzero;"/>
                        <path id="path12001" d="M41.959,533.094C39.925,533.473 37.96,533.956 36.098,534.542L36.098,508.925C37.96,508.339 39.925,507.856 41.959,507.477L41.959,533.094Z" style="fill:rgb(183,183,183);fill-rule:nonzero;"/>
                        <path id="path12003" d="M41.925,569.709C39.925,570.261 37.96,570.847 36.098,571.433L36.098,537.679C36.098,537.679 39.925,536.61 41.959,536.231L41.959,556.228L41.925,569.709Z" style="fill:rgb(183,183,183);fill-rule:nonzero;"/>
                        <path id="path12005" d="M51.303,567.295C49.269,567.778 47.269,568.261 45.304,568.778C45.304,567.364 45.338,555.47 45.338,555.47L45.338,535.714C45.338,535.714 49.2,535.335 51.234,535.266L51.303,555.47L51.303,567.295Z" style="fill:rgb(183,183,183);fill-rule:nonzero;"/>
                        <path id="path12007" d="M60.543,535.679C58.647,535.438 54.682,535.231 54.682,535.231L54.682,555.435C54.682,555.435 54.647,564.848 54.647,566.502C56.578,566.089 58.509,565.675 60.508,565.296L60.543,535.679Z" style="fill:rgb(183,183,183);fill-rule:nonzero;"/>
                        <path id="path12009" d="M69.817,554.573L69.817,537.679C67.955,537.093 63.956,536.231 63.956,536.231L63.956,554.608L63.922,564.744C63.922,564.744 67.818,564.124 69.783,563.813L69.817,554.573Z" style="fill:rgb(183,183,183);fill-rule:nonzero;"/>
                    </g>
                </g>
                <g id="g15166">
                    <path id="path13484" d="M91.498,562.396C47.961,562.993 10.344,581.009 8.275,582.018L0,586.051L6.586,592.498C6.793,592.67 25.755,611.565 27.203,645.629C27.376,649.766 29.167,653.214 32.305,655.627C38.855,660.592 49.44,659.144 53.164,658.42L53.543,673.486L62.99,668.004C65.128,666.763 70.611,666.212 76.059,667.35C77.024,667.556 78.024,667.832 79.023,668.107C83.609,669.349 89.298,670.9 93.918,667.521C95.814,666.108 98.123,663.384 98.398,658.178C98.605,654.213 97.054,650.629 94.055,648.043C93.367,647.455 92.589,646.943 91.762,646.475C90.199,644.811 87.752,642.095 85.816,639.406C97.756,639.396 111.515,641.172 126.844,646.318C145.6,652.628 161.597,661.212 177.043,669.486C206.246,685.139 233.931,700 277.27,700C281.166,700 285.165,699.862 289.406,699.586C335.779,696.828 368.497,680.659 397.32,666.385C409.422,660.42 420.869,654.766 432.66,650.318C433.522,650.008 434.521,649.593 435.693,649.145C444.075,645.848 460.072,639.59 478.561,638.908C478.364,639.116 478.111,639.278 477.963,639.525C475.17,644.214 468.551,650.559 468.551,650.559L468.594,650.561C466.459,652.869 465.242,655.785 465.242,659.041C465.242,664.247 467.448,667.109 469.275,668.592C473.723,672.178 479.482,670.9 484.102,669.9C485.136,669.659 486.169,669.419 487.135,669.281C492.651,668.385 498.064,669.246 500.133,670.557L509.338,676.486L510.408,661.453C514.304,662.384 524.681,664.28 531.369,659.66C534.61,657.385 536.541,654.042 536.92,649.904C540.023,615.702 558.4,593.947 558.572,593.74L563.227,588.361L557.436,584.225C506.236,547.609 425.212,564.606 394.217,584.361C356.74,608.289 325.677,623.15 286.82,623.322L286.371,623.322C253.686,623.322 224.864,609.187 194.352,594.258C176.044,585.294 157.114,576.018 135.91,568.881C121.18,563.933 106.01,562.198 91.498,562.397L91.498,562.396Z" style="fill:white;fill-rule:nonzero;"/>
                    <path id="path1182" d="M397.734,589.809C358.671,614.737 326.883,629.597 286.889,629.769C232.828,629.976 190.937,594.154 133.911,574.984C76.851,555.814 11.171,587.81 11.171,587.81C11.171,587.81 32.133,608.289 33.719,645.284C33.719,645.284 71.817,620.46 128.878,639.595C185.938,658.765 215.485,696.966 288.923,692.553C352.844,688.726 389.218,659.109 430.281,643.664C443.038,638.871 489.997,617.047 530.646,647.87C534.369,611.806 553.711,589.396 553.711,589.396C505.098,554.711 426.454,571.502 397.734,589.809Z" style="fill:rgb(0,85,165);fill-rule:nonzero;"/>
                    <g id="g2620">
                        <path id="path1521" d="M512.959,623.011C510.269,623.218 507.925,621.253 507.718,618.564C507.511,615.875 509.476,613.53 512.166,613.323C514.855,613.116 517.199,615.082 517.406,617.771C517.648,620.46 515.648,622.805 512.959,623.011Z" style="fill:white;fill-rule:nonzero;"/>
                        <path id="path1519" d="M505.374,595.567C503.684,593.912 501.684,592.602 498.995,592.326C494.272,591.809 490.824,595.016 490.169,600.877C489.514,606.841 492.479,610.634 497.271,611.151C499.65,611.427 501.891,610.806 504.477,609.669L504.891,618.047C501.96,619.15 498.926,619.702 494.892,619.288C484.411,618.15 478.86,610.772 480.033,599.842C481.17,589.223 488.548,582.81 499.202,583.948C502.684,584.327 505.443,585.327 507.753,586.844L505.374,595.567Z" style="fill:white;fill-rule:nonzero;"/>
                        <path id="path1517" d="M473.206,618.15C470.517,618.357 468.172,616.392 467.965,613.702C467.758,611.013 469.724,608.669 472.413,608.462C475.102,608.255 477.447,610.22 477.654,612.909C477.86,615.599 475.861,617.943 473.206,618.15Z" style="fill:white;fill-rule:nonzero;"/>
                        <path id="path1515" d="M458.863,620.357L448.934,622.425L441.866,588.672L463.207,584.19L464.931,592.395L453.519,594.774L454.657,600.222L462.863,598.498L465.931,606.393L456.346,608.393L458.863,620.357Z" style="fill:white;fill-rule:nonzero;"/>
                        <path id="path1513" d="M414.525,635.872L401.492,603.945L422.558,595.36L425.592,602.807L413.801,607.634L415.663,612.22L424.592,608.565L428.764,615.461L418.662,619.564L420.731,624.666L432.936,619.667L435.97,627.114L414.525,635.872Z" style="fill:white;fill-rule:nonzero;"/>
                        <path id="path1511" d="M402.251,642.491C392.77,647.111 384.15,643.801 379.323,633.906C374.634,624.287 377.496,614.944 387.115,610.255C390.253,608.738 393.149,608.117 395.873,608.152L398.527,616.805C396.217,616.323 393.804,616.254 391.39,617.46C387.115,619.529 385.874,624.08 388.46,629.39C391.08,634.803 395.597,636.423 399.941,634.32C402.113,633.286 403.664,631.562 405.25,629.217L410.043,636.113C408.147,638.63 405.906,640.733 402.251,642.491Z" style="fill:white;fill-rule:nonzero;"/>
                        <path id="path1509" d="M360.705,623.633L350.258,628.355L353.672,664.832L362.705,660.764L361.877,654.766L371.773,650.318L376.117,655.109L384.875,649.352L360.705,623.633ZM359.154,635.561L366.463,644.215L360.67,646.836L359.154,635.561Z" style="fill:white;fill-rule:nonzero;"/>
                        <path id="path1507" d="M329.158,672.556L318.953,639.595L328.745,636.561L336.364,661.213L345.673,658.317L349.569,666.212L329.158,672.556Z" style="fill:white;fill-rule:nonzero;"/>
                        <path id="path1505" d="M306.127,641.975L294.783,643.525L287.682,679.486L297.508,678.141L298.404,672.176L309.162,670.693L311.988,676.521L322.021,673.521L306.127,641.975ZM301.301,652.938L305.852,663.35L299.541,664.213L301.301,652.938Z" style="fill:white;fill-rule:nonzero;"/>
                        <path id="path1503" d="M260.479,644.111L259.307,678.59L269.512,678.934L269.857,668.592L271.443,668.66C280.132,668.936 286.062,664.936 286.338,656.799C286.614,648.869 281.303,644.836 272.408,644.525L260.479,644.111ZM270.305,651.904L271.547,651.937C274.96,652.041 276.648,653.592 276.545,656.592C276.441,659.867 274.546,661.281 271.133,661.178L269.994,661.145L270.305,651.904Z" style="fill:white;fill-rule:nonzero;"/>
                        <path id="path1501" d="M239.999,675.211L219.657,668.625L230.242,635.803L239.999,638.94L232.069,663.488L241.344,666.488L239.999,675.211Z" style="fill:white;fill-rule:nonzero;"/>
                        <path id="path1499" d="M208.797,625.252L182.594,650.869L191.42,655.316L195.557,650.904L205.246,655.766L204.279,662.143L214.244,665.35L219.037,630.389L208.797,625.252ZM208.832,636.631L206.693,647.766L201.004,644.904L208.832,636.631Z" style="fill:white;fill-rule:nonzero;"/>
                        <path id="path1497" d="M167.561,642.491L179.629,619.46L171.423,615.15L175.353,607.634L199.936,620.495L197.212,628.666L188.662,624.184L176.595,647.215L167.561,642.491Z" style="fill:white;fill-rule:nonzero;"/>
                        <path id="path1495" d="M156.977,613.185C163.148,618.667 165.079,622.46 162.838,627.666C159.632,635.148 152.943,635.665 146.53,632.906C141.876,630.907 138.531,628.355 135.566,625.218L140.221,618.15C143.151,621.598 146.565,624.459 149.702,625.804C151.529,626.597 153.012,626.459 153.598,625.08C154.184,623.735 153.667,622.77 150.012,619.391C144.53,614.323 142.496,610.944 144.875,605.393C147.668,598.877 154.15,597.808 160.425,600.463C165.01,602.428 167.492,604.393 169.975,607.221L165.32,614.254C162.769,611.048 159.907,608.738 157.528,607.703C155.667,606.91 154.46,607.152 153.977,608.255C153.46,609.496 153.908,610.462 156.977,613.185Z" style="fill:white;fill-rule:nonzero;"/>
                        <path id="path1493" d="M125.843,624.666L115.948,621.977L119.12,610.289L113.328,586.568L124.189,588.12L126.981,602.601L136.497,591.809L146.771,594.602L129.05,612.772L125.843,624.666Z" style="fill:white;fill-rule:nonzero;"/>
                        <path id="path1491" d="M81.988,583.432L79.92,617.875L90.055,618.494L90.711,607.807L92.262,607.91L97.951,619.322L108.811,618.322L101.881,605.979C105.88,604.22 108.191,601.049 108.467,596.395C108.915,589.016 104.053,584.742 95.158,584.225L81.988,583.432ZM91.643,591.498L93.676,591.637C96.951,591.809 98.71,593.534 98.572,596.43C98.4,599.498 96.503,601.084 93.193,600.877L91.09,600.738L91.643,591.498Z" style="fill:white;fill-rule:nonzero;"/>
                        <path id="path1489" d="M66.094,620.391C55.716,622.356 48.269,616.909 46.2,606.117C44.2,595.602 49.406,587.327 59.922,585.327C63.37,584.672 66.301,584.81 68.921,585.603L69.231,594.671C67.128,593.602 64.818,592.912 62.163,593.43C57.509,594.326 55.13,598.394 56.233,604.187C57.371,610.082 61.301,612.84 66.025,611.944C68.369,611.496 70.334,610.255 72.472,608.427L75.299,616.323C72.817,618.185 70.093,619.633 66.094,620.391Z" style="fill:white;fill-rule:nonzero;"/>
                    </g>
                    <path id="path1186" d="M91.379,566.178C48.842,566.806 12.008,584.449 9.965,585.432L6.516,587.121L9.24,589.775C9.447,589.982 29.479,609.911 30.996,645.457C31.134,648.457 32.374,650.903 34.615,652.627C40.683,657.247 52.165,654.799 53.406,654.523C54.475,654.317 55.647,654.111 56.854,653.904L57.164,667.039L61.094,664.764C64.3,662.902 70.921,662.454 76.816,663.695C77.851,663.902 78.919,664.212 79.988,664.488C84.16,665.626 88.471,666.798 91.643,664.488C93.435,663.178 94.434,661.006 94.572,658.041C94.69,655.656 93.903,653.548 92.354,651.838L92.469,651.697C85.09,645.662 80.474,639.712 78.014,636.021C92.057,635.033 108.961,636.321 128.051,642.732C147.117,649.145 163.252,657.799 178.836,666.143C207.59,681.554 234.861,696.174 277.338,696.174C281.13,696.174 285.062,696.07 289.096,695.863C334.71,693.14 367.014,677.14 395.527,663.039C407.698,657.005 419.215,651.317 431.213,646.801C432.075,646.456 433.073,646.077 434.211,645.629C444.041,641.748 463.954,633.911 486.414,635.105C484.921,638.915 481.372,645.355 473.145,651.693C472.906,651.848 472.631,651.974 472.412,652.145C472.247,652.274 472.129,652.432 471.975,652.568C471.948,652.588 471.923,652.607 471.897,652.627L471.905,652.637C470.056,654.313 469.033,656.494 469.033,659.074C469.033,662.04 469.931,664.281 471.655,665.66C474.723,668.108 479.068,667.142 483.309,666.211C484.412,665.97 485.515,665.729 486.549,665.557C492.479,664.592 499.064,665.351 502.201,667.385L506.03,669.832L506.926,656.662C508.098,656.938 509.235,657.18 510.27,657.455C511.545,657.835 522.923,660.798 529.197,656.489C531.507,654.903 532.853,652.491 533.129,649.526C536.37,614.014 555.539,591.43 555.711,591.223L557.643,588.983L555.229,587.258C506.649,552.539 427.178,568.71 396.32,587.5C356.395,611.841 324.158,626.942 286.854,627.08L286.406,627.08C252.859,627.08 223.657,612.772 192.73,597.637C174.526,588.741 155.701,579.5 134.738,572.467C120.37,567.649 105.558,565.968 91.379,566.178ZM96.311,571.725C108.492,571.901 120.99,573.596 133.049,577.639C153.666,584.569 172.318,593.705 190.385,602.531C221.863,617.943 251.653,632.527 286.406,632.527L286.889,632.527C329.606,632.355 365.773,612.496 399.113,592.154C428.385,574.295 502.961,558.849 549.781,590.086C544.949,596.507 532.365,615.703 528.52,643.768C490.317,617.832 448.386,634.26 432.246,640.629C431.143,641.077 430.177,641.457 429.35,641.768C417.11,646.353 405.457,652.11 393.148,658.213C363.739,672.762 333.296,687.83 288.785,690.484C240.93,693.346 212.003,677.831 181.387,661.42C165.596,652.938 149.255,644.182 129.74,637.631C81.412,621.406 47.017,635.761 36.146,641.455C33.937,613.492 21.227,595.474 15.652,588.844C26.073,584.344 59.766,571.196 96.311,571.725ZM491.955,635.623C503.676,637.039 515.888,641.146 527.615,649.664C527.393,650.704 526.963,651.536 526.129,652.111C522.578,654.559 514.303,653.042 511.648,652.318C509.494,651.78 495.314,648.383 483.945,648.979C488.695,643.606 490.928,638.686 491.955,635.623ZM71.99,636.59C73.293,638.802 75.839,642.679 79.955,647.23C68.656,646.14 54.481,648.821 52.268,649.283C49.647,649.904 41.338,651.007 37.891,648.387C37.448,648.043 37.123,647.626 36.879,647.146C41.06,644.845 53.475,638.865 71.99,636.59ZM77.492,652.344C82.127,652.556 85.994,653.338 87.986,654.979C88.037,655.021 88.09,655.065 88.141,655.107C88.953,655.819 89.329,656.659 89.262,657.766C89.193,658.972 88.918,659.834 88.539,660.109C87.436,660.868 83.987,659.938 81.436,659.248C80.263,658.938 79.091,658.626 77.953,658.385C75.643,657.902 72.851,657.559 69.955,657.559C67.369,657.559 64.749,657.833 62.404,658.488L62.268,653.111C67.319,652.491 72.79,652.128 77.492,652.344ZM486.342,654.18C491.065,654.18 496.582,654.8 501.615,655.662L501.236,661.041C496.237,659.421 490.101,659.489 485.688,660.213C484.55,660.385 483.377,660.627 482.17,660.902C479.619,661.489 476.103,662.247 475.068,661.42C474.689,661.11 474.482,660.248 474.482,659.041C474.482,658.01 474.843,657.271 475.523,656.633C475.777,656.445 476.029,656.256 476.275,656.068C478.381,654.723 482.014,654.18 486.342,654.18Z" style="fill:rgb(238,46,36);fill-rule:nonzero;"/>
                </g>
            </g>
        </g>
    </g>
</svg>
